<?xml version="1.0" encoding="utf-8"?>
<!-- Generator: Adobe Illustrator 26.0.3, SVG Export Plug-In . SVG Version: 6.00 Build 0)  -->
<svg version="1.1" id="Слой_1" xmlns="http://www.w3.org/2000/svg" xmlns:xlink="http://www.w3.org/1999/xlink" x="0px" y="0px"
	 viewBox="0 0 595.3 841.9" style="enable-background:new 0 0 595.3 841.9;" xml:space="preserve">
<style type="text/css">
	.st0{fill:#A3966A;stroke:#472D1C;stroke-width:4;stroke-miterlimit:10;}
	.st1{fill:#472D1C;stroke:#472D1C;stroke-width:7;stroke-miterlimit:10;}
	.st2{fill:#472D1C;stroke:#472D1C;stroke-width:6;stroke-miterlimit:10;}
	.st3{fill:#472D1C;}
</style>
<path class="st0" d="M204.9,261.4c7.7-9.6,16.2-22.2,33.1-33.1c5.3-3.4,10-5.8,13.2-7.2c-0.3-3-0.5-7.9,1.1-13.6
	c1.8-6.6,5.1-11.2,7.1-13.6c3.3,2.7,8.3,7.6,12.3,14.9c3.8,7,5.3,13.4,5.8,17.5c5.1,2.3,12.3,6.4,18.8,13.6c2.4,2.7,4.3,5.3,5.8,7.8
	c4.4-0.9,11.3-1.8,19.5-0.6c7.3,1,13.1,3.3,16.9,5.2c-1.5,2.4-4.7,6.9-10.4,10.4c-5.6,3.4-10.9,4.3-13.6,4.5
	c-5.1,9.6-13.2,23.1-26,37c-10.7,11.6-30.9,33.4-65.6,45.5c-34,11.8-63.9,8.1-79.6,4.8c-25.5-5.4-44.1-16.2-54.8-23.6
	c39.3-7.5,63.6-22.4,77.9-33.8C193,276.1,204.9,261.4,204.9,261.4z"/>
<circle class="st1" cx="265.1" cy="253" r="1.1"/>
<circle class="st2" cx="287.9" cy="268.5" r="1.1"/>
<g>
	<g>
		<path class="st3" d="M260.7,265.1c-5.8-1.6-8,5.9-5.8,10.2c1.2,2.4,3.9,3.9,6.6,3.9c2.5,0,4.8-1.4,6.2-3.5
			c0.9-1.3-1.3-2.6-2.2-1.3c-1.4,2.1-2,4.8-1,7.2c1,2.3,3.3,4.1,5.7,4.8c2.6,0.7,5.3,0,6.8-2.3c1-1.4,1.4-3.3,1.4-4.9
			c0-1.6-2.5-1.6-2.5,0c0,1-0.2,2.1-0.7,3.1c-0.9,1.7-2.5,2.2-4.3,1.7c-1.7-0.5-3.5-1.8-4.1-3.4c-0.7-1.6,0-3.5,0.9-4.9
			c-0.7-0.4-1.4-0.8-2.2-1.3c-1.9,2.9-6.5,3-8.3-0.2c-1.3-2.2-0.7-7.7,2.9-6.7C261.6,267.9,262.3,265.5,260.7,265.1L260.7,265.1z"/>
	</g>
</g>
</svg>
