<?xml version="1.0" encoding="utf-8"?>
<!-- Generator: Adobe Illustrator 26.0.3, SVG Export Plug-In . SVG Version: 6.00 Build 0)  -->
<svg version="1.1" id="Слой_1" xmlns="http://www.w3.org/2000/svg" xmlns:xlink="http://www.w3.org/1999/xlink" x="0px" y="0px"
	 viewBox="0 0 200 200" style="enable-background:new 0 0 200 200;" xml:space="preserve">
<style type="text/css">
	.st0{fill:#7C5226;}
	.st1{fill:#895D2C;}
	.st2{fill:#FFE006;}
	.st3{fill:#472D1C;}
	.st4{fill:#936334;}
	.st5{fill:#BC863F;}
	.st6{fill:#C89242;}
	.st7{fill:#A3966A;}
	.st8{fill:#FFFFFF;}
	.st9{fill:none;stroke:#472D1C;stroke-width:1.25;stroke-miterlimit:10;}
	.st10{fill:#D8A159;}
	.st11{fill:none;stroke:#472D1C;stroke-width:0.9;stroke-miterlimit:10;}
	.st12{fill:none;stroke:#895D2C;stroke-miterlimit:10;}
	.st13{fill:none;stroke:#895D2C;stroke-width:0.75;stroke-miterlimit:10;}
	.st14{fill:none;stroke:#895D2C;stroke-width:0.25;stroke-miterlimit:10;}
	.st15{fill:none;stroke:#895D2C;stroke-width:0.5;stroke-miterlimit:10;}
	.st16{fill:none;stroke:#472D1C;stroke-miterlimit:10;}
	.st17{fill:#FFFFFF;stroke:#FFFFFF;stroke-miterlimit:10;}
	.st18{fill:#7C5226;stroke:#895D2C;stroke-miterlimit:10;}
</style>
<g>
	<g>
		<g id="XMLID_00000181789037758601118630000007307674952649447327_">
			<g>
				<path class="st0" d="M637.7-107.5c5,13.5,1.9,31.2-7,44.5C628.6-60,619.4-47,602-41.7c-6.6,2-12.4,2.3-16.4,2.2
					c0.7-0.5,1.3-1.1,2-1.6l0.9,0.2c3.9-1.2,7.2-3.7,10.4-6.1c8.6-6.6,17.4-13.4,23.7-22.2c8.9-12.4,12.3-28.7,9.1-43.6l-0.4,0
					c0.2-3-0.3-5.1,0.2-5.2C632.6-118.5,636-112.1,637.7-107.5z"/>
				<path class="st1" d="M601.4-63.5c0.2-0.8,0.4-1.7,0.6-2.5c2.1-8.2,5.5-13.6,8.5-17.2c5-6.1,12.7-11.6,17.4-19.7
					c1.3-2.3,3-5.2,3.4-9.3c0-0.2,0-0.5,0.1-0.7l0.4,0c3.2,15-0.2,31.2-9.1,43.6c-6.3,8.8-15.1,15.6-23.7,22.2
					c-3.2,2.5-6.5,5-10.4,6.1l-0.9-0.2c3.4-3,6.9-6.9,9.8-12C597.9-54.1,599.9-57.8,601.4-63.5z"/>
				<path class="st0" d="M585.6-39.4c-4.5,3.5-8.5,5.3-9.9,5.9c-15,6.5-28.5,2.6-31.9,1.5c0-0.1,0.2-0.4,0.1-0.9l0.1,0
					c3.3,0.3,26.5,2.2,38.8-13c5.5-6.8,7.5-15.3,8.6-20.5c2.3-10.4,1.6-18.8,1.1-23.5c-2.9-28-21.9-62-24.9-67.3l-0.5-0.1
					c0.5-4.4,0.4-8.2-0.1-11.2l0.3-0.1c6.8,13.3,13.5,27.7,20,43.1c2.5,6,9.8,18.8,13.9,35.8c1.2,4.7,2.3,10.5,1.7,17.8
					c-0.2,2.1-0.5,4-0.9,5.8c-0.2,0.8-0.4,1.7-0.6,2.5c-1.5,5.6-3.5,9.4-4,10.4c-2.8,5.1-6.3,9.1-9.8,12
					C586.9-40.5,586.2-39.9,585.6-39.4z"/>
				<path class="st1" d="M568.2-94.5c-2.6,4.8-5.5,7.9-7.7,9.9c-4.6,4.2-8,5-11.5,9.5c-2.6,3.3-3.8,6.8-4.3,9.3l0.3,0.1
					c1.8-2.6,3.7-5.2,6-7.3c3.7-3.5,8.4-6,11.6-9.9C565.3-86.3,566.8-90.5,568.2-94.5L568.2-94.5z M504.1-174.4
					c0.6-0.7,1.3-1.2,2.1-1.6c0.5-0.2,0.9-0.4,1.3-0.7c0.4-0.3,0.6-0.9,0.4-1.3c-0.1-0.3-0.5-0.4-0.8-0.6c-1-0.4-2-0.5-3-0.3
					c-0.3,0.1-0.6,0.1-0.8,0.4c-0.1,0.2-0.1,0.5-0.1,0.8c0.1,0.9,0.3,1.8,0.6,2.7L504.1-174.4z M498.3-89.3l-0.2,0.1
					c0.1,2.5,0.6,6.3,2.3,10.4c1.2,3,2.8,5.4,4.1,7.1l0.5-0.1C503.6-77.9,501.4-83.8,498.3-89.3z M567-157.2l0.5,0.1
					c3,5.3,22,39.3,24.9,67.3c0.5,4.7,1.3,13.1-1.1,23.5c-1.2,5.1-3.1,13.7-8.6,20.5c-12.3,15.1-35.5,13.3-38.8,13l-0.1,0
					c0.1,0.5,0,0.8-0.1,0.9c-0.2,0.4-0.5,0.6-0.8,0.8c-4.5,3.1-10.6,3.6-15.5,1.2c-1.2-0.6-2.4-1.5-2.9-2.8c-0.2-0.5-0.2-1-0.2-1.3
					c0-0.4,0-0.8,0.1-1c0.4-2.3,2.3-11.8,5.1-25l-0.4-0.1c-2.7-1.1-5.7-1.9-8.5-1c-0.3,0.1-0.7,0.3-1,0.5c0,3.4,0.4,6.2,0.7,8.2
					c0.3,1.6,0.5,2.8,2.2,9.9c0.9,4.1,1.5,6.7,1.5,8.4c0,0.7-0.1,1.1-0.3,1.5c-1.7,2.9-6.2,3.2-9.7,3.4c-3,0.2-7.9,0.5-10-1.8l0,0
					c-6,0.5-17,0.7-28.9-4.6c-5.5-2.4-16.3-7.2-22.5-18.8c-3-5.6-3.8-10.7-4.2-13.3c-1.7-11.8,1.7-21.4,4.4-28.5
					c8.4-21.7,18.7-41,24.9-52c-2.6-9.7-3.6-17.1-2.9-21.1c0.6-3.4,1.7-6.3,1.7-6.3c1.8-4.5,4.2-7.4,6.8-10.5c1.7-2,4.1-4.6,7.4-7.2
					l0.2,0.1c3.8-0.6,7.2-2.8,9.4-5.9c0,0,0,0,0,0c0,0,0,0,0,0c-0.9-1.8-1.9-3.6-2.9-5.5c-2.2-3.8-4.4-7.2-6.6-10.2l0.3-0.5
					c2.4,1.5,5,3.4,7.8,5.6c3,2.5,5.4,5,7.4,7.2c4-1.3,9.5-2.6,16.2-2.8c5.3-0.2,9.9,0.4,13.5,1.1c1.9-1.5,3.4-3.4,5.2-4.9
					c1-0.8,2-1.4,3.1-2.1c1.3-0.8,2.7-1.7,4-2.5c1.5-0.9,2.9-1.8,4.5-2.4c-4.2,5.2-7.6,11.1-10.1,17.4l-0.1,0
					c-0.1,0.9,0.7,1.6,1.5,2.2c1.8,1.3,3.6,2.6,5.7,3.4c2.1,0.8,4.5,0.9,6.4,0c0.1,0,0.1-0.1,0.1-0.1l0.2,0c0,0.2,0,0.4-0.1,0.7
					l0.3,0.1c1.7,2.7,4.1,6.8,6.4,12c0.9,1.9,1.8,4,2.5,6.3c0.5,1.5,1,3.4,1.3,5.8C567.4-165.4,567.6-161.6,567-157.2z M533.1-180.3
					c-0.1-0.4-0.2-0.9-0.4-1.5c-0.5-1.5-1.3-3.7-3.3-5.2c-1.6-1.2-3.3-1.3-4.2-1.3c-0.6-0.1-2.6-0.1-4.7,0.9c-0.8,0.4-2.1,1-3.1,2.4
					c-1.4,2-1.3,4.2-1.3,5c0.7,0.4,1.5,0.7,2.4,1C524.5-176.9,530.3-179,533.1-180.3z M522.4-192.1c1.9-5.3,7.1-8.4,6.6-9
					c-0.2-0.3-1.5,0.5-2.7,1.2c-3,1.9-4.7,4-5.4,5.1c-0.5,0.6-3.4,4.8-2.5,5.8c0.4,0.4,1.5,0.1,1.5,0.1
					C521.5-189.5,522.1-191.4,522.4-192.1z M514.8-194.2c2.6-4.1,5.1-5.8,4.8-6.3c-0.3-0.4-2.4,0.8-3.3,1.3c-1.6,1-2.6,2-2.9,2.3
					c-3.9,4.2-8.7,14.4-7.4,15.2c0.2,0.1,1,0.4,1.9,0.1c0,0,0.1,0,0.1,0c1.6-0.6,2.2-2.6,3-4.9C510.9-186.4,512.5-190.7,514.8-194.2
					z M503.8-191.5c1.6-4.6,6.7-7.3,6.3-7.9c-0.3-0.3-2.1,0.7-2.9,1.2c-3,1.8-4.6,4-5,4.5c-0.9,1.4-2.4,4.1-1.7,4.9
					c0.4,0.4,1.2,0.1,1.3,0.1C503.1-189.3,503.6-190.9,503.8-191.5z M501.2-180.4c0.6-2.2,0.1-4.5-1.3-5.9c-2-1.9-4.9-1.5-6.2-1.2
					c-0.6,0.1-1.1,0.3-1.7,0.5c-0.5,0.3-1,0.7-1.5,1.1c-1.3,1.2-2.5,2.6-3,4.2c-0.1,0.2-0.1,0.4,0,0.5c0.3,1.6,4.8,2.3,7.6,2.2
					C496.4-179,498.6-179.2,501.2-180.4z"/>
				<path class="st0" d="M568.2-94.5L568.2-94.5c-1.4,4-2.9,8.2-5.6,11.5c-3.2,3.9-7.9,6.4-11.6,9.9c-2.3,2.2-4.1,4.8-6,7.3
					l-0.3-0.1c0.6-2.5,1.8-5.9,4.3-9.3c3.5-4.5,6.9-5.3,11.5-9.5C562.7-86.6,565.6-89.7,568.2-94.5z"/>
				<path class="st0" d="M556.2-193.3c0,0.1-0.1,0.1-0.1,0.1c-2,1-4.4,0.8-6.4,0c-2.1-0.8-3.9-2.1-5.7-3.4c-0.8-0.6-1.6-1.3-1.5-2.2
					l0.1,0c2.5-6.3,5.9-12.1,10.1-17.4c0.1,0,0.1-0.1,0.2-0.1l0.1,0.2c2.9,7.1,4,15,3.4,22.7L556.2-193.3z"/>
				<path class="st2" d="M532.7-181.8c0.2,0.6,0.4,1.1,0.4,1.5c-2.8,1.3-8.6,3.4-14.7,1.3c-0.9-0.3-1.7-0.6-2.4-1
					c-0.1-0.8-0.2-3,1.3-5c1-1.4,2.3-2,3.1-2.4c2.2-1,4.1-0.9,4.7-0.9c0.9,0.1,2.6,0.2,4.2,1.3C531.4-185.6,532.2-183.4,532.7-181.8
					z"/>
				<path class="st0" d="M529.1-60.2l0.4,0.1c-2.8,13.2-4.7,22.7-5.1,25c0,0.2-0.1,0.5-0.1,1H524c0-1.6-0.6-4.3-1.5-8.4
					c-1.6-7.2-1.9-8.3-2.2-9.9c-0.3-2-0.7-4.8-0.7-8.2c0.3-0.3,0.6-0.4,1-0.5C523.4-62.1,526.4-61.3,529.1-60.2z"/>
				<path class="st0" d="M529-201.1c0.5,0.6-4.7,3.7-6.6,9c-0.3,0.7-0.9,2.6-2.4,3.1c-0.1,0-1.1,0.4-1.5-0.1c-0.9-1,2-5.1,2.5-5.8
					c0.7-1,2.5-3.2,5.4-5.1C527.5-200.6,528.8-201.4,529-201.1z"/>
				<path class="st0" d="M519.5-200.5c0.4,0.4-2.1,2.2-4.8,6.3c-2.3,3.5-3.9,7.8-3.9,7.8c-0.9,2.3-1.4,4.3-3,4.9c0,0,0,0-0.1,0
					c-0.9,0.3-1.7,0-1.9-0.1c-1.3-0.8,3.5-11.1,7.4-15.2c0.3-0.3,1.3-1.4,2.9-2.3C517.1-199.7,519.2-200.9,519.5-200.5z"/>
				<path class="st0" d="M510-199.4c0.5,0.6-4.7,3.3-6.3,7.9c-0.2,0.6-0.7,2.2-2,2.7c-0.1,0-0.9,0.3-1.3-0.1
					c-0.7-0.7,0.8-3.5,1.7-4.9c0.4-0.5,1.9-2.8,5-4.5C507.9-198.7,509.8-199.7,510-199.4z"/>
				<path class="st3" d="M507.9-177.9c0.2,0.4,0,1-0.4,1.3c-0.4,0.3-0.9,0.5-1.3,0.7c-0.8,0.4-1.5,0.9-2.1,1.6l-0.3-0.5
					c-0.3-0.9-0.5-1.8-0.6-2.7c0-0.3-0.1-0.6,0.1-0.8c0.2-0.2,0.5-0.3,0.8-0.4c1-0.2,2.1-0.1,3,0.3
					C507.4-178.4,507.7-178.2,507.9-177.9z"/>
				<path class="st0" d="M505-71.7l-0.5,0.1c-1.3-1.7-2.8-4.1-4.1-7.1c-1.7-4.2-2.2-7.9-2.3-10.4l0.2-0.1
					C501.4-83.8,503.6-77.9,505-71.7z"/>
				<path class="st2" d="M499.9-186.3c1.5,1.4,1.9,3.7,1.3,5.9c-2.6,1.1-4.8,1.4-6.2,1.4c-2.8,0.1-7.3-0.5-7.6-2.2
					c0-0.1,0-0.3,0-0.5c0.6-1.6,1.8-3,3-4.2c0.5-0.4,0.9-0.8,1.5-1.1c0.5-0.3,1.1-0.4,1.7-0.5C495-187.8,497.9-188.2,499.9-186.3z"
					/>
				<path class="st1" d="M500.3-199.1C500.3-199.1,500.3-199.1,500.3-199.1C500.3-199.1,500.3-199.1,500.3-199.1
					C500.3-199.1,500.3-199.1,500.3-199.1z"/>
				<path class="st0" d="M500.3-199.1C500.3-199.1,500.3-199.1,500.3-199.1c-2.2,3.1-5.6,5.3-9.4,5.9l-0.2-0.1
					c-0.7-2.9-1.3-6.6-1.5-10.9c-0.1-4.5,0.4-8.4,1-11.5l0.5,0.1c0.1,0.1,0.2,0.1,0.3,0.2l-0.3,0.5c2.2,3,4.5,6.4,6.6,10.2
					C498.4-202.7,499.4-200.9,500.3-199.1z"/>
			</g>
		</g>
	</g>
</g>
<path class="st4" d="M504.7-45.5c-3.9-4.7-8.7-8.5-13.5-12.2c-4.7-3.7-8.8-8.1-12.7-12.6c-3.9-4.6-7.1-9.6-8.2-15.6
	c-1.3-6.9-0.4-14.2,0.6-21.1c0.3-2.4-3.3-3.4-3.6-1c-1.6,11.6-2.8,23.7,3.9,34.1c3,4.8,7,9,10.9,13c4.2,4.4,9.2,7.7,13.6,11.7
	c4,3.6,12.1,10.1,8.3,16.2c-1.3,2.1,2,4,3.2,1.9C510.3-35.9,508.1-41.5,504.7-45.5z"/>
<g>
	<g>
		<g id="XMLID_00000042724077965026646600000000012046476275680156_">
			<path class="st5" d="M123.7,307.4c4.7,12.7,1.8,29.4-6.6,41.9c-1.9,2.9-10.6,15.1-27,20.1c-6.2,1.9-11.7,2.2-15.4,2.1
				c0.6-0.5,1.2-1,1.9-1.5l0.9,0.2c3.7-1.1,6.8-3.5,9.8-5.8c8.1-6.2,16.3-12.6,22.3-20.9c8.4-11.7,11.5-27,8.5-41.1l-0.3,0
				c0.2-2.8-0.3-4.8,0.2-4.9C118.8,297.1,122.1,303.1,123.7,307.4z"/>
			<path class="st6" d="M118,302.4c3,14.1-0.2,29.4-8.5,41.1c-6,8.3-14.2,14.7-22.3,20.9c-3,2.3-6.2,4.7-9.8,5.8l-0.9-0.2
				c3.2-2.8,6.5-6.5,9.2-11.3c0.5-0.9,2.4-4.5,3.8-9.7c0.2-0.8,0.4-1.6,0.6-2.4c2-7.6,5.2-12.7,8-16.1c4.7-5.7,12-11,16.4-18.6
				c1.2-2.1,2.8-4.9,3.2-8.7c0-0.2,0-0.5,0.1-0.7L118,302.4z"/>
			<path class="st5" d="M58.2,319.7L58.2,319.7c-1.3,3.8-2.7,7.7-5.2,10.8c-3,3.7-7.4,6-10.9,9.3c-2.1,2.1-3.9,4.5-5.6,6.9l-0.3-0.1
				c0.5-2.3,1.7-5.6,4.1-8.7c3.3-4.2,6.5-5,10.8-8.9C53.1,327.2,55.8,324.2,58.2,319.7z"/>
			<path class="st5" d="M43.9,205.4c2.7,6.7,3.8,14.1,3.2,21.3l-0.2,0c0,0.1-0.1,0.1-0.1,0.1c-1.9,0.9-4.1,0.8-6,0
				c-2-0.7-3.7-1.9-5.3-3.1c-0.7-0.5-1.5-1.2-1.4-2.1l0.1,0c2.3-5.9,5.5-11.4,9.5-16.4c0.1,0,0.1,0,0.2-0.1L43.9,205.4z"/>
			<path class="st6" d="M-2,244.6c0.5-0.6,1.2-1.1,2-1.5c0.4-0.2,0.9-0.3,1.2-0.6c0.4-0.3,0.6-0.8,0.4-1.2c-0.1-0.3-0.5-0.4-0.7-0.5
				c-0.9-0.3-1.9-0.4-2.8-0.3c-0.3,0-0.6,0.1-0.7,0.4c-0.1,0.2-0.1,0.5-0.1,0.8c0.1,0.9,0.3,1.7,0.5,2.6L-2,244.6z M-1.7,341.2
				l0.4-0.1c-1.3-5.8-3.4-11.4-6.3-16.5l-0.1,0.1c0.1,2.4,0.6,5.9,2.2,9.8C-4.3,337.4-2.9,339.6-1.7,341.2z M36.1,346.7l0.3,0.1
				c1.7-2.4,3.5-4.8,5.6-6.9c3.5-3.3,7.9-5.6,10.9-9.3c2.5-3.1,3.9-7,5.2-10.8h0c-2.4,4.5-5.1,7.5-7.2,9.3
				c-4.3,3.9-7.5,4.7-10.8,8.9C37.8,341.1,36.7,344.3,36.1,346.7z M47.1,226.7c0,0.2,0,0.4,0,0.6l0.3,0.1c1.6,2.6,3.9,6.4,6,11.3
				c0.8,1.8,1.7,3.8,2.4,5.9c0.5,1.4,0.9,3.2,1.3,5.5c0.4,2.9,0.6,6.4,0.1,10.5l0.5,0c2.8,5,20.7,37,23.4,63.3
				c0.5,4.4,1.2,12.3-1,22.1c-1.1,4.8-2.9,12.9-8.1,19.3c-11.6,14.2-33.4,12.5-36.5,12.2l-0.1,0c0.1,0.5,0,0.8-0.1,0.9
				c-0.1,0.3-0.5,0.6-0.8,0.8c-4.2,2.9-10,3.4-14.6,1.1c-1.1-0.6-2.3-1.4-2.7-2.6c-0.2-0.5-0.2-1-0.2-1.4c0-0.3,0-0.6,0.1-0.7
				c0.4-2.1,2.2-11.1,4.8-23.5l-0.4-0.1c-2.5-1-5.4-1.8-8-1c-0.3,0.1-0.7,0.3-0.9,0.5c0,3.2,0.4,5.8,0.7,7.7c0.3,1.5,0.5,2.6,2,9.4
				c0.8,3.7,1.4,6.2,1.4,7.7c0,0.7-0.1,1.2-0.3,1.6c-1.6,2.7-5.8,3-9.1,3.2c-2.8,0.2-7.4,0.5-9.4-1.7l0,0c-5.6,0.5-16,0.6-27.2-4.4
				c-5.2-2.3-15.3-6.8-21.2-17.7c-2.9-5.3-3.6-10-4-12.5c-1.6-11.1,1.6-20.1,4.2-26.8c7.9-20.4,17.6-38.6,23.4-48.9l0,0
				c-2.5-9.1-3.4-16.1-2.8-19.9c0.5-3.2,1.6-5.9,1.6-5.9c1.7-4.2,4-7,6.5-9.9c1.6-1.9,3.9-4.3,7-6.8l0.2,0.1
				c3.5-0.6,6.8-2.7,8.8-5.6c0,0,0,0,0,0c0,0,0,0,0,0c-0.8-1.7-1.7-3.4-2.7-5.2c-2-3.6-4.2-6.8-6.3-9.6l0.3-0.5
				c2.2,1.4,4.7,3.2,7.3,5.3c2.8,2.4,5.1,4.7,7,6.8c3.8-1.2,9-2.5,15.3-2.7c5-0.2,9.3,0.4,12.7,1c1.8-1.4,3.2-3.2,4.9-4.6
				c0.9-0.7,1.9-1.4,2.9-2c1.3-0.8,2.5-1.6,3.8-2.4c1.4-0.9,2.8-1.7,4.3-2.3c-4,4.9-7.2,10.5-9.5,16.4l-0.1,0
				c-0.1,0.9,0.7,1.5,1.4,2.1c1.7,1.2,3.4,2.4,5.3,3.1c2,0.7,4.2,0.9,6,0c0.1,0,0.1-0.1,0.1-0.1L47.1,226.7z M25.2,239
				c-0.1-0.3-0.2-0.8-0.4-1.4c-0.5-1.4-1.3-3.5-3.1-4.9c-1.5-1.1-3.1-1.2-4-1.3c-0.6,0-2.4-0.1-4.4,0.9c-0.8,0.4-2,1-3,2.3
				c-1.4,1.9-1.2,4-1.2,4.7c0.7,0.4,1.5,0.7,2.3,1C17.2,242.1,22.6,240.2,25.2,239z M15.1,227.9c1.8-5,6.7-8,6.3-8.5
				c-0.2-0.3-1.4,0.5-2.5,1.2c-2.8,1.7-4.4,3.8-5.1,4.8c-0.4,0.6-3.2,4.5-2.3,5.4c0.4,0.4,1.4,0.1,1.5,0
				C14.3,230.3,14.9,228.6,15.1,227.9z M8,225.9c2.5-3.8,4.8-5.5,4.5-5.9c-0.3-0.4-2.3,0.7-3.1,1.2c-1.5,0.9-2.4,1.9-2.7,2.2
				c-3.6,3.9-8.2,13.6-7,14.3c0.2,0.1,1,0.4,1.8,0.1c0,0,0.1,0,0.1,0c1.5-0.5,2-2.4,2.8-4.6C4.3,233.2,5.8,229.2,8,225.9z
				 M-2.4,228.4c1.5-4.3,6.3-6.9,5.9-7.4c-0.3-0.3-2,0.7-2.7,1.1c-2.9,1.7-4.3,3.8-4.7,4.2c-0.9,1.3-2.3,3.9-1.6,4.6
				c0.4,0.4,1.1,0.1,1.2,0C-3.1,230.5-2.6,229-2.4,228.4z M-4.8,238.9c0.6-2.1,0.1-4.2-1.2-5.6c-1.9-1.8-4.6-1.4-5.9-1.1
				c-0.5,0.1-1.1,0.2-1.6,0.5c-0.5,0.3-1,0.7-1.4,1.1c-1.2,1.1-2.3,2.4-2.9,4c-0.1,0.2-0.1,0.3,0,0.5c0.3,1.5,4.5,2.1,7.1,2
				C-9.4,240.2-7.3,240-4.8,238.9z"/>
			<path class="st5" d="M74.6,371.6c-4.2,3.3-8,5-9.3,5.6c-14.1,6.1-26.8,2.4-30.1,1.4c0-0.1,0.1-0.4,0.1-0.9l0.1,0
				c3.1,0.3,24.9,2,36.5-12.2c5.2-6.4,7-14.5,8.1-19.3c2.2-9.8,1.5-17.7,1-22.1c-2.7-26.4-20.6-58.3-23.4-63.3l-0.5,0
				c0.5-4.2,0.3-7.7-0.1-10.5l0.3,0c6.3,12.5,12.7,26.1,18.8,40.6c2.4,5.6,9.2,17.7,13.1,33.6c1.1,4.5,2.2,9.9,1.6,16.8
				c-0.2,1.9-0.5,3.7-0.8,5.4c-0.2,0.8-0.4,1.6-0.6,2.4c-1.4,5.3-3.3,8.8-3.8,9.7c-2.7,4.8-6,8.5-9.2,11.3
				C75.8,370.6,75.2,371.1,74.6,371.6z"/>
			<path class="st7" d="M24.8,237.5c0.2,0.6,0.3,1.1,0.4,1.4c-2.6,1.2-8.1,3.2-13.9,1.2c-0.8-0.3-1.6-0.6-2.3-1
				c-0.1-0.7-0.2-2.8,1.2-4.7c1-1.3,2.1-1.9,3-2.3c2-1,3.8-0.9,4.4-0.9c0.9,0.1,2.5,0.2,4,1.3C23.6,234,24.3,236.1,24.8,237.5z"/>
			<path class="st5" d="M21.4,219.4c0.5,0.5-4.4,3.5-6.3,8.5c-0.2,0.7-0.8,2.5-2.2,3c-0.1,0-1.1,0.4-1.5,0c-0.9-1,1.9-4.8,2.3-5.4
				c0.7-1,2.3-3,5.1-4.8C19.9,219.9,21.1,219.2,21.4,219.4z"/>
			<path class="st5" d="M17.1,375.6c0,0.2-0.1,0.4-0.1,0.7l-0.3,0c0-1.5-0.6-4-1.4-7.7c-1.5-6.8-1.8-7.8-2-9.4
				c-0.3-1.9-0.6-4.5-0.7-7.7c0.2-0.2,0.6-0.4,0.9-0.5c2.6-0.9,5.4-0.1,8,1l0.4,0.1C19.2,364.5,17.4,373.5,17.1,375.6z"/>
			<path class="st5" d="M12.4,220c0.3,0.4-2,2.1-4.5,5.9c-2.1,3.3-3.6,7.4-3.6,7.4c-0.8,2.1-1.3,4-2.8,4.6c0,0,0,0-0.1,0
				c-0.8,0.3-1.6,0-1.8-0.1c-1.2-0.8,3.3-10.4,7-14.3c0.3-0.3,1.2-1.3,2.7-2.2C10.1,220.7,12.1,219.6,12.4,220z"/>
			<path class="st5" d="M3.5,221c0.4,0.5-4.4,3.1-5.9,7.4c-0.2,0.6-0.7,2.1-1.9,2.5c-0.1,0-0.9,0.3-1.2,0c-0.7-0.7,0.7-3.3,1.6-4.6
				c0.3-0.5,1.8-2.6,4.7-4.2C1.5,221.7,3.2,220.7,3.5,221z"/>
			<path class="st3" d="M1.5,241.2c0.2,0.4,0,0.9-0.4,1.2c-0.4,0.3-0.8,0.5-1.2,0.6c-0.8,0.3-1.4,0.9-2,1.5l-0.3-0.5
				c-0.2-0.8-0.4-1.7-0.5-2.6c0-0.3-0.1-0.5,0.1-0.8c0.1-0.2,0.5-0.3,0.7-0.4c1-0.2,1.9-0.1,2.8,0.3C1,240.8,1.3,240.9,1.5,241.2z"
				/>
			<path class="st5" d="M-1.2,341.1l-0.4,0.1c-1.2-1.6-2.7-3.9-3.8-6.7c-1.6-3.9-2.1-7.5-2.2-9.8l0.1-0.1
				C-4.7,329.8-2.5,335.4-1.2,341.1z"/>
			<path class="st7" d="M-6.1,233.3c1.4,1.3,1.8,3.5,1.2,5.6c-2.5,1.1-4.5,1.3-5.8,1.3c-2.6,0.1-6.9-0.5-7.1-2c0-0.1,0-0.2,0-0.5
				c0.5-1.5,1.6-2.8,2.9-4c0.4-0.4,0.9-0.8,1.4-1.1c0.5-0.2,1-0.4,1.6-0.5C-10.7,232-7.9,231.5-6.1,233.3z"/>
			<path class="st1" d="M-5.7,221.2C-5.7,221.3-5.7,221.3-5.7,221.2C-5.7,221.3-5.7,221.3-5.7,221.2C-5.7,221.3-5.7,221.3-5.7,221.2
				z"/>
			<path class="st5" d="M-16.1,216.6c-0.1-4.3,0.3-7.9,0.9-10.8l0.5,0.1c0.1,0.1,0.2,0.1,0.3,0.2l-0.3,0.5c2.1,2.8,4.2,6,6.3,9.6
				c1,1.8,1.9,3.5,2.7,5.2c0,0,0,0,0,0c-2.1,2.9-5.3,5-8.8,5.6l-0.2-0.1C-15.3,224-15.9,220.6-16.1,216.6z"/>
		</g>
	</g>
</g>
<path class="st4" d="M530.5-62.5c-2.9,9.7-4.7,20.1-5.4,30.3c-0.2,2.4,3.6,2.4,3.8,0c0.7-9.8,2.4-19.8,5.3-29.3
	C534.8-63.8,531.2-64.8,530.5-62.5z"/>
<path class="st4" d="M501.5-76.5c-5.4-1.7-9.2-7.2-11.9-11.9c-3.3-5.7-4.1-12-3.1-18.5c0.4-2.4-3.3-3.4-3.6-1
	c-1.2,7.5-0.4,14.8,3.4,21.4c3.2,5.6,7.7,11.6,14.1,13.6C502.8-72.1,503.8-75.7,501.5-76.5z"/>
<path class="st4" d="M551.7-90.6c-1.6,2.6-2.9,5.4-4,8.2c-1.1,2.9-1.6,6.1-3.3,8.7c-1.3,2,1.9,3.9,3.2,1.9c1.7-2.5,2.3-5.5,3.2-8.3
	c1-3,2.4-5.9,4-8.6C556.2-90.8,553-92.7,551.7-90.6z"/>
<path class="st4" d="M500.9-35.7c-9.7,0.2-19.1-0.5-27.5-5.8c-3.7-2.3-7-5.2-10.1-8.3c-3-3-6.4-6.3-8.5-10.1
	c-4.4-7.8-2-17.6-0.1-25.8c1.1-4.8,2.3-9.7,3.9-14.3c1.6-4.7,3.9-9.2,6.1-13.7c4.7-9.5,9.3-19.1,14.4-28.5c3.1,9.1,7,17.8,8,17.5
	c0.3-0.1,0.2-1,0.2-1.8c-0.7-8.5-4.6-16.1-5.1-18.1c-1.1-3.9-4.3-9.8-3.9-16.9c0.4-7.1,3.7-13.3,9.4-23.9c2.6-4.8,4.2-7.1,3.7-7.4
	c-0.8-0.6-7.6,4.8-11.9,12.4c-3,5.4-5.3,10.6-5.2,16.9c0.1,5.2,0.9,9.3,3.3,16.8c-0.3,0.1-0.6,0.4-0.9,0.8
	c-5.2,9.4-9.9,19.2-14.7,28.9c-2.3,4.7-4.7,9.3-6.6,14.2c-1.9,5-3.1,10.2-4.3,15.3c-2.1,8.9-4.5,18.9-0.5,27.7
	c1.9,4.1,5.1,7.5,8.2,10.8c3.1,3.3,6.4,6.3,10.1,8.9c4.2,3,8.9,5.4,13.9,6.6c5.9,1.5,12.1,1.5,18.1,1.4
	C503.4-32,503.4-35.8,500.9-35.7z"/>
<path class="st3" d="M520.7-187c-0.6,0.7-1,1.7-1.2,2.6c-0.2,0.9-0.4,2.2,0.3,2.9c0.5,0.4,1.1,0.5,1.7,0.2c0.6-0.3,1-1.1,1.1-1.7
	c0.1-0.8,0.2-1.5,0.4-2.3c0.4-1.6-1.7-2.4-2.6-1.1c-0.1,0.1-0.1,0.2-0.2,0.3c-1,1.5,1.5,2.9,2.4,1.4c0.1-0.1,0.1-0.2,0.2-0.3
	c-0.9-0.4-1.7-0.7-2.6-1.1c-0.1,0.5-0.2,1.1-0.3,1.6c0,0.2-0.1,0.5-0.1,0.7c0,0.1,0,0.1,0,0.2c-0.1,0.3,0,0.3,0.3-0.2
	c0.6,0.1,1.1,0.1,1.7,0.2c0,0,0,0-0.1-0.1c0.1,0.2,0.2,0.4,0.4,0.6c-0.1-0.4,0.2-1.7,0.5-2c0.5-0.6,0.6-1.4,0-2
	C522.2-187.5,521.2-187.6,520.7-187L520.7-187z"/>
<path class="st3" d="M491.6-186c-0.4,0.5-0.7,1-0.9,1.6c-0.3,0.8-0.2,1.8,0.5,2.3c0.9,0.7,1.9,0.2,2.3-0.7c0.3-0.6,0.5-1.3,0.8-1.9
	c0.3-0.7-0.3-1.6-1-1.7c-0.8-0.2-1.5,0.2-1.7,1c-0.1,0.3-0.2,0.6-0.4,0.9c0.1-0.2-0.1,0.3-0.1,0.2c0,0.1-0.1,0.2-0.2,0.4
	c0.2-0.2,0.3-0.3,0.5-0.5c0,0,0,0-0.1,0c0.5,0,1,0,1.4,0c0,0,0,0,0,0c0.2,0.2,0.3,0.3,0.5,0.5c0.1,0.2,0.1,0.3,0.1,0.5
	c0,0,0-0.1,0-0.1c-0.1,0.2,0.1-0.2,0.1-0.2c0.2-0.3,0.4-0.6,0.5-0.8c0.4-0.6,0.1-1.6-0.5-1.9C492.8-186.9,492-186.6,491.6-186
	L491.6-186z"/>
<path class="st8" d="M523.5-185.3L523.5-185.3c0,0.1,0,0.1-0.1,0.2c0,0,0,0,0,0c0,0.1-0.1,0.1-0.1,0.1c0,0,0,0,0,0
	c0,0-0.1,0.1-0.1,0.1c0,0,0,0,0,0c-0.1,0-0.1,0.1-0.2,0.1c0,0,0,0,0,0c-0.1,0-0.1,0-0.2,0c0,0,0,0,0,0c-0.1,0-0.1,0-0.2,0
	c0,0,0,0,0,0c-0.1,0-0.1-0.1-0.2-0.1c0,0,0,0,0,0c-0.1-0.3-0.2-0.6-0.2-1c0,0,0,0,0,0c0-0.1,0.1-0.1,0.1-0.1c0,0,0,0,0,0
	c0,0,0.1-0.1,0.1-0.1c0,0,0,0,0,0c0.1,0,0.1-0.1,0.2-0.1c0,0,0,0,0,0c0.1,0,0.1,0,0.2,0c0,0,0,0,0,0c0.1,0,0.1,0,0.2,0h0
	c0.2,0.2,0.3,0.4,0.5,0.7v0C523.5-185.5,523.5-185.4,523.5-185.3C523.5-185.4,523.5-185.4,523.5-185.3
	C523.5-185.4,523.5-185.3,523.5-185.3C523.4-185.3,523.5-185.3,523.5-185.3c0,0.1,0,0.1-0.1,0.2c0,0,0,0,0-0.1c0,0-0.1,0.1-0.1,0.1
	c0,0,0,0,0.1,0c-0.3-0.3-0.6-0.6-1-1c0,0,0,0.1-0.1,0.1c0,0.1-0.1,0.2-0.1,0.3c0.3-0.1,0.7-0.3,1-0.4c0,0,0,0,0,0
	c0,0,0.1,0.1,0.1,0.1c0,0,0,0,0,0c0,0.1,0.1,0.1,0.1,0.1c0,0,0,0,0,0c0,0.1,0,0.1,0.1,0.2c0,0,0,0,0-0.1c0,0.1,0,0.1,0,0.2
	c0,0,0,0,0,0c0,0.1,0,0.1,0,0.2c0,0,0,0,0,0c0-0.1,0-0.2,0-0.3c0-0.1,0-0.2-0.1-0.3c0-0.1-0.1-0.1-0.1-0.1c-0.1-0.1-0.1-0.1-0.2-0.1
	c-0.1,0-0.1-0.1-0.2-0.1c-0.1,0-0.2,0-0.3,0c-0.1,0-0.1,0.1-0.2,0.1c-0.1,0.1-0.2,0.1-0.2,0.2c0,0.1,0,0.1-0.1,0.2
	c0,0.1-0.1,0.2-0.1,0.3c0,0.1,0,0.2,0,0.3c0,0.1,0.1,0.2,0.1,0.2c0,0.1,0.1,0.1,0.2,0.2c0.2,0.1,0.4,0.1,0.5,0.1
	c0.1,0,0.1-0.1,0.2-0.1c0.1-0.1,0.2-0.1,0.2-0.2C523.4-185.3,523.4-185.3,523.5-185.3c-0.5-0.3-0.9-0.4-1.3-0.6c0,0,0,0,0,0
	c0,0.1,0,0.1,0,0.2c0,0.1,0,0.2,0,0.2c0,0.1,0,0.1,0.1,0.2c0,0,0,0,0,0c0,0.1,0.1,0.1,0.1,0.1c0.1,0.1,0.1,0.1,0.2,0.1
	c0.1,0.1,0.2,0.1,0.4,0.1c0.1,0,0.2,0,0.3-0.1c0.1,0,0.2-0.1,0.2-0.1c0.1-0.1,0.2-0.2,0.2-0.3c0,0,0-0.1,0-0.1
	C523.6-185.4,523.5-185.4,523.5-185.3c0.1,0,0.1,0,0.1-0.1c0-0.1,0-0.1,0.1-0.2c0-0.1,0-0.2,0-0.3c0-0.1,0-0.1,0-0.2
	c0-0.1-0.1-0.2-0.2-0.2c-0.1-0.1-0.2-0.1-0.3-0.2c-0.1,0-0.2,0-0.3,0c-0.1,0-0.2,0-0.3,0.1c-0.2,0.1-0.3,0.2-0.4,0.4
	c0,0.1-0.1,0.1-0.1,0.2c0,0.1,0,0.2,0,0.3c0,0.1,0,0.1,0,0.2c0,0.1,0.1,0.2,0.1,0.2c0,0.1,0.1,0.1,0.1,0.1c0.1,0.1,0.2,0.1,0.2,0.1
	c0.1,0,0.2,0,0.2,0c0.1,0,0.1,0,0.2,0h0c0,0,0.1,0,0.1,0c0.1,0,0.2-0.1,0.2-0.2c0-0.1,0.1-0.1,0.1-0.2c0-0.1,0.1-0.2,0.1-0.3
	c0-0.1,0-0.2,0-0.3c0-0.1,0-0.1-0.1-0.2c-0.1-0.1-0.2-0.2-0.2-0.2c-0.2-0.1-0.4-0.1-0.7-0.1c-0.1,0-0.3,0.1-0.4,0.2
	c0,0-0.1,0.1-0.1,0.2c0,0.1-0.1,0.1-0.1,0.2c0,0.1,0,0.2,0,0.3c0,0.1,0,0.2,0.1,0.3c0,0.1,0.1,0.1,0.2,0.2c0.1,0.1,0.2,0.1,0.2,0.1
	c0.2,0,0.4,0,0.5-0.1c0,0,0.1-0.1,0.1-0.1C523.4-185.1,523.4-185.2,523.5-185.3L523.5-185.3z"/>
<path class="st8" d="M494.4-184.9C494.4-184.9,494.4-184.9,494.4-184.9c0,0,0,0.1-0.1,0.1c0,0,0,0,0,0c0,0.1-0.1,0.1-0.1,0.1
	c0,0,0,0,0,0c0,0-0.1,0.1-0.1,0.1c0,0,0,0,0,0c-0.1,0-0.1,0.1-0.2,0.1c0,0,0,0,0,0c-0.1,0-0.1,0-0.2,0c0,0,0,0,0,0
	c-0.1,0-0.1,0-0.2,0c0,0,0,0,0,0c-0.2-0.3-0.3-0.6-0.5-0.9c0,0,0,0,0,0c0-0.1,0-0.1,0.1-0.2c0,0,0,0,0,0c0-0.1,0.1-0.1,0.1-0.1
	c0,0,0,0,0,0c0,0,0.1-0.1,0.1-0.1c0,0,0,0,0,0c0.1,0,0.1-0.1,0.2-0.1c0,0,0,0,0,0c0.1,0,0.1,0,0.2,0c0,0,0,0,0,0c0.1,0,0.1,0,0.2,0
	c0,0,0,0,0,0c0.1,0,0.1,0.1,0.2,0.1c0,0,0,0,0,0c0,0,0.1,0.1,0.1,0.1c0,0,0,0,0,0c0.1,0.1,0.1,0.2,0.2,0.3c0,0,0,0,0,0
	c0,0.1,0,0.1,0,0.2c0,0,0,0,0,0C494.4-185.1,494.4-185,494.4-184.9l0-0.1C494.4-184.9,494.4-184.9,494.4-184.9
	C494.3-184.8,494.3-184.8,494.4-184.9c-0.1,0.1-0.1,0.1-0.1,0.2c0,0,0,0,0,0c0,0-0.1,0.1-0.1,0.1c0,0,0,0,0,0
	c-0.2,0-0.4,0.1-0.5,0.1h0c-0.1,0-0.1-0.1-0.2-0.1c0,0,0,0,0,0c0,0-0.1-0.1-0.1-0.1l0,0c0-0.1-0.1-0.1-0.1-0.1l0,0
	c0-0.1,0-0.1-0.1-0.2v0c0-0.1,0-0.1,0-0.2c0,0,0,0,0,0c0-0.1,0-0.1,0-0.2c0,0,0,0,0,0c0-0.1,0-0.1,0.1-0.2c0,0,0,0,0,0
	c0-0.1,0.1-0.1,0.1-0.1l0,0c0,0,0.1-0.1,0.1-0.1l0,0c0.1,0,0.1-0.1,0.2-0.1h0c0.1,0,0.1,0,0.2,0c0,0,0,0,0,0c0.1,0,0.1,0,0.2,0h0
	c-0.1,0-0.2,0-0.3,0c-0.1,0-0.2,0-0.3,0.1c-0.1,0-0.1,0.1-0.2,0.2c-0.1,0.1-0.1,0.1-0.1,0.2c0,0.2,0,0.4,0.1,0.5
	c0,0.1,0.1,0.1,0.1,0.1c0.1,0.1,0.2,0.1,0.3,0.2c0.1,0,0.1,0,0.2,0c0,0,0.1,0,0.2,0c0,0,0.1-0.1,0.2-0.1c0.1,0,0.1-0.1,0.1-0.1
	c0.1-0.1,0.2-0.4,0.2-0.6c0,0,0,0,0,0c0-0.1,0-0.2,0-0.2s0-0.1-0.1-0.2s-0.1-0.1-0.1-0.1c-0.1-0.1-0.2-0.2-0.3-0.2
	c-0.1,0-0.1,0-0.2,0c-0.1,0-0.2,0-0.3,0.1c-0.1,0-0.1,0.1-0.2,0.1l0,0c0,0.1-0.1,0.1-0.1,0.1c0,0,0,0,0,0c0,0.1,0,0.1-0.1,0.2
	c0,0,0,0.1,0,0.1c0,0,0,0.1,0,0.1s0,0.1,0,0.1s0,0.1,0,0.1c0,0.2,0.2,0.4,0.3,0.4c0,0,0.1,0,0.1,0c0,0,0.1,0,0.1,0
	c0.1,0,0.1,0,0.2,0c0.1,0,0.1,0,0.2,0c0.1,0,0.1-0.1,0.2-0.1c0,0,0,0,0.1-0.1s0,0,0.1-0.1C494.4-184.7,494.5-184.8,494.4-184.9
	c0.1,0,0.1,0,0.1-0.1c0,0,0-0.1,0-0.1c0-0.1,0-0.2,0-0.3c0-0.1,0-0.2-0.1-0.3c0-0.1-0.1-0.1-0.1-0.1c-0.1-0.1-0.2-0.1-0.3-0.2
	c-0.2-0.1-0.5,0-0.7,0.1s-0.4,0.3-0.4,0.5c0,0.1,0,0.2,0,0.3c0,0.1,0,0.2,0.1,0.3c0,0.1,0.1,0.1,0.2,0.2c0.1,0.1,0.1,0.1,0.2,0.1
	c0.2,0,0.4,0,0.5-0.1C494.2-184.6,494.3-184.7,494.4-184.9L494.4-184.9z"/>
<path class="st3" d="M489.2-215.8c-0.3,3.2-0.5,6.4-0.8,9.6c-0.2,2.8-0.6,5.6-0.2,8.4c0.2,1.6,0.6,3.2,1.5,4.6
	c0.8,1.3,2.8,0.1,2-1.2c-1.6-2.9-1.4-6.4-1.1-9.5c0.3-4,0.7-7.9,1-11.9c0-0.6-0.6-1.2-1.2-1.2C489.6-217,489.2-216.5,489.2-215.8
	L489.2-215.8z"/>
<path class="st3" d="M506.5-201.3c3.7-0.9,7.4-1.8,11.2-2.3c3.7-0.5,7.4-0.7,11.2-0.4c2.1,0.2,4.2,0.5,6.3,0.9
	c0.6,0.1,1.3-0.2,1.5-0.8c0.2-0.6-0.2-1.3-0.8-1.4c-3.8-0.8-7.8-1.2-11.7-1.1c-4,0.1-7.9,0.7-11.8,1.5c-2.2,0.4-4.3,0.9-6.4,1.5
	C504.5-203.2,505.1-200.9,506.5-201.3L506.5-201.3z"/>
<path class="st3" d="M536.8-203.3c1.3-1,2.4-2.3,3.6-3.4c1.2-1.2,2.5-2.2,4-3.1c1.5-1,3.1-1.9,4.6-2.9c1.4-0.9,2.8-1.8,4.4-2.3
	c0.6-0.2,1-0.8,0.8-1.4c-0.2-0.6-0.8-1-1.5-0.8c-1.7,0.6-3.3,1.5-4.8,2.4c-1.6,1-3.2,2-4.8,3c-1.5,1-3,2.1-4.3,3.3
	c-1.2,1.2-2.4,2.5-3.7,3.5c-0.5,0.4-0.4,1.2,0,1.7C535.6-202.9,536.3-202.9,536.8-203.3L536.8-203.3z"/>
<path class="st3" d="M551.9-215.6c2.3,5.7,3.5,11.7,3.5,17.8c0,1.7,0,3.5-0.2,5.2c-0.1,0.6,0.6,1.2,1.2,1.2c0.7,0,1.1-0.5,1.2-1.2
	c0.6-6.2,0-12.6-1.7-18.6c-0.5-1.7-1-3.4-1.7-5c-0.2-0.6-0.8-1-1.5-0.8C552.2-216.9,551.7-216.2,551.9-215.6L551.9-215.6z"/>
<path class="st3" d="M552-217c-4.4,5.5-7.9,11.5-10.5,18c-0.2,0.6,0.3,1.3,0.8,1.4c0.7,0.2,1.2-0.2,1.5-0.8c2.4-6.1,5.8-11.9,9.9-17
	c0.4-0.5,0.5-1.2,0-1.7C553.3-217.4,552.4-217.5,552-217L552-217z"/>
<path class="st3" d="M490.2-214.5c5.7,3.5,10.8,7.9,15.2,12.9c0.4,0.5,1.2,0.4,1.7,0c0.5-0.5,0.4-1.2,0-1.7
	c-4.5-5.2-9.9-9.6-15.7-13.3C490.1-217.3,488.9-215.3,490.2-214.5L490.2-214.5z"/>
<path class="st3" d="M489.8-214.2c3.7,5.1,7,10.5,9.8,16.1c0.3,0.6,1.1,0.7,1.6,0.4c0.6-0.3,0.7-1,0.4-1.6c-2.8-5.7-6-11.1-9.8-16.1
	c-0.4-0.5-1-0.8-1.6-0.4C489.7-215.5,489.4-214.7,489.8-214.2L489.8-214.2z"/>
<path class="st3" d="M490-194.1c-2.3,1.9-4.4,3.9-6.4,6.1c-1.8,2-3.5,4-5,6.2c-2.6,3.9-4.5,8.5-5,13.2c-0.4,3.3,0.1,6.6,0.6,9.9
	c0.8,4.8,2,9.6,3.4,14.3c1.8,6,3.9,11.9,6.2,17.8c0.3,0.8,0.6,1.6,1,2.4c0.2,0.6,0.8,1,1.5,0.8c0.6-0.2,1.1-0.9,0.8-1.4
	c-2.4-5.9-4.6-11.8-6.5-17.9c-1.5-4.8-2.8-9.7-3.8-14.6c-0.2-1-0.4-2-0.5-3c0-0.2-0.1-0.4-0.1-0.7c0-0.3,0,0.1,0-0.1
	c0-0.1,0-0.3,0-0.4c0-0.4-0.1-0.9-0.1-1.3c-0.1-1.5-0.2-3-0.2-4.5c0-0.3,0-0.6,0.1-0.9c0-0.1,0-0.3,0-0.4c0-0.1,0,0.3,0,0
	c0-0.1,0-0.1,0-0.2c0.2-1.4,0.6-2.8,1-4.2c0.6-1.9,1.4-3.8,2.4-5.6c1.4-2.3,3-4.3,4.8-6.4c1.7-2,3.6-3.9,5.6-5.7
	c0.6-0.6,1.3-1.1,1.9-1.6c0.5-0.4,0.4-1.2,0-1.7C491.1-194.6,490.5-194.5,490-194.1L490-194.1z"/>
<path class="st3" d="M555.7-191.9c2.7,4.3,5.1,8.9,7.2,13.6c0.9,2.1,1.7,4.2,2.3,6.4c0.2,0.9,0.4,1.9,0.6,2.8c0,0.2,0.1,0.5,0.1,0.7
	c0,0.1,0,0.2,0,0.4c0,0,0,0.2,0,0.1c0-0.1,0,0.1,0,0.2c0.1,0.6,0.1,1.2,0.2,1.8c0.2,3.1,0.1,6.2-0.3,9.3c-0.1,0.6,0.6,1.2,1.2,1.2
	c0.7,0,1.1-0.5,1.2-1.2c0.7-5,0.5-10.2-0.6-15.1c-0.5-2.2-1.2-4.3-2.1-6.3c-1.2-2.8-2.4-5.5-3.8-8.2c-1.2-2.3-2.5-4.6-3.9-6.9
	c-0.3-0.5-1-0.8-1.6-0.4C555.6-193.2,555.4-192.4,555.7-191.9L555.7-191.9z"/>
<path class="st3" d="M566.3-167.8c7.2,14.1,13.8,28.5,20,43.1c1.7,4.1,3.8,8,5.6,12.1c2.8,6.2,5.2,12.5,7,19
	c1.9,6.6,3.3,13.4,2.9,20.3c-0.3,6-1.8,12-4.3,17.4c-4.1,8.8-11.4,15.9-19.9,20.3c-9.5,4.9-20.7,6-31,3.4c-0.6-0.2-1.3-0.3-1.9-0.5
	c-1.5-0.4-2.1,1.8-0.6,2.3c10.8,3.2,22.6,2.4,32.9-2.2c9.1-4.1,16.9-11.3,21.7-20c2.3-4.3,3.9-9,4.8-13.8c1.4-7.2,1-14.5-0.6-21.7
	c-1.6-7-3.9-13.8-6.6-20.4c-2-5-4.4-9.8-6.7-14.7c-1.2-2.6-2.3-5.2-3.4-7.8c-1.6-3.8-3.3-7.6-5-11.4c-3.3-7.2-6.7-14.4-10.2-21.5
	c-0.8-1.7-1.7-3.4-2.5-5C567.7-170.4,565.7-169.2,566.3-167.8L566.3-167.8z"/>
<path class="st9" d="M479.2-179.1"/>
<path class="st3" d="M476.8-148.7c-5,8.8-9.6,17.8-14,26.9c-2.8,5.8-5.4,11.7-7.9,17.6c-2.1,5.2-4.3,10.4-5.9,15.8
	c-3.1,10.7-3,22.6,1.8,32.8c2.3,5,5.8,9.4,10,12.9c3.3,2.7,7,5,10.8,6.8c4.8,2.3,9.7,4.1,14.8,5.2c4.9,1,10,1.4,15,1.2
	c0.9,0,1.8-0.1,2.6-0.2c0.6-0.1,1.2-0.5,1.2-1.2c0-0.6-0.5-1.2-1.2-1.2c-4.4,0.4-8.8,0.3-13.2-0.2c-5.6-0.7-11-2.4-16.1-4.7
	c-3.4-1.5-6.8-3.3-9.8-5.5c-4-2.8-7.5-6.4-10.1-10.6c-5.8-9.4-6.8-21.2-4.3-31.7c1.2-5.1,3.1-10,5.1-14.8c2.4-5.9,4.9-11.8,7.6-17.6
	c4.4-9.4,9.1-18.7,14.2-27.8c0.5-0.8,0.9-1.7,1.4-2.5C479.5-148.9,477.5-150,476.8-148.7L476.8-148.7z"/>
<path class="st3" d="M540.8-36.8c0.3,0.4,0.5,0.9,0.8,1.3c0.2,0.3,0.4,0.7,0.5,1.1c0.2,0.5,0.3,0.6,0.4,1c0.1,0.3,0.2,0.6,0.2,0.9
	c0-0.2,0,0.1,0,0.1c0,0-0.1,0.1,0,0c-0.1,0.2-0.3,0.3-0.5,0.5c-0.8,0.6-1.8,1.1-2.7,1.4c-3.8,1.5-8.4,1.4-12-0.7
	c-0.8-0.5-1.5-1.1-1.8-1.9c-0.1-0.5-0.2-0.9-0.1-1.4c0-0.1,0-0.1,0-0.2c0,0.3,0,0.1,0,0c0-0.1,0-0.1,0-0.2c0.1-0.8,0.3-1.6,0.5-2.4
	c0.6-3.1,1.2-6.2,1.9-9.3c1.1-5.3,2.2-10.6,3.3-15.9c0.1-0.6-0.2-1.3-0.8-1.4c-0.6-0.2-1.3,0.2-1.5,0.8c-1.8,8.4-3.6,16.8-5.2,25.3
	c-0.2,0.8-0.3,1.7-0.5,2.5c-0.2,1-0.2,2,0.2,3c0.4,1.2,1.3,2.2,2.4,2.9c2,1.3,4.4,2,6.8,2.2c2.3,0.2,4.8-0.1,7-0.8
	c1.2-0.4,2.5-1,3.6-1.7c0.7-0.5,1.4-1,1.7-1.8c0.2-0.6,0.2-1.2,0-1.7c-0.2-1-0.7-1.9-1.2-2.8c-0.3-0.6-0.6-1.2-1-1.8
	C542.1-39.3,540-38.1,540.8-36.8L540.8-36.8z"/>
<path class="st3" d="M581.5-98.8c0.8,2.7,0.5,5.6,0.4,8.4s-0.5,5.6-1.1,8.3c-1.2,4.9-3.6,9.3-6.7,13.3c-3.1,4-6.8,7.6-10.5,10.9
	c-2,1.8-4.2,3.5-6.4,5.1c-2.1,1.4-4.3,2.6-6.4,3.8c-2.3,1.3-4.6,2.6-6.5,4.4c-2,1.8-4.3,4.7-3.4,7.5c0.5,1.4,2.7,0.8,2.3-0.6
	c-0.3-1.1,0.3-2.3,1-3.2c0.6-0.8,1.4-1.7,2.2-2.4c1.7-1.5,3.6-2.6,5.6-3.7c2.2-1.2,4.3-2.3,6.4-3.7c2.3-1.5,4.5-3.3,6.6-5.1
	c7.6-6.6,15.2-14.5,18-24.5c0.9-3.1,1.3-6.4,1.5-9.6c0.2-3.2,0.4-6.5-0.4-9.6C583.4-100.9,581.1-100.3,581.5-98.8L581.5-98.8z"/>
<path class="st3" d="M466.1-108c-0.8,7.5-1.3,15.2,0,22.7c0.6,3.4,1.5,6.6,2.9,9.7c1.2,2.6,2.7,5.1,4.4,7.4
	c3.1,4.3,6.8,8.1,10.8,11.6c2.2,1.9,4.5,3.7,6.9,5.5c0.2,0.2,0.4,0.3,0.6,0.5c0.2,0.1-0.2-0.1,0,0c0.1,0.1,0.2,0.1,0.3,0.2
	c0.2,0.2,0.4,0.3,0.6,0.5c1.1,0.9,2.2,1.9,3.2,2.9c2.5,2.4,4.8,5.1,6.8,8c0.3,0.5,0.7,1,1,1.5c0-0.4,0-0.8,0-1.2
	c-1.3,2.1-2.2,4.8-1.2,7.3c0.9,2,3,3,5,3.3c2.1,0.4,4.2,0.3,6.3,0.2c2.3-0.1,4.6-0.2,6.8-0.9c1.9-0.6,4.1-1.8,4.6-3.9
	c0.4-1.6,0-3.5-0.3-5.1c-0.8-4.3-1.9-8.6-2.8-12.9c-0.2-1-0.4-2-0.5-2.9c0-0.1,0-0.3-0.1-0.4c0,0.2,0-0.1,0-0.2
	c0-0.3-0.1-0.6-0.1-0.9c-0.1-0.6-0.1-1.2-0.2-1.8c-0.1-1.4-0.2-2.9-0.2-4.3c0-0.8,0-1.6,0-2.3c0-0.6-0.6-1.2-1.2-1.2
	c-0.7,0-1.2,0.5-1.2,1.2c-0.2,4.2,0.1,8.3,0.9,12.4c0.6,3.4,1.5,6.7,2.2,10c0.3,1.2,0.5,2.5,0.8,3.7c0.1,0.5,0.2,1,0.3,1.5
	c0,0.1,0,0.2,0,0.3c0,0,0,0.1,0,0.2c0,0,0-0.2,0-0.1c0,0.2,0,0.4,0.1,0.6c0,0.3,0,0.7,0,1c0,0,0,0.4,0,0.4c0,0,0.1-0.3,0-0.1
	c0,0.1,0,0.1,0,0.2c0,0.1-0.1,0.4,0,0.2c0-0.2,0,0,0,0c-0.1,0.1-0.1,0.2-0.2,0.3c-0.1,0.2,0,0-0.1,0.1c-0.1,0.1-0.2,0.2-0.2,0.2
	c-0.1,0.1-0.2,0.2-0.2,0.2c0,0-0.1,0.1-0.1,0.1c-0.2,0.1,0.1-0.1,0,0c-1.6,1.2-3.8,1.5-5.7,1.6s-3.9,0.3-5.8,0.3c-0.5,0-1,0-1.5-0.1
	c-0.1,0-0.2,0-0.4,0c-0.2,0,0.1,0-0.1,0c-0.2,0-0.5-0.1-0.7-0.1c-0.2,0-0.5-0.1-0.7-0.2c-0.1,0-0.2-0.1-0.3-0.1
	c-0.1,0-0.3-0.1-0.3-0.1c0.1,0-0.1-0.1-0.2-0.1c-0.1,0-0.2-0.1-0.3-0.1c-0.2-0.1-0.4-0.2-0.6-0.4c0.2,0.1,0,0-0.1-0.1
	c-0.1-0.1-0.1-0.1-0.2-0.2c-0.1-0.1-0.1-0.1-0.2-0.2c0.1,0.2,0-0.1-0.1-0.1c-0.2-0.4-0.4-0.8-0.4-1.2c-0.1-1,0.3-2.2,0.7-3
	c0.2-0.4,0.4-0.8,0.6-1.2c0.2-0.3,0.2-0.8,0-1.2c-3.3-5.2-7.5-9.9-12.4-13.7c-0.8-0.6-1.6-1.2-2.4-1.8c-0.3-0.2-0.5-0.4-0.8-0.6
	c-0.1,0-0.1-0.1-0.2-0.2c0.2,0.2,0.1,0.1,0,0c-0.2-0.1-0.3-0.2-0.5-0.4c-0.7-0.6-1.4-1.1-2.1-1.7c-3.8-3.2-7.4-6.7-10.6-10.6
	c-0.5-0.6-0.8-0.9-1.2-1.5c-0.4-0.6-0.8-1.1-1.2-1.7c-0.8-1.2-1.5-2.4-2.2-3.6c-0.7-1.2-1.3-2.5-1.8-3.7c-0.6-1.6-1.1-3.2-1.5-4.8
	c-1.7-7.2-1.5-14.8-0.8-22.1c0.1-0.9,0.2-1.8,0.3-2.8c0.1-0.6-0.6-1.2-1.2-1.2C466.5-109.2,466.1-108.6,466.1-108L466.1-108z"/>
<path class="st3" d="M481.9-107.4c-1.6,6.4-1.1,13.3,1.5,19.3c1.3,3.1,3.1,5.9,5.4,8.2c2.1,2.1,4.4,3.9,6.9,5.5
	c2.8,1.8,5.8,3.2,8.9,4.3c0.5,0.2,1.1-0.1,1.3-0.5c0.3-0.5,0.1-1-0.2-1.4c-0.1-0.1-0.1-0.1,0,0c0-0.1-0.1-0.1-0.1-0.2
	c-0.1-0.1-0.2-0.3-0.3-0.4c-0.2-0.3-0.4-0.6-0.6-0.9c-0.4-0.6-0.9-1.3-1.2-2c-0.9-1.5-1.6-3.1-2.2-4.8c-1-2.9-1.6-5.8-1.8-8.8
	c0-0.6-0.5-1.2-1.2-1.2c-0.6,0-1.2,0.5-1.2,1.2c0.3,5.4,1.9,10.8,4.7,15.4c0.7,1.2,1.5,2.3,2.3,3.3c0.4-0.7,0.8-1.3,1.1-2
	c-2.5-0.9-4.9-1.9-7.2-3.3c-2.4-1.4-4.6-3.1-6.7-5c-1.1-1-2.1-2-3-3.2c-0.9-1.3-1.7-2.7-2.4-4.1c-1.3-2.7-2.1-5.6-2.5-8.6
	c-0.4-3.4-0.2-6.9,0.6-10.2C484.5-108.3,482.2-108.9,481.9-107.4L481.9-107.4z"/>
<path class="st3" d="M567.8-96.2c-2.3,4.5-5.3,8.6-9.2,11.8c-1.9,1.6-4.1,2.9-6.1,4.4c-2.3,1.7-4.2,3.8-5.8,6.2
	c-1.5,2.5-2.6,5.2-3.2,8.1c0.8,0.1,1.5,0.2,2.3,0.3c-0.5-7.3,1.1-14.7,4.7-21c0.8-1.4,1.7-2.7,2.6-4c0.4-0.5,0.1-1.3-0.4-1.6
	c-0.6-0.3-1.2-0.1-1.6,0.4c-4.5,6.1-7.2,13.4-7.7,20.9c-0.1,1.8-0.1,3.5,0,5.3c0,0.6,0.4,1.1,1,1.2c0.5,0.1,1.2-0.3,1.3-0.8
	c0.5-2.4,1.3-4.7,2.6-6.8c0.7-1.3,1.6-2.5,2.6-3.6c0.8-0.8,1.8-1.8,2.6-2.4c2-1.6,4.2-2.9,6.3-4.5c1.8-1.4,3.4-3,4.8-4.7
	c2.1-2.4,3.8-5.1,5.2-8c0.3-0.6,0.2-1.3-0.4-1.6C568.9-97,568.1-96.8,567.8-96.2L567.8-96.2z"/>
<path class="st3" d="M505-175.2c-0.2-0.7-0.4-1.4-0.5-2c0-0.1,0-0.8-0.1-0.8c0,0.1-0.1,0.2-0.1,0.4c0,0,0,0.1-0.1,0.1
	c0,0,0.4-0.1,0.5-0.1c0.6-0.1,1.3,0,1.9,0.2c-0.1,0,0.5,0.1,0.3,0.1c0.4,0.1,0.1,0.1,0.1,0c-0.1,0.2-0.1-0.3,0-0.3
	c0.1,0-0.2,0.2-0.1,0.2c-0.5,0.4-1.1,0.5-1.6,0.8c-0.6,0.3-1.1,0.7-1.5,1.2c-0.9,0.9-1.5,2.1-1.8,3.3c-0.5,2.6,0.6,5.3,2.9,6.6
	c2.2,1.3,5,1.1,7.3,0.4c1.4-0.4,2.9-1.1,3.9-2.3c1-1.2,1.5-2.9,1.1-4.4c-0.4-1.4-2.7-0.8-2.3,0.6c0.3,0.9-0.2,2-1,2.7
	c-0.9,0.7-2,1.1-3.1,1.4c-1.9,0.5-4.4,0.4-5.7-1.2c-1.4-1.7-1-4,0.5-5.5c0.4-0.4,0.7-0.6,1.2-0.9c0.6-0.3,1.3-0.5,1.8-1
	c0.5-0.5,0.8-1.2,0.8-1.9c-0.1-1-0.8-1.6-1.6-1.9c-0.8-0.3-1.6-0.4-2.4-0.5c-0.8,0-1.8,0.1-2.5,0.6c-0.8,0.7-0.6,1.6-0.5,2.5
	c0.1,0.8,0.3,1.6,0.5,2.4C503.2-173.1,505.4-173.7,505-175.2L505-175.2z"/>
<path class="st3" d="M495-174.9c-0.4,1.3-0.7,2.7-0.5,4.1c0.2,1.3,0.8,2.5,1.8,3.3c2.2,1.6,5,0.8,7-0.6c-0.5-0.6-1-1.2-1.4-1.9
	c-0.9,0.8-1.9,1.5-2.7,2.4c-0.6,0.7-1.1,1.5-1.4,2.4c-0.5,1.3-0.5,2.7,0,4c0.6,1.7,1.6,3.1,2.7,4.5c1.4,1.8,2.9,3.5,4.4,5.2
	c1.5,1.7,3,3.3,4.6,4.8c1.1,1.1,2.8-0.6,1.7-1.7c-2.8-2.8-5.5-5.7-8-8.7c-1.1-1.3-2.1-2.6-2.8-4.1c-0.1-0.1-0.1-0.3-0.2-0.4
	c-0.1-0.3,0,0.1,0-0.1c0-0.1-0.1-0.2-0.1-0.3c-0.1-0.3-0.2-0.6-0.2-0.9c0,0,0-0.3,0-0.1c0,0.2,0-0.1,0-0.1c0-0.1,0-0.2,0-0.4
	c0-0.1,0-0.1,0-0.2c0-0.3,0,0.2,0,0c0-0.1,0.1-0.3,0.1-0.4c0-0.2,0.1-0.3,0.2-0.5c0-0.1,0-0.1,0.1-0.2c-0.1,0.2,0-0.1,0.1-0.1
	c0.2-0.4,0.4-0.8,0.6-1c0.4-0.4,0.8-0.8,1.2-1.1c0.5-0.4,1-0.9,1.6-1.4c1-0.9-0.3-2.6-1.4-1.9c-1.3,0.9-3.2,1.7-4.5,0.7
	c-1.3-1.1-0.8-3.3-0.3-4.8C497.6-175.7,495.4-176.4,495-174.9L495-174.9z"/>
<path class="st3" d="M517.2-180c0-0.6,0-1.2,0-1.7c0,0.2,0,0,0-0.1c0-0.1,0-0.2,0.1-0.3c0-0.2,0.1-0.4,0.2-0.6
	c0.1-0.4,0.3-0.9,0.6-1.3c0.8-1.4,2.2-2.2,3.7-2.7c2.8-0.9,6.3-0.6,8.2,1.9c1.1,1.4,1.6,3,2.1,4.8c0.2-0.4,0.4-0.9,0.5-1.3
	c-0.1,0.1-0.2,0.1-0.3,0.1c0,0-0.4,0.2-0.2,0.1c-0.2,0.1-0.5,0.2-0.7,0.3c-0.5,0.2-1.1,0.4-1.6,0.6c-1.3,0.4-2.6,0.7-3.9,0.8
	c-3.2,0.3-6.4-0.1-9.2-1.6c-0.6-0.3-1.3-0.1-1.6,0.4c-0.3,0.5-0.2,1.3,0.4,1.6c3.2,1.6,6.8,2.3,10.4,1.9c2.8-0.3,5.4-1.1,7.9-2.2
	c0.5-0.2,0.7-0.9,0.5-1.3c-0.4-1.8-1.1-3.6-2.1-5.1c-1.3-1.9-3.2-3.2-5.5-3.6c-1.7-0.3-3.3-0.3-5,0.2c-1.9,0.5-3.9,1.6-5.2,3.2
	c-1.3,1.7-1.9,3.9-1.7,6c0.1,0.6,0.5,1.2,1.2,1.2C516.7-178.8,517.3-179.4,517.2-180z"/>
<path class="st3" d="M502.4-180.1c0.8-3-0.1-6.6-3-8.1c-1.2-0.6-2.6-0.8-4-0.7c-1.3,0.1-2.7,0.3-3.8,0.9c-1.4,0.7-2.6,2-3.5,3.2
	c-0.5,0.6-0.9,1.3-1.3,2s-0.6,1.5-0.4,2.2c0.4,1.1,1.5,1.7,2.5,2c1.2,0.4,2.5,0.6,3.8,0.7c3.1,0.3,6.2-0.3,9.1-1.5
	c0.6-0.2,0.7-1.1,0.4-1.6c-0.4-0.6-1-0.7-1.6-0.4c-1.2,0.5-2.5,0.9-3.7,1.1c-0.1,0-0.2,0-0.4,0.1c-0.2,0,0.1,0,0,0
	c-0.1,0-0.1,0-0.2,0c-0.2,0-0.5,0.1-0.7,0.1c-0.5,0-0.9,0-1.4,0c-0.5,0-1,0-1.6-0.1c-0.6-0.1-0.9-0.1-1.5-0.2
	c-0.5-0.1-1-0.2-1.4-0.4c-0.1,0-0.2-0.1-0.4-0.1c-0.2-0.1,0.1,0.1-0.1,0c-0.2-0.1-0.4-0.2-0.5-0.3c0,0-0.1-0.1-0.1-0.1
	c0,0,0.2,0.1,0.1,0.1c0,0-0.1-0.1-0.2-0.2c-0.1,0,0.1,0.1,0.1,0.1c0,0,0-0.1-0.1-0.1c0.1,0.3,0,0,0,0c0.1-0.1-0.1,0.2,0.1,0
	c0-0.1,0.1-0.2,0.1-0.3c0.1-0.3,0.3-0.6,0.5-0.9c0.7-1.1,1.6-2.1,2.6-2.9c0.8-0.7,1.8-0.9,2.9-1.1c0,0,0.1,0,0.1,0c0,0-0.2,0-0.1,0
	c0.1,0,0.2,0,0.3,0c0.3,0,0.5,0,0.8,0c0.2,0,0.5,0,0.7,0c0.1,0,0.1,0,0.2,0c0,0-0.1,0,0,0c0.1,0,0.3,0.1,0.4,0.1
	c1.2,0.3,2.1,0.9,2.6,2.1c0.5,1.1,0.5,2.4,0.2,3.7C499.7-179.2,502-178.6,502.4-180.1z"/>
<path class="st3" d="M602.3-61.7c1.2-6.2,3.2-12,6.6-17.3c0.3-0.5,0.7-1,1-1.4c0.2-0.2,0.3-0.4,0.5-0.7c0.1-0.1,0.2-0.2,0.2-0.3
	c0,0,0.1-0.2,0,0c0-0.1,0.1-0.1,0.2-0.2c0.8-1.1,1.7-2.1,2.6-3.1c2.2-2.3,4.5-4.5,6.8-6.8c4.5-4.6,8.9-9.7,11.2-15.8
	c0.6-1.7,1-3.5,1.2-5.3c0.1-1.5,0-3,0-4.5c0-0.1,0-0.6,0-0.6c0,0-0.1,0.3,0,0.1c-0.1,0.2-0.2,0.4-0.5,0.6c-0.2,0.1-0.3,0.1-0.5,0.1
	c-0.2,0-0.2,0-0.1,0c0,0-0.3-0.2-0.1,0c0.2,0.1-0.2-0.2,0,0c0.1,0.1,0.1,0.1,0.2,0.2c0.1,0.1,0.3,0.3,0.4,0.4c-0.2-0.2,0,0,0.1,0.1
	c0.1,0.1,0.2,0.2,0.2,0.3c0.3,0.5,0.7,1,1,1.6c3,5.2,5,10.9,5.6,16.9c0.6,6.5-0.2,13-2.1,19.2c-1.7,5.5-4.2,10.8-7.5,15.5
	c-0.3,0.5-0.7,1-1.1,1.5c0,0.1-0.1,0.1-0.2,0.2c-0.2,0.2,0.1-0.1,0,0c-0.1,0.2-0.2,0.3-0.4,0.5c-0.3,0.3-0.5,0.7-0.8,1
	c-1.3,1.6-2.7,3.1-4.2,4.5c-4,3.8-8.3,7-13.3,9.4c-6.1,3-12.9,4.8-19.8,5.2c-1.3,0.1-2.6,0.1-3.9,0.1c-1.5,0-1.5,2.3,0,2.3
	c6.9,0.2,13.9-1,20.4-3.5c5.7-2.2,11-5.4,15.7-9.4c3.2-2.7,6.1-5.8,8.6-9.2c3-4,5.4-8.5,7.3-13.2c2.5-6.3,3.8-13.2,3.8-20
	c0-3.3-0.4-6.6-1.1-9.8c-0.7-3.1-1.8-6-3.2-8.9c-0.7-1.3-1.3-2.7-2.1-4c-0.5-0.9-1.1-1.9-1.9-2.6c-0.4-0.3-0.8-0.6-1.3-0.6
	c-0.7,0-1.2,0.5-1.4,1.1c-0.1,0.5-0.1,1-0.1,1.5c0,0.7,0.1,1.4,0.1,2.2c0,3.4-0.9,6.6-2.5,9.5c-1.6,2.9-3.4,5.6-5.6,8.1
	c-4.2,4.8-9.2,8.8-13.2,13.8c-3.6,4.6-6.1,9.8-7.7,15.4c-0.5,1.8-0.9,3.6-1.3,5.4c-0.1,0.6,0.2,1.3,0.8,1.5
	C601.4-60.7,602.2-61.1,602.3-61.7L602.3-61.7z"/>
<path class="st10" d="M-1.5,365.8c-3.7-4.4-8.2-8-12.7-11.5c-4.4-3.5-8.3-7.6-11.9-11.9c-3.7-4.3-6.7-9-7.8-14.7
	c-1.3-6.5-0.3-13.3,0.5-19.8c0.3-2.2-3.1-3.2-3.4-0.9c-1.5,10.9-2.6,22.3,3.6,32c2.9,4.5,6.6,8.4,10.3,12.3c3.9,4.1,8.6,7.2,12.8,11
	c3.7,3.4,11.4,9.5,7.8,15.2c-1.2,1.9,1.9,3.7,3.1,1.8C3.8,374.8,1.7,369.6-1.5,365.8z"/>
<path class="st10" d="M22.8,349.8c-2.8,9.2-4.4,19-5.1,28.5c-0.2,2.3,3.4,2.3,3.5,0c0.6-9.2,2.3-18.7,5-27.5
	C26.9,348.6,23.4,347.7,22.8,349.8z"/>
<path class="st10" d="M-4.6,336.7c-5.1-1.6-8.6-6.8-11.2-11.2c-3.1-5.4-3.8-11.3-2.9-17.4c0.4-2.2-3.1-3.2-3.4-0.9
	c-1.1,7.1-0.4,13.9,3.2,20.2c3,5.3,7.3,10.9,13.3,12.8C-3.3,340.8-2.4,337.4-4.6,336.7z"/>
<path class="st10" d="M42.7,323.4c-1.5,2.5-2.7,5.1-3.7,7.8c-1,2.7-1.5,5.7-3.1,8.1c-1.3,1.9,1.8,3.7,3.1,1.8c1.6-2.4,2.1-5.1,3-7.8
	c1-2.8,2.3-5.5,3.8-8.1C47,323.2,43.9,321.5,42.7,323.4z"/>
<path class="st10" d="M-5.1,375c-9.2,0.2-18-0.5-25.9-5.5c-3.5-2.2-6.6-4.9-9.5-7.8c-2.9-2.9-6-6-8-9.5c-4.1-7.4-1.9-16.5-0.1-24.2
	c1.1-4.5,2.1-9.1,3.7-13.5c1.5-4.5,3.7-8.6,5.8-12.9c4.4-9,8.7-18,13.5-26.8c2.9,8.6,6.6,16.8,7.5,16.5c0.3-0.1,0.2-1,0.2-1.7
	c-0.6-8-4.3-15.2-4.8-17c-1-3.7-4-9.2-3.7-15.9c0.4-6.7,3.5-12.5,8.9-22.5c2.5-4.5,3.9-6.6,3.5-7c-0.7-0.6-7.1,4.5-11.2,11.7
	c-2.9,5-5,10-4.9,15.9c0.1,4.9,0.9,8.8,3.1,15.8c-0.3,0.1-0.6,0.4-0.8,0.8c-4.9,8.9-9.3,18.1-13.8,27.2c-2.2,4.4-4.5,8.8-6.2,13.4
	c-1.8,4.7-2.9,9.6-4.1,14.4c-2.2,9.4-3.3,17.2-0.5,26c0.9,2.6,2.4,7.3,6.5,11.5c2.3,2.4,5.1,4,10.7,7c5.6,3.1,8.5,5.1,13,6.2
	c5.6,1.4,11.4,1.4,17,1.3C-2.8,378.5-2.8,375-5.1,375z"/>
<path class="st3" d="M13.6,232.7c-0.6,0.7-0.9,1.6-1.1,2.4c-0.1,0.8-0.4,2.1,0.3,2.7c0.5,0.4,1,0.5,1.6,0.2c0.6-0.3,0.9-1,1-1.6
	c0.1-0.7,0.2-1.4,0.4-2.1c0.4-1.5-1.6-2.3-2.4-1c0,0.1-0.1,0.2-0.2,0.2c-0.9,1.4,1.4,2.8,2.3,1.3c0-0.1,0.1-0.2,0.2-0.2
	c-0.8-0.3-1.6-0.7-2.4-1c-0.1,0.5-0.2,1-0.3,1.5c0,0.2-0.1,0.5-0.1,0.7c0,0.1,0,0.1,0,0.2c-0.1,0.3,0,0.2,0.2-0.1
	c0.5,0.1,1.1,0.1,1.6,0.2c0,0,0,0-0.1,0c0.1,0.2,0.2,0.4,0.3,0.6c-0.1-0.3,0.2-1.6,0.5-1.9c0.5-0.5,0.5-1.4,0-1.9
	C15,232.2,14,232.1,13.6,232.7L13.6,232.7z"/>
<path class="st3" d="M-13.8,233.6c-0.3,0.5-0.7,1-0.9,1.5c-0.3,0.7-0.2,1.7,0.5,2.2c0.8,0.6,1.8,0.2,2.2-0.6
	c0.3-0.6,0.5-1.2,0.7-1.8c0.2-0.6-0.3-1.5-0.9-1.6c-0.8-0.2-1.4,0.2-1.6,0.9c-0.1,0.3-0.2,0.6-0.3,0.8c0.1-0.2-0.1,0.3-0.1,0.2
	c0,0.1-0.1,0.2-0.2,0.3c0.2-0.2,0.3-0.3,0.5-0.5c0,0,0,0-0.1,0c0.5,0,0.9,0,1.3,0c0,0,0,0,0,0c0.2,0.2,0.3,0.3,0.5,0.5
	c0.1,0.1,0.1,0.3,0.1,0.5c0,0,0-0.1,0-0.1c-0.1,0.2,0.1-0.2,0.1-0.2c0.2-0.3,0.3-0.5,0.5-0.8c0.4-0.6,0.1-1.5-0.5-1.8
	C-12.7,232.8-13.4,233-13.8,233.6L-13.8,233.6z"/>
<path class="st3" d="M-15.8,205.5c-0.3,3-0.5,6-0.8,9c-0.2,2.6-0.6,5.3-0.2,7.9c0.2,1.5,0.6,2.9,1.3,4.2c0.5,0.9,1.9,0.1,1.4-0.8
	c-1.6-2.8-1.3-6.1-1.1-9.1c0.3-3.7,0.6-7.5,1-11.2c0-0.4-0.4-0.8-0.8-0.8C-15.5,204.7-15.8,205.1-15.8,205.5L-15.8,205.5z"/>
<path class="st3" d="M0.1,218.9c3.5-0.9,7-1.7,10.6-2.2c3.5-0.5,7.1-0.7,10.6-0.4c2,0.2,4,0.5,6,0.9c1,0.2,1.4-1.3,0.4-1.5
	c-3.6-0.8-7.3-1.1-11-1.1c-3.7,0.1-7.4,0.6-11,1.4c-2,0.4-4,0.9-6.1,1.4C-1.3,217.6-0.9,219.2,0.1,218.9L0.1,218.9z"/>
<path class="st3" d="M28.5,217.1c1.2-1,2.3-2.1,3.4-3.2c1.2-1.1,2.4-2.1,3.8-2.9c1.4-0.9,2.9-1.8,4.3-2.7c1.3-0.8,2.7-1.7,4.2-2.2
	c1-0.3,0.5-1.9-0.4-1.5c-1.6,0.5-3,1.4-4.5,2.3c-1.5,0.9-3,1.9-4.5,2.8c-1.4,0.9-2.8,1.9-4,3.1c-1.2,1.1-2.3,2.3-3.5,3.3
	c-0.3,0.3-0.3,0.9,0,1.1C27.7,217.4,28.1,217.3,28.5,217.1L28.5,217.1z"/>
<path class="st3" d="M43.2,205.6c2.1,5.4,3.3,11.1,3.4,16.9c0,1.6,0,3.3-0.2,4.9c0,0.4,0.4,0.8,0.8,0.8c0.5,0,0.8-0.4,0.8-0.8
	c0.5-5.9,0-11.8-1.6-17.5c-0.5-1.6-1-3.2-1.6-4.7c-0.2-0.4-0.5-0.7-1-0.6C43.4,204.8,43.1,205.2,43.2,205.6L43.2,205.6z"/>
<path class="st3" d="M43.2,204.7c-4.1,5.1-7.4,10.8-9.8,16.8c-0.2,0.4,0.2,0.9,0.6,1c0.5,0.1,0.8-0.2,1-0.6
	c2.3-5.8,5.5-11.3,9.4-16.1c0.3-0.3,0.3-0.8,0-1.1C44.1,204.4,43.5,204.3,43.2,204.7L43.2,204.7z"/>
<path class="st3" d="M-15,206.5c5.4,3.3,10.2,7.5,14.4,12.2c0.7,0.8,1.8-0.4,1.1-1.1c-4.3-4.8-9.2-9-14.7-12.5
	C-15.1,204.6-15.9,206-15,206.5L-15,206.5z"/>
<path class="st3" d="M-15.3,206.9c3.5,4.8,6.6,9.9,9.2,15.2c0.5,0.9,1.8,0.1,1.4-0.8c-2.6-5.3-5.7-10.4-9.2-15.2
	c-0.3-0.4-0.7-0.5-1.1-0.3C-15.4,206-15.6,206.5-15.3,206.9L-15.3,206.9z"/>
<path class="st3" d="M-15.2,226.2c-2.1,1.8-4.2,3.7-6,5.8c-1.6,1.8-3.3,3.8-4.7,5.8c-2.5,3.6-4.1,7.9-4.6,12.3
	c-0.3,3,0.1,6.2,0.6,9.2c0.8,4.5,1.9,9,3.2,13.4c1.7,5.7,3.7,11.2,5.8,16.7c0.3,0.8,0.6,1.5,0.9,2.3c0.2,0.4,0.5,0.7,1,0.6
	c0.4-0.1,0.7-0.6,0.6-1c-2.3-5.5-4.3-11.1-6.1-16.9c-1.4-4.5-2.7-9.1-3.5-13.8c-0.6-3.1-1.1-6.3-0.9-9.5c0-0.3,0-0.6,0.1-0.9
	c0-0.1,0-0.2,0-0.4c0,0,0,0.1,0,0c0-0.1,0-0.1,0-0.2c0.2-1.3,0.5-2.7,0.9-4c0.6-1.9,1.3-3.6,2.3-5.3c1.3-2.2,2.9-4.1,4.5-6.1
	c1.6-1.9,3.4-3.7,5.2-5.4c0.6-0.5,1.2-1,1.8-1.5c0.3-0.3,0.3-0.8,0-1.1C-14.4,225.9-14.8,225.9-15.2,226.2L-15.2,226.2z"/>
<path class="st3" d="M46.8,227.9c2.6,4.1,4.8,8.4,6.7,12.8c1.7,3.8,2.8,7.7,3.1,11.8c0.2,2.9,0.1,5.9-0.3,8.8
	c-0.1,0.4,0.4,0.8,0.8,0.8c0.5,0,0.7-0.4,0.8-0.8c0.6-4.7,0.5-9.5-0.6-14.1c-0.5-2-1.2-4-2-5.9c-1.1-2.6-2.3-5.1-3.6-7.6
	c-1.1-2.2-2.4-4.4-3.7-6.5C47.6,226.2,46.2,227,46.8,227.9L46.8,227.9z"/>
<path class="st3" d="M56.7,250.5c6.7,13.3,13,26.8,18.8,40.6c1.6,3.9,3.6,7.6,5.3,11.4c2.6,5.8,4.9,11.8,6.6,17.9
	c1.8,6.3,3.1,12.6,2.7,19.2c-0.3,5.7-1.7,11.4-4.1,16.6c-3.9,8.3-10.8,15-18.8,19.2c-9,4.6-19.7,5.7-29.4,3.2
	c-0.6-0.1-1.2-0.3-1.8-0.5c-1-0.3-1.4,1.2-0.4,1.5c10,3,21.1,2.2,30.7-2.1c8.5-3.8,15.8-10.6,20.3-18.8c2.2-4,3.7-8.5,4.5-13
	c1.3-6.8,1-13.5-0.6-20.2c-1.5-6.5-3.6-13-6.2-19.2c-1.9-4.6-4.1-9.2-6.2-13.7c-1.1-2.4-2.2-4.9-3.2-7.4c-1.5-3.6-3.1-7.1-4.7-10.7
	c-3.1-6.8-6.3-13.6-9.6-20.2c-0.8-1.6-1.6-3.1-2.4-4.7C57.7,248.8,56.3,249.6,56.7,250.5L56.7,250.5z"/>
<path class="st11" d="M-25.5,240.1"/>
<path class="st3" d="M-27.5,268.9c-4.7,8.3-9.1,16.7-13.2,25.3c-2.6,5.5-5.1,11-7.4,16.5c-2,4.9-4.1,9.8-5.5,14.8
	c-2.9,10-2.9,21.1,1.6,30.6c2.2,4.6,5.4,8.8,9.4,12.1c3.1,2.6,6.5,4.6,10.1,6.4c4.5,2.1,9,3.9,13.9,4.9c4.6,1,9.4,1.3,14.1,1.1
	c0.8,0,1.6-0.1,2.5-0.2c1-0.1,1-1.7,0-1.6c-4.1,0.4-8.3,0.3-12.4-0.2c-5.3-0.7-10.5-2.3-15.3-4.5c-3.2-1.5-6.4-3.1-9.3-5.1
	c-3.8-2.7-7.2-6.1-9.6-10.1c-5.5-8.9-6.4-20.1-4-30.1c1.1-4.8,3-9.4,4.8-14c2.2-5.6,4.7-11.1,7.2-16.6c4.1-8.9,8.6-17.6,13.4-26.1
	c0.4-0.8,0.9-1.6,1.3-2.3C-25.6,268.8-27,268-27.5,268.9L-27.5,268.9z"/>
<path class="st3" d="M32.8,373.9c0.6,1,1.2,2.1,1.7,3.3c0.1,0.3,0.2,0.6,0.2,0.9c0,0.3-0.4,0.5-0.7,0.7c-0.8,0.5-1.7,1-2.6,1.4
	c-3.7,1.4-8.1,1.3-11.5-0.7c-0.8-0.5-1.5-1.1-1.8-2c-0.2-0.6-0.2-1.3-0.1-1.8c0.1-0.8,0.3-1.5,0.4-2.3c0.6-2.9,1.2-5.8,1.8-8.8
	c1-5,2.1-10,3.1-15c0.2-1-1.3-1.4-1.5-0.4c-1.7,7.9-3.4,15.8-4.9,23.8c-0.1,0.8-0.3,1.6-0.4,2.3c-0.1,0.9-0.1,1.8,0.1,2.7
	c0.4,1.1,1.2,1.9,2.1,2.5c3.6,2.4,8.7,2.6,12.7,1.2c1.1-0.4,2.3-0.9,3.3-1.6c0.6-0.4,1.2-0.8,1.5-1.5c0.2-0.5,0.1-1,0-1.5
	c-0.2-0.9-0.6-1.7-1.1-2.5c-0.3-0.6-0.6-1.1-0.9-1.7C33.6,372.2,32.2,373,32.8,373.9L32.8,373.9z"/>
<path class="st3" d="M71.1,315.6c0.7,2.6,0.5,5.4,0.4,8c-0.2,2.7-0.5,5.3-1.1,7.9c-1.1,4.6-3.4,8.8-6.3,12.6
	c-2.9,3.8-6.4,7.2-10,10.3c-1.9,1.7-4,3.4-6.1,4.8c-2,1.3-4,2.4-6.1,3.6c-2.1,1.2-4.3,2.4-6.1,4.1c-1.8,1.6-4,4.2-3.2,6.8
	c0.3,1,1.9,0.6,1.5-0.4c-0.4-1.2,0.3-2.3,1-3.2c0.6-0.9,1.3-1.6,2.1-2.3c1.6-1.4,3.5-2.5,5.3-3.5c2-1.1,4.1-2.2,6-3.5
	c2.1-1.5,4.2-3.1,6.1-4.8c7.1-6.2,14.3-13.6,16.9-22.9c0.8-2.9,1.2-6,1.4-9c0.2-3,0.4-6-0.4-8.9C72.3,314.1,70.8,314.6,71.1,315.6
	L71.1,315.6z"/>
<path class="st3" d="M-37.6,307c-0.8,7-1.2,14.2,0,21.2c0.5,3.1,1.4,6.2,2.7,9.1c1.1,2.5,2.5,4.8,4.1,6.9c2.9,4,6.4,7.6,10.1,10.8
	c2.1,1.8,4.2,3.5,6.4,5.1c0.6,0.4,0.9,0.7,1.5,1.2c1,0.9,2.1,1.8,3,2.7c2.4,2.3,4.5,4.8,6.4,7.6c0.3,0.5,0.6,1,0.9,1.4
	c0-0.3,0-0.5,0-0.8c-1.1,1.9-2.1,4.4-1.1,6.5c0.8,1.8,2.7,2.7,4.6,3c1.9,0.3,3.9,0.3,5.8,0.2c2.1-0.1,4.3-0.2,6.3-0.9
	c1.6-0.5,3.7-1.6,4.1-3.5c0.4-1.5,0-3.2-0.3-4.6c-0.8-4.1-1.8-8.1-2.7-12.2c-0.7-3.2-1-6.6-1-9.9c0-0.7,0-1.5,0-2.2c0-1-1.6-1-1.6,0
	c-0.1,3.9,0.1,7.8,0.8,11.6c0.6,3.2,1.4,6.3,2.1,9.5c0.4,1.9,1,4,1.1,5.9c0,0.3,0,0.6,0,1c0,0.1,0,0.2,0,0.4c0-0.2,0,0.1,0,0.2
	c0,0.1-0.1,0.3-0.1,0.2c0.1-0.1,0,0,0,0c-0.1,0.1-0.1,0.2-0.2,0.3c-0.2,0.3-0.5,0.6-0.8,0.8c-1.5,1.2-3.7,1.4-5.5,1.6
	c-1.8,0.2-3.7,0.3-5.5,0.2c-1.6,0-3.6-0.2-4.9-1.2c-1.5-1.2-1.1-3.4-0.4-5c0.2-0.4,0.4-0.8,0.6-1.1c0.1-0.2,0.1-0.6,0-0.8
	c-3.1-4.9-7-9.2-11.6-12.8c-0.7-0.5-1.4-1.1-2.1-1.6c-0.2-0.2-0.5-0.4-0.7-0.5c-0.1,0-0.1-0.1-0.2-0.1c0.1,0.1-0.1,0-0.1-0.1
	c-0.1-0.1-0.3-0.2-0.4-0.3c-0.7-0.5-1.3-1.1-2-1.6c-3.6-3-7-6.3-10-10c-1.6-2-3.1-4.2-4.4-6.5c-1.4-2.6-2.4-5.3-3.1-8.1
	c-1.6-6.8-1.4-14-0.7-20.9c0.1-0.9,0.2-1.7,0.3-2.6c0-0.4-0.4-0.8-0.8-0.8C-37.2,306.2-37.5,306.6-37.6,307L-37.6,307z"/>
<path class="st3" d="M-22.7,307.6c-1.5,5.9-1,12.3,1.4,18c1.2,2.9,2.9,5.5,5,7.6c1.9,1.9,4.1,3.6,6.4,5.1c2.6,1.7,5.4,3,8.3,4
	c0.3,0.1,0.7-0.1,0.9-0.4c0.2-0.3,0.1-0.7-0.1-1c-3.6-4.7-5.7-10.4-6-16.3c0-1-1.6-1-1.6,0c0.2,5,1.7,10,4.3,14.3
	c0.6,1.1,1.4,2.1,2.1,3.1c0.3-0.4,0.5-0.9,0.8-1.3c-4.9-1.7-9.4-4.4-13.2-7.9c-1-0.9-2-2-2.9-3.1c-0.9-1.2-1.6-2.5-2.2-3.8
	c-1.2-2.6-2-5.4-2.4-8.2c-0.4-3.2-0.2-6.5,0.6-9.7C-20.9,307.1-22.5,306.6-22.7,307.6L-22.7,307.6z"/>
<path class="st3" d="M58.2,318.2c-2.2,4.3-5,8.1-8.7,11.2c-1.8,1.5-3.9,2.8-5.8,4.2c-2.1,1.6-3.9,3.5-5.3,5.8
	c-1.4,2.3-2.4,4.9-3,7.5c0.5,0.1,1,0.1,1.6,0.2c-0.5-6.9,1.1-13.9,4.5-20c0.7-1.3,1.6-2.6,2.5-3.8c0.3-0.4,0.1-0.9-0.3-1.1
	c-0.4-0.2-0.8-0.1-1.1,0.3c-4.2,5.7-6.7,12.5-7.2,19.5c-0.1,1.7-0.1,3.3,0,5c0.1,0.9,1.4,1.1,1.6,0.2c1.1-4.8,3.5-9.2,7.4-12.2
	c1.9-1.5,4-2.7,5.8-4.2c1.6-1.3,3.2-2.8,4.5-4.4c1.9-2.3,3.5-4.8,4.9-7.5C60,318.1,58.6,317.3,58.2,318.2L58.2,318.2z"/>
<path class="st3" d="M-1.5,243.9c-0.2-0.6-0.3-1.3-0.4-1.9c0-0.2-0.2-0.6-0.1-0.8c-0.1,0.2-0.1,0,0,0.1c0.1,0,0.4-0.1,0.5-0.1
	c0.6,0,1.2,0,1.8,0.2c0.1,0,0.5,0.1,0.6,0.3c0-0.1,0,0,0,0c0,0.1-0.1,0.2-0.2,0.3c-0.4,0.3-1,0.4-1.5,0.7c-0.5,0.3-1,0.7-1.4,1.1
	c-0.8,0.8-1.4,1.8-1.6,3c-0.4,2.3,0.5,4.7,2.6,5.9c2,1.1,4.5,1,6.6,0.3c1.3-0.4,2.6-1,3.5-2.1c0.9-1.1,1.3-2.5,0.9-3.9
	c-0.3-1-1.8-0.6-1.5,0.4c0.7,2.4-2.2,3.8-4.1,4.2c-1.9,0.5-4.4,0.4-5.7-1.3c-1.3-1.7-1-4.1,0.5-5.5c0.4-0.4,0.8-0.6,1.2-0.9
	c0.5-0.3,1.2-0.4,1.6-0.9c0.4-0.4,0.7-1,0.7-1.6c-0.1-0.8-0.6-1.2-1.3-1.5c-0.7-0.3-1.5-0.4-2.2-0.4c-0.7,0-1.5,0-2.1,0.5
	c-0.6,0.5-0.5,1.3-0.4,2c0.1,0.8,0.3,1.5,0.5,2.2C-2.8,245.3-1.2,244.9-1.5,243.9L-1.5,243.9z"/>
<path class="st3" d="M-10.4,244.1c-0.6,2.2-1,5,1.1,6.5c1.9,1.5,4.5,0.7,6.3-0.5c-0.3-0.4-0.6-0.8-1-1.2c-0.8,0.7-1.8,1.4-2.5,2.2
	c-0.6,0.6-1,1.4-1.3,2.1c-0.5,1.2-0.4,2.4,0,3.6c0.6,1.5,1.5,2.9,2.5,4.2c1.3,1.7,2.7,3.3,4.1,4.8c1.4,1.6,2.8,3.1,4.3,4.5
	c0.7,0.7,1.9-0.4,1.1-1.1c-2.7-2.6-5.2-5.4-7.5-8.2c-1-1.2-2-2.5-2.7-4c-0.3-0.5-0.5-1.1-0.6-1.6c-0.1-0.4-0.1-0.9,0.1-1.3
	c0.2-0.6,0.5-1.3,1-1.8c0.3-0.4,0.8-0.7,1.2-1.1c0.5-0.4,1-0.9,1.5-1.3c0.7-0.6-0.2-1.8-1-1.2c-1.3,0.9-3.2,1.7-4.6,0.6
	c-1.5-1.1-0.9-3.4-0.5-4.8C-8.6,243.6-10.1,243.1-10.4,244.1L-10.4,244.1z"/>
<path class="st3" d="M10,239.3c-0.1-1.4,0.1-2.7,0.8-3.9c0.8-1.3,2.2-2.2,3.7-2.7c2.8-1,6.3-0.5,8.1,1.9c1,1.3,1.6,3,2,4.6
	c0.1-0.3,0.2-0.6,0.4-0.9c-4.8,2.2-10.5,2.8-15.3,0.3c-0.9-0.5-1.7,0.9-0.8,1.4c3,1.5,6.3,2.1,9.6,1.8c2.5-0.3,5-1,7.3-2.1
	c0.3-0.1,0.4-0.6,0.4-0.9c-0.4-1.6-1-3.3-2-4.7c-1.2-1.7-2.9-2.9-5-3.3c-1.5-0.3-3-0.2-4.5,0.2c-1.8,0.5-3.6,1.4-4.8,2.9
	c-1.2,1.5-1.7,3.5-1.5,5.4c0,0.4,0.3,0.8,0.8,0.8C9.6,240,10,239.7,10,239.3z"/>
<path class="st3" d="M-4,239.1c0.7-2.7-0.1-5.9-2.7-7.3c-1.1-0.5-2.3-0.7-3.6-0.6c-1.1,0.1-2.4,0.3-3.4,0.8c-1.3,0.6-2.4,1.9-3.3,3
	c-0.4,0.6-0.9,1.2-1.1,1.8c-0.3,0.6-0.5,1.2-0.3,1.9c0.3,0.9,1.3,1.4,2.2,1.7c1.1,0.4,2.3,0.6,3.5,0.7c2.9,0.2,5.7-0.2,8.4-1.4
	c0.4-0.2,0.5-0.8,0.3-1.1c-0.2-0.4-0.7-0.5-1.1-0.3c-2,0.9-4.1,1.3-6.2,1.2c-1,0-2-0.1-2.9-0.3c-0.8-0.2-1.7-0.4-2.3-0.8
	c0,0-0.1,0-0.1-0.1c0,0,0.1,0.1,0,0c0,0-0.1-0.1-0.1-0.1c-0.1-0.1,0,0,0,0c0,0-0.1-0.1-0.1-0.1c0,0.2,0,0,0-0.1
	c0-0.4,0.4-0.9,0.6-1.3c0.6-1,1.5-2,2.5-2.8c0.8-0.7,1.8-0.9,2.9-1.1c0.8-0.1,1.7-0.1,2.6,0c2.6,0.6,3.5,3.4,2.9,5.8
	C-5.8,239.7-4.3,240.1-4,239.1z"/>
<path class="st3" d="M90,350.5c1.1-5.8,3-11.4,6.3-16.3c2.9-4.4,6.9-8,10.7-11.8c4.2-4.3,8.3-9,10.5-14.8c0.6-1.6,0.9-3.2,1.1-4.9
	c0.1-1.4,0-2.8,0-4.3c0-0.2,0-0.4,0-0.6c0,0.2,0,0,0,0c-0.1,0.1-0.1,0.2-0.3,0.3c-0.1,0-0.2,0-0.3,0c-0.1,0-0.1,0,0,0c0,0-0.2,0,0,0
	c0.1,0-0.1-0.1,0,0c0.1,0.1,0.1,0.1,0.2,0.2c0.3,0.3,0.4,0.5,0.7,0.9c0.3,0.5,0.6,1,0.9,1.5c2.9,4.9,4.8,10.4,5.3,16.1
	c0.5,6.1-0.2,12.3-2,18.2c-1.6,5.2-4,10.2-7.1,14.6c-0.3,0.5-0.7,0.9-1,1.4c0,0.1-0.1,0.1-0.2,0.2c0,0,0,0.1-0.1,0.1
	c0,0,0.1-0.1,0,0c-0.1,0.1-0.2,0.3-0.3,0.4c-0.2,0.3-0.5,0.6-0.7,0.9c-1.2,1.5-2.5,2.9-3.9,4.2c-3.7,3.6-8,6.6-12.6,8.9
	c-5.8,2.9-12.2,4.5-18.7,4.9c-1.2,0.1-2.5,0.1-3.7,0c-1,0-1,1.6,0,1.6c6.5,0.1,13-1,19.1-3.3c5.3-2.1,10.3-5.1,14.6-8.8
	c3-2.5,5.7-5.4,8-8.5c2.8-3.8,5.1-8,6.8-12.4c2.3-5.9,3.6-12.3,3.6-18.7c0-3.1-0.3-6.1-1-9.1c-0.7-2.9-1.7-5.6-3-8.3
	c-0.6-1.3-1.3-2.5-2-3.7c-0.5-0.8-1-1.7-1.8-2.4c-0.7-0.6-1.7-0.7-2,0.4c-0.1,0.4-0.1,0.9-0.1,1.4c0,0.7,0.1,1.4,0.1,2
	c0,3.2-0.9,6.2-2.4,9.1c-1.5,2.8-3.3,5.3-5.3,7.6c-3.9,4.5-8.7,8.3-12.4,13c-3.3,4.3-5.7,9.2-7.2,14.4c-0.5,1.7-0.9,3.4-1.2,5.1
	c-0.1,0.4,0.1,0.9,0.6,1C89.4,351.2,90,350.9,90,350.5L90,350.5z"/>
<g>
	<g id="XMLID_00000095309716193527598610000003406457924162321280_">
		<g>
			<path class="st1" d="M59.7,39.1c0.3,0.4,1.1,0.1,1.2,0c1.2-0.4,1.7-2,1.9-2.5c0.6-1.8,1.8-3.3,3-4.5c0.1-0.1,0.2-0.2,0.2-0.2
				s0.2-0.2,0.2-0.2c0.2-0.2,0.5-0.5,0.7-0.6c0.2-0.2,0.4-0.4,0.6-0.6c0.1-0.1,0.2-0.2,0.4-0.3c0.5-0.5,0.8-0.8,0.7-0.9
				c0,0-0.1-0.1-0.2-0.1c-0.1,0-0.1,0-0.2,0c-0.6,0.1-1.8,0.8-2.3,1.1c-0.7,0.4-1.4,0.9-1.9,1.3c-0.4,0.3-0.8,0.6-1.1,1
				c-0.1,0.1-0.2,0.2-0.3,0.3c-0.8,0.8-1.2,1.4-1.4,1.7C60.4,35.9,59,38.5,59.7,39.1z M123.5,128.2c-0.3,0.6-0.6,1.1-0.9,1.6
				c-2.2,3.3-2.5,3.7-2.8,4.1c-0.8,1-1.5,1.8-2.2,2.5c-0.4,0.4-0.8,0.8-1.2,1.2c-4.3,3.9-7.6,4.7-10.8,8.9c-2.4,3.1-3.5,6.4-4.1,8.7
				l0.3,0.1c0.7-0.9,1.3-1.8,2-2.7c0.4-0.6,0.9-1.2,1.4-1.8c0.5-0.6,1-1.1,1.5-1.7c0.3-0.3,0.5-0.5,0.8-0.8
				c3.5-3.3,7.9-5.6,10.9-9.4c0.6-0.8,1.2-1.6,1.7-2.5c0.4-0.7,0.8-1.4,1.1-2.1c0.5-1,0.9-2,1.3-3c0.2-0.6,0.5-1.2,0.7-1.8
				C123.2,129.1,123.4,128.6,123.5,128.2C123.5,128.2,123.5,128.2,123.5,128.2z M76.6,39c0.4,0.4,1.4,0.1,1.5,0.1
				c0.4-0.1,0.7-0.3,0.9-0.6c0.8-0.7,1.1-1.9,1.3-2.4c0.3-0.8,0.6-1.4,1-2.1c0.3-0.5,0.6-1,1-1.5c0.2-0.3,0.5-0.7,0.8-1
				c0.2-0.2,0.4-0.4,0.5-0.6c0.1-0.1,0.2-0.2,0.3-0.3c0.1-0.1,0.2-0.2,0.3-0.3c0.2-0.2,0.3-0.3,0.5-0.5c0.1-0.1,0.2-0.2,0.2-0.2
				c0.3-0.3,0.6-0.6,0.8-0.8c0.1-0.1,0.1-0.1,0.2-0.2c0.5-0.5,0.8-0.9,0.7-1c0,0,0,0,0,0c-0.1-0.1-0.2-0.1-0.3,0
				c-0.3,0.1-0.7,0.3-1.2,0.5c-0.3,0.2-0.7,0.4-1,0.6c-2.8,1.7-4.4,3.8-5.1,4.8c-0.3,0.4-1.8,2.5-2.3,4c0,0.1-0.1,0.2-0.1,0.3
				c-0.1,0.4-0.1,0.7-0.1,0.9C76.5,38.9,76.6,38.9,76.6,39z M64,149.6c-1.2-2.1-2.5-4.6-3.6-7.6c-1.3-3.3-2.1-6.4-2.7-9l-0.1,0.1
				c0,1.2,0.2,2.7,0.5,4.4c0.2,1.1,0.6,3.1,1.7,5.5C60.4,144.6,61.7,147.1,64,149.6z M76.6,48.5c5.8,1.9,11.3,0,13.9-1.2
				c-0.1-0.3-0.2-0.8-0.4-1.4c-0.2-0.5-0.4-1.2-0.7-1.8c-0.2-0.5-0.6-1.1-1-1.6c-0.2-0.2-0.3-0.4-0.5-0.6c-0.3-0.3-0.6-0.6-0.9-0.8
				c-1.5-1.1-3.2-1.2-4-1.3c-0.6,0-2.4-0.1-4.4,0.9c-0.8,0.4-2,1-3,2.3c-1.4,1.9-1.3,4-1.2,4.7C75,47.9,75.8,48.2,76.6,48.5z
				 M108.9,13.5c-4,4.9-7.2,10.5-9.5,16.4l-0.1,0c-0.1,0.9,0.7,1.6,1.4,2.1c0,0,0,0,0,0c1,0.8,2.1,1.5,3.2,2.2
				c0.4,0.2,0.9,0.5,1.3,0.7c0.2,0.1,0.5,0.2,0.8,0.3c1.9,0.7,4.2,0.9,6.1,0c0.1,0,0.1-0.1,0.1-0.1l0.2,0c0,0.2,0,0.4-0.1,0.6
				l0.3,0.1c1.6,2.6,3.8,6.4,6.1,11.3c0.8,1.8,1.7,3.8,2.4,6c0.4,1.4,0.9,3.2,1.3,5.5c0.4,2.9,0.6,6.4,0.1,10.6l0,0v0l0.4,0.1
				c2.8,5,20.8,37,23.5,63.4c0.5,4.4,1.2,12.3-1,22.1c-1.1,4.8-2.9,12.9-8.1,19.3c-11.6,14.2-33.5,12.5-36.6,12.2l-0.1,0
				c0.1,0.5,0,0.8-0.1,0.9c-0.1,0.3-0.4,0.6-0.8,0.8c-4.2,2.9-10,3.4-14.6,1.1c-1.2-0.6-2.3-1.4-2.7-2.6c-0.2-0.5-0.2-0.9-0.2-1.3h0
				c0-0.4,0-0.7,0.1-0.9c0.3-2.2,2.2-11.1,4.8-23.6l0,0l-0.4-0.1c-0.4-0.2-0.9-0.3-1.3-0.5c-0.2-0.1-0.3-0.1-0.5-0.2
				c-0.3-0.1-0.6-0.2-0.9-0.2c-0.2-0.1-0.5-0.1-0.7-0.2c-0.5-0.1-1-0.2-1.4-0.2c-1.1-0.1-2.1,0-3.1,0.3c-0.3,0.1-0.7,0.3-0.9,0.5
				c0,3.2,0.4,5.8,0.7,7.8c0.3,1.5,0.5,2.6,2,9.4c0.9,3.9,1.4,6.3,1.4,7.9c0,0.6-0.1,1.1-0.3,1.4c-1.6,2.8-5.8,3-9.1,3.2
				c-2.8,0.2-7.4,0.5-9.4-1.7l0,0.1c-5.7,0.5-16,0.6-27.2-4.4c-5.2-2.3-15.3-6.8-21.2-17.8c-2.9-5.3-3.6-10.1-4-12.5
				c-1.6-11.1,1.6-20.2,4.2-26.9c7.9-20.4,17.6-38.7,23.5-49c-2.5-9.1-3.4-16.1-2.8-20c0.5-3.2,1.6-5.9,1.6-5.9c1.7-4.2,4-7,6.5-9.9
				c1.6-1.9,3.9-4.3,7-6.8h0c0,0,0,0,0,0l0.2,0.1c3.5-0.6,6.8-2.7,8.9-5.6c0,0,0,0,0,0c0,0,0,0,0,0v0c0,0,0,0,0,0c0,0,0,0,0,0
				c-0.4-0.8-0.8-1.7-1.3-2.6c-0.4-0.9-0.9-1.7-1.4-2.6c-2.1-3.6-4.2-6.8-6.3-9.6l0.3-0.4c2.2,1.4,4.7,3.2,7.3,5.3
				c2.8,2.4,5.1,4.7,7,6.8c3.8-1.2,9-2.5,15.3-2.7c5-0.2,9.3,0.4,12.7,1c1.8-1.4,3.2-3.2,4.9-4.6c0.9-0.7,1.9-1.4,2.9-2
				c1.3-0.8,2.5-1.6,3.8-2.4C106,14.9,107.4,14,108.9,13.5z M65,46C65,46,65,46,65,46c0.1,0,0.2,0.1,0.2,0.1c0.3,0.1,0.9,0.2,1.4,0
				c0,0,0.1,0,0.1,0c1.6-0.5,2-2.5,2.8-4.6c0,0,0.1-0.2,0.2-0.5c0-0.1,0.1-0.2,0.1-0.3c0.4-0.9,1-2.4,1.8-4c0.4-0.8,0.9-1.7,1.5-2.6
				c2.5-3.9,4.8-5.5,4.5-5.9c0,0,0,0,0,0c-0.1-0.1-0.4-0.1-0.8,0.1c-0.1,0.1-0.2,0.1-0.4,0.2c-0.4,0.2-0.8,0.4-1.2,0.6
				c-0.3,0.1-0.5,0.3-0.7,0.4c-1.1,0.7-1.9,1.4-2.4,1.9c-0.2,0.1-0.3,0.3-0.3,0.3c-3.4,3.7-7.7,12.5-7.1,14.2c0,0,0,0.1,0.1,0.1
				c0,0,0,0,0,0c0,0,0.1,0.1,0.1,0.1S64.9,46,65,46z M58.4,47.9c0.6-0.2,1.3-0.4,2-0.7h0c0-0.1,0.1-0.3,0.1-0.4
				c0.1-0.3,0.1-0.6,0.1-0.9c0,0,0,0,0-0.1c0.1-1.6-0.4-3.2-1.5-4.2c-0.7-0.7-1.5-1-2.3-1.2c-1-0.2-1.9-0.2-2.7-0.1
				c-0.3,0-0.6,0.1-0.9,0.1c0,0,0,0,0,0c-0.4,0.1-0.8,0.2-1.2,0.3c-0.1,0-0.3,0.1-0.4,0.2c-0.5,0.3-1,0.7-1.4,1.1
				c-0.2,0.1-0.3,0.3-0.4,0.4c-1,1-2,2.2-2.4,3.5c0,0,0,0.1,0,0.2c0,0.1,0,0.2,0,0.3c0.3,1.5,4.5,2.1,7.2,2.1c0.6,0,1.4-0.1,2.3-0.3
				c0.1,0,0.2,0,0.3-0.1C57.5,48.1,57.9,48,58.4,47.9z M62.8,52.4l0.3,0.5c0.5-0.6,1.2-1.1,1.9-1.5c0.1,0,0.2-0.1,0.3-0.1
				c0.2-0.1,0.4-0.2,0.6-0.3c0.1-0.1,0.2-0.1,0.3-0.2c0.3-0.3,0.6-0.8,0.3-1.2c-0.1-0.1-0.2-0.2-0.3-0.3c-0.1,0-0.1-0.1-0.2-0.1
				S66,49,65.9,48.9l0,0c-0.9-0.3-1.9-0.4-2.8-0.3c-0.1,0-0.3,0.1-0.4,0.1h0c-0.1,0.1-0.2,0.1-0.3,0.2c0,0.1-0.1,0.1-0.1,0.2
				c0,0,0,0,0,0c0,0.2,0,0.4,0,0.5C62.4,50.7,62.6,51.5,62.8,52.4L62.8,52.4z"/>
			<path class="st1" d="M166,161.9c0.9-0.9,1.9-1.8,2.8-2.7C167.8,160.2,166.9,161,166,161.9z"/>
			<path class="st0" d="M155.4,155c0-0.1,0-0.2,0.1-0.3C155.5,154.8,155.4,154.9,155.4,155c-0.1,0.3-0.1,0.6-0.2,0.9
				C155.3,155.6,155.3,155.3,155.4,155z"/>
			<path class="st1" d="M147.9,176.3c0.8-0.5,1.6-1.1,2.4-1.6C149.5,175.2,148.7,175.8,147.9,176.3z"/>
			<path class="st1" d="M183.1,110.8l0.3,0c1.9,8.8,1.3,18.1-1.4,26.6c-1.6,5.2-4.1,10.1-7.2,14.5c-1.9,2.6-3.9,5-6.2,7.3
				c-0.9,0.9-1.8,1.8-2.8,2.7c-1.4,1.3-2.9,2.6-4.4,3.8c-1.4,1.2-2.9,2.4-4.3,3.5c-1.6,1.2-3.2,2.5-4.8,3.7
				c-0.8,0.6-1.5,1.2-2.3,1.7s-1.6,1.1-2.4,1.6c-1.4,0.9-2.9,1.7-4.5,2.2c-0.2,0.1-0.5,0.1-0.7,0.2l-0.9-0.2
				c3.2-2.8,6.5-6.5,9.2-11.3c0.5-0.9,2.4-4.5,3.8-9.8c0.1-0.3,0.1-0.6,0.2-0.9c0.1-0.2,0.1-0.5,0.2-0.7c0.1-0.3,0.1-0.6,0.2-0.9
				c0-0.1,0-0.2,0.1-0.3c2-7.6,5.2-12.6,7.9-15.9c4.8-5.7,12-11,16.4-18.6c1.2-2.1,2.8-4.9,3.2-8.7
				C183.1,111.2,183.1,111,183.1,110.8z"/>
			<path class="st0" d="M154.8,157.4c0.1-0.3,0.1-0.5,0.2-0.8C155,156.9,154.9,157.1,154.8,157.4c-1.4,5.3-3.3,8.8-3.8,9.8
				c-2.7,4.8-6,8.5-9.2,11.3h0c3.2-2.8,6.5-6.5,9.2-11.3C151.5,166.2,153.5,162.7,154.8,157.4z"/>
			<path class="st1" d="M142.7,178.7c0.2-0.1,0.5-0.1,0.7-0.2C143.2,178.6,142.9,178.6,142.7,178.7l-0.9-0.2l0,0L142.7,178.7z"/>
			<path class="st0" d="M142.7,178.7c0.2-0.1,0.5-0.1,0.7-0.2c1.6-0.5,3.1-1.3,4.5-2.2c0.8-0.5,1.6-1.1,2.4-1.6
				c0.8-0.6,1.5-1.2,2.3-1.7c1.6-1.2,3.2-2.4,4.8-3.7c1.5-1.1,2.9-2.3,4.3-3.5c1.5-1.2,2.9-2.5,4.4-3.8c0.9-0.9,1.9-1.8,2.8-2.7
				c2.2-2.3,4.3-4.7,6.2-7.3c3.2-4.4,5.6-9.3,7.2-14.5c2.7-8.6,3.2-17.8,1.4-26.6l-0.3,0c0.2-2.8-0.3-4.8,0.2-4.9
				c0.9-0.3,4.2,5.7,5.8,10c4.7,12.8,1.8,29.4-6.6,42c-1.9,2.9-10.6,15.1-27.1,20.2c-6.2,1.9-11.7,2.2-15.4,2.1
				c0.6-0.5,1.2-1,1.9-1.5h0L142.7,178.7z"/>
			<polygon class="st0" points="141.9,178.5 141.9,178.5 141.8,178.5 141.8,178.5 141.8,178.5 			"/>
			<path class="st0" d="M141.8,178.5L141.8,178.5c-0.6,0.6-1.2,1.1-1.9,1.5h0C140.6,179.6,141.2,179.1,141.8,178.5z"/>
			<path class="st0" d="M123.5,128.2c-0.3,0.6-0.6,1.1-0.9,1.6C122.9,129.3,123.2,128.7,123.5,128.2z"/>
			<path class="st1" d="M122.9,69C122.9,69.1,122.9,69.1,122.9,69l-0.4,0v0L122.9,69z"/>
			<path class="st0" d="M112.3,34.9c0,0.1-0.1,0.1-0.1,0.1c-1.9,0.9-4.1,0.8-6.1,0c-0.2-0.1-0.5-0.2-0.8-0.3
				c0.2,0.1,0.5,0.2,0.7,0.3c1.9,0.7,4.2,0.9,6.1,0C112.2,35,112.2,35,112.3,34.9l0.2,0c0,0,0,0,0,0L112.3,34.9z"/>
			<path class="st0" d="M112.1,35.1c-1.9,0.9-4.1,0.8-6.1,0c-0.2-0.1-0.5-0.2-0.7-0.3c-0.5-0.2-0.9-0.4-1.3-0.7
				c-1.1-0.6-2.2-1.4-3.2-2.2c0,0,0,0,0,0c-0.7-0.5-1.5-1.2-1.3-2.1l0.1,0c2.3-5.9,5.6-11.5,9.5-16.4c0.1,0,0.1,0,0.2-0.1l0.1,0.2
				c2.7,6.8,3.8,14.1,3.2,21.4l0,0c0,0,0,0,0,0l-0.2,0C112.2,35,112.2,35,112.1,35.1z"/>
			<path class="st0" d="M117.6,136.3c0.7-0.7,1.5-1.6,2.2-2.5c0.3-0.4,0.6-0.8,2.8-4.1c0.3-0.5,0.6-1,0.9-1.6
				c-0.2,0.5-0.3,0.9-0.5,1.4c-0.2,0.6-0.4,1.2-0.7,1.8c-0.4,1-0.8,2-1.3,3c-0.3,0.7-0.7,1.4-1.1,2.1c-0.5,0.9-1.1,1.7-1.7,2.5
				c-3,3.7-7.5,6-10.9,9.4c-0.3,0.3-0.5,0.5-0.8,0.8c-0.5,0.5-1,1.1-1.5,1.7c-0.5,0.6-0.9,1.2-1.4,1.8c-0.7,0.9-1.3,1.8-2,2.7
				l-0.3-0.1c0.5-2.3,1.7-5.6,4.1-8.7c3.3-4.2,6.5-5,10.8-8.9C116.7,137.1,117.1,136.7,117.6,136.3z"/>
			<path class="st0" d="M106.6,149.1c-0.5,0.5-1,1.1-1.5,1.7C105.6,150.2,106.1,149.6,106.6,149.1z"/>
			<path class="st0" d="M105.3,34.8c-0.5-0.2-0.9-0.4-1.3-0.7C104.4,34.4,104.9,34.6,105.3,34.8z"/>
			<path class="st0" d="M105.1,150.8c-0.5,0.6-0.9,1.2-1.4,1.8C104.2,151.9,104.6,151.3,105.1,150.8z"/>
			<path class="st0" d="M103.7,152.5c-0.7,0.9-1.3,1.8-2,2.7C102.4,154.3,103.1,153.4,103.7,152.5z"/>
			<path class="st0" d="M100.7,186.2c3.1,0.3,25,2,36.6-12.2c5.2-6.4,7.1-14.5,8.1-19.3c2.2-9.8,1.5-17.7,1-22.1
				c-2.7-26.4-20.6-58.5-23.5-63.4h0c0,0,0,0,0,0l-0.4,0c0.5-4.2,0.3-7.7-0.1-10.6l0.3,0c6.4,12.6,12.7,26.1,18.8,40.7
				c2.4,5.6,9.2,17.7,13.1,33.7c1.1,4.5,2.2,9.9,1.6,16.8c-0.2,1.8-0.4,3.6-0.8,5.2c0,0.1-0.1,0.2-0.1,0.3c-0.1,0.3-0.1,0.6-0.2,0.9
				c-0.1,0.2-0.1,0.5-0.2,0.7c-0.1,0.3-0.1,0.6-0.2,0.8c-1.4,5.3-3.3,8.8-3.8,9.8c-2.7,4.8-6,8.5-9.2,11.3l0,0
				c-0.6,0.5-1.2,1.1-1.9,1.5h0l0,0c-4.3,3.3-8,5-9.3,5.6c-14.1,6.1-26.9,2.4-30.1,1.4C100.6,187,100.7,186.7,100.7,186.2
				L100.7,186.2z"/>
			<path class="st0" d="M86.6,27.6c-0.1-0.1-0.2-0.1-0.3,0C86.4,27.5,86.5,27.5,86.6,27.6C86.6,27.6,86.6,27.6,86.6,27.6z"/>
			<path class="st2" d="M90.5,47.2c-2.6,1.2-8.1,3.2-13.9,1.2c-0.8-0.3-1.6-0.6-2.3-1c-0.1-0.7-0.2-2.9,1.2-4.7
				c0.9-1.3,2.2-1.9,3-2.3c2-1,3.8-0.9,4.4-0.9c0.9,0.1,2.5,0.2,4,1.3c0.3,0.2,0.7,0.5,0.9,0.8c0.2,0.2,0.4,0.4,0.5,0.6
				c0.4,0.5,0.7,1.1,1,1.6c0.3,0.7,0.5,1.3,0.7,1.8C90.3,46.4,90.4,46.9,90.5,47.2z"/>
			<path class="st0" d="M87.1,160.6c-2.6,12.4-4.5,21.4-4.8,23.6c0,0.2-0.1,0.5-0.1,0.9h0v0c0-0.4,0-0.7,0.1-0.9
				C82.6,182,84.4,173,87.1,160.6L87.1,160.6z"/>
			<path class="st0" d="M81.9,185.1c0-1.5-0.6-4-1.4-7.9c-1.5-6.8-1.8-7.8-2-9.4c-0.3-1.9-0.6-4.5-0.7-7.8c0.2-0.2,0.6-0.4,0.9-0.5
				c1-0.3,2.1-0.4,3.1-0.3c0.5,0,0.9,0.1,1.4,0.2c0.2,0.1,0.5,0.1,0.7,0.2c0.3,0.1,0.6,0.2,0.9,0.2c0.2,0.1,0.3,0.1,0.5,0.2
				c0.5,0.2,0.9,0.3,1.3,0.5l0.4,0.1c-2.6,12.4-4.5,21.4-4.8,23.6c0,0.2-0.1,0.5-0.1,0.9v0H81.9z"/>
			<path class="st0" d="M84.1,28.8c-2.8,1.7-4.4,3.8-5.1,4.8c-0.3,0.4-1.8,2.5-2.3,4c0.5-1.5,2-3.6,2.3-4
				C79.7,32.6,81.3,30.5,84.1,28.8c0.3-0.2,0.7-0.5,1-0.6C84.8,28.3,84.4,28.6,84.1,28.8z"/>
			<path class="st0" d="M76.6,39c-0.1-0.1-0.1-0.1-0.1-0.2c-0.1-0.2-0.1-0.5,0.1-0.9c0-0.1,0.1-0.2,0.1-0.3c0.5-1.5,2-3.5,2.3-4
				c0.7-1,2.3-3,5.1-4.8c0.3-0.2,0.7-0.4,1-0.6c0.5-0.3,0.9-0.5,1.2-0.5c0.2-0.1,0.3,0,0.3,0c0.1,0.1-0.2,0.5-0.7,1
				c-0.1,0.1-0.1,0.1-0.2,0.2c-0.2,0.2-0.5,0.5-0.8,0.8c-0.1,0.1-0.2,0.2-0.2,0.2c-0.2,0.2-0.3,0.3-0.5,0.5
				c-0.1,0.1-0.2,0.2-0.3,0.3c-0.1,0.1-0.2,0.2-0.3,0.3c-0.2,0.2-0.4,0.4-0.5,0.6c-0.3,0.3-0.5,0.7-0.8,1c-0.3,0.5-0.7,1-1,1.5
				c-0.4,0.7-0.7,1.4-1,2.1c-0.2,0.5-0.6,1.7-1.3,2.4c-0.2,0.2-0.6,0.4-0.9,0.6C78,39.1,77,39.4,76.6,39z"/>
			<path class="st0" d="M76.7,37.5c0,0.1-0.1,0.2-0.1,0.3C76.6,37.7,76.6,37.6,76.7,37.5z"/>
			<path class="st0" d="M76.4,28.4c0.1-0.1,0.3-0.1,0.4-0.2C76.7,28.3,76.6,28.3,76.4,28.4z"/>
			<path class="st0" d="M74.5,29.4c-1.1,0.7-1.9,1.4-2.4,1.9C72.6,30.8,73.4,30.1,74.5,29.4c0.2-0.1,0.4-0.2,0.7-0.4
				C74.9,29.1,74.7,29.3,74.5,29.4z"/>
			<path class="st0" d="M72.2,31.2c-0.2,0.1-0.2,0.3-0.3,0.3c-3.4,3.7-7.7,12.5-7.1,14.2c-0.6-1.6,3.7-10.5,7.1-14.2
				C71.9,31.5,72,31.4,72.2,31.2z"/>
			<path class="st0" d="M67.6,30.5c0.1-0.1,0.2-0.2,0.4-0.3C67.9,30.2,67.8,30.4,67.6,30.5z"/>
			<path class="st0" d="M64.8,45.9C64.8,45.9,64.8,45.9,64.8,45.9c0,0,0-0.1-0.1-0.1c-0.6-1.6,3.7-10.4,7.1-14.2
				c0.1-0.1,0.2-0.2,0.3-0.3c0.4-0.4,1.2-1.2,2.4-1.9c0.2-0.1,0.4-0.2,0.7-0.4c0.4-0.2,0.8-0.5,1.2-0.6c0.1-0.1,0.3-0.1,0.4-0.2
				c0.4-0.1,0.7-0.2,0.8-0.1c0.3,0.4-2,2.1-4.5,5.9c-0.5,0.8-1,1.7-1.5,2.6c-0.8,1.6-1.5,3.1-1.8,4c0,0.1-0.1,0.2-0.1,0.3
				c-0.1,0.3-0.2,0.5-0.2,0.5c-0.8,2.1-1.3,4.1-2.8,4.6c0,0,0,0-0.1,0c-0.5,0.2-1.1,0.1-1.4,0c-0.1,0-0.1,0-0.1,0c0,0-0.1,0-0.1,0
				C64.9,46,64.9,46,64.8,45.9C64.8,45.9,64.8,45.9,64.8,45.9z"/>
			<path class="st0" d="M66.3,31.7c0.2-0.2,0.5-0.5,0.7-0.6C66.8,31.2,66.5,31.4,66.3,31.7z"/>
			<path class="st3" d="M66.4,49.1c-0.1,0-0.1-0.1-0.2-0.1C66.2,49.1,66.3,49.1,66.4,49.1z"/>
			<path class="st3" d="M65.4,51.2c0.2-0.1,0.4-0.2,0.6-0.3C65.9,51,65.6,51.1,65.4,51.2z"/>
			<path class="st0" d="M66,31.9c-0.1,0.1-0.2,0.2-0.2,0.2C65.9,32.1,66,32,66,31.9z"/>
			<path class="st0" d="M64.7,45.9C64.8,45.9,64.8,45.9,64.7,45.9C64.8,45.9,64.7,45.9,64.7,45.9z"/>
			<path class="st3" d="M63.1,48.7c1-0.2,1.9-0.1,2.8,0.3c0.1,0,0.2,0.1,0.2,0.1c0.1,0,0.1,0.1,0.2,0.1c0.1,0.1,0.2,0.2,0.3,0.3
				c0.2,0.4,0,0.9-0.3,1.2c-0.1,0.1-0.2,0.1-0.3,0.2c-0.2,0.1-0.4,0.2-0.6,0.3c-0.1,0-0.2,0.1-0.3,0.1c-0.8,0.3-1.4,0.8-1.9,1.5
				l-0.3-0.5c-0.2-0.8-0.4-1.7-0.5-2.6c0-0.2,0-0.4,0-0.5c0,0,0,0,0,0c0-0.1,0-0.1,0.1-0.2c0.1-0.1,0.2-0.2,0.3-0.3h0
				C62.8,48.7,63,48.7,63.1,48.7z"/>
			<path class="st0" d="M64.1,31.6c-0.4,0.3-0.8,0.7-1.1,1C63.3,32.3,63.7,31.9,64.1,31.6z"/>
			<path class="st0" d="M63,32.6c-0.1,0.1-0.2,0.2-0.3,0.3C62.8,32.8,62.9,32.7,63,32.6z"/>
			<path class="st3" d="M65.9,48.9c-0.9-0.3-1.9-0.4-2.8-0.3c-0.1,0-0.3,0.1-0.4,0.1c0.1-0.1,0.3-0.1,0.4-0.1
				C64,48.5,65,48.6,65.9,48.9L65.9,48.9z"/>
			<path class="st3" d="M62.4,49c0.1-0.1,0.2-0.2,0.3-0.2C62.6,48.8,62.4,48.9,62.4,49c0,0.1,0,0.1-0.1,0.2
				C62.3,49.2,62.3,49.1,62.4,49z"/>
			<path class="st3" d="M62.3,49.8c0-0.2,0-0.4,0-0.5C62.2,49.4,62.3,49.6,62.3,49.8c0.1,0.9,0.3,1.7,0.6,2.6l0,0
				C62.6,51.5,62.4,50.7,62.3,49.8z"/>
			<path class="st0" d="M62.8,36.7c-0.2,0.6-0.7,2.1-1.9,2.5c-0.1,0-0.9,0.3-1.2,0c-0.7-0.7,0.7-3.3,1.6-4.6
				c0.2-0.2,0.6-0.9,1.4-1.7c0.1-0.1,0.2-0.2,0.3-0.3c0.3-0.3,0.7-0.6,1.1-1c0.5-0.4,1.2-0.9,1.9-1.3c0.6-0.3,1.7-1,2.3-1.1
				c0.1,0,0.1,0,0.2,0c0.1,0,0.2,0,0.2,0.1c0.1,0.2-0.2,0.5-0.7,0.9c-0.1,0.1-0.2,0.2-0.4,0.3c-0.2,0.2-0.4,0.4-0.6,0.6
				c-0.2,0.2-0.5,0.4-0.7,0.6c-0.1,0.1-0.2,0.2-0.2,0.2c-0.1,0.1-0.2,0.2-0.2,0.2C64.6,33.3,63.4,34.8,62.8,36.7z"/>
			<path class="st7" d="M60.6,45.9c0,0.3-0.1,0.6-0.1,0.9C60.5,46.4,60.5,46.1,60.6,45.9z"/>
			<path class="st7" d="M60.4,46.7c0,0.1-0.1,0.3-0.1,0.4h0C60.4,47,60.4,46.9,60.4,46.7z"/>
			<path class="st1" d="M59.5,29.5C59.5,29.5,59.5,29.5,59.5,29.5C59.5,29.5,59.5,29.5,59.5,29.5C59.5,29.5,59.5,29.5,59.5,29.5z"/>
			<path class="st7" d="M59.1,41.6c-0.7-0.7-1.5-1-2.3-1.2C57.6,40.5,58.4,40.9,59.1,41.6c1.1,1,1.6,2.6,1.5,4.2
				C60.7,44.2,60.2,42.6,59.1,41.6z"/>
			<path class="st2" d="M54.5,48.5c-2.6,0.1-6.9-0.5-7.2-2.1c0-0.1,0-0.2,0-0.3c0-0.1,0-0.1,0.1-0.2c0.5-1.4,1.4-2.5,2.4-3.5
				c0.1-0.2,0.3-0.3,0.4-0.4c0.4-0.4,0.9-0.8,1.4-1.1c0.1-0.1,0.2-0.1,0.4-0.2c0.4-0.1,0.8-0.2,1.2-0.3c0.2,0,0.6-0.1,0.9-0.2
				c0.8-0.1,1.7-0.1,2.7,0.1c0.8,0.2,1.6,0.5,2.3,1.2c1.1,1,1.6,2.6,1.5,4.2c0,0,0,0,0,0.1c0,0.3-0.1,0.6-0.1,0.9
				c0,0.1-0.1,0.3-0.1,0.4c-0.7,0.3-1.4,0.5-2,0.7c-0.4,0.1-0.8,0.2-1.2,0.3c-0.1,0-0.2,0-0.3,0.1C55.9,48.4,55.1,48.5,54.5,48.5z"
				/>
			<path class="st7" d="M53.2,40.4c0.2,0,0.5-0.1,0.9-0.1C53.8,40.3,53.4,40.4,53.2,40.4C53.2,40.4,53.2,40.4,53.2,40.4z"/>
			<path class="st7" d="M52,40.8c0.4-0.2,0.8-0.2,1.2-0.3C52.8,40.5,52.4,40.6,52,40.8z"/>
			<path class="st0" d="M50.8,14.2L50.8,14.2C50.8,14.2,50.8,14.2,50.8,14.2C50.8,14.2,50.8,14.2,50.8,14.2z"/>
			<path class="st0" d="M50.7,35.1L50.5,35c0,0,0,0,0,0L50.7,35.1c3.5-0.6,6.8-2.7,8.9-5.6c0,0,0,0,0,0
				C57.5,32.4,54.2,34.5,50.7,35.1z"/>
			<path class="st0" d="M56.7,24.3c-2.1-3.6-4.2-6.8-6.3-9.6l0.3-0.5c0,0,0,0,0,0l-0.3,0.4C52.6,17.5,54.7,20.7,56.7,24.3
				c0.5,0.9,1,1.8,1.4,2.6C57.7,26,57.2,25.2,56.7,24.3z"/>
			<path class="st0" d="M50.5,14c0.1,0,0.2,0.1,0.3,0.2l-0.3,0.5c2.1,2.8,4.2,6,6.3,9.6c0.5,0.9,1,1.8,1.4,2.6
				c0.5,0.9,0.9,1.7,1.3,2.6c0,0,0,0,0,0v0c-2.1,2.9-5.3,5-8.9,5.6L50.5,35h0c-0.6-2.7-1.2-6.2-1.4-10.2c-0.1-4.3,0.3-8,0.9-10.8
				L50.5,14z"/>
		</g>
		<g>
			<path class="st12" d="M141.8,178.5L141.8,178.5L141.8,178.5c3.2-2.8,6.5-6.5,9.2-11.3c0.5-1,2.4-4.5,3.8-9.8
				c0.1-0.3,0.1-0.5,0.2-0.8c0.1-0.2,0.1-0.5,0.2-0.7c0.1-0.3,0.1-0.6,0.2-0.9c0-0.1,0-0.2,0.1-0.3c2-7.6,5.2-12.6,7.9-15.9
				c4.8-5.7,12-11,16.4-18.6c1.2-2.1,2.8-4.9,3.2-8.7c0-0.2,0.1-0.5,0.1-0.7l0.3,0c1.9,8.8,1.3,18.1-1.4,26.6
				c-1.6,5.2-4.1,10.1-7.2,14.5c-1.9,2.6-3.9,5-6.2,7.3c-0.9,0.9-1.8,1.8-2.8,2.7c-1.4,1.3-2.9,2.6-4.4,3.8
				c-1.4,1.2-2.9,2.4-4.3,3.5c-1.6,1.2-3.2,2.5-4.8,3.7c-0.8,0.6-1.5,1.2-2.3,1.7c-0.8,0.6-1.6,1.1-2.4,1.6
				c-1.4,0.9-2.9,1.7-4.5,2.2c-0.2,0.1-0.5,0.2-0.7,0.2L141.8,178.5"/>
			<line class="st12" x1="141.9" y1="178.5" x2="141.8" y2="178.5"/>
			<path class="st13" d="M83.9,159.6c-0.2-0.1-0.5-0.1-0.7-0.2"/>
			<path class="st13" d="M85.3,160c-0.2-0.1-0.3-0.1-0.5-0.2"/>
			<path class="st13" d="M104,34.1c0.4,0.2,0.9,0.5,1.3,0.7c0.2,0.1,0.5,0.2,0.7,0.3c1.9,0.7,4.2,0.9,6.1,0c0.1,0,0.1-0.1,0.1-0.1
				l0.2,0c0,0,0,0,0,0c0,0.2,0,0.4-0.1,0.6l0.3,0.1c1.6,2.6,3.8,6.4,6.1,11.3c0.8,1.8,1.7,3.8,2.4,6c0.4,1.4,0.9,3.2,1.3,5.5
				c0.4,2.9,0.6,6.4,0.1,10.6l0,0l0.4,0c0,0,0,0,0,0c2.8,5,20.8,37,23.5,63.4c0.5,4.4,1.2,12.3-1,22.1c-1.1,4.8-2.9,12.9-8.1,19.3
				c-11.6,14.2-33.5,12.5-36.6,12.2l-0.1,0c0.1,0.5,0,0.8-0.1,0.9c-0.1,0.3-0.4,0.6-0.8,0.8c-4.2,2.9-10,3.4-14.6,1.1
				c-1.2-0.6-2.3-1.4-2.7-2.6c-0.2-0.5-0.2-0.9-0.2-1.3v0c0-0.4,0-0.7,0.1-0.9c0.3-2.1,2.2-11.1,4.8-23.6"/>
			<path class="st13" d="M58.2,26.9c-0.5-0.9-0.9-1.7-1.4-2.6c-2.1-3.6-4.2-6.8-6.3-9.6l0.3-0.5c0,0,0,0,0,0
				c2.2,1.4,4.7,3.2,7.3,5.3c2.8,2.4,5.1,4.7,7,6.8c3.8-1.2,9-2.5,15.3-2.7c5-0.2,9.3,0.4,12.7,1c1.8-1.4,3.2-3.2,4.9-4.6
				c0.9-0.7,1.9-1.4,2.9-2c1.3-0.8,2.5-1.6,3.8-2.4c1.4-0.9,2.8-1.7,4.3-2.3c-4,4.9-7.2,10.5-9.5,16.4l-0.1,0
				c-0.1,0.9,0.7,1.6,1.4,2.1"/>
			<path class="st13" d="M59.5,29.5C59.5,29.4,59.5,29.4,59.5,29.5C59.5,29.4,59.5,29.4,59.5,29.5"/>
			<path class="st13" d="M50.5,35l0.2,0.1c3.5-0.6,6.8-2.7,8.9-5.6"/>
			<path class="st13" d="M81.8,159.2c-1.1-0.1-2.1,0-3.1,0.3c-0.3,0.1-0.7,0.3-0.9,0.5c0,3.2,0.4,5.8,0.7,7.8c0.3,1.5,0.5,2.6,2,9.4
				c0.9,3.9,1.4,6.3,1.4,7.9c0,0.6-0.1,1.1-0.3,1.4c-1.6,2.8-5.8,3-9.1,3.2c-2.8,0.2-7.4,0.5-9.4-1.7l0,0.1
				c-5.7,0.5-16,0.6-27.2-4.4c-5.2-2.3-15.3-6.8-21.2-17.8c-2.9-5.3-3.6-10.1-4-12.5c-1.6-11.1,1.6-20.2,4.2-26.9
				c7.9-20.4,17.6-38.7,23.5-49c-2.5-9.1-3.4-16.1-2.8-20c0.5-3.2,1.6-5.9,1.6-5.9c1.7-4.2,4-7,6.5-9.9c1.6-1.9,3.9-4.3,7-6.8"/>
			<path class="st14" d="M76.7,37.5c0,0.1-0.1,0.2-0.1,0.3"/>
			<path class="st14" d="M65,46C65,46,65,46,65,46"/>
			<path class="st14" d="M64.7,45.9C64.8,45.9,64.8,45.9,64.7,45.9"/>
			<path class="st15" d="M123.5,128.2c-0.2,0.5-0.3,0.9-0.5,1.4c-0.2,0.6-0.4,1.2-0.7,1.8c-0.4,1-0.8,2-1.3,3
				c-0.3,0.7-0.7,1.4-1.1,2.1c-0.5,0.9-1.1,1.7-1.7,2.5c-3,3.7-7.5,6-10.9,9.4c-0.3,0.3-0.5,0.5-0.8,0.8c-0.5,0.5-1,1.1-1.5,1.7
				c-0.5,0.6-0.9,1.2-1.4,1.8c-0.7,0.9-1.3,1.8-2,2.7l-0.3-0.1c0.5-2.3,1.7-5.6,4.1-8.7c3.3-4.2,6.5-5,10.8-8.9
				c0.4-0.4,0.8-0.7,1.2-1.2c0.7-0.7,1.5-1.6,2.2-2.5c0.3-0.4,0.6-0.8,2.8-4.1C122.9,129.3,123.2,128.7,123.5,128.2
				C123.5,128.2,123.5,128.2,123.5,128.2"/>
			<path class="st13" d="M104,34.1c-1.1-0.6-2.2-1.4-3.2-2.2c0,0,0,0,0,0"/>
			<path class="st12" d="M83.9,159.6c0.3,0.1,0.6,0.2,0.9,0.2"/>
			<path class="st12" d="M81.8,159.2c0.5,0,0.9,0.1,1.4,0.2"/>
			<path class="st12" d="M85.3,160c0.5,0.2,0.9,0.3,1.3,0.5l0.4,0.1"/>
			<path class="st14" d="M86.3,27.6c0.2-0.1,0.3-0.1,0.3,0c0,0,0,0,0,0c0.1,0.1-0.2,0.5-0.7,1c-0.1,0.1-0.1,0.1-0.2,0.2
				c-0.2,0.2-0.5,0.5-0.8,0.8c-0.1,0.1-0.2,0.2-0.2,0.2c-0.2,0.2-0.3,0.3-0.5,0.5c-0.1,0.1-0.2,0.2-0.3,0.3
				c-0.1,0.1-0.2,0.2-0.3,0.3c-0.2,0.2-0.4,0.4-0.5,0.6c-0.3,0.3-0.5,0.7-0.8,1c-0.3,0.5-0.7,1-1,1.5c-0.4,0.7-0.7,1.4-1,2.1
				c-0.2,0.5-0.6,1.7-1.3,2.4c-0.2,0.2-0.6,0.4-0.9,0.6c-0.1,0-1.1,0.4-1.5-0.1c-0.1-0.1-0.1-0.1-0.1-0.2c-0.1-0.2-0.1-0.5,0.1-0.9
				c0-0.1,0.1-0.2,0.1-0.3c0.5-1.5,2-3.6,2.3-4c0.7-1,2.3-3,5.1-4.8c0.3-0.2,0.7-0.4,1-0.6C85.6,27.9,86,27.7,86.3,27.6z"/>
			<path class="st14" d="M77.6,28.2c0.3,0.4-2,2.1-4.5,5.9c-0.5,0.8-1,1.7-1.5,2.6c-0.8,1.6-1.5,3.1-1.8,4c0,0.1-0.1,0.2-0.1,0.3
				c-0.1,0.3-0.2,0.5-0.2,0.5c-0.8,2.1-1.3,4.1-2.8,4.6c0,0,0,0-0.1,0c-0.5,0.2-1.1,0.1-1.4,0c-0.1,0-0.1,0-0.1,0c0,0-0.1,0-0.1,0
				c-0.1,0-0.1-0.1-0.2-0.1s-0.1,0-0.1-0.1c0,0,0,0,0,0c0,0,0-0.1-0.1-0.1c-0.6-1.6,3.7-10.5,7.1-14.2c0.1-0.1,0.2-0.2,0.3-0.3
				c0.4-0.4,1.2-1.2,2.4-1.9c0.2-0.1,0.4-0.2,0.7-0.4c0.4-0.2,0.8-0.5,1.2-0.6c0.1-0.1,0.3-0.1,0.4-0.2C77.2,28.1,77.5,28,77.6,28.2
				z"/>
			<path class="st14" d="M68.5,29.2c0.1,0,0.2,0,0.2,0.1c0.1,0.2-0.2,0.5-0.7,0.9c-0.1,0.1-0.2,0.2-0.4,0.3
				c-0.2,0.2-0.4,0.4-0.6,0.6c-0.2,0.2-0.5,0.4-0.7,0.6c-0.1,0.1-0.2,0.2-0.2,0.2s-0.2,0.2-0.2,0.2c-1.2,1.2-2.4,2.7-3,4.5
				c-0.2,0.6-0.7,2.1-1.9,2.5c-0.1,0-0.9,0.3-1.2,0c-0.7-0.7,0.7-3.3,1.6-4.6c0.2-0.2,0.6-0.9,1.4-1.7c0.1-0.1,0.2-0.2,0.3-0.3
				c0.3-0.3,0.7-0.6,1.1-1c0.5-0.4,1.2-0.9,1.9-1.3c0.6-0.3,1.7-1,2.3-1.1C68.4,29.2,68.5,29.2,68.5,29.2z"/>
			<line class="st13" x1="59.5" y1="29.5" x2="59.5" y2="29.5"/>
			<path class="st13" d="M58.2,26.9c0.5,0.9,0.9,1.7,1.3,2.6"/>
			<line class="st13" x1="50.5" y1="35" x2="50.5" y2="35"/>
		</g>
	</g>
</g>
<path class="st4" d="M63.7,174.4c-3.7-4.4-8.2-8-12.7-11.5c-4.4-3.5-8.3-7.6-12-11.9c-3.7-4.3-6.7-9-7.8-14.7
	c-1.3-6.5-0.3-13.4,0.5-19.9c0.3-2.2-3.1-3.2-3.4-0.9c-1.5,10.9-2.6,22.3,3.6,32.1c2.9,4.5,6.6,8.4,10.3,12.3
	c3.9,4.1,8.6,7.3,12.9,11.1c3.8,3.4,11.4,9.5,7.8,15.3c-1.2,1.9,1.8,3.7,3.1,1.8C69,183.4,66.9,178.1,63.7,174.4z"/>
<path class="st4" d="M88,158.3c-2.8,9.2-4.4,19-5.1,28.6c-0.2,2.3,3.4,2.3,3.6,0c0.7-9.2,2.3-18.7,5-27.6
	C92.1,157.1,88.7,156.1,88,158.3z"/>
<path class="st4" d="M60.6,145.2c-5.1-1.6-8.6-6.8-11.2-11.2c-3.1-5.4-3.8-11.4-2.9-17.5c0.3-2.2-3.1-3.2-3.4-0.9
	c-1.1,7.1-0.4,13.9,3.2,20.2c3,5.3,7.3,10.9,13.3,12.8C61.9,149.3,62.8,145.8,60.6,145.2z"/>
<path class="st4" d="M108,131.8c-1.5,2.5-2.7,5.1-3.8,7.8c-1,2.7-1.5,5.7-3.1,8.2c-1.3,1.9,1.8,3.7,3.1,1.8c1.6-2.4,2.1-5.2,3.1-7.8
	c1-2.8,2.3-5.5,3.8-8.1C112.3,131.7,109.2,129.9,108,131.8z"/>
<path class="st4" d="M60.1,183.6c-9.2,0.2-18-0.5-26-5.5c-3.5-2.2-6.6-4.9-9.5-7.8c-2.9-2.9-6-6-8-9.5c-4.2-7.4-1.9-16.6-0.1-24.3
	c1.1-4.6,2.1-9.1,3.7-13.5c1.5-4.5,3.7-8.7,5.8-12.9c4.4-9,8.7-18.1,13.5-26.9c2.9,8.6,6.7,16.8,7.6,16.5c0.3-0.1,0.2-1,0.2-1.7
	c-0.7-8-4.3-15.2-4.8-17c-1-3.7-4.1-9.3-3.7-16c0.4-6.7,3.5-12.5,8.9-22.5c2.5-4.5,3.9-6.7,3.5-7c-0.8-0.6-7.2,4.5-11.2,11.7
	c-2.9,5-5,10-4.9,15.9c0.1,4.9,0.9,8.8,3.1,15.9c-0.3,0.1-0.6,0.4-0.8,0.8C32.4,88.7,28,97.9,23.5,107c-2.2,4.4-4.5,8.8-6.2,13.4
	c-1.8,4.7-2.9,9.6-4.1,14.4c-2,8.4-4.2,17.8-0.5,26.1c1.7,3.9,4.8,7.1,7.7,10.2c2.9,3.1,6,5.9,9.5,8.4c3.9,2.8,8.3,5.1,13.1,6.2
	c5.6,1.4,11.4,1.4,17.1,1.3C62.4,187.1,62.4,183.5,60.1,183.6z"/>
<g>
	<g>
		<path class="st3" d="M78.4,40.5c-0.7,0.8-1.1,1.7-1.2,2.7c-0.2,1-0.4,2.5,0.5,3.2c0.7,0.5,1.5,0.7,2.3,0.3
			c1.4-0.7,1.3-2.8,1.7-4.1c0.5-2.1-2.3-3.2-3.4-1.4c-0.1,0.1-0.1,0.2-0.2,0.2c-0.6,0.8-0.2,2.1,0.7,2.6c0.9,0.5,2,0.2,2.6-0.7
			c0.1-0.1,0.1-0.2,0.2-0.2c-1.1-0.5-2.3-1-3.4-1.4c-0.1,0.5-0.2,1-0.3,1.5c0,0.2-0.1,0.5-0.1,0.7c0,0.1,0,0.1,0,0.2
			c-0.1,0.4,0,0.3,0.5-0.5c0.8,0.1,1.5,0.2,2.3,0.3c0,0,0,0-0.1,0c0.2,0.3,0.3,0.5,0.5,0.8c0.1,0.5,0.1-0.2,0.1-0.3
			c0,0.1,0.1-0.4,0.1-0.4c0.1-0.2,0.1-0.4,0.2-0.7c-0.1,0.2,0.2-0.3,0,0c0.7-0.8,0.8-1.9,0-2.7C80.4,39.8,79.1,39.8,78.4,40.5
			L78.4,40.5z"/>
	</g>
</g>
<g>
	<g>
		<path class="st3" d="M50.9,41.6c-0.3,0.5-0.7,1-0.9,1.7c-0.3,0.9-0.2,2.2,0.6,2.8c1,0.8,2.5,0.4,3-0.8c0.3-0.6,0.5-1.3,0.8-1.9
			c0.3-0.9-0.4-2.1-1.3-2.3c-1.1-0.2-1.9,0.3-2.3,1.3c-0.1,0.3-0.2,0.6-0.3,0.8c0-0.1,0-0.1,0.1-0.2c0,0.1-0.1,0.2-0.1,0.3
			c0,0.1-0.1,0.2-0.2,0.3c0.2-0.2,0.5-0.5,0.7-0.7c0,0,0,0-0.1,0c0.6,0,1.3,0,1.9,0c0,0,0,0,0,0c0.2,0.2,0.5,0.5,0.7,0.7
			c0.2,0.3,0.2,0.6,0.1,0.9c0,0,0-0.1,0-0.1c-0.2,0.5,0,0,0.1-0.1c0.2-0.3,0.3-0.5,0.5-0.8c0.5-0.8,0.2-2.1-0.7-2.6
			C52.5,40.4,51.4,40.7,50.9,41.6L50.9,41.6z"/>
	</g>
</g>
<path class="st3" d="M49.2,13.7c-0.3,3-0.5,6-0.8,9c-0.2,2.6-0.6,5.3-0.2,7.9c0.2,1.5,0.6,2.9,1.3,4.2c0.6,1,2.1,0.1,1.5-0.9
	c-1.6-2.7-1.3-6.1-1-9.1c0.3-3.7,0.6-7.5,1-11.2c0-0.5-0.4-0.9-0.9-0.9C49.6,12.8,49.3,13.2,49.2,13.7L49.2,13.7z"/>
<path class="st3" d="M65.4,27.2c3.5-0.9,7-1.7,10.6-2.2c3.5-0.5,7.1-0.7,10.6-0.4c2,0.2,4,0.5,6,0.9c1.1,0.2,1.6-1.5,0.5-1.7
	c-3.6-0.8-7.3-1.1-11-1.1c-3.7,0.1-7.4,0.6-11,1.4c-2,0.4-4.1,0.9-6.1,1.4C63.8,25.8,64.2,27.5,65.4,27.2L65.4,27.2z"/>
<path class="st3" d="M93.8,25.3c1.2-1,2.3-2.1,3.4-3.2c1.2-1.1,2.4-2.1,3.8-2.9c1.4-0.9,2.9-1.8,4.3-2.7c1.3-0.8,2.7-1.7,4.2-2.2
	c1.1-0.4,0.6-2.1-0.5-1.7c-1.6,0.5-3.1,1.4-4.5,2.3c-1.5,0.9-3,1.9-4.5,2.8c-1.4,0.9-2.8,1.9-4,3.1c-1.2,1.1-2.3,2.3-3.5,3.3
	c-0.4,0.3-0.3,0.9,0,1.3C92.9,25.7,93.4,25.6,93.8,25.3L93.8,25.3z"/>
<path class="st3" d="M108.4,13.8c2.1,5.4,3.3,11.1,3.4,16.9c0,1.6-0.1,3.3-0.2,4.9c0,0.5,0.4,0.9,0.9,0.9c0.5,0,0.8-0.4,0.9-0.9
	c0.5-5.9,0-11.8-1.6-17.5c-0.4-1.6-1-3.2-1.6-4.7c-0.2-0.4-0.6-0.8-1.1-0.6C108.6,12.9,108.2,13.4,108.4,13.8L108.4,13.8z"/>
<path class="st3" d="M108.5,12.8c-4.1,5.1-7.4,10.8-9.8,16.9c-0.2,0.5,0.2,1,0.6,1.1c0.5,0.1,0.9-0.2,1.1-0.6
	c2.3-5.8,5.5-11.2,9.4-16.1c0.3-0.4,0.4-0.9,0-1.3C109.4,12.4,108.8,12.4,108.5,12.8L108.5,12.8z"/>
<path class="st3" d="M50.1,14.8c5.4,3.3,10.2,7.5,14.4,12.2c0.3,0.4,0.9,0.3,1.3,0c0.4-0.4,0.3-0.9,0-1.3
	c-4.3-4.9-9.3-9.1-14.8-12.5C50,12.6,49.1,14.2,50.1,14.8L50.1,14.8z"/>
<path class="st3" d="M49.8,15.1c3.5,4.8,6.6,9.9,9.2,15.2c0.2,0.4,0.8,0.5,1.2,0.3c0.4-0.3,0.5-0.8,0.3-1.2
	c-2.6-5.4-5.7-10.4-9.2-15.2c-0.3-0.4-0.8-0.6-1.2-0.3C49.7,14.1,49.5,14.7,49.8,15.1L49.8,15.1z"/>
<path class="st3" d="M49.9,34.4c-2.2,1.8-4.2,3.7-6,5.8c-1.7,1.8-3.3,3.8-4.7,5.8c-2.5,3.6-4.2,8-4.7,12.4c-0.3,3.1,0.1,6.2,0.6,9.3
	c0.8,4.6,1.9,9,3.2,13.5c1.7,5.7,3.7,11.2,5.8,16.7c0.3,0.8,0.6,1.5,0.9,2.3c0.2,0.4,0.6,0.8,1.1,0.6c0.4-0.1,0.8-0.7,0.6-1.1
	c-2.3-5.5-4.3-11.2-6.1-16.9c-1.4-4.5-2.7-9.1-3.5-13.8c-0.6-3.2-1.1-6.3-0.9-9.5c0-0.3,0-0.6,0.1-0.9c0-0.1,0-0.3,0-0.4
	c0,0,0,0.2,0,0c0-0.1,0-0.1,0-0.2c0.2-1.3,0.5-2.7,0.9-4c0.6-1.9,1.3-3.6,2.3-5.3c1.3-2.2,2.9-4.1,4.5-6.1c1.6-1.9,3.4-3.7,5.2-5.4
	c0.6-0.5,1.2-1,1.8-1.5c0.4-0.3,0.3-0.9,0-1.3C50.8,34,50.3,34,49.9,34.4L49.9,34.4z"/>
<path class="st3" d="M112,36.2c2.6,4.1,4.8,8.4,6.7,12.8c1.7,3.8,2.8,7.7,3.1,11.8c0.2,2.9,0.1,5.9-0.3,8.8
	c-0.1,0.5,0.4,0.9,0.9,0.9c0.5,0,0.8-0.4,0.9-0.9c0.6-4.7,0.5-9.6-0.6-14.2c-0.5-2-1.2-4-2-6c-1.1-2.6-2.3-5.2-3.6-7.7
	c-1.2-2.2-2.4-4.4-3.7-6.5C112.9,34.3,111.4,35.2,112,36.2L112,36.2z"/>
<path class="st3" d="M122,58.9c6.8,13.3,13,26.9,18.8,40.7c1.6,3.8,3.6,7.6,5.3,11.4c2.6,5.8,4.9,11.8,6.6,17.9
	c1.8,6.3,3.1,12.7,2.8,19.2c-0.3,5.7-1.7,11.4-4.1,16.6c-3.9,8.3-10.8,15-18.9,19.2c-9,4.6-19.7,5.7-29.4,3.2
	c-0.6-0.1-1.2-0.3-1.8-0.5c-1.1-0.3-1.6,1.4-0.5,1.7c10.1,3,21.2,2.3,30.8-2.1c8.5-3.9,15.9-10.6,20.3-18.8c2.2-4,3.7-8.5,4.5-13
	c1.3-6.8,1-13.6-0.6-20.3c-1.5-6.6-3.6-13-6.2-19.2c-1.9-4.7-4.1-9.2-6.3-13.8c-1.1-2.4-2.1-4.9-3.2-7.4c-1.6-3.6-3.1-7.2-4.7-10.7
	c-3.1-6.8-6.3-13.6-9.6-20.3c-0.8-1.6-1.6-3.2-2.4-4.7C123,56.9,121.5,57.8,122,58.9L122,58.9z"/>
<path class="st16" d="M39.6,48.3"/>
<path class="st3" d="M37.5,77.1c-4.7,8.3-9.1,16.8-13.2,25.4c-2.6,5.5-5.1,11-7.4,16.6c-2,4.9-4.1,9.8-5.6,14.8
	C8.4,144,8.5,155.1,13,164.7c2.2,4.7,5.5,8.8,9.4,12.1c3.1,2.6,6.5,4.6,10.1,6.4c4.5,2.1,9.1,3.9,13.9,4.9c4.6,0.9,9.4,1.3,14.1,1.1
	c0.8,0,1.7-0.1,2.5-0.2c0.5,0,0.9-0.4,0.9-0.9c0-0.4-0.4-0.9-0.9-0.9c-4.1,0.4-8.3,0.3-12.5-0.2c-5.3-0.7-10.4-2.3-15.3-4.5
	c-3.2-1.5-6.4-3.1-9.3-5.1c-3.8-2.7-7.2-6.1-9.6-10.1c-5.5-8.9-6.4-20.1-4-30.1c1.1-4.8,3-9.4,4.8-14c2.2-5.6,4.7-11.1,7.2-16.6
	c4.1-8.9,8.6-17.6,13.4-26.2c0.4-0.8,0.9-1.6,1.3-2.3C39.6,77,38.1,76.1,37.5,77.1L37.5,77.1z"/>
<path class="st3" d="M97.9,182.4c0.6,1,1.3,2.2,1.7,3.3c0.1,0.3,0.2,0.6,0.2,0.9c0,0-0.1,0.2,0,0.1c-0.1,0.2-0.4,0.4-0.6,0.5
	c-0.8,0.6-1.7,1-2.6,1.4c-3.7,1.4-8,1.3-11.5-0.7c-0.8-0.4-1.5-1-1.8-1.9c-0.1-0.4-0.2-0.9-0.1-1.4c0-0.1,0-0.1,0-0.2c0,0.2,0,0,0,0
	c0-0.1,0-0.1,0-0.2c0.1-0.8,0.3-1.5,0.4-2.3c0.6-2.9,1.2-5.9,1.8-8.8c1-5,2.1-10,3.2-15c0.2-1.1-1.5-1.6-1.7-0.5
	c-1.7,7.9-3.4,15.9-4.9,23.8c-0.2,0.8-0.3,1.6-0.4,2.3c-0.2,0.9-0.2,1.9,0.2,2.7c0.4,1.1,1.2,2,2.2,2.6c1.8,1.2,4.1,1.8,6.3,2
	c2.2,0.2,4.4-0.1,6.5-0.8c1.2-0.4,2.3-0.9,3.3-1.6c0.6-0.4,1.2-0.8,1.5-1.6c0.2-0.5,0.1-1,0-1.5c-0.2-0.9-0.7-1.8-1.1-2.6
	c-0.3-0.6-0.6-1.1-0.9-1.7C98.9,180.6,97.3,181.5,97.9,182.4L97.9,182.4z"/>
<path class="st3" d="M136.3,124c0.7,2.6,0.5,5.3,0.4,8c-0.2,2.7-0.5,5.3-1.1,7.9c-1.1,4.6-3.4,8.8-6.3,12.6
	c-2.9,3.8-6.4,7.2-10,10.3c-1.9,1.7-4,3.4-6.1,4.8c-1.9,1.3-4,2.4-6.1,3.6c-2.2,1.2-4.3,2.4-6.1,4.1c-1.8,1.6-4,4.3-3.2,6.9
	c0.3,1.1,2.1,0.6,1.7-0.5c-0.4-1.1,0.3-2.3,0.9-3.2c0.6-0.8,1.3-1.6,2.1-2.3c1.6-1.4,3.5-2.5,5.3-3.5c2-1.1,4.1-2.2,6-3.5
	c2.2-1.5,4.2-3.1,6.2-4.8c7.2-6.2,14.3-13.6,16.9-23c0.8-2.9,1.2-6,1.4-9c0.2-3,0.4-6.1-0.4-9C137.7,122.4,136,122.9,136.3,124
	L136.3,124z"/>
<path class="st3" d="M27.5,115.4c-0.8,7.1-1.2,14.3,0,21.3c0.5,3.1,1.4,6.2,2.8,9.1c1.1,2.4,2.6,4.8,4.1,6.9
	c2.9,4,6.4,7.6,10.1,10.9c2.1,1.8,4.3,3.5,6.5,5.1c0.2,0.1,0.4,0.3,0.6,0.4c0.1,0.1-0.1-0.1,0.1,0.1c0.1,0.1,0.2,0.1,0.2,0.2
	c0.2,0.2,0.4,0.3,0.6,0.5c1,0.9,2.1,1.8,3,2.7c2.4,2.3,4.5,4.8,6.4,7.6c0.3,0.5,0.6,1,0.9,1.4c0-0.3,0-0.6,0-0.9
	c-1.1,1.9-2.1,4.4-1.1,6.6c0.8,1.8,2.8,2.7,4.6,3.1c1.9,0.3,3.9,0.3,5.9,0.2c2.1-0.1,4.3-0.2,6.4-0.9c1.7-0.5,3.7-1.6,4.2-3.5
	c0.4-1.5,0-3.2-0.3-4.7c-0.8-4.1-1.8-8.1-2.7-12.2c-0.7-3.3-1-6.5-1-9.9c0-0.7,0-1.5,0-2.2c0-1.1-1.7-1.1-1.8,0
	c-0.1,3.9,0.1,7.8,0.8,11.6c0.6,3.2,1.4,6.3,2.1,9.5c0.3,1.2,0.5,2.3,0.8,3.5c0.1,0.5,0.2,0.9,0.2,1.4c0,0.1,0,0.2,0.1,0.3
	c0,0.1,0,0.1,0,0.1c0,0,0-0.1,0,0c0,0.2,0,0.4,0.1,0.6c0,0.3,0,0.6,0,1c0,0.1,0,0.2,0,0.4c0-0.3,0,0.1,0,0.2c0,0.1-0.1,0.3-0.1,0.2
	s0,0,0,0c-0.1,0.1-0.1,0.2-0.2,0.3c-0.2,0.3-0.5,0.6-0.8,0.8c-1.5,1.2-3.6,1.4-5.5,1.6c-1.8,0.2-3.7,0.3-5.5,0.2
	c-1.7,0-3.6-0.2-4.9-1.2c-0.2-0.1-0.5-0.5-0.6-0.7c-0.2-0.4-0.4-0.8-0.4-1.2c-0.1-1,0.2-2.1,0.7-3c0.2-0.4,0.4-0.8,0.6-1.1
	c0.2-0.3,0.2-0.6,0-0.9c-3.1-4.9-7-9.3-11.6-12.8c-0.7-0.6-1.5-1.1-2.2-1.6c-0.2-0.2-0.5-0.4-0.7-0.6c-0.1-0.1-0.1-0.1-0.2-0.1
	c0.2,0.1,0,0-0.1-0.1c-0.2-0.1-0.3-0.2-0.4-0.3c-0.7-0.5-1.3-1.1-2-1.6c-3.6-3-7-6.3-10-10c-1.6-2-3.1-4.2-4.4-6.5
	c-1.4-2.6-2.4-5.3-3.1-8.1c-1.6-6.8-1.4-14-0.7-20.9c0.1-0.9,0.2-1.8,0.3-2.6c0-0.5-0.4-0.9-0.9-0.9
	C27.8,114.5,27.5,114.9,27.5,115.4L27.5,115.4z"/>
<path class="st3" d="M42.3,116c-1.5,6-1,12.4,1.4,18.1c1.2,2.9,2.9,5.5,5.1,7.7c1.9,1.9,4.2,3.6,6.4,5.1c2.6,1.7,5.4,3,8.4,4
	c0.4,0.1,0.8-0.1,1-0.4c0.2-0.4,0.1-0.8-0.1-1.1c-3.6-4.6-5.7-10.4-6-16.3c-0.1-1.1-1.8-1.1-1.8,0c0.2,5.1,1.7,10.1,4.4,14.4
	c0.7,1.1,1.4,2.1,2.2,3.1c0.3-0.5,0.6-1,0.9-1.5c-4.9-1.7-9.4-4.4-13.2-7.9c-1-0.9-2-1.9-2.8-3.1c-0.9-1.2-1.6-2.5-2.2-3.8
	c-1.2-2.6-2-5.4-2.4-8.2c-0.4-3.2-0.2-6.6,0.6-9.7C44.3,115.4,42.6,114.9,42.3,116L42.3,116z"/>
<path class="st3" d="M123.4,126.6c-2.2,4.3-5,8.1-8.7,11.2c-1.8,1.5-3.9,2.7-5.8,4.2c-2.1,1.6-3.9,3.5-5.4,5.8
	c-1.4,2.3-2.4,4.9-3,7.6c0.6,0.1,1.2,0.2,1.7,0.2c-0.5-6.9,1.1-13.9,4.5-19.9c0.7-1.3,1.6-2.6,2.5-3.8c0.3-0.4,0.1-1-0.3-1.2
	c-0.4-0.3-0.9-0.1-1.2,0.3c-4.2,5.7-6.7,12.6-7.2,19.6c-0.1,1.7-0.1,3.3,0,5c0.1,0.9,1.5,1.3,1.7,0.2c1.1-4.8,3.5-9.1,7.4-12.1
	c1.9-1.5,4-2.7,5.9-4.2c1.7-1.3,3.2-2.8,4.5-4.4c1.9-2.3,3.6-4.8,4.9-7.5C125.5,126.5,123.9,125.6,123.4,126.6L123.4,126.6z"/>
<path class="st3" d="M63.8,52.1c-0.2-0.6-0.3-1.3-0.4-1.9c0,0-0.2-0.8-0.1-0.8c-0.6,0.2-0.1,0.2,0,0.2c0,0,0.4-0.1,0.5-0.1
	c0.6,0,1.2,0,1.8,0.2c0.2,0,0.4,0.1,0.5,0.2c-0.1-0.2,0-0.1,0-0.1c-0.1,0.1-0.1,0.2-0.2,0.2c-0.4,0.3-1,0.4-1.5,0.7
	c-0.5,0.3-1,0.7-1.4,1.1c-0.8,0.8-1.4,1.9-1.6,3c-0.5,2.3,0.5,4.8,2.6,6c2,1.2,4.6,1,6.7,0.3c1.3-0.4,2.6-1,3.5-2.1
	c0.9-1.1,1.4-2.5,1-4c-0.3-1.1-2-0.6-1.7,0.5c0.7,2.4-2.2,3.7-4,4.1c-1.9,0.4-4.3,0.4-5.6-1.3c-1.3-1.7-1-4,0.5-5.4
	c0.3-0.3,0.8-0.6,1.2-0.8c0.6-0.3,1.2-0.5,1.6-0.9c0.4-0.4,0.7-1,0.7-1.6c-0.1-0.8-0.7-1.3-1.3-1.6c-0.7-0.3-1.5-0.4-2.2-0.4
	c-0.7,0-1.6,0-2.2,0.5c-0.6,0.6-0.5,1.3-0.4,2.1c0.1,0.8,0.3,1.5,0.5,2.2C62.4,53.7,64.1,53.2,63.8,52.1L63.8,52.1z"/>
<path class="st3" d="M54.7,52.4c-0.6,2.2-1,5.1,1.1,6.7c2,1.5,4.5,0.7,6.4-0.5c-0.4-0.5-0.7-0.9-1.1-1.4c-0.8,0.7-1.8,1.4-2.5,2.2
	c-0.6,0.6-1,1.4-1.3,2.2c-0.5,1.2-0.4,2.5,0,3.7c0.6,1.6,1.5,2.9,2.5,4.2c1.3,1.7,2.7,3.3,4.1,4.9c1.4,1.6,2.8,3.1,4.3,4.6
	c0.8,0.8,2.1-0.5,1.3-1.3c-2.7-2.6-5.2-5.4-7.5-8.2c-1-1.2-2-2.5-2.7-3.9c-0.2-0.5-0.5-1-0.6-1.6c0,0,0-0.3,0-0.2c0,0.1,0-0.2,0-0.2
	c0-0.1,0-0.2,0-0.3c0-0.1,0-0.1,0-0.2c0-0.3,0,0.1,0-0.1c0-0.1,0.1-0.3,0.1-0.4c0.2-0.6,0.5-1.3,0.9-1.8c0.3-0.4,0.8-0.7,1.2-1.1
	c0.5-0.4,1-0.8,1.5-1.3c0.8-0.7-0.2-2-1.1-1.4c-1.2,0.8-3.1,1.7-4.5,0.6c-1.4-1.1-0.8-3.3-0.4-4.7C56.7,51.7,55,51.3,54.7,52.4
	L54.7,52.4z"/>
<path class="st3" d="M75.3,47.5c-0.1-1.3,0.1-2.7,0.8-3.9c0.8-1.3,2.2-2.2,3.6-2.6c2.7-0.9,6.2-0.6,8,1.9c1,1.3,1.6,3,2,4.6
	c0.1-0.3,0.3-0.7,0.4-1c-1.9,0.9-4.2,1.6-6.5,1.8c-3,0.3-6.1-0.2-8.8-1.5c-1-0.5-1.9,1-0.9,1.5c3,1.5,6.4,2.2,9.7,1.8
	c2.6-0.3,5-1,7.4-2.1c0.4-0.2,0.5-0.7,0.4-1c-0.4-1.6-1-3.4-2-4.8c-1.2-1.7-2.9-3-5-3.3c-1.5-0.3-3.1-0.2-4.6,0.2
	c-1.8,0.5-3.6,1.5-4.8,2.9c-1.2,1.5-1.7,3.5-1.5,5.5c0,0.5,0.4,0.9,0.9,0.9C74.8,48.4,75.3,48,75.3,47.5z"/>
<path class="st3" d="M61.3,47.4c0.7-2.7-0.1-6-2.8-7.4c-1.1-0.6-2.4-0.7-3.6-0.7c-1.2,0.1-2.4,0.3-3.5,0.8c-1.3,0.6-2.4,1.9-3.3,3
	c-0.5,0.6-0.9,1.2-1.2,1.8c-0.3,0.6-0.5,1.3-0.3,2c0.3,1,1.3,1.5,2.2,1.8c1.1,0.4,2.3,0.6,3.5,0.7c2.9,0.2,5.8-0.2,8.4-1.4
	c0.4-0.2,0.5-0.8,0.3-1.2c-0.3-0.5-0.8-0.5-1.2-0.3c-2,0.8-4.1,1.3-6.2,1.2c-1,0-2-0.1-2.9-0.3c-0.9-0.2-1.6-0.4-2.3-0.8
	c0,0-0.1,0-0.1-0.1c0,0,0.1,0.1,0,0c0,0-0.1-0.1-0.2-0.2c-0.1-0.1,0,0,0,0c0,0-0.1-0.1-0.1-0.1c0,0.2,0,0,0,0c0,0,0,0,0.1-0.1
	c0-0.1,0.1-0.2,0.1-0.3c0.1-0.3,0.3-0.6,0.4-0.8c0.7-1,1.5-2,2.5-2.8c0.8-0.7,1.8-0.9,2.8-1.1c0.1,0,0.2,0,0.4,0c0.2,0,0.5,0,0.8,0
	c0.5,0,0.9,0,1.3,0.1c2.6,0.6,3.5,3.3,2.8,5.7C59.3,48,61,48.5,61.3,47.4z"/>
<path class="st3" d="M155.5,159c1.1-5.8,3-11.4,6.3-16.4c1.3-2,2.6-3.6,4.3-5.4c2.1-2.2,4.3-4.3,6.4-6.4c4.2-4.3,8.4-9.1,10.5-14.8
	c0.6-1.6,0.9-3.2,1.1-4.9c0.1-1.4,0-2.8,0-4.3c0-0.2,0-0.4,0-0.6c0,0.2,0,0.1,0,0c-0.1,0.2-0.1,0.3-0.4,0.4
	c-0.1,0.1-0.2,0.1-0.4,0.1c-0.2,0-0.1,0,0,0c0,0-0.2-0.1-0.1,0s-0.1-0.2,0,0c0.1,0.1,0.1,0.1,0.2,0.2c0.4,0.4,0.4,0.5,0.7,0.9
	c0.3,0.5,0.6,1,0.9,1.5c2.9,4.9,4.8,10.3,5.3,16c0.6,6.1-0.2,12.3-2,18.2c-1.6,5.2-4,10.2-7.1,14.6c-0.3,0.5-0.7,0.9-1,1.4
	c-0.1,0.1-0.1,0.1-0.1,0.2c0,0-0.1,0.1-0.1,0.1c0,0,0.1-0.1,0,0c-0.1,0.1-0.2,0.3-0.4,0.4c-0.2,0.3-0.5,0.6-0.7,0.9
	c-1.2,1.5-2.6,2.9-3.9,4.2c-3.7,3.6-8,6.6-12.6,8.9c-5.8,2.9-12.2,4.6-18.7,4.9c-1.2,0.1-2.5,0.1-3.7,0.1c-1.1,0-1.1,1.8,0,1.8
	c6.5,0.1,13.1-1,19.1-3.3c5.4-2.1,10.3-5.1,14.7-8.8c3-2.6,5.7-5.4,8.1-8.6c2.9-3.8,5.1-8,6.8-12.4c2.3-6,3.6-12.4,3.6-18.8
	c0-3.1-0.3-6.2-1-9.2c-0.7-2.9-1.7-5.7-3-8.3c-0.6-1.3-1.3-2.5-2-3.7c-0.5-0.8-1-1.7-1.8-2.4c-0.3-0.3-0.7-0.5-1.1-0.5
	c-0.6,0-0.9,0.4-1.1,0.9c-0.1,0.4-0.1,0.9-0.1,1.4c0,0.7,0.1,1.4,0.1,2.1c0,3.2-0.9,6.2-2.4,9.1c-1.5,2.8-3.3,5.3-5.3,7.6
	c-3.9,4.5-8.7,8.3-12.4,13c-3.4,4.3-5.7,9.2-7.2,14.4c-0.5,1.7-0.9,3.4-1.2,5.1c-0.1,0.5,0.1,1,0.6,1.1
	C154.8,159.7,155.4,159.5,155.5,159L155.5,159z"/>
<g>
	<g>
		<path class="st8" d="M25.6-34.9c1.6-0.6,3.7-1.6,5.4-0.7c1.1,0.6,1.8,1.8,2.8,2.5c2,1.3,4,1.1,5.9-0.3c1.9-1.4,0-4.7-1.9-3.2
			c-2,1.5-4.2-2.2-6.2-2.8c-2.4-0.8-4.8,0-7.1,0.9C22.3-37.6,23.3-34,25.6-34.9L25.6-34.9z"/>
	</g>
</g>
<g>
	<g>
		<path class="st8" d="M14.8-34.8c0.3,0,0.9-0.2,1.3-0.1c0.2,0,0.5,0.4,0.7,0.5c0.8,0.6,1.6,1.2,2.4,1.8c1.6,1.2,3,0.6,4.2-0.8
			c1.5-1.8-1.1-4.5-2.6-2.7c-0.3,0.3-0.4,0.6-0.8,0.7c0.6,0,1.3,0,1.9,0c-1.3-0.7-2.3-1.8-3.5-2.6c-0.5-0.3-1-0.6-1.7-0.7
			c-0.6-0.1-1.2,0.1-1.8,0.1C12.4-38.8,12.4-35,14.8-34.8L14.8-34.8z"/>
	</g>
</g>
<g>
	<g>
		<path class="st8" d="M54.2,44.2c1.9,0,1.9-3,0-3S52.3,44.2,54.2,44.2L54.2,44.2z"/>
	</g>
</g>
<g>
	<g>
		<path class="st8" d="M81.8,43.6c1.9,0,1.9-3,0-3S79.8,43.6,81.8,43.6L81.8,43.6z"/>
	</g>
</g>
<ellipse class="st17" cx="15.8" cy="234.3" rx="0.7" ry="0.6"/>
<ellipse class="st17" cx="-11.5" cy="234.7" rx="0.7" ry="0.6"/>
<path class="st8" d="M158.3,56"/>
<path class="st18" d="M62.7,144.8"/>
</svg>
