<?xml version="1.0" encoding="utf-8"?>
<!-- Generator: Adobe Illustrator 26.0.3, SVG Export Plug-In . SVG Version: 6.00 Build 0)  -->
<svg version="1.1" id="Слой_1" xmlns="http://www.w3.org/2000/svg" xmlns:xlink="http://www.w3.org/1999/xlink" x="0px" y="0px"
	 viewBox="0 0 200 200" style="enable-background:new 0 0 200 200;" xml:space="preserve">
<style type="text/css">
	.st0{fill:#7C5226;}
	.st1{fill:#895D2C;}
	.st2{fill:#FFE006;}
	.st3{fill:#472D1C;}
	.st4{fill:#936334;}
	.st5{fill:#FFFFFF;}
	.st6{fill:none;stroke:#472D1C;stroke-width:1.25;stroke-miterlimit:10;}
	.st7{fill:#BC863F;}
	.st8{fill:#C89242;}
	.st9{fill:#A3966A;}
	.st10{fill:#D8A159;}
	.st11{fill:none;stroke:#472D1C;stroke-width:0.9;stroke-miterlimit:10;}
	.st12{fill:none;stroke:#472D1C;stroke-miterlimit:10;}
</style>
<g>
	<g>
		<g id="XMLID_00000181789037758601118630000007307674952649447327_">
			<g>
				<path class="st0" d="M637.7-107.5c5,13.5,1.9,31.2-7,44.5C628.6-60,619.4-47,602-41.7c-6.6,2-12.4,2.3-16.4,2.2
					c0.7-0.5,1.3-1.1,2-1.6l0.9,0.2c3.9-1.2,7.2-3.7,10.4-6.1c8.6-6.6,17.4-13.4,23.7-22.2c8.9-12.4,12.3-28.7,9.1-43.6l-0.4,0
					c0.2-3-0.3-5.1,0.2-5.2C632.6-118.5,636-112.1,637.7-107.5z"/>
				<path class="st1" d="M601.4-63.5c0.2-0.8,0.4-1.7,0.6-2.5c2.1-8.2,5.5-13.6,8.5-17.2c5-6.1,12.7-11.6,17.4-19.7
					c1.3-2.3,3-5.2,3.4-9.3c0-0.2,0-0.5,0.1-0.7l0.4,0c3.2,15-0.2,31.2-9.1,43.6c-6.3,8.8-15.1,15.6-23.7,22.2
					c-3.2,2.5-6.5,5-10.4,6.1l-0.9-0.2c3.4-3,6.9-6.9,9.8-12C597.9-54.1,599.9-57.8,601.4-63.5z"/>
				<path class="st0" d="M585.6-39.4c-4.5,3.5-8.5,5.3-9.9,5.9c-15,6.5-28.5,2.6-31.9,1.5c0-0.1,0.2-0.4,0.1-0.9l0.1,0
					c3.3,0.3,26.5,2.2,38.8-13c5.5-6.8,7.5-15.3,8.6-20.5c2.3-10.4,1.6-18.8,1.1-23.5c-2.9-28-21.9-62-24.9-67.3l-0.5-0.1
					c0.5-4.4,0.4-8.2-0.1-11.2l0.3-0.1c6.8,13.3,13.5,27.7,20,43.1c2.5,6,9.8,18.8,13.9,35.8c1.2,4.7,2.3,10.5,1.7,17.8
					c-0.2,2.1-0.5,4-0.9,5.8c-0.2,0.8-0.4,1.7-0.6,2.5c-1.5,5.6-3.5,9.4-4,10.4c-2.8,5.1-6.3,9.1-9.8,12
					C586.9-40.5,586.2-39.9,585.6-39.4z"/>
				<path class="st1" d="M568.2-94.5c-2.6,4.8-5.5,7.9-7.7,9.9c-4.6,4.2-8,5-11.5,9.5c-2.6,3.3-3.8,6.8-4.3,9.3l0.3,0.1
					c1.8-2.6,3.7-5.2,6-7.3c3.7-3.5,8.4-6,11.6-9.9C565.3-86.3,566.8-90.5,568.2-94.5L568.2-94.5z M504.1-174.4
					c0.6-0.7,1.3-1.2,2.1-1.6c0.5-0.2,0.9-0.4,1.3-0.7c0.4-0.3,0.6-0.9,0.4-1.3c-0.1-0.3-0.5-0.4-0.8-0.6c-1-0.4-2-0.5-3-0.3
					c-0.3,0.1-0.6,0.1-0.8,0.4c-0.1,0.2-0.1,0.5-0.1,0.8c0.1,0.9,0.3,1.8,0.6,2.7L504.1-174.4z M498.3-89.3l-0.2,0.1
					c0.1,2.5,0.6,6.3,2.3,10.4c1.2,3,2.8,5.4,4.1,7.1l0.5-0.1C503.6-77.9,501.4-83.8,498.3-89.3z M567-157.2l0.5,0.1
					c3,5.3,22,39.3,24.9,67.3c0.5,4.7,1.3,13.1-1.1,23.5c-1.2,5.1-3.1,13.7-8.6,20.5c-12.3,15.1-35.5,13.3-38.8,13l-0.1,0
					c0.1,0.5,0,0.8-0.1,0.9c-0.2,0.4-0.5,0.6-0.8,0.8c-4.5,3.1-10.6,3.6-15.5,1.2c-1.2-0.6-2.4-1.5-2.9-2.8c-0.2-0.5-0.2-1-0.2-1.3
					c0-0.4,0-0.8,0.1-1c0.4-2.3,2.3-11.8,5.1-25l-0.4-0.1c-2.7-1.1-5.7-1.9-8.5-1c-0.3,0.1-0.7,0.3-1,0.5c0,3.4,0.4,6.2,0.7,8.2
					c0.3,1.6,0.5,2.8,2.2,9.9c0.9,4.1,1.5,6.7,1.5,8.4c0,0.7-0.1,1.1-0.3,1.5c-1.7,2.9-6.2,3.2-9.7,3.4c-3,0.2-7.9,0.5-10-1.8l0,0
					c-6,0.5-17,0.7-28.9-4.6c-5.5-2.4-16.3-7.2-22.5-18.8c-3-5.6-3.8-10.7-4.2-13.3c-1.7-11.8,1.7-21.4,4.4-28.5
					c8.4-21.7,18.7-41,24.9-52c-2.6-9.7-3.6-17.1-2.9-21.1c0.6-3.4,1.7-6.3,1.7-6.3c1.8-4.5,4.2-7.4,6.8-10.5c1.7-2,4.1-4.6,7.4-7.2
					l0.2,0.1c3.8-0.6,7.2-2.8,9.4-5.9c0,0,0,0,0,0c0,0,0,0,0,0c-0.9-1.8-1.9-3.6-2.9-5.5c-2.2-3.8-4.4-7.2-6.6-10.2l0.3-0.5
					c2.4,1.5,5,3.4,7.8,5.6c3,2.5,5.4,5,7.4,7.2c4-1.3,9.5-2.6,16.2-2.8c5.3-0.2,9.9,0.4,13.5,1.1c1.9-1.5,3.4-3.4,5.2-4.9
					c1-0.8,2-1.4,3.1-2.1c1.3-0.8,2.7-1.7,4-2.5c1.5-0.9,2.9-1.8,4.5-2.4c-4.2,5.2-7.6,11.1-10.1,17.4l-0.1,0
					c-0.1,0.9,0.7,1.6,1.5,2.2c1.8,1.3,3.6,2.6,5.7,3.4c2.1,0.8,4.5,0.9,6.4,0c0.1,0,0.1-0.1,0.1-0.1l0.2,0c0,0.2,0,0.4-0.1,0.7
					l0.3,0.1c1.7,2.7,4.1,6.8,6.4,12c0.9,1.9,1.8,4,2.5,6.3c0.5,1.5,1,3.4,1.3,5.8C567.4-165.4,567.6-161.6,567-157.2z M533.1-180.3
					c-0.1-0.4-0.2-0.9-0.4-1.5c-0.5-1.5-1.3-3.7-3.3-5.2c-1.6-1.2-3.3-1.3-4.2-1.3c-0.6-0.1-2.6-0.1-4.7,0.9c-0.8,0.4-2.1,1-3.1,2.4
					c-1.4,2-1.3,4.2-1.3,5c0.7,0.4,1.5,0.7,2.4,1C524.5-176.9,530.3-179,533.1-180.3z M522.4-192.1c1.9-5.3,7.1-8.4,6.6-9
					c-0.2-0.3-1.5,0.5-2.7,1.2c-3,1.9-4.7,4-5.4,5.1c-0.5,0.6-3.4,4.8-2.5,5.8c0.4,0.4,1.5,0.1,1.5,0.1
					C521.5-189.5,522.1-191.4,522.4-192.1z M514.8-194.2c2.6-4.1,5.1-5.8,4.8-6.3c-0.3-0.4-2.4,0.8-3.3,1.3c-1.6,1-2.6,2-2.9,2.3
					c-3.9,4.2-8.7,14.4-7.4,15.2c0.2,0.1,1,0.4,1.9,0.1c0,0,0.1,0,0.1,0c1.6-0.6,2.2-2.6,3-4.9C510.9-186.4,512.5-190.7,514.8-194.2
					z M503.8-191.5c1.6-4.6,6.7-7.3,6.3-7.9c-0.3-0.3-2.1,0.7-2.9,1.2c-3,1.8-4.6,4-5,4.5c-0.9,1.4-2.4,4.1-1.7,4.9
					c0.4,0.4,1.2,0.1,1.3,0.1C503.1-189.3,503.6-190.9,503.8-191.5z M501.2-180.4c0.6-2.2,0.1-4.5-1.3-5.9c-2-1.9-4.9-1.5-6.2-1.2
					c-0.6,0.1-1.1,0.3-1.7,0.5c-0.5,0.3-1,0.7-1.5,1.1c-1.3,1.2-2.5,2.6-3,4.2c-0.1,0.2-0.1,0.4,0,0.5c0.3,1.6,4.8,2.3,7.6,2.2
					C496.4-179,498.6-179.2,501.2-180.4z"/>
				<path class="st0" d="M568.2-94.5L568.2-94.5c-1.4,4-2.9,8.2-5.6,11.5c-3.2,3.9-7.9,6.4-11.6,9.9c-2.3,2.2-4.1,4.8-6,7.3
					l-0.3-0.1c0.6-2.5,1.8-5.9,4.3-9.3c3.5-4.5,6.9-5.3,11.5-9.5C562.7-86.6,565.6-89.7,568.2-94.5z"/>
				<path class="st0" d="M556.2-193.3c0,0.1-0.1,0.1-0.1,0.1c-2,1-4.4,0.8-6.4,0c-2.1-0.8-3.9-2.1-5.7-3.4c-0.8-0.6-1.6-1.3-1.5-2.2
					l0.1,0c2.5-6.3,5.9-12.1,10.1-17.4c0.1,0,0.1-0.1,0.2-0.1l0.1,0.2c2.9,7.1,4,15,3.4,22.7L556.2-193.3z"/>
				<path class="st2" d="M532.7-181.8c0.2,0.6,0.4,1.1,0.4,1.5c-2.8,1.3-8.6,3.4-14.7,1.3c-0.9-0.3-1.7-0.6-2.4-1
					c-0.1-0.8-0.2-3,1.3-5c1-1.4,2.3-2,3.1-2.4c2.2-1,4.1-0.9,4.7-0.9c0.9,0.1,2.6,0.2,4.2,1.3C531.4-185.6,532.2-183.4,532.7-181.8
					z"/>
				<path class="st0" d="M529.1-60.2l0.4,0.1c-2.8,13.2-4.7,22.7-5.1,25c0,0.2-0.1,0.5-0.1,1H524c0-1.6-0.6-4.3-1.5-8.4
					c-1.6-7.2-1.9-8.3-2.2-9.9c-0.3-2-0.7-4.8-0.7-8.2c0.3-0.3,0.6-0.4,1-0.5C523.4-62.1,526.4-61.3,529.1-60.2z"/>
				<path class="st0" d="M529-201.1c0.5,0.6-4.7,3.7-6.6,9c-0.3,0.7-0.9,2.6-2.4,3.1c-0.1,0-1.1,0.4-1.5-0.1c-0.9-1,2-5.1,2.5-5.8
					c0.7-1,2.5-3.2,5.4-5.1C527.5-200.6,528.8-201.4,529-201.1z"/>
				<path class="st0" d="M519.5-200.5c0.4,0.4-2.1,2.2-4.8,6.3c-2.3,3.5-3.9,7.8-3.9,7.8c-0.9,2.3-1.4,4.3-3,4.9c0,0,0,0-0.1,0
					c-0.9,0.3-1.7,0-1.9-0.1c-1.3-0.8,3.5-11.1,7.4-15.2c0.3-0.3,1.3-1.4,2.9-2.3C517.1-199.7,519.2-200.9,519.5-200.5z"/>
				<path class="st0" d="M510-199.4c0.5,0.6-4.7,3.3-6.3,7.9c-0.2,0.6-0.7,2.2-2,2.7c-0.1,0-0.9,0.3-1.3-0.1
					c-0.7-0.7,0.8-3.5,1.7-4.9c0.4-0.5,1.9-2.8,5-4.5C507.9-198.7,509.8-199.7,510-199.4z"/>
				<path class="st3" d="M507.9-177.9c0.2,0.4,0,1-0.4,1.3c-0.4,0.3-0.9,0.5-1.3,0.7c-0.8,0.4-1.5,0.9-2.1,1.6l-0.3-0.5
					c-0.3-0.9-0.5-1.8-0.6-2.7c0-0.3-0.1-0.6,0.1-0.8c0.2-0.2,0.5-0.3,0.8-0.4c1-0.2,2.1-0.1,3,0.3
					C507.4-178.4,507.7-178.2,507.9-177.9z"/>
				<path class="st0" d="M505-71.7l-0.5,0.1c-1.3-1.7-2.8-4.1-4.1-7.1c-1.7-4.2-2.2-7.9-2.3-10.4l0.2-0.1
					C501.4-83.8,503.6-77.9,505-71.7z"/>
				<path class="st2" d="M499.9-186.3c1.5,1.4,1.9,3.7,1.3,5.9c-2.6,1.1-4.8,1.4-6.2,1.4c-2.8,0.1-7.3-0.5-7.6-2.2
					c0-0.1,0-0.3,0-0.5c0.6-1.6,1.8-3,3-4.2c0.5-0.4,0.9-0.8,1.5-1.1c0.5-0.3,1.1-0.4,1.7-0.5C495-187.8,497.9-188.2,499.9-186.3z"
					/>
				<path class="st1" d="M500.3-199.1C500.3-199.1,500.3-199.1,500.3-199.1C500.3-199.1,500.3-199.1,500.3-199.1
					C500.3-199.1,500.3-199.1,500.3-199.1z"/>
				<path class="st0" d="M500.3-199.1C500.3-199.1,500.3-199.1,500.3-199.1c-2.2,3.1-5.6,5.3-9.4,5.9l-0.2-0.1
					c-0.7-2.9-1.3-6.6-1.5-10.9c-0.1-4.5,0.4-8.4,1-11.5l0.5,0.1c0.1,0.1,0.2,0.1,0.3,0.2l-0.3,0.5c2.2,3,4.5,6.4,6.6,10.2
					C498.4-202.7,499.4-200.9,500.3-199.1z"/>
			</g>
		</g>
	</g>
</g>
<path class="st4" d="M504.7-45.5c-3.9-4.7-8.7-8.5-13.5-12.2c-4.7-3.7-8.8-8.1-12.7-12.6c-3.9-4.6-7.1-9.6-8.2-15.6
	c-1.3-6.9-0.4-14.2,0.6-21.1c0.3-2.4-3.3-3.4-3.6-1c-1.6,11.6-2.8,23.7,3.9,34.1c3,4.8,7,9,10.9,13c4.2,4.4,9.2,7.7,13.6,11.7
	c4,3.6,12.1,10.1,8.3,16.2c-1.3,2.1,2,4,3.2,1.9C510.3-35.9,508.1-41.5,504.7-45.5z"/>
<path class="st4" d="M530.5-62.5c-2.9,9.7-4.7,20.1-5.4,30.3c-0.2,2.4,3.6,2.4,3.8,0c0.7-9.8,2.4-19.8,5.3-29.3
	C534.8-63.8,531.2-64.8,530.5-62.5z"/>
<path class="st4" d="M501.5-76.5c-5.4-1.7-9.2-7.2-11.9-11.9c-3.3-5.7-4.1-12-3.1-18.5c0.4-2.4-3.3-3.4-3.6-1
	c-1.2,7.5-0.4,14.8,3.4,21.4c3.2,5.6,7.7,11.6,14.1,13.6C502.8-72.1,503.8-75.7,501.5-76.5z"/>
<path class="st4" d="M551.7-90.6c-1.6,2.6-2.9,5.4-4,8.2c-1.1,2.9-1.6,6.1-3.3,8.7c-1.3,2,1.9,3.9,3.2,1.9c1.7-2.5,2.3-5.5,3.2-8.3
	c1-3,2.4-5.9,4-8.6C556.2-90.8,553-92.7,551.7-90.6z"/>
<path class="st4" d="M500.9-35.7c-9.7,0.2-19.1-0.5-27.5-5.8c-3.7-2.3-7-5.2-10.1-8.3c-3-3-6.4-6.3-8.5-10.1
	c-4.4-7.8-2-17.6-0.1-25.8c1.1-4.8,2.3-9.7,3.9-14.3c1.6-4.7,3.9-9.2,6.1-13.7c4.7-9.5,9.3-19.1,14.4-28.5c3.1,9.1,7,17.8,8,17.5
	c0.3-0.1,0.2-1,0.2-1.8c-0.7-8.5-4.6-16.1-5.1-18.1c-1.1-3.9-4.3-9.8-3.9-16.9c0.4-7.1,3.7-13.3,9.4-23.9c2.6-4.8,4.2-7.1,3.7-7.4
	c-0.8-0.6-7.6,4.8-11.9,12.4c-3,5.4-5.3,10.6-5.2,16.9c0.1,5.2,0.9,9.3,3.3,16.8c-0.3,0.1-0.6,0.4-0.9,0.8
	c-5.2,9.4-9.9,19.2-14.7,28.9c-2.3,4.7-4.7,9.3-6.6,14.2c-1.9,5-3.1,10.2-4.3,15.3c-2.1,8.9-4.5,18.9-0.5,27.7
	c1.9,4.1,5.1,7.5,8.2,10.8c3.1,3.3,6.4,6.3,10.1,8.9c4.2,3,8.9,5.4,13.9,6.6c5.9,1.5,12.1,1.5,18.1,1.4
	C503.4-32,503.4-35.8,500.9-35.7z"/>
<path class="st3" d="M520.7-187c-0.6,0.7-1,1.7-1.2,2.6c-0.2,0.9-0.4,2.2,0.3,2.9c0.5,0.4,1.1,0.5,1.7,0.2c0.6-0.3,1-1.1,1.1-1.7
	c0.1-0.8,0.2-1.5,0.4-2.3c0.4-1.6-1.7-2.4-2.6-1.1c-0.1,0.1-0.1,0.2-0.2,0.3c-1,1.5,1.5,2.9,2.4,1.4c0.1-0.1,0.1-0.2,0.2-0.3
	c-0.9-0.4-1.7-0.7-2.6-1.1c-0.1,0.5-0.2,1.1-0.3,1.6c0,0.2-0.1,0.5-0.1,0.7c0,0.1,0,0.1,0,0.2c-0.1,0.3,0,0.3,0.3-0.2
	c0.6,0.1,1.1,0.1,1.7,0.2c0,0,0,0-0.1-0.1c0.1,0.2,0.2,0.4,0.4,0.6c-0.1-0.4,0.2-1.7,0.5-2c0.5-0.6,0.6-1.4,0-2
	C522.2-187.5,521.2-187.6,520.7-187L520.7-187z"/>
<path class="st3" d="M491.6-186c-0.4,0.5-0.7,1-0.9,1.6c-0.3,0.8-0.2,1.8,0.5,2.3c0.9,0.7,1.9,0.2,2.3-0.7c0.3-0.6,0.5-1.3,0.8-1.9
	c0.3-0.7-0.3-1.6-1-1.7c-0.8-0.2-1.5,0.2-1.7,1c-0.1,0.3-0.2,0.6-0.4,0.9c0.1-0.2-0.1,0.3-0.1,0.2c0,0.1-0.1,0.2-0.2,0.4
	c0.2-0.2,0.3-0.3,0.5-0.5c0,0,0,0-0.1,0c0.5,0,1,0,1.4,0c0,0,0,0,0,0c0.2,0.2,0.3,0.3,0.5,0.5c0.1,0.2,0.1,0.3,0.1,0.5
	c0,0,0-0.1,0-0.1c-0.1,0.2,0.1-0.2,0.1-0.2c0.2-0.3,0.4-0.6,0.5-0.8c0.4-0.6,0.1-1.6-0.5-1.9C492.8-186.9,492-186.6,491.6-186
	L491.6-186z"/>
<path class="st5" d="M523.5-185.3L523.5-185.3c0,0.1,0,0.1-0.1,0.2c0,0,0,0,0,0c0,0.1-0.1,0.1-0.1,0.1c0,0,0,0,0,0
	c0,0-0.1,0.1-0.1,0.1c0,0,0,0,0,0c-0.1,0-0.1,0.1-0.2,0.1c0,0,0,0,0,0c-0.1,0-0.1,0-0.2,0c0,0,0,0,0,0c-0.1,0-0.1,0-0.2,0
	c0,0,0,0,0,0c-0.1,0-0.1-0.1-0.2-0.1c0,0,0,0,0,0c-0.1-0.3-0.2-0.6-0.2-1c0,0,0,0,0,0c0-0.1,0.1-0.1,0.1-0.1c0,0,0,0,0,0
	c0,0,0.1-0.1,0.1-0.1c0,0,0,0,0,0c0.1,0,0.1-0.1,0.2-0.1c0,0,0,0,0,0c0.1,0,0.1,0,0.2,0c0,0,0,0,0,0c0.1,0,0.1,0,0.2,0h0
	c0.2,0.2,0.3,0.4,0.5,0.7v0C523.5-185.5,523.5-185.4,523.5-185.3C523.5-185.4,523.5-185.4,523.5-185.3
	C523.5-185.4,523.5-185.3,523.5-185.3C523.4-185.3,523.5-185.3,523.5-185.3c0,0.1,0,0.1-0.1,0.2c0,0,0,0,0-0.1c0,0-0.1,0.1-0.1,0.1
	c0,0,0,0,0.1,0c-0.3-0.3-0.6-0.6-1-1c0,0,0,0.1-0.1,0.1c0,0.1-0.1,0.2-0.1,0.3c0.3-0.1,0.7-0.3,1-0.4c0,0,0,0,0,0
	c0,0,0.1,0.1,0.1,0.1c0,0,0,0,0,0c0,0.1,0.1,0.1,0.1,0.1c0,0,0,0,0,0c0,0.1,0,0.1,0.1,0.2c0,0,0,0,0-0.1c0,0.1,0,0.1,0,0.2
	c0,0,0,0,0,0c0,0.1,0,0.1,0,0.2c0,0,0,0,0,0c0-0.1,0-0.2,0-0.3c0-0.1,0-0.2-0.1-0.3c0-0.1-0.1-0.1-0.1-0.1c-0.1-0.1-0.1-0.1-0.2-0.1
	c-0.1,0-0.1-0.1-0.2-0.1c-0.1,0-0.2,0-0.3,0c-0.1,0-0.1,0.1-0.2,0.1c-0.1,0.1-0.2,0.1-0.2,0.2c0,0.1,0,0.1-0.1,0.2
	c0,0.1-0.1,0.2-0.1,0.3c0,0.1,0,0.2,0,0.3c0,0.1,0.1,0.2,0.1,0.2c0,0.1,0.1,0.1,0.2,0.2c0.2,0.1,0.4,0.1,0.5,0.1
	c0.1,0,0.1-0.1,0.2-0.1c0.1-0.1,0.2-0.1,0.2-0.2C523.4-185.3,523.4-185.3,523.5-185.3c-0.5-0.3-0.9-0.4-1.3-0.6c0,0,0,0,0,0
	c0,0.1,0,0.1,0,0.2c0,0.1,0,0.2,0,0.2c0,0.1,0,0.1,0.1,0.2c0,0,0,0,0,0c0,0.1,0.1,0.1,0.1,0.1c0.1,0.1,0.1,0.1,0.2,0.1
	c0.1,0.1,0.2,0.1,0.4,0.1c0.1,0,0.2,0,0.3-0.1c0.1,0,0.2-0.1,0.2-0.1c0.1-0.1,0.2-0.2,0.2-0.3c0,0,0-0.1,0-0.1
	C523.6-185.4,523.5-185.4,523.5-185.3c0.1,0,0.1,0,0.1-0.1c0-0.1,0-0.1,0.1-0.2c0-0.1,0-0.2,0-0.3c0-0.1,0-0.1,0-0.2
	c0-0.1-0.1-0.2-0.2-0.2c-0.1-0.1-0.2-0.1-0.3-0.2c-0.1,0-0.2,0-0.3,0c-0.1,0-0.2,0-0.3,0.1c-0.2,0.1-0.3,0.2-0.4,0.4
	c0,0.1-0.1,0.1-0.1,0.2c0,0.1,0,0.2,0,0.3c0,0.1,0,0.1,0,0.2c0,0.1,0.1,0.2,0.1,0.2c0,0.1,0.1,0.1,0.1,0.1c0.1,0.1,0.2,0.1,0.2,0.1
	c0.1,0,0.2,0,0.2,0c0.1,0,0.1,0,0.2,0h0c0,0,0.1,0,0.1,0c0.1,0,0.2-0.1,0.2-0.2c0-0.1,0.1-0.1,0.1-0.2c0-0.1,0.1-0.2,0.1-0.3
	c0-0.1,0-0.2,0-0.3c0-0.1,0-0.1-0.1-0.2c-0.1-0.1-0.2-0.2-0.2-0.2c-0.2-0.1-0.4-0.1-0.7-0.1c-0.1,0-0.3,0.1-0.4,0.2
	c0,0-0.1,0.1-0.1,0.2c0,0.1-0.1,0.1-0.1,0.2c0,0.1,0,0.2,0,0.3c0,0.1,0,0.2,0.1,0.3c0,0.1,0.1,0.1,0.2,0.2c0.1,0.1,0.2,0.1,0.2,0.1
	c0.2,0,0.4,0,0.5-0.1c0,0,0.1-0.1,0.1-0.1C523.4-185.1,523.4-185.2,523.5-185.3L523.5-185.3z"/>
<path class="st5" d="M494.4-184.9C494.4-184.9,494.4-184.9,494.4-184.9c0,0,0,0.1-0.1,0.1c0,0,0,0,0,0c0,0.1-0.1,0.1-0.1,0.1
	c0,0,0,0,0,0c0,0-0.1,0.1-0.1,0.1c0,0,0,0,0,0c-0.1,0-0.1,0.1-0.2,0.1c0,0,0,0,0,0c-0.1,0-0.1,0-0.2,0c0,0,0,0,0,0
	c-0.1,0-0.1,0-0.2,0c0,0,0,0,0,0c-0.2-0.3-0.3-0.6-0.5-0.9c0,0,0,0,0,0c0-0.1,0-0.1,0.1-0.2c0,0,0,0,0,0c0-0.1,0.1-0.1,0.1-0.1
	c0,0,0,0,0,0c0,0,0.1-0.1,0.1-0.1c0,0,0,0,0,0c0.1,0,0.1-0.1,0.2-0.1c0,0,0,0,0,0c0.1,0,0.1,0,0.2,0c0,0,0,0,0,0c0.1,0,0.1,0,0.2,0
	c0,0,0,0,0,0c0.1,0,0.1,0.1,0.2,0.1c0,0,0,0,0,0c0,0,0.1,0.1,0.1,0.1c0,0,0,0,0,0c0.1,0.1,0.1,0.2,0.2,0.3c0,0,0,0,0,0
	c0,0.1,0,0.1,0,0.2c0,0,0,0,0,0C494.4-185.1,494.4-185,494.4-184.9l0-0.1C494.4-184.9,494.4-184.9,494.4-184.9
	C494.3-184.8,494.3-184.8,494.4-184.9c-0.1,0.1-0.1,0.1-0.1,0.2c0,0,0,0,0,0c0,0-0.1,0.1-0.1,0.1c0,0,0,0,0,0
	c-0.2,0-0.4,0.1-0.5,0.1h0c-0.1,0-0.1-0.1-0.2-0.1c0,0,0,0,0,0c0,0-0.1-0.1-0.1-0.1l0,0c0-0.1-0.1-0.1-0.1-0.1l0,0
	c0-0.1,0-0.1-0.1-0.2v0c0-0.1,0-0.1,0-0.2c0,0,0,0,0,0c0-0.1,0-0.1,0-0.2c0,0,0,0,0,0c0-0.1,0-0.1,0.1-0.2c0,0,0,0,0,0
	c0-0.1,0.1-0.1,0.1-0.1l0,0c0,0,0.1-0.1,0.1-0.1l0,0c0.1,0,0.1-0.1,0.2-0.1h0c0.1,0,0.1,0,0.2,0c0,0,0,0,0,0c0.1,0,0.1,0,0.2,0h0
	c-0.1,0-0.2,0-0.3,0c-0.1,0-0.2,0-0.3,0.1c-0.1,0-0.1,0.1-0.2,0.2c-0.1,0.1-0.1,0.1-0.1,0.2c0,0.2,0,0.4,0.1,0.5
	c0,0.1,0.1,0.1,0.1,0.1c0.1,0.1,0.2,0.1,0.3,0.2c0.1,0,0.1,0,0.2,0c0,0,0.1,0,0.2,0c0,0,0.1-0.1,0.2-0.1c0.1,0,0.1-0.1,0.1-0.1
	c0.1-0.1,0.2-0.4,0.2-0.6c0,0,0,0,0,0c0-0.1,0-0.2,0-0.2s0-0.1-0.1-0.2s-0.1-0.1-0.1-0.1c-0.1-0.1-0.2-0.2-0.3-0.2
	c-0.1,0-0.1,0-0.2,0c-0.1,0-0.2,0-0.3,0.1c-0.1,0-0.1,0.1-0.2,0.1l0,0c0,0.1-0.1,0.1-0.1,0.1c0,0,0,0,0,0c0,0.1,0,0.1-0.1,0.2
	c0,0,0,0.1,0,0.1c0,0,0,0.1,0,0.1s0,0.1,0,0.1s0,0.1,0,0.1c0,0.2,0.2,0.4,0.3,0.4c0,0,0.1,0,0.1,0c0,0,0.1,0,0.1,0
	c0.1,0,0.1,0,0.2,0c0.1,0,0.1,0,0.2,0c0.1,0,0.1-0.1,0.2-0.1c0,0,0,0,0.1-0.1s0,0,0.1-0.1C494.4-184.7,494.5-184.8,494.4-184.9
	c0.1,0,0.1,0,0.1-0.1c0,0,0-0.1,0-0.1c0-0.1,0-0.2,0-0.3c0-0.1,0-0.2-0.1-0.3c0-0.1-0.1-0.1-0.1-0.1c-0.1-0.1-0.2-0.1-0.3-0.2
	c-0.2-0.1-0.5,0-0.7,0.1s-0.4,0.3-0.4,0.5c0,0.1,0,0.2,0,0.3c0,0.1,0,0.2,0.1,0.3c0,0.1,0.1,0.1,0.2,0.2c0.1,0.1,0.1,0.1,0.2,0.1
	c0.2,0,0.4,0,0.5-0.1C494.2-184.6,494.3-184.7,494.4-184.9L494.4-184.9z"/>
<path class="st3" d="M489.2-215.8c-0.3,3.2-0.5,6.4-0.8,9.6c-0.2,2.8-0.6,5.6-0.2,8.4c0.2,1.6,0.6,3.2,1.5,4.6
	c0.8,1.3,2.8,0.1,2-1.2c-1.6-2.9-1.4-6.4-1.1-9.5c0.3-4,0.7-7.9,1-11.9c0-0.6-0.6-1.2-1.2-1.2C489.6-217,489.2-216.5,489.2-215.8
	L489.2-215.8z"/>
<path class="st3" d="M506.5-201.3c3.7-0.9,7.4-1.8,11.2-2.3c3.7-0.5,7.4-0.7,11.2-0.4c2.1,0.2,4.2,0.5,6.3,0.9
	c0.6,0.1,1.3-0.2,1.5-0.8c0.2-0.6-0.2-1.3-0.8-1.4c-3.8-0.8-7.8-1.2-11.7-1.1c-4,0.1-7.9,0.7-11.8,1.5c-2.2,0.4-4.3,0.9-6.4,1.5
	C504.5-203.2,505.1-200.9,506.5-201.3L506.5-201.3z"/>
<path class="st3" d="M536.8-203.3c1.3-1,2.4-2.3,3.6-3.4c1.2-1.2,2.5-2.2,4-3.1c1.5-1,3.1-1.9,4.6-2.9c1.4-0.9,2.8-1.8,4.4-2.3
	c0.6-0.2,1-0.8,0.8-1.4c-0.2-0.6-0.8-1-1.5-0.8c-1.7,0.6-3.3,1.5-4.8,2.4c-1.6,1-3.2,2-4.8,3c-1.5,1-3,2.1-4.3,3.3
	c-1.2,1.2-2.4,2.5-3.7,3.5c-0.5,0.4-0.4,1.2,0,1.7C535.6-202.9,536.3-202.9,536.8-203.3L536.8-203.3z"/>
<path class="st3" d="M551.9-215.6c2.3,5.7,3.5,11.7,3.5,17.8c0,1.7,0,3.5-0.2,5.2c-0.1,0.6,0.6,1.2,1.2,1.2c0.7,0,1.1-0.5,1.2-1.2
	c0.6-6.2,0-12.6-1.7-18.6c-0.5-1.7-1-3.4-1.7-5c-0.2-0.6-0.8-1-1.5-0.8C552.2-216.9,551.7-216.2,551.9-215.6L551.9-215.6z"/>
<path class="st3" d="M552-217c-4.4,5.5-7.9,11.5-10.5,18c-0.2,0.6,0.3,1.3,0.8,1.4c0.7,0.2,1.2-0.2,1.5-0.8c2.4-6.1,5.8-11.9,9.9-17
	c0.4-0.5,0.5-1.2,0-1.7C553.3-217.4,552.4-217.5,552-217L552-217z"/>
<path class="st3" d="M490.2-214.5c5.7,3.5,10.8,7.9,15.2,12.9c0.4,0.5,1.2,0.4,1.7,0c0.5-0.5,0.4-1.2,0-1.7
	c-4.5-5.2-9.9-9.6-15.7-13.3C490.1-217.3,488.9-215.3,490.2-214.5L490.2-214.5z"/>
<path class="st3" d="M489.8-214.2c3.7,5.1,7,10.5,9.8,16.1c0.3,0.6,1.1,0.7,1.6,0.4c0.6-0.3,0.7-1,0.4-1.6c-2.8-5.7-6-11.1-9.8-16.1
	c-0.4-0.5-1-0.8-1.6-0.4C489.7-215.5,489.4-214.7,489.8-214.2L489.8-214.2z"/>
<path class="st3" d="M490-194.1c-2.3,1.9-4.4,3.9-6.4,6.1c-1.8,2-3.5,4-5,6.2c-2.6,3.9-4.5,8.5-5,13.2c-0.4,3.3,0.1,6.6,0.6,9.9
	c0.8,4.8,2,9.6,3.4,14.3c1.8,6,3.9,11.9,6.2,17.8c0.3,0.8,0.6,1.6,1,2.4c0.2,0.6,0.8,1,1.5,0.8c0.6-0.2,1.1-0.9,0.8-1.4
	c-2.4-5.9-4.6-11.8-6.5-17.9c-1.5-4.8-2.8-9.7-3.8-14.6c-0.2-1-0.4-2-0.5-3c0-0.2-0.1-0.4-0.1-0.7c0-0.3,0,0.1,0-0.1
	c0-0.1,0-0.3,0-0.4c0-0.4-0.1-0.9-0.1-1.3c-0.1-1.5-0.2-3-0.2-4.5c0-0.3,0-0.6,0.1-0.9c0-0.1,0-0.3,0-0.4c0-0.1,0,0.3,0,0
	c0-0.1,0-0.1,0-0.2c0.2-1.4,0.6-2.8,1-4.2c0.6-1.9,1.4-3.8,2.4-5.6c1.4-2.3,3-4.3,4.8-6.4c1.7-2,3.6-3.9,5.6-5.7
	c0.6-0.6,1.3-1.1,1.9-1.6c0.5-0.4,0.4-1.2,0-1.7C491.1-194.6,490.5-194.5,490-194.1L490-194.1z"/>
<path class="st3" d="M555.7-191.9c2.7,4.3,5.1,8.9,7.2,13.6c0.9,2.1,1.7,4.2,2.3,6.4c0.2,0.9,0.4,1.9,0.6,2.8c0,0.2,0.1,0.5,0.1,0.7
	c0,0.1,0,0.2,0,0.4c0,0,0,0.2,0,0.1c0-0.1,0,0.1,0,0.2c0.1,0.6,0.1,1.2,0.2,1.8c0.2,3.1,0.1,6.2-0.3,9.3c-0.1,0.6,0.6,1.2,1.2,1.2
	c0.7,0,1.1-0.5,1.2-1.2c0.7-5,0.5-10.2-0.6-15.1c-0.5-2.2-1.2-4.3-2.1-6.3c-1.2-2.8-2.4-5.5-3.8-8.2c-1.2-2.3-2.5-4.6-3.9-6.9
	c-0.3-0.5-1-0.8-1.6-0.4C555.6-193.2,555.4-192.4,555.7-191.9L555.7-191.9z"/>
<path class="st3" d="M566.3-167.8c7.2,14.1,13.8,28.5,20,43.1c1.7,4.1,3.8,8,5.6,12.1c2.8,6.2,5.2,12.5,7,19
	c1.9,6.6,3.3,13.4,2.9,20.3c-0.3,6-1.8,12-4.3,17.4c-4.1,8.8-11.4,15.9-19.9,20.3c-9.5,4.9-20.7,6-31,3.4c-0.6-0.2-1.3-0.3-1.9-0.5
	c-1.5-0.4-2.1,1.8-0.6,2.3c10.8,3.2,22.6,2.4,32.9-2.2c9.1-4.1,16.9-11.3,21.7-20c2.3-4.3,3.9-9,4.8-13.8c1.4-7.2,1-14.5-0.6-21.7
	c-1.6-7-3.9-13.8-6.6-20.4c-2-5-4.4-9.8-6.7-14.7c-1.2-2.6-2.3-5.2-3.4-7.8c-1.6-3.8-3.3-7.6-5-11.4c-3.3-7.2-6.7-14.4-10.2-21.5
	c-0.8-1.7-1.7-3.4-2.5-5C567.7-170.4,565.7-169.2,566.3-167.8L566.3-167.8z"/>
<path class="st6" d="M479.2-179.1"/>
<path class="st3" d="M476.8-148.7c-5,8.8-9.6,17.8-14,26.9c-2.8,5.8-5.4,11.7-7.9,17.6c-2.1,5.2-4.3,10.4-5.9,15.8
	c-3.1,10.7-3,22.6,1.8,32.8c2.3,5,5.8,9.4,10,12.9c3.3,2.7,7,5,10.8,6.8c4.8,2.3,9.7,4.1,14.8,5.2c4.9,1,10,1.4,15,1.2
	c0.9,0,1.8-0.1,2.6-0.2c0.6-0.1,1.2-0.5,1.2-1.2c0-0.6-0.5-1.2-1.2-1.2c-4.4,0.4-8.8,0.3-13.2-0.2c-5.6-0.7-11-2.4-16.1-4.7
	c-3.4-1.5-6.8-3.3-9.8-5.5c-4-2.8-7.5-6.4-10.1-10.6c-5.8-9.4-6.8-21.2-4.3-31.7c1.2-5.1,3.1-10,5.1-14.8c2.4-5.9,4.9-11.8,7.6-17.6
	c4.4-9.4,9.1-18.7,14.2-27.8c0.5-0.8,0.9-1.7,1.4-2.5C479.5-148.9,477.5-150,476.8-148.7L476.8-148.7z"/>
<path class="st3" d="M540.8-36.8c0.3,0.4,0.5,0.9,0.8,1.3c0.2,0.3,0.4,0.7,0.5,1.1c0.2,0.5,0.3,0.6,0.4,1c0.1,0.3,0.2,0.6,0.2,0.9
	c0-0.2,0,0.1,0,0.1c0,0-0.1,0.1,0,0c-0.1,0.2-0.3,0.3-0.5,0.5c-0.8,0.6-1.8,1.1-2.7,1.4c-3.8,1.5-8.4,1.4-12-0.7
	c-0.8-0.5-1.5-1.1-1.8-1.9c-0.1-0.5-0.2-0.9-0.1-1.4c0-0.1,0-0.1,0-0.2c0,0.3,0,0.1,0,0c0-0.1,0-0.1,0-0.2c0.1-0.8,0.3-1.6,0.5-2.4
	c0.6-3.1,1.2-6.2,1.9-9.3c1.1-5.3,2.2-10.6,3.3-15.9c0.1-0.6-0.2-1.3-0.8-1.4c-0.6-0.2-1.3,0.2-1.5,0.8c-1.8,8.4-3.6,16.8-5.2,25.3
	c-0.2,0.8-0.3,1.7-0.5,2.5c-0.2,1-0.2,2,0.2,3c0.4,1.2,1.3,2.2,2.4,2.9c2,1.3,4.4,2,6.8,2.2c2.3,0.2,4.8-0.1,7-0.8
	c1.2-0.4,2.5-1,3.6-1.7c0.7-0.5,1.4-1,1.7-1.8c0.2-0.6,0.2-1.2,0-1.7c-0.2-1-0.7-1.9-1.2-2.8c-0.3-0.6-0.6-1.2-1-1.8
	C542.1-39.3,540-38.1,540.8-36.8L540.8-36.8z"/>
<path class="st3" d="M581.5-98.8c0.8,2.7,0.5,5.6,0.4,8.4s-0.5,5.6-1.1,8.3c-1.2,4.9-3.6,9.3-6.7,13.3c-3.1,4-6.8,7.6-10.5,10.9
	c-2,1.8-4.2,3.5-6.4,5.1c-2.1,1.4-4.3,2.6-6.4,3.8c-2.3,1.3-4.6,2.6-6.5,4.4c-2,1.8-4.3,4.7-3.4,7.5c0.5,1.4,2.7,0.8,2.3-0.6
	c-0.3-1.1,0.3-2.3,1-3.2c0.6-0.8,1.4-1.7,2.2-2.4c1.7-1.5,3.6-2.6,5.6-3.7c2.2-1.2,4.3-2.3,6.4-3.7c2.3-1.5,4.5-3.3,6.6-5.1
	c7.6-6.6,15.2-14.5,18-24.5c0.9-3.1,1.3-6.4,1.5-9.6c0.2-3.2,0.4-6.5-0.4-9.6C583.4-100.9,581.1-100.3,581.5-98.8L581.5-98.8z"/>
<path class="st3" d="M466.1-108c-0.8,7.5-1.3,15.2,0,22.7c0.6,3.4,1.5,6.6,2.9,9.7c1.2,2.6,2.7,5.1,4.4,7.4
	c3.1,4.3,6.8,8.1,10.8,11.6c2.2,1.9,4.5,3.7,6.9,5.5c0.2,0.2,0.4,0.3,0.6,0.5c0.2,0.1-0.2-0.1,0,0c0.1,0.1,0.2,0.1,0.3,0.2
	c0.2,0.2,0.4,0.3,0.6,0.5c1.1,0.9,2.2,1.9,3.2,2.9c2.5,2.4,4.8,5.1,6.8,8c0.3,0.5,0.7,1,1,1.5c0-0.4,0-0.8,0-1.2
	c-1.3,2.1-2.2,4.8-1.2,7.3c0.9,2,3,3,5,3.3c2.1,0.4,4.2,0.3,6.3,0.2c2.3-0.1,4.6-0.2,6.8-0.9c1.9-0.6,4.1-1.8,4.6-3.9
	c0.4-1.6,0-3.5-0.3-5.1c-0.8-4.3-1.9-8.6-2.8-12.9c-0.2-1-0.4-2-0.5-2.9c0-0.1,0-0.3-0.1-0.4c0,0.2,0-0.1,0-0.2
	c0-0.3-0.1-0.6-0.1-0.9c-0.1-0.6-0.1-1.2-0.2-1.8c-0.1-1.4-0.2-2.9-0.2-4.3c0-0.8,0-1.6,0-2.3c0-0.6-0.6-1.2-1.2-1.2
	c-0.7,0-1.2,0.5-1.2,1.2c-0.2,4.2,0.1,8.3,0.9,12.4c0.6,3.4,1.5,6.7,2.2,10c0.3,1.2,0.5,2.5,0.8,3.7c0.1,0.5,0.2,1,0.3,1.5
	c0,0.1,0,0.2,0,0.3c0,0,0,0.1,0,0.2c0,0,0-0.2,0-0.1c0,0.2,0,0.4,0.1,0.6c0,0.3,0,0.7,0,1c0,0,0,0.4,0,0.4c0,0,0.1-0.3,0-0.1
	c0,0.1,0,0.1,0,0.2c0,0.1-0.1,0.4,0,0.2c0-0.2,0,0,0,0c-0.1,0.1-0.1,0.2-0.2,0.3c-0.1,0.2,0,0-0.1,0.1c-0.1,0.1-0.2,0.2-0.2,0.2
	c-0.1,0.1-0.2,0.2-0.2,0.2c0,0-0.1,0.1-0.1,0.1c-0.2,0.1,0.1-0.1,0,0c-1.6,1.2-3.8,1.5-5.7,1.6s-3.9,0.3-5.8,0.3c-0.5,0-1,0-1.5-0.1
	c-0.1,0-0.2,0-0.4,0c-0.2,0,0.1,0-0.1,0c-0.2,0-0.5-0.1-0.7-0.1c-0.2,0-0.5-0.1-0.7-0.2c-0.1,0-0.2-0.1-0.3-0.1
	c-0.1,0-0.3-0.1-0.3-0.1c0.1,0-0.1-0.1-0.2-0.1c-0.1,0-0.2-0.1-0.3-0.1c-0.2-0.1-0.4-0.2-0.6-0.4c0.2,0.1,0,0-0.1-0.1
	c-0.1-0.1-0.1-0.1-0.2-0.2c-0.1-0.1-0.1-0.1-0.2-0.2c0.1,0.2,0-0.1-0.1-0.1c-0.2-0.4-0.4-0.8-0.4-1.2c-0.1-1,0.3-2.2,0.7-3
	c0.2-0.4,0.4-0.8,0.6-1.2c0.2-0.3,0.2-0.8,0-1.2c-3.3-5.2-7.5-9.9-12.4-13.7c-0.8-0.6-1.6-1.2-2.4-1.8c-0.3-0.2-0.5-0.4-0.8-0.6
	c-0.1,0-0.1-0.1-0.2-0.2c0.2,0.2,0.1,0.1,0,0c-0.2-0.1-0.3-0.2-0.5-0.4c-0.7-0.6-1.4-1.1-2.1-1.7c-3.8-3.2-7.4-6.7-10.6-10.6
	c-0.5-0.6-0.8-0.9-1.2-1.5c-0.4-0.6-0.8-1.1-1.2-1.7c-0.8-1.2-1.5-2.4-2.2-3.6c-0.7-1.2-1.3-2.5-1.8-3.7c-0.6-1.6-1.1-3.2-1.5-4.8
	c-1.7-7.2-1.5-14.8-0.8-22.1c0.1-0.9,0.2-1.8,0.3-2.8c0.1-0.6-0.6-1.2-1.2-1.2C466.5-109.2,466.1-108.6,466.1-108L466.1-108z"/>
<path class="st3" d="M481.9-107.4c-1.6,6.4-1.1,13.3,1.5,19.3c1.3,3.1,3.1,5.9,5.4,8.2c2.1,2.1,4.4,3.9,6.9,5.5
	c2.8,1.8,5.8,3.2,8.9,4.3c0.5,0.2,1.1-0.1,1.3-0.5c0.3-0.5,0.1-1-0.2-1.4c-0.1-0.1-0.1-0.1,0,0c0-0.1-0.1-0.1-0.1-0.2
	c-0.1-0.1-0.2-0.3-0.3-0.4c-0.2-0.3-0.4-0.6-0.6-0.9c-0.4-0.6-0.9-1.3-1.2-2c-0.9-1.5-1.6-3.1-2.2-4.8c-1-2.9-1.6-5.8-1.8-8.8
	c0-0.6-0.5-1.2-1.2-1.2c-0.6,0-1.2,0.5-1.2,1.2c0.3,5.4,1.9,10.8,4.7,15.4c0.7,1.2,1.5,2.3,2.3,3.3c0.4-0.7,0.8-1.3,1.1-2
	c-2.5-0.9-4.9-1.9-7.2-3.3c-2.4-1.4-4.6-3.1-6.7-5c-1.1-1-2.1-2-3-3.2c-0.9-1.3-1.7-2.7-2.4-4.1c-1.3-2.7-2.1-5.6-2.5-8.6
	c-0.4-3.4-0.2-6.9,0.6-10.2C484.5-108.3,482.2-108.9,481.9-107.4L481.9-107.4z"/>
<path class="st3" d="M567.8-96.2c-2.3,4.5-5.3,8.6-9.2,11.8c-1.9,1.6-4.1,2.9-6.1,4.4c-2.3,1.7-4.2,3.8-5.8,6.2
	c-1.5,2.5-2.6,5.2-3.2,8.1c0.8,0.1,1.5,0.2,2.3,0.3c-0.5-7.3,1.1-14.7,4.7-21c0.8-1.4,1.7-2.7,2.6-4c0.4-0.5,0.1-1.3-0.4-1.6
	c-0.6-0.3-1.2-0.1-1.6,0.4c-4.5,6.1-7.2,13.4-7.7,20.9c-0.1,1.8-0.1,3.5,0,5.3c0,0.6,0.4,1.1,1,1.2c0.5,0.1,1.2-0.3,1.3-0.8
	c0.5-2.4,1.3-4.7,2.6-6.8c0.7-1.3,1.6-2.5,2.6-3.6c0.8-0.8,1.8-1.8,2.6-2.4c2-1.6,4.2-2.9,6.3-4.5c1.8-1.4,3.4-3,4.8-4.7
	c2.1-2.4,3.8-5.1,5.2-8c0.3-0.6,0.2-1.3-0.4-1.6C568.9-97,568.1-96.8,567.8-96.2L567.8-96.2z"/>
<path class="st3" d="M505-175.2c-0.2-0.7-0.4-1.4-0.5-2c0-0.1,0-0.8-0.1-0.8c0,0.1-0.1,0.2-0.1,0.4c0,0,0,0.1-0.1,0.1
	c0,0,0.4-0.1,0.5-0.1c0.6-0.1,1.3,0,1.9,0.2c-0.1,0,0.5,0.1,0.3,0.1c0.4,0.1,0.1,0.1,0.1,0c-0.1,0.2-0.1-0.3,0-0.3
	c0.1,0-0.2,0.2-0.1,0.2c-0.5,0.4-1.1,0.5-1.6,0.8c-0.6,0.3-1.1,0.7-1.5,1.2c-0.9,0.9-1.5,2.1-1.8,3.3c-0.5,2.6,0.6,5.3,2.9,6.6
	c2.2,1.3,5,1.1,7.3,0.4c1.4-0.4,2.9-1.1,3.9-2.3c1-1.2,1.5-2.9,1.1-4.4c-0.4-1.4-2.7-0.8-2.3,0.6c0.3,0.9-0.2,2-1,2.7
	c-0.9,0.7-2,1.1-3.1,1.4c-1.9,0.5-4.4,0.4-5.7-1.2c-1.4-1.7-1-4,0.5-5.5c0.4-0.4,0.7-0.6,1.2-0.9c0.6-0.3,1.3-0.5,1.8-1
	c0.5-0.5,0.8-1.2,0.8-1.9c-0.1-1-0.8-1.6-1.6-1.9c-0.8-0.3-1.6-0.4-2.4-0.5c-0.8,0-1.8,0.1-2.5,0.6c-0.8,0.7-0.6,1.6-0.5,2.5
	c0.1,0.8,0.3,1.6,0.5,2.4C503.2-173.1,505.4-173.7,505-175.2L505-175.2z"/>
<path class="st3" d="M495-174.9c-0.4,1.3-0.7,2.7-0.5,4.1c0.2,1.3,0.8,2.5,1.8,3.3c2.2,1.6,5,0.8,7-0.6c-0.5-0.6-1-1.2-1.4-1.9
	c-0.9,0.8-1.9,1.5-2.7,2.4c-0.6,0.7-1.1,1.5-1.4,2.4c-0.5,1.3-0.5,2.7,0,4c0.6,1.7,1.6,3.1,2.7,4.5c1.4,1.8,2.9,3.5,4.4,5.2
	c1.5,1.7,3,3.3,4.6,4.8c1.1,1.1,2.8-0.6,1.7-1.7c-2.8-2.8-5.5-5.7-8-8.7c-1.1-1.3-2.1-2.6-2.8-4.1c-0.1-0.1-0.1-0.3-0.2-0.4
	c-0.1-0.3,0,0.1,0-0.1c0-0.1-0.1-0.2-0.1-0.3c-0.1-0.3-0.2-0.6-0.2-0.9c0,0,0-0.3,0-0.1c0,0.2,0-0.1,0-0.1c0-0.1,0-0.2,0-0.4
	c0-0.1,0-0.1,0-0.2c0-0.3,0,0.2,0,0c0-0.1,0.1-0.3,0.1-0.4c0-0.2,0.1-0.3,0.2-0.5c0-0.1,0-0.1,0.1-0.2c-0.1,0.2,0-0.1,0.1-0.1
	c0.2-0.4,0.4-0.8,0.6-1c0.4-0.4,0.8-0.8,1.2-1.1c0.5-0.4,1-0.9,1.6-1.4c1-0.9-0.3-2.6-1.4-1.9c-1.3,0.9-3.2,1.7-4.5,0.7
	c-1.3-1.1-0.8-3.3-0.3-4.8C497.6-175.7,495.4-176.4,495-174.9L495-174.9z"/>
<path class="st3" d="M517.2-180c0-0.6,0-1.2,0-1.7c0,0.2,0,0,0-0.1c0-0.1,0-0.2,0.1-0.3c0-0.2,0.1-0.4,0.2-0.6
	c0.1-0.4,0.3-0.9,0.6-1.3c0.8-1.4,2.2-2.2,3.7-2.7c2.8-0.9,6.3-0.6,8.2,1.9c1.1,1.4,1.6,3,2.1,4.8c0.2-0.4,0.4-0.9,0.5-1.3
	c-0.1,0.1-0.2,0.1-0.3,0.1c0,0-0.4,0.2-0.2,0.1c-0.2,0.1-0.5,0.2-0.7,0.3c-0.5,0.2-1.1,0.4-1.6,0.6c-1.3,0.4-2.6,0.7-3.9,0.8
	c-3.2,0.3-6.4-0.1-9.2-1.6c-0.6-0.3-1.3-0.1-1.6,0.4c-0.3,0.5-0.2,1.3,0.4,1.6c3.2,1.6,6.8,2.3,10.4,1.9c2.8-0.3,5.4-1.1,7.9-2.2
	c0.5-0.2,0.7-0.9,0.5-1.3c-0.4-1.8-1.1-3.6-2.1-5.1c-1.3-1.9-3.2-3.2-5.5-3.6c-1.7-0.3-3.3-0.3-5,0.2c-1.9,0.5-3.9,1.6-5.2,3.2
	c-1.3,1.7-1.9,3.9-1.7,6c0.1,0.6,0.5,1.2,1.2,1.2C516.7-178.8,517.3-179.4,517.2-180z"/>
<path class="st3" d="M502.4-180.1c0.8-3-0.1-6.6-3-8.1c-1.2-0.6-2.6-0.8-4-0.7c-1.3,0.1-2.7,0.3-3.8,0.9c-1.4,0.7-2.6,2-3.5,3.2
	c-0.5,0.6-0.9,1.3-1.3,2s-0.6,1.5-0.4,2.2c0.4,1.1,1.5,1.7,2.5,2c1.2,0.4,2.5,0.6,3.8,0.7c3.1,0.3,6.2-0.3,9.1-1.5
	c0.6-0.2,0.7-1.1,0.4-1.6c-0.4-0.6-1-0.7-1.6-0.4c-1.2,0.5-2.5,0.9-3.7,1.1c-0.1,0-0.2,0-0.4,0.1c-0.2,0,0.1,0,0,0
	c-0.1,0-0.1,0-0.2,0c-0.2,0-0.5,0.1-0.7,0.1c-0.5,0-0.9,0-1.4,0c-0.5,0-1,0-1.6-0.1c-0.6-0.1-0.9-0.1-1.5-0.2
	c-0.5-0.1-1-0.2-1.4-0.4c-0.1,0-0.2-0.1-0.4-0.1c-0.2-0.1,0.1,0.1-0.1,0c-0.2-0.1-0.4-0.2-0.5-0.3c0,0-0.1-0.1-0.1-0.1
	c0,0,0.2,0.1,0.1,0.1c0,0-0.1-0.1-0.2-0.2c-0.1,0,0.1,0.1,0.1,0.1c0,0,0-0.1-0.1-0.1c0.1,0.3,0,0,0,0c0.1-0.1-0.1,0.2,0.1,0
	c0-0.1,0.1-0.2,0.1-0.3c0.1-0.3,0.3-0.6,0.5-0.9c0.7-1.1,1.6-2.1,2.6-2.9c0.8-0.7,1.8-0.9,2.9-1.1c0,0,0.1,0,0.1,0c0,0-0.2,0-0.1,0
	c0.1,0,0.2,0,0.3,0c0.3,0,0.5,0,0.8,0c0.2,0,0.5,0,0.7,0c0.1,0,0.1,0,0.2,0c0,0-0.1,0,0,0c0.1,0,0.3,0.1,0.4,0.1
	c1.2,0.3,2.1,0.9,2.6,2.1c0.5,1.1,0.5,2.4,0.2,3.7C499.7-179.2,502-178.6,502.4-180.1z"/>
<path class="st3" d="M602.3-61.7c1.2-6.2,3.2-12,6.6-17.3c0.3-0.5,0.7-1,1-1.4c0.2-0.2,0.3-0.4,0.5-0.7c0.1-0.1,0.2-0.2,0.2-0.3
	c0,0,0.1-0.2,0,0c0-0.1,0.1-0.1,0.2-0.2c0.8-1.1,1.7-2.1,2.6-3.1c2.2-2.3,4.5-4.5,6.8-6.8c4.5-4.6,8.9-9.7,11.2-15.8
	c0.6-1.7,1-3.5,1.2-5.3c0.1-1.5,0-3,0-4.5c0-0.1,0-0.6,0-0.6c0,0-0.1,0.3,0,0.1c-0.1,0.2-0.2,0.4-0.5,0.6c-0.2,0.1-0.3,0.1-0.5,0.1
	c-0.2,0-0.2,0-0.1,0c0,0-0.3-0.2-0.1,0c0.2,0.1-0.2-0.2,0,0c0.1,0.1,0.1,0.1,0.2,0.2c0.1,0.1,0.3,0.3,0.4,0.4c-0.2-0.2,0,0,0.1,0.1
	c0.1,0.1,0.2,0.2,0.2,0.3c0.3,0.5,0.7,1,1,1.6c3,5.2,5,10.9,5.6,16.9c0.6,6.5-0.2,13-2.1,19.2c-1.7,5.5-4.2,10.8-7.5,15.5
	c-0.3,0.5-0.7,1-1.1,1.5c0,0.1-0.1,0.1-0.2,0.2c-0.2,0.2,0.1-0.1,0,0c-0.1,0.2-0.2,0.3-0.4,0.5c-0.3,0.3-0.5,0.7-0.8,1
	c-1.3,1.6-2.7,3.1-4.2,4.5c-4,3.8-8.3,7-13.3,9.4c-6.1,3-12.9,4.8-19.8,5.2c-1.3,0.1-2.6,0.1-3.9,0.1c-1.5,0-1.5,2.3,0,2.3
	c6.9,0.2,13.9-1,20.4-3.5c5.7-2.2,11-5.4,15.7-9.4c3.2-2.7,6.1-5.8,8.6-9.2c3-4,5.4-8.5,7.3-13.2c2.5-6.3,3.8-13.2,3.8-20
	c0-3.3-0.4-6.6-1.1-9.8c-0.7-3.1-1.8-6-3.2-8.9c-0.7-1.3-1.3-2.7-2.1-4c-0.5-0.9-1.1-1.9-1.9-2.6c-0.4-0.3-0.8-0.6-1.3-0.6
	c-0.7,0-1.2,0.5-1.4,1.1c-0.1,0.5-0.1,1-0.1,1.5c0,0.7,0.1,1.4,0.1,2.2c0,3.4-0.9,6.6-2.5,9.5c-1.6,2.9-3.4,5.6-5.6,8.1
	c-4.2,4.8-9.2,8.8-13.2,13.8c-3.6,4.6-6.1,9.8-7.7,15.4c-0.5,1.8-0.9,3.6-1.3,5.4c-0.1,0.6,0.2,1.3,0.8,1.5
	C601.4-60.7,602.2-61.1,602.3-61.7L602.3-61.7z"/>
<g>
	<g>
		<g id="XMLID_00000042724077965026646600000000012046476275680156_">
			<path class="st7" d="M580.6-345.5c4.7,12.7,1.8,29.4-6.6,41.9c-1.9,2.9-10.6,15.1-27,20.1c-6.2,1.9-11.7,2.2-15.4,2.1
				c0.6-0.5,1.2-1,1.9-1.5l0.9,0.2c3.7-1.1,6.8-3.5,9.8-5.8c8.1-6.2,16.3-12.6,22.3-20.9c8.4-11.7,11.5-27,8.5-41.1l-0.3,0
				c0.2-2.8-0.3-4.8,0.2-4.9C575.7-355.9,579-349.9,580.6-345.5z"/>
			<path class="st8" d="M574.9-350.6c3,14.1-0.2,29.4-8.5,41.1c-6,8.3-14.2,14.7-22.3,20.9c-3,2.3-6.2,4.7-9.8,5.8l-0.9-0.2
				c3.2-2.8,6.5-6.5,9.2-11.3c0.5-0.9,2.4-4.5,3.8-9.7c0.2-0.8,0.4-1.6,0.6-2.4c2-7.6,5.2-12.7,8-16.1c4.7-5.7,12-11,16.4-18.6
				c1.2-2.1,2.8-4.9,3.2-8.7c0-0.2,0-0.5,0.1-0.7L574.9-350.6z"/>
			<path class="st7" d="M515.1-333.3L515.1-333.3c-1.3,3.8-2.7,7.7-5.2,10.8c-3,3.7-7.4,6-10.9,9.3c-2.1,2.1-3.9,4.5-5.6,6.9
				l-0.3-0.1c0.5-2.3,1.7-5.6,4.1-8.7c3.3-4.2,6.5-5,10.8-8.9C510-325.8,512.7-328.8,515.1-333.3z"/>
			<path class="st7" d="M500.8-447.6c2.7,6.7,3.8,14.1,3.2,21.3l-0.2,0c0,0.1-0.1,0.1-0.1,0.1c-1.9,0.9-4.1,0.8-6,0
				c-2-0.7-3.7-1.9-5.3-3.1c-0.7-0.5-1.5-1.2-1.4-2.1l0.1,0c2.3-5.9,5.5-11.4,9.5-16.4c0.1,0,0.1,0,0.2-0.1L500.8-447.6z"/>
			<path class="st8" d="M454.9-408.4c0.5-0.6,1.2-1.1,2-1.5c0.4-0.2,0.9-0.3,1.2-0.6c0.4-0.3,0.6-0.8,0.4-1.2
				c-0.1-0.3-0.5-0.4-0.7-0.5c-0.9-0.3-1.9-0.4-2.8-0.3c-0.3,0-0.6,0.1-0.7,0.4c-0.1,0.2-0.1,0.5-0.1,0.8c0.1,0.9,0.3,1.7,0.5,2.6
				L454.9-408.4z M455.2-311.8l0.4-0.1c-1.3-5.8-3.4-11.4-6.3-16.5l-0.1,0.1c0.1,2.4,0.6,5.9,2.2,9.8
				C452.6-315.6,454-313.4,455.2-311.8z M493-306.3l0.3,0.1c1.7-2.4,3.5-4.8,5.6-6.9c3.5-3.3,7.9-5.6,10.9-9.3
				c2.5-3.1,3.9-7,5.2-10.8h0c-2.4,4.5-5.1,7.5-7.2,9.3c-4.3,3.9-7.5,4.7-10.8,8.9C494.7-311.9,493.6-308.6,493-306.3z M504-426.2
				c0,0.2,0,0.4,0,0.6l0.3,0.1c1.6,2.6,3.9,6.4,6,11.3c0.8,1.8,1.7,3.8,2.4,5.9c0.5,1.4,0.9,3.2,1.3,5.5c0.4,2.9,0.6,6.4,0.1,10.5
				l0.5,0c2.8,5,20.7,37,23.4,63.3c0.5,4.4,1.2,12.3-1,22.1c-1.1,4.8-2.9,12.9-8.1,19.3c-11.6,14.2-33.4,12.5-36.5,12.2l-0.1,0
				c0.1,0.5,0,0.8-0.1,0.9c-0.1,0.3-0.5,0.6-0.8,0.8c-4.2,2.9-10,3.4-14.6,1.1c-1.1-0.6-2.3-1.4-2.7-2.6c-0.2-0.5-0.2-1-0.2-1.4
				c0-0.3,0-0.6,0.1-0.7c0.4-2.1,2.2-11.1,4.8-23.5l-0.4-0.1c-2.5-1-5.4-1.8-8-1c-0.3,0.1-0.7,0.3-0.9,0.5c0,3.2,0.4,5.8,0.7,7.7
				c0.3,1.5,0.5,2.6,2,9.4c0.8,3.7,1.4,6.2,1.4,7.7c0,0.7-0.1,1.2-0.3,1.6c-1.6,2.7-5.8,3-9.1,3.2c-2.8,0.2-7.4,0.5-9.4-1.7l0,0
				c-5.6,0.5-16,0.6-27.2-4.4c-5.2-2.3-15.3-6.8-21.2-17.7c-2.9-5.3-3.6-10-4-12.5c-1.6-11.1,1.6-20.1,4.2-26.8
				c7.9-20.4,17.6-38.6,23.4-48.9l0,0c-2.5-9.1-3.4-16.1-2.8-19.9c0.5-3.2,1.6-5.9,1.6-5.9c1.7-4.2,4-7,6.5-9.9
				c1.6-1.9,3.9-4.3,7-6.8l0.2,0.1c3.5-0.6,6.8-2.7,8.8-5.6c0,0,0,0,0,0c0,0,0,0,0,0c-0.8-1.7-1.7-3.4-2.7-5.2
				c-2-3.6-4.2-6.8-6.3-9.6l0.3-0.5c2.2,1.4,4.7,3.2,7.3,5.3c2.8,2.4,5.1,4.7,7,6.8c3.8-1.2,9-2.5,15.3-2.7c5-0.2,9.3,0.4,12.7,1
				c1.8-1.4,3.2-3.2,4.9-4.6c0.9-0.7,1.9-1.4,2.9-2c1.3-0.8,2.5-1.6,3.8-2.4c1.4-0.9,2.8-1.7,4.3-2.3c-4,4.9-7.2,10.5-9.5,16.4
				l-0.1,0c-0.1,0.9,0.7,1.5,1.4,2.1c1.7,1.2,3.4,2.4,5.3,3.1c2,0.7,4.2,0.9,6,0c0.1,0,0.1-0.1,0.1-0.1L504-426.2z M482.1-414
				c-0.1-0.3-0.2-0.8-0.4-1.4c-0.5-1.4-1.3-3.5-3.1-4.9c-1.5-1.1-3.1-1.2-4-1.3c-0.6,0-2.4-0.1-4.4,0.9c-0.8,0.4-2,1-3,2.3
				c-1.4,1.9-1.2,4-1.2,4.7c0.7,0.4,1.5,0.7,2.3,1C474.1-410.9,479.5-412.8,482.1-414z M472-425.1c1.8-5,6.7-8,6.2-8.5
				c-0.2-0.3-1.4,0.5-2.5,1.2c-2.8,1.7-4.4,3.8-5.1,4.8c-0.4,0.6-3.2,4.5-2.3,5.4c0.4,0.4,1.4,0.1,1.5,0
				C471.2-422.7,471.8-424.4,472-425.1z M464.9-427.1c2.5-3.8,4.8-5.5,4.5-5.9c-0.3-0.4-2.3,0.7-3.1,1.2c-1.5,0.9-2.4,1.9-2.7,2.2
				c-3.6,3.9-8.2,13.6-7,14.3c0.2,0.1,1,0.4,1.8,0.1c0,0,0.1,0,0.1,0c1.5-0.5,2-2.4,2.8-4.6C461.2-419.8,462.7-423.8,464.9-427.1z
				 M454.5-424.6c1.5-4.3,6.3-6.9,5.9-7.4c-0.3-0.3-2,0.7-2.7,1.1c-2.9,1.7-4.3,3.8-4.7,4.2c-0.9,1.3-2.3,3.9-1.6,4.6
				c0.4,0.4,1.1,0.1,1.2,0C453.9-422.5,454.3-424,454.5-424.6z M452.1-414.1c0.6-2.1,0.1-4.2-1.2-5.6c-1.9-1.8-4.6-1.4-5.9-1.1
				c-0.5,0.1-1.1,0.2-1.6,0.5c-0.5,0.3-1,0.7-1.4,1.1c-1.2,1.1-2.3,2.4-2.9,4c-0.1,0.2-0.1,0.3,0,0.5c0.3,1.5,4.5,2.1,7.1,2
				C447.5-412.8,449.6-413,452.1-414.1z"/>
			<path class="st7" d="M531.5-281.4c-4.2,3.3-8,5-9.3,5.6c-14.1,6.1-26.8,2.4-30.1,1.4c0-0.1,0.1-0.4,0.1-0.9l0.1,0
				c3.1,0.3,24.9,2,36.5-12.2c5.2-6.4,7-14.5,8.1-19.3c2.2-9.8,1.5-17.7,1-22.1c-2.7-26.4-20.6-58.3-23.4-63.3l-0.5,0
				c0.5-4.2,0.3-7.7-0.1-10.5l0.3,0c6.3,12.5,12.7,26.1,18.8,40.6c2.4,5.6,9.2,17.7,13.1,33.6c1.1,4.5,2.2,9.9,1.6,16.8
				c-0.2,1.9-0.5,3.7-0.8,5.4c-0.2,0.8-0.4,1.6-0.6,2.4c-1.4,5.3-3.3,8.8-3.8,9.7c-2.7,4.8-6,8.5-9.2,11.3
				C532.8-282.4,532.1-281.9,531.5-281.4z"/>
			<path class="st9" d="M481.7-415.5c0.2,0.6,0.3,1.1,0.4,1.4c-2.6,1.2-8.1,3.2-13.9,1.2c-0.8-0.3-1.6-0.6-2.3-1
				c-0.1-0.7-0.2-2.8,1.2-4.7c1-1.3,2.1-1.9,3-2.3c2-1,3.8-0.9,4.4-0.9c0.9,0.1,2.5,0.2,4,1.3C480.5-419,481.2-416.9,481.7-415.5z"
				/>
			<path class="st7" d="M478.3-433.6c0.5,0.5-4.4,3.5-6.2,8.5c-0.2,0.7-0.8,2.5-2.2,3c-0.1,0-1.1,0.4-1.5,0c-0.9-1,1.9-4.8,2.3-5.4
				c0.7-1,2.3-3,5.1-4.8C476.8-433.1,478-433.8,478.3-433.6z"/>
			<path class="st7" d="M474-277.4c0,0.2-0.1,0.4-0.1,0.7l-0.3,0c0-1.5-0.6-4-1.4-7.7c-1.5-6.8-1.8-7.8-2-9.4
				c-0.3-1.9-0.6-4.5-0.7-7.7c0.2-0.2,0.6-0.4,0.9-0.5c2.6-0.9,5.4-0.1,8,1l0.4,0.1C476.1-288.5,474.3-279.5,474-277.4z"/>
			<path class="st7" d="M469.3-433c0.3,0.4-2,2.1-4.5,5.9c-2.1,3.3-3.6,7.4-3.6,7.4c-0.8,2.1-1.3,4-2.8,4.6c0,0,0,0-0.1,0
				c-0.8,0.3-1.6,0-1.8-0.1c-1.2-0.8,3.3-10.4,7-14.3c0.3-0.3,1.2-1.3,2.7-2.2C467-432.3,469-433.4,469.3-433z"/>
			<path class="st7" d="M460.4-432c0.4,0.5-4.4,3.1-5.9,7.4c-0.2,0.6-0.7,2.1-1.9,2.5c-0.1,0-0.9,0.3-1.2,0
				c-0.7-0.7,0.7-3.3,1.6-4.6c0.3-0.5,1.8-2.6,4.7-4.2C458.4-431.3,460.1-432.3,460.4-432z"/>
			<path class="st3" d="M458.4-411.8c0.2,0.4,0,0.9-0.4,1.2c-0.4,0.3-0.8,0.5-1.2,0.6c-0.8,0.3-1.4,0.9-2,1.5l-0.3-0.5
				c-0.2-0.8-0.4-1.7-0.5-2.6c0-0.3-0.1-0.5,0.1-0.8c0.1-0.2,0.5-0.3,0.7-0.4c1-0.2,1.9-0.1,2.8,0.3
				C457.9-412.2,458.2-412,458.4-411.8z"/>
			<path class="st7" d="M455.7-311.9l-0.4,0.1c-1.2-1.6-2.7-3.9-3.8-6.7c-1.6-3.9-2.1-7.5-2.2-9.8l0.1-0.1
				C452.2-323.2,454.4-317.6,455.7-311.9z"/>
			<path class="st9" d="M450.8-419.7c1.4,1.3,1.8,3.5,1.2,5.6c-2.5,1.1-4.5,1.3-5.8,1.3c-2.6,0.1-6.9-0.5-7.1-2c0-0.1,0-0.2,0-0.5
				c0.5-1.5,1.6-2.8,2.9-4c0.4-0.4,0.9-0.8,1.4-1.1c0.5-0.2,1-0.4,1.6-0.5C446.2-421,449-421.5,450.8-419.7z"/>
			<path class="st1" d="M451.2-431.8C451.2-431.7,451.2-431.7,451.2-431.8C451.2-431.7,451.2-431.7,451.2-431.8
				C451.2-431.7,451.2-431.7,451.2-431.8z"/>
			<path class="st7" d="M440.9-436.4c-0.1-4.3,0.3-7.9,0.9-10.8l0.5,0.1c0.1,0.1,0.2,0.1,0.3,0.2l-0.3,0.5c2.1,2.8,4.2,6,6.3,9.6
				c1,1.8,1.9,3.5,2.7,5.2c0,0,0,0,0,0c-2.1,2.9-5.3,5-8.8,5.6l-0.2-0.1C441.6-429,441-432.4,440.9-436.4z"/>
		</g>
	</g>
</g>
<path class="st10" d="M455.4-287.2c-3.7-4.4-8.2-8-12.7-11.5c-4.4-3.5-8.3-7.6-11.9-11.9c-3.7-4.3-6.7-9-7.8-14.7
	c-1.3-6.5-0.3-13.3,0.5-19.8c0.3-2.2-3.1-3.2-3.4-0.9c-1.5,10.9-2.6,22.3,3.6,32c2.9,4.5,6.6,8.4,10.3,12.3c3.9,4.1,8.6,7.2,12.8,11
	c3.7,3.4,11.4,9.5,7.8,15.2c-1.2,1.9,1.9,3.7,3.1,1.8C460.7-278.2,458.6-283.4,455.4-287.2z"/>
<path class="st10" d="M479.7-303.1c-2.8,9.2-4.4,19-5.1,28.5c-0.2,2.3,3.4,2.3,3.5,0c0.6-9.2,2.3-18.7,5-27.5
	C483.8-304.4,480.3-305.3,479.7-303.1z"/>
<path class="st10" d="M452.4-316.3c-5.1-1.6-8.6-6.8-11.2-11.2c-3.1-5.4-3.8-11.3-2.9-17.4c0.4-2.2-3.1-3.2-3.4-0.9
	c-1.1,7.1-0.4,13.9,3.2,20.2c3,5.3,7.3,10.9,13.3,12.8C453.6-312.2,454.5-315.6,452.4-316.3z"/>
<path class="st10" d="M499.6-329.6c-1.5,2.5-2.7,5.1-3.7,7.8c-1,2.7-1.5,5.7-3.1,8.1c-1.3,1.9,1.8,3.7,3.1,1.8
	c1.6-2.4,2.1-5.1,3-7.8c1-2.8,2.3-5.5,3.8-8.1C503.9-329.8,500.8-331.5,499.6-329.6z"/>
<path class="st10" d="M451.9-278c-9.2,0.2-18-0.5-25.9-5.5c-3.5-2.2-6.6-4.9-9.5-7.8c-2.9-2.9-6-6-8-9.5c-4.1-7.4-1.9-16.5-0.1-24.2
	c1.1-4.5,2.1-9.1,3.7-13.5c1.5-4.5,3.7-8.6,5.8-12.9c4.4-9,8.7-18,13.5-26.8c2.9,8.6,6.6,16.8,7.5,16.5c0.3-0.1,0.2-1,0.2-1.7
	c-0.6-8-4.3-15.2-4.8-17c-1-3.7-4-9.2-3.7-15.9c0.4-6.7,3.5-12.5,8.9-22.5c2.5-4.5,3.9-6.6,3.5-7c-0.7-0.6-7.1,4.5-11.2,11.7
	c-2.9,5-5,10-4.9,15.9c0.1,4.9,0.9,8.8,3.1,15.8c-0.3,0.1-0.6,0.4-0.8,0.8c-4.9,8.9-9.3,18.1-13.8,27.2c-2.2,4.4-4.5,8.8-6.2,13.4
	c-1.8,4.7-2.9,9.6-4.1,14.4c-2.2,9.4-3.3,17.2-0.5,26c0.9,2.6,2.4,7.3,6.5,11.5c2.3,2.4,5.1,4,10.7,7c5.6,3.1,8.5,5.1,13,6.2
	c5.6,1.4,11.4,1.4,17,1.3C454.1-274.5,454.1-278,451.9-278z"/>
<path class="st3" d="M470.5-420.3c-0.6,0.7-0.9,1.6-1.1,2.4c-0.1,0.8-0.4,2.1,0.3,2.7c0.5,0.4,1,0.5,1.6,0.2c0.6-0.3,0.9-1,1-1.6
	c0.1-0.7,0.2-1.4,0.4-2.1c0.4-1.5-1.6-2.3-2.4-1c0,0.1-0.1,0.2-0.2,0.2c-0.9,1.4,1.4,2.8,2.3,1.3c0-0.1,0.1-0.2,0.2-0.2
	c-0.8-0.3-1.6-0.7-2.4-1c-0.1,0.5-0.2,1-0.3,1.5c0,0.2-0.1,0.5-0.1,0.7c0,0.1,0,0.1,0,0.2c-0.1,0.3,0,0.2,0.2-0.1
	c0.5,0.1,1.1,0.1,1.6,0.2c0,0,0,0-0.1,0c0.1,0.2,0.2,0.4,0.3,0.6c-0.1-0.3,0.2-1.6,0.5-1.9c0.5-0.5,0.5-1.4,0-1.9
	C471.9-420.8,471-420.9,470.5-420.3L470.5-420.3z"/>
<path class="st3" d="M443.1-419.4c-0.3,0.5-0.7,1-0.9,1.5c-0.3,0.7-0.2,1.7,0.5,2.2c0.8,0.6,1.8,0.2,2.2-0.6
	c0.3-0.6,0.5-1.2,0.7-1.8c0.2-0.6-0.3-1.5-0.9-1.6c-0.8-0.2-1.4,0.2-1.6,0.9c-0.1,0.3-0.2,0.6-0.3,0.8c0.1-0.2-0.1,0.3-0.1,0.2
	c0,0.1-0.1,0.2-0.2,0.3c0.2-0.2,0.3-0.3,0.5-0.5c0,0,0,0-0.1,0c0.5,0,0.9,0,1.3,0c0,0,0,0,0,0c0.2,0.2,0.3,0.3,0.5,0.5
	c0.1,0.1,0.1,0.3,0.1,0.5c0,0,0-0.1,0-0.1c-0.1,0.2,0.1-0.2,0.1-0.2c0.2-0.3,0.3-0.5,0.5-0.8c0.4-0.6,0.1-1.5-0.5-1.8
	C444.2-420.2,443.5-420,443.1-419.4L443.1-419.4z"/>
<path class="st5" d="M473-418.8L473-418.8c0,0,0,0.1-0.1,0.1c0,0,0,0,0,0c0,0-0.1,0.1-0.1,0.1c0,0,0,0,0,0c0,0-0.1,0.1-0.1,0.1
	c0,0,0,0,0,0c0,0-0.1,0-0.2,0.1c0,0,0,0,0,0c-0.1,0-0.1,0-0.2,0c0,0,0,0,0,0c-0.1,0-0.1,0-0.2,0c0,0,0,0,0,0c0,0-0.1,0-0.2-0.1
	c0,0,0,0,0,0c-0.1-0.3-0.2-0.6-0.2-0.9c0,0,0,0,0,0c0,0,0.1-0.1,0.1-0.1c0,0,0,0,0,0c0,0,0.1-0.1,0.1-0.1c0,0,0,0,0,0
	c0,0,0.1,0,0.2-0.1c0,0,0,0,0,0c0.1,0,0.1,0,0.2,0c0,0,0,0,0,0c0.1,0,0.1,0,0.2,0h0c0.2,0.2,0.3,0.4,0.5,0.6v0
	C473.1-418.9,473.1-418.8,473-418.8C473.1-418.8,473.1-418.8,473-418.8C473.1-418.8,473.1-418.7,473-418.8
	C473-418.7,473-418.7,473-418.8c0,0.1,0,0.1-0.1,0.1C473-418.6,473-418.6,473-418.8c-0.1,0.1-0.1,0.2-0.1,0.2c0,0,0,0,0.1,0
	c-0.3-0.3-0.6-0.6-0.9-0.9c0,0,0,0.1,0,0.1c0,0.1-0.1,0.2-0.1,0.2c0.3-0.1,0.6-0.3,1-0.4c0,0,0,0,0,0c0,0,0.1,0.1,0.1,0.1
	c0,0,0,0,0,0c0,0,0.1,0.1,0.1,0.1c0,0,0,0,0,0c0,0,0,0.1,0.1,0.2c0,0,0,0,0,0c0,0.1,0,0.1,0,0.2c0,0,0,0,0,0c0,0.1,0,0.1,0,0.2
	c0,0,0,0,0,0c0-0.1,0-0.2,0-0.3c0-0.1,0-0.2-0.1-0.2c0,0-0.1-0.1-0.1-0.1c-0.1-0.1-0.1-0.1-0.2-0.1c0,0-0.1,0-0.2,0
	c-0.1,0-0.2,0-0.3,0c0,0-0.1,0-0.2,0.1c-0.1,0.1-0.2,0.1-0.2,0.2c0,0.1,0,0.1-0.1,0.2c0,0.1-0.1,0.2-0.1,0.2c0,0.1,0,0.2,0,0.3
	c0,0.1,0.1,0.2,0.1,0.2c0,0.1,0.1,0.1,0.2,0.2c0.1,0.1,0.3,0.1,0.5,0.1c0,0,0.1,0,0.2-0.1c0.1-0.1,0.2-0.1,0.2-0.2
	C473-418.7,473-418.8,473-418.8c-0.4-0.2-0.8-0.4-1.2-0.6c0,0,0,0,0,0c0,0.1,0,0.1,0,0.2c0,0.1,0,0.2,0,0.2c0,0.1,0,0.1,0.1,0.2l0,0
	c0,0,0.1,0.1,0.1,0.1c0,0,0.1,0.1,0.2,0.1c0.1,0.1,0.2,0.1,0.3,0.1c0.1,0,0.2,0,0.3-0.1c0.1,0,0.1-0.1,0.2-0.1
	c0.1-0.1,0.1-0.2,0.2-0.3c0,0,0,0,0-0.1c0,0,0,0.1-0.1,0.2c0,0,0-0.1,0.1-0.1c0,0,0-0.1,0.1-0.2c0-0.1,0-0.2,0-0.3
	c0-0.1,0-0.1,0-0.2c0-0.1-0.1-0.1-0.1-0.2c-0.1-0.1-0.2-0.1-0.3-0.2c-0.1,0-0.2,0-0.3,0c-0.1,0-0.2,0-0.2,0.1
	c-0.1,0.1-0.3,0.2-0.4,0.3c0,0.1-0.1,0.1-0.1,0.2s0,0.2,0,0.2c0,0.1,0,0.1,0,0.2c0,0.1,0.1,0.2,0.1,0.2c0,0,0.1,0.1,0.1,0.1
	c0.1,0.1,0.1,0.1,0.2,0.1c0.1,0,0.1,0,0.2,0c0.1,0,0.1,0,0.2,0h0c0,0,0.1,0,0.1,0c0.1,0,0.2-0.1,0.2-0.1c0,0,0.1-0.1,0.1-0.2
	c0-0.1,0.1-0.2,0.1-0.2c0-0.1,0-0.2,0-0.3c0,0,0-0.1-0.1-0.2c-0.1-0.1-0.1-0.2-0.2-0.2c-0.2-0.1-0.4-0.1-0.6-0.1
	c-0.1,0-0.2,0.1-0.3,0.2c0,0-0.1,0.1-0.1,0.1c0,0.1-0.1,0.1-0.1,0.2c0,0.1,0,0.2,0,0.3c0,0.1,0,0.2,0.1,0.2c0,0.1,0.1,0.1,0.2,0.2
	c0.1,0.1,0.1,0.1,0.2,0.1c0.2,0,0.4,0,0.5-0.1c0,0,0.1-0.1,0.1-0.1C473-418.5,473-418.6,473-418.8L473-418.8z"/>
<path class="st5" d="M445.7-418.3C445.7-418.3,445.7-418.3,445.7-418.3c0,0,0,0.1-0.1,0.1C445.6-418.2,445.6-418.2,445.7-418.3
	c-0.1,0.1-0.1,0.2-0.1,0.2c0,0,0,0,0,0c0,0-0.1,0.1-0.1,0.1c0,0,0,0,0,0c0,0-0.1,0-0.2,0.1c0,0,0,0,0,0c-0.1,0-0.1,0-0.2,0
	c0,0,0,0,0,0c-0.1,0-0.1,0-0.2,0c0,0,0,0,0,0c-0.1-0.3-0.3-0.5-0.5-0.8c0,0,0,0,0,0c0,0,0-0.1,0.1-0.2c0,0,0,0,0,0
	c0,0,0.1-0.1,0.1-0.1c0,0,0,0,0,0c0,0,0.1-0.1,0.1-0.1c0,0,0,0,0,0c0,0,0.1,0,0.2-0.1c0,0,0,0,0,0c0.1,0,0.1,0,0.2,0c0,0,0,0,0,0
	c0.1,0,0.1,0,0.2,0c0,0,0,0,0,0c0,0,0.1,0,0.2,0.1c0,0,0,0,0,0c0,0,0.1,0.1,0.1,0.1l0,0c0.1,0.1,0.1,0.2,0.2,0.3c0,0,0,0,0,0
	c0,0.1,0,0.1,0,0.2c0,0,0,0,0,0c0,0.1,0,0.1,0,0.2v0C445.7-418.4,445.7-418.3,445.7-418.3C445.6-418.3,445.6-418.3,445.7-418.3
	c-0.1,0.1-0.1,0.1-0.1,0.2c0,0,0,0,0,0c0,0-0.1,0.1-0.1,0.1h0c-0.2,0-0.3,0-0.5,0.1c0,0,0,0,0,0c0,0-0.1,0-0.2-0.1c0,0,0,0,0,0
	c0,0-0.1-0.1-0.1-0.1l0,0c0,0-0.1-0.1-0.1-0.1c0,0,0,0,0,0c0,0,0-0.1-0.1-0.2v0c0-0.1,0-0.1,0-0.2c0,0,0,0,0,0c0-0.1,0-0.1,0-0.2
	c0,0,0,0,0,0c0,0,0-0.1,0.1-0.2c0,0,0,0,0,0c0,0,0.1-0.1,0.1-0.1l0,0c0,0,0.1-0.1,0.1-0.1l0,0c0,0,0.1,0,0.2-0.1h0
	c0.1,0,0.1,0,0.2,0h0c0.1,0,0.1,0,0.2,0h0c-0.1,0-0.2,0-0.3,0c-0.1,0-0.2,0-0.2,0.1c-0.1,0-0.1,0.1-0.2,0.2
	c-0.1,0.1-0.1,0.1-0.1,0.2c0,0.2,0,0.4,0.1,0.5c0,0,0.1,0.1,0.1,0.1c0.1,0.1,0.2,0.1,0.3,0.2c0.1,0,0.1,0,0.2,0c0,0,0.1,0,0.2,0
	c0,0,0.1,0,0.2-0.1c0,0,0.1-0.1,0.1-0.1c0.1-0.1,0.2-0.3,0.2-0.5c0,0,0,0,0,0c0,0,0-0.1,0-0.2c0,0,0-0.1-0.1-0.2
	c0,0-0.1-0.1-0.1-0.1c-0.1-0.1-0.2-0.1-0.3-0.2c-0.1,0-0.1,0-0.2,0c-0.1,0-0.2,0-0.3,0.1c-0.1,0-0.1,0.1-0.2,0.1l0,0
	c0,0-0.1,0.1-0.1,0.1c0,0,0,0,0,0c0,0,0,0.1-0.1,0.2c0,0,0,0.1,0,0.1c0,0,0,0.1,0,0.1s0,0.1,0,0.1s0,0.1,0,0.1
	c0,0.2,0.2,0.3,0.3,0.4c0,0,0.1,0,0.1,0c0,0,0.1,0,0.1,0c0.1,0,0.1,0,0.2,0c0.1,0,0.1,0,0.2,0c0.1,0,0.1,0,0.2-0.1c0,0,0,0,0.1-0.1
	c0,0,0,0,0.1-0.1c0,0,0.1-0.1,0.1-0.1s0,0,0-0.1c0,0,0-0.1,0-0.1c0-0.1,0-0.2,0-0.3c0-0.1,0-0.2-0.1-0.2c0,0-0.1-0.1-0.1-0.1
	c-0.1-0.1-0.2-0.1-0.3-0.2c-0.2-0.1-0.5,0-0.6,0.1c-0.2,0.1-0.3,0.3-0.4,0.5c0,0.1,0,0.2,0,0.3c0,0.1,0,0.2,0.1,0.2
	c0,0.1,0.1,0.1,0.2,0.2c0.1,0.1,0.1,0.1,0.2,0.1c0.2,0,0.4,0,0.5-0.1C445.5-418,445.6-418.2,445.7-418.3L445.7-418.3z"/>
<path class="st3" d="M441.1-447.5c-0.3,3-0.5,6-0.8,9c-0.2,2.6-0.6,5.3-0.2,7.9c0.2,1.5,0.6,2.9,1.3,4.2c0.5,0.9,1.9,0.1,1.4-0.8
	c-1.6-2.8-1.3-6.1-1.1-9.1c0.3-3.7,0.6-7.5,1-11.2c0-0.4-0.4-0.8-0.8-0.8C441.4-448.2,441.1-447.9,441.1-447.5L441.1-447.5z"/>
<path class="st3" d="M457-434.1c3.5-0.9,7-1.7,10.6-2.2c3.5-0.5,7.1-0.7,10.6-0.4c2,0.2,4,0.5,6,0.9c1,0.2,1.4-1.3,0.4-1.5
	c-3.6-0.8-7.3-1.1-11-1.1c-3.7,0.1-7.4,0.6-11,1.4c-2,0.4-4,0.9-6.1,1.4C455.6-435.4,456-433.8,457-434.1L457-434.1z"/>
<path class="st3" d="M485.4-435.9c1.2-1,2.3-2.1,3.4-3.2c1.2-1.1,2.4-2.1,3.8-2.9c1.4-0.9,2.9-1.8,4.3-2.7c1.3-0.8,2.7-1.7,4.2-2.2
	c1-0.3,0.5-1.9-0.4-1.5c-1.6,0.5-3,1.4-4.5,2.3c-1.5,0.9-3,1.9-4.5,2.8c-1.4,0.9-2.8,1.9-4,3.1c-1.2,1.1-2.3,2.3-3.5,3.3
	c-0.3,0.3-0.3,0.9,0,1.1C484.6-435.6,485-435.6,485.4-435.9L485.4-435.9z"/>
<path class="st3" d="M500.1-447.4c2.1,5.4,3.3,11.1,3.4,16.9c0,1.6,0,3.3-0.2,4.9c0,0.4,0.4,0.8,0.8,0.8c0.5,0,0.8-0.4,0.8-0.8
	c0.5-5.9,0-11.8-1.6-17.5c-0.5-1.6-1-3.2-1.6-4.7c-0.2-0.4-0.5-0.7-1-0.6C500.3-448.2,500-447.8,500.1-447.4L500.1-447.4z"/>
<path class="st3" d="M500.1-448.3c-4.1,5.1-7.4,10.8-9.8,16.8c-0.2,0.4,0.2,0.9,0.6,1c0.5,0.1,0.8-0.2,1-0.6
	c2.3-5.8,5.5-11.3,9.4-16.1c0.3-0.3,0.3-0.8,0-1.1C501-448.6,500.4-448.7,500.1-448.3L500.1-448.3z"/>
<path class="st3" d="M441.9-446.5c5.4,3.3,10.2,7.5,14.4,12.2c0.7,0.8,1.8-0.4,1.1-1.1c-4.3-4.8-9.2-9-14.7-12.5
	C441.8-448.4,441-447,441.9-446.5L441.9-446.5z"/>
<path class="st3" d="M441.6-446.1c3.5,4.8,6.6,9.9,9.2,15.2c0.5,0.9,1.8,0.1,1.4-0.8c-2.6-5.3-5.7-10.4-9.2-15.2
	c-0.3-0.4-0.7-0.5-1.1-0.3C441.5-447,441.4-446.5,441.6-446.1L441.6-446.1z"/>
<path class="st3" d="M441.7-426.8c-2.1,1.8-4.2,3.7-6,5.8c-1.6,1.8-3.3,3.8-4.7,5.8c-2.5,3.6-4.1,7.9-4.6,12.3
	c-0.3,3,0.1,6.2,0.6,9.2c0.8,4.5,1.9,9,3.2,13.4c1.7,5.7,3.7,11.2,5.8,16.7c0.3,0.8,0.6,1.5,0.9,2.3c0.2,0.4,0.5,0.7,1,0.6
	c0.4-0.1,0.7-0.6,0.6-1c-2.3-5.5-4.3-11.1-6.1-16.9c-1.4-4.5-2.7-9.1-3.5-13.8c-0.6-3.1-1.1-6.3-0.9-9.5c0-0.3,0-0.6,0.1-0.9
	c0-0.1,0-0.2,0-0.4c0,0,0,0.1,0,0c0-0.1,0-0.1,0-0.2c0.2-1.3,0.5-2.7,0.9-4c0.6-1.9,1.3-3.6,2.3-5.3c1.3-2.2,2.9-4.1,4.5-6.1
	c1.6-1.9,3.4-3.7,5.2-5.4c0.6-0.5,1.2-1,1.8-1.5c0.3-0.3,0.3-0.8,0-1.1C442.5-427.1,442.1-427.1,441.7-426.8L441.7-426.8z"/>
<path class="st3" d="M503.7-425.1c2.6,4.1,4.8,8.4,6.7,12.8c1.7,3.8,2.8,7.7,3.1,11.8c0.2,2.9,0.1,5.9-0.3,8.8
	c-0.1,0.4,0.4,0.8,0.8,0.8c0.5,0,0.7-0.4,0.8-0.8c0.6-4.7,0.5-9.5-0.6-14.1c-0.5-2-1.2-4-2-5.9c-1.1-2.6-2.3-5.1-3.6-7.6
	c-1.1-2.2-2.4-4.4-3.7-6.5C504.5-426.8,503.1-426,503.7-425.1L503.7-425.1z"/>
<path class="st3" d="M513.7-402.5c6.7,13.3,13,26.8,18.8,40.6c1.6,3.9,3.6,7.6,5.3,11.4c2.6,5.8,4.9,11.8,6.6,17.9
	c1.8,6.3,3.1,12.6,2.7,19.2c-0.3,5.7-1.7,11.4-4.1,16.6c-3.9,8.3-10.8,15-18.8,19.2c-9,4.6-19.7,5.7-29.4,3.2
	c-0.6-0.1-1.2-0.3-1.8-0.5c-1-0.3-1.4,1.2-0.4,1.5c10,3,21.1,2.2,30.7-2.1c8.5-3.8,15.8-10.6,20.3-18.8c2.2-4,3.7-8.5,4.5-13
	c1.3-6.8,1-13.5-0.6-20.2c-1.5-6.5-3.6-13-6.2-19.2c-1.9-4.6-4.1-9.2-6.2-13.7c-1.1-2.4-2.2-4.9-3.2-7.4c-1.5-3.6-3.1-7.1-4.7-10.7
	c-3.1-6.8-6.3-13.6-9.6-20.2c-0.8-1.6-1.6-3.1-2.4-4.7C514.6-404.2,513.2-403.4,513.7-402.5L513.7-402.5z"/>
<path class="st11" d="M431.4-412.9"/>
<path class="st3" d="M429.4-384.1c-4.7,8.3-9.1,16.7-13.2,25.3c-2.6,5.5-5.1,11-7.4,16.5c-2,4.9-4.1,9.8-5.5,14.8
	c-2.9,10-2.9,21.1,1.6,30.6c2.2,4.6,5.4,8.8,9.4,12.1c3.1,2.6,6.5,4.6,10.1,6.4c4.5,2.1,9,3.9,13.9,4.9c4.6,1,9.4,1.3,14.1,1.1
	c0.8,0,1.6-0.1,2.5-0.2c1-0.1,1-1.7,0-1.6c-4.1,0.4-8.3,0.3-12.4-0.2c-5.3-0.7-10.5-2.3-15.3-4.5c-3.2-1.5-6.4-3.1-9.3-5.1
	c-3.8-2.7-7.2-6.1-9.6-10.1c-5.5-8.9-6.4-20.1-4-30.1c1.1-4.8,3-9.4,4.8-14c2.2-5.6,4.7-11.1,7.2-16.6c4.1-8.9,8.6-17.6,13.4-26.1
	c0.4-0.8,0.9-1.6,1.3-2.3C431.3-384.2,429.9-385,429.4-384.1L429.4-384.1z"/>
<path class="st3" d="M489.7-279.1c0.6,1,1.2,2.1,1.7,3.3c0.1,0.3,0.2,0.6,0.2,0.9c0,0.3-0.4,0.5-0.7,0.7c-0.8,0.5-1.7,1-2.6,1.4
	c-3.7,1.4-8.1,1.3-11.5-0.7c-0.8-0.5-1.5-1.1-1.8-2c-0.2-0.6-0.2-1.3-0.1-1.8c0.1-0.8,0.3-1.5,0.4-2.3c0.6-2.9,1.2-5.8,1.8-8.8
	c1-5,2.1-10,3.1-15c0.2-1-1.3-1.4-1.5-0.4c-1.7,7.9-3.4,15.8-4.9,23.8c-0.1,0.8-0.3,1.6-0.4,2.3c-0.1,0.9-0.1,1.8,0.1,2.7
	c0.4,1.1,1.2,1.9,2.1,2.5c3.6,2.4,8.7,2.6,12.7,1.2c1.1-0.4,2.3-0.9,3.3-1.6c0.6-0.4,1.2-0.8,1.5-1.5c0.2-0.5,0.1-1,0-1.5
	c-0.2-0.9-0.6-1.7-1.1-2.5c-0.3-0.6-0.6-1.1-0.9-1.7C490.5-280.8,489.1-280,489.7-279.1L489.7-279.1z"/>
<path class="st3" d="M528-337.4c0.7,2.6,0.5,5.4,0.4,8c-0.2,2.7-0.5,5.3-1.1,7.9c-1.1,4.6-3.4,8.8-6.3,12.6
	c-2.9,3.8-6.4,7.2-10,10.3c-1.9,1.7-4,3.4-6.1,4.8c-2,1.3-4,2.4-6.1,3.6c-2.1,1.2-4.3,2.4-6.1,4.1c-1.8,1.6-4,4.2-3.2,6.8
	c0.3,1,1.9,0.6,1.5-0.4c-0.4-1.2,0.3-2.3,1-3.2c0.6-0.9,1.3-1.6,2.1-2.3c1.6-1.4,3.5-2.5,5.3-3.5c2-1.1,4.1-2.2,6-3.5
	c2.1-1.5,4.2-3.1,6.1-4.8c7.1-6.2,14.3-13.6,16.9-22.9c0.8-2.9,1.2-6,1.4-9c0.2-3,0.4-6-0.4-8.9C529.2-338.9,527.7-338.4,528-337.4
	L528-337.4z"/>
<path class="st3" d="M419.3-346c-0.8,7-1.2,14.2,0,21.2c0.5,3.1,1.4,6.2,2.7,9.1c1.1,2.5,2.5,4.8,4.1,6.9c2.9,4,6.4,7.6,10.1,10.8
	c2.1,1.8,4.2,3.5,6.4,5.1c0.6,0.4,0.9,0.7,1.5,1.2c1,0.9,2.1,1.8,3,2.7c2.4,2.3,4.5,4.8,6.4,7.6c0.3,0.5,0.6,1,0.9,1.4
	c0-0.3,0-0.5,0-0.8c-1.1,1.9-2.1,4.4-1.1,6.5c0.8,1.8,2.7,2.7,4.6,3c1.9,0.3,3.9,0.3,5.8,0.2c2.1-0.1,4.3-0.2,6.3-0.9
	c1.6-0.5,3.7-1.6,4.1-3.5c0.4-1.5,0-3.2-0.3-4.6c-0.8-4.1-1.8-8.1-2.7-12.2c-0.7-3.2-1-6.6-1-9.9c0-0.7,0-1.5,0-2.2c0-1-1.6-1-1.6,0
	c-0.1,3.9,0.1,7.8,0.8,11.6c0.6,3.2,1.4,6.3,2.1,9.5c0.4,1.9,1,4,1.1,5.9c0,0.3,0,0.6,0,1c0,0.1,0,0.2,0,0.4c0-0.2,0,0.1,0,0.2
	c0,0.1-0.1,0.3-0.1,0.2c0.1-0.1,0,0,0,0c-0.1,0.1-0.1,0.2-0.2,0.3c-0.2,0.3-0.5,0.6-0.8,0.8c-1.5,1.2-3.7,1.4-5.5,1.6
	c-1.8,0.2-3.7,0.3-5.5,0.2c-1.6,0-3.6-0.2-4.9-1.2c-1.5-1.2-1.1-3.4-0.4-5c0.2-0.4,0.4-0.8,0.6-1.1c0.1-0.2,0.1-0.6,0-0.8
	c-3.1-4.9-7-9.2-11.6-12.8c-0.7-0.5-1.4-1.1-2.1-1.6c-0.2-0.2-0.5-0.4-0.7-0.5c-0.1,0-0.1-0.1-0.2-0.1c0.1,0.1-0.1,0-0.1-0.1
	c-0.1-0.1-0.3-0.2-0.4-0.3c-0.7-0.5-1.3-1.1-2-1.6c-3.6-3-7-6.3-10-10c-1.6-2-3.1-4.2-4.4-6.5c-1.4-2.6-2.4-5.3-3.1-8.1
	c-1.6-6.8-1.4-14-0.7-20.9c0.1-0.9,0.2-1.7,0.3-2.6c0-0.4-0.4-0.8-0.8-0.8C419.7-346.8,419.4-346.4,419.3-346L419.3-346z"/>
<path class="st3" d="M434.2-345.4c-1.5,5.9-1,12.3,1.4,18c1.2,2.9,2.9,5.5,5,7.6c1.9,1.9,4.1,3.6,6.4,5.1c2.6,1.7,5.4,3,8.3,4
	c0.3,0.1,0.7-0.1,0.9-0.4c0.2-0.3,0.1-0.7-0.1-1c-3.6-4.7-5.7-10.4-6-16.3c0-1-1.6-1-1.6,0c0.2,5,1.7,10,4.3,14.3
	c0.6,1.1,1.4,2.1,2.1,3.1c0.3-0.4,0.5-0.9,0.8-1.3c-4.9-1.7-9.4-4.4-13.2-7.9c-1-0.9-2-2-2.9-3.1c-0.9-1.2-1.6-2.5-2.2-3.8
	c-1.2-2.6-2-5.4-2.4-8.2c-0.4-3.2-0.2-6.5,0.6-9.7C436-345.9,434.4-346.4,434.2-345.4L434.2-345.4z"/>
<path class="st3" d="M515.1-334.8c-2.2,4.3-5,8.1-8.7,11.2c-1.8,1.5-3.9,2.8-5.8,4.2c-2.1,1.6-3.9,3.5-5.3,5.8
	c-1.4,2.3-2.4,4.9-3,7.5c0.5,0.1,1,0.1,1.6,0.2c-0.5-6.9,1.1-13.9,4.5-20c0.7-1.3,1.6-2.6,2.5-3.8c0.3-0.4,0.1-0.9-0.3-1.1
	c-0.4-0.2-0.8-0.1-1.1,0.3c-4.2,5.7-6.7,12.5-7.2,19.5c-0.1,1.7-0.1,3.3,0,5c0.1,0.9,1.4,1.1,1.6,0.2c1.1-4.8,3.5-9.2,7.4-12.2
	c1.9-1.5,4-2.7,5.8-4.2c1.6-1.3,3.2-2.8,4.5-4.4c1.9-2.3,3.5-4.8,4.9-7.5C516.9-334.9,515.5-335.7,515.1-334.8L515.1-334.8z"/>
<path class="st3" d="M455.4-409.1c-0.2-0.6-0.3-1.3-0.4-1.9c0-0.2-0.2-0.6-0.1-0.8c-0.1,0.2-0.1,0,0,0.1c0.1,0,0.4-0.1,0.5-0.1
	c0.6,0,1.2,0,1.8,0.2c0.1,0,0.5,0.1,0.6,0.3c0-0.1,0,0,0,0c0,0.1-0.1,0.2-0.2,0.3c-0.4,0.3-1,0.4-1.5,0.7c-0.5,0.3-1,0.7-1.4,1.1
	c-0.8,0.8-1.4,1.8-1.6,3c-0.4,2.3,0.5,4.7,2.6,5.9c2,1.1,4.5,1,6.6,0.3c1.3-0.4,2.6-1,3.5-2.1c0.9-1.1,1.3-2.5,0.9-3.9
	c-0.3-1-1.8-0.6-1.5,0.4c0.7,2.4-2.2,3.8-4.1,4.2c-1.9,0.5-4.4,0.4-5.7-1.3c-1.3-1.7-1-4.1,0.5-5.5c0.4-0.4,0.8-0.6,1.2-0.9
	c0.5-0.3,1.2-0.4,1.6-0.9c0.4-0.4,0.7-1,0.7-1.6c-0.1-0.8-0.6-1.2-1.3-1.5c-0.7-0.3-1.5-0.4-2.2-0.4c-0.7,0-1.5,0-2.1,0.5
	c-0.6,0.5-0.5,1.3-0.4,2c0.1,0.8,0.3,1.5,0.5,2.2C454.1-407.7,455.7-408.1,455.4-409.1L455.4-409.1z"/>
<path class="st3" d="M446.5-408.9c-0.6,2.2-1,5,1.1,6.5c1.9,1.5,4.5,0.7,6.3-0.5c-0.3-0.4-0.6-0.8-1-1.2c-0.8,0.7-1.8,1.4-2.5,2.2
	c-0.6,0.6-1,1.4-1.3,2.1c-0.5,1.2-0.4,2.4,0,3.6c0.6,1.5,1.5,2.9,2.5,4.2c1.3,1.7,2.7,3.3,4.1,4.8c1.4,1.6,2.8,3.1,4.3,4.5
	c0.7,0.7,1.9-0.4,1.1-1.1c-2.7-2.6-5.2-5.4-7.5-8.2c-1-1.2-2-2.5-2.7-4c-0.3-0.5-0.5-1.1-0.6-1.6c-0.1-0.4-0.1-0.9,0.1-1.3
	c0.2-0.6,0.5-1.3,1-1.8c0.3-0.4,0.8-0.7,1.2-1.1c0.5-0.4,1-0.9,1.5-1.3c0.7-0.6-0.2-1.8-1-1.2c-1.3,0.9-3.2,1.7-4.6,0.6
	c-1.5-1.1-0.9-3.4-0.5-4.8C448.3-409.4,446.8-409.9,446.5-408.9L446.5-408.9z"/>
<path class="st3" d="M466.9-413.7c-0.1-1.4,0.1-2.7,0.8-3.9c0.8-1.3,2.2-2.2,3.7-2.7c2.8-1,6.2-0.5,8.1,1.9c1,1.3,1.6,3,2,4.6
	c0.1-0.3,0.2-0.6,0.4-0.9c-4.8,2.2-10.5,2.8-15.3,0.3c-0.9-0.5-1.7,0.9-0.8,1.4c3,1.5,6.3,2.1,9.6,1.8c2.5-0.3,5-1,7.3-2.1
	c0.3-0.1,0.4-0.6,0.4-0.9c-0.4-1.6-1-3.3-2-4.7c-1.2-1.7-2.9-2.9-5-3.3c-1.5-0.3-3-0.2-4.5,0.2c-1.8,0.5-3.6,1.4-4.8,2.9
	c-1.2,1.5-1.7,3.5-1.5,5.4c0,0.4,0.3,0.8,0.8,0.8C466.5-413,466.9-413.3,466.9-413.7z"/>
<path class="st3" d="M452.9-413.9c0.7-2.7-0.1-5.9-2.7-7.3c-1.1-0.5-2.3-0.7-3.6-0.6c-1.1,0.1-2.4,0.3-3.4,0.8
	c-1.3,0.6-2.4,1.9-3.3,3c-0.4,0.6-0.9,1.2-1.1,1.8c-0.3,0.6-0.5,1.2-0.3,1.9c0.3,0.9,1.3,1.4,2.2,1.7c1.1,0.4,2.3,0.6,3.5,0.7
	c2.9,0.2,5.7-0.2,8.4-1.4c0.4-0.2,0.5-0.8,0.3-1.1c-0.2-0.4-0.7-0.5-1.1-0.3c-2,0.9-4.1,1.3-6.2,1.2c-1,0-2-0.1-2.9-0.3
	c-0.8-0.2-1.7-0.4-2.3-0.8c0,0-0.1,0-0.1-0.1c0,0,0.1,0.1,0,0c0,0-0.1-0.1-0.1-0.1c-0.1-0.1,0,0,0,0c0,0-0.1-0.1-0.1-0.1
	c0,0.2,0,0,0-0.1c0-0.4,0.4-0.9,0.6-1.3c0.6-1,1.5-2,2.5-2.8c0.8-0.7,1.8-0.9,2.9-1.1c0.8-0.1,1.7-0.1,2.6,0
	c2.6,0.6,3.5,3.4,2.9,5.8C451.1-413.3,452.6-412.9,452.9-413.9z"/>
<path class="st3" d="M546.9-302.5c1.1-5.8,3-11.4,6.3-16.3c2.9-4.4,6.9-8,10.7-11.8c4.2-4.3,8.3-9,10.5-14.8
	c0.6-1.6,0.9-3.2,1.1-4.9c0.1-1.4,0-2.8,0-4.3c0-0.2,0-0.4,0-0.6c0,0.2,0,0,0,0c-0.1,0.1-0.1,0.2-0.3,0.3c-0.1,0-0.2,0-0.3,0
	c-0.1,0-0.1,0,0,0c0,0-0.2,0,0,0c0.1,0-0.1-0.1,0,0c0.1,0.1,0.1,0.1,0.2,0.2c0.3,0.3,0.4,0.5,0.7,0.9c0.3,0.5,0.6,1,0.9,1.5
	c2.9,4.9,4.8,10.4,5.3,16.1c0.5,6.1-0.2,12.3-2,18.2c-1.6,5.2-4,10.2-7.1,14.6c-0.3,0.5-0.7,0.9-1,1.4c0,0.1-0.1,0.1-0.2,0.2
	c0,0,0,0.1-0.1,0.1c0,0,0.1-0.1,0,0c-0.1,0.1-0.2,0.3-0.3,0.4c-0.2,0.3-0.5,0.6-0.7,0.9c-1.2,1.5-2.5,2.9-3.9,4.2
	c-3.7,3.6-8,6.6-12.6,8.9c-5.8,2.9-12.2,4.5-18.7,4.9c-1.2,0.1-2.5,0.1-3.7,0c-1,0-1,1.6,0,1.6c6.5,0.1,13-1,19.1-3.3
	c5.3-2.1,10.3-5.1,14.6-8.8c3-2.5,5.7-5.4,8-8.5c2.8-3.8,5.1-8,6.8-12.4c2.3-5.9,3.6-12.3,3.6-18.7c0-3.1-0.3-6.1-1-9.1
	c-0.7-2.9-1.7-5.6-3-8.3c-0.6-1.3-1.3-2.5-2-3.7c-0.5-0.8-1-1.7-1.8-2.4c-0.7-0.6-1.7-0.7-2,0.4c-0.1,0.4-0.1,0.9-0.1,1.4
	c0,0.7,0.1,1.4,0.1,2c0,3.2-0.9,6.2-2.4,9.1c-1.5,2.8-3.3,5.3-5.3,7.6c-3.9,4.5-8.7,8.3-12.4,13c-3.3,4.3-5.7,9.2-7.2,14.4
	c-0.5,1.7-0.9,3.4-1.2,5.1c-0.1,0.4,0.1,0.9,0.6,1C546.3-301.8,546.9-302.1,546.9-302.5L546.9-302.5z"/>
<g>
	<g>
		<g id="XMLID_00000114758084671510006290000009201764497514556036_">
			<g>
				<path class="st0" d="M188.3,113.9c4.7,12.8,1.8,29.4-6.6,42c-1.9,2.9-10.6,15.1-27.1,20.2c-6.2,1.9-11.7,2.2-15.5,2.1
					c0.6-0.5,1.2-1,1.9-1.6l0.9,0.2c3.7-1.1,6.8-3.5,9.8-5.8c8.1-6.2,16.4-12.6,22.4-21c8.4-11.7,11.6-27.1,8.6-41.2l-0.3,0
					c0.2-2.8-0.3-4.8,0.2-4.9C183.4,103.6,186.7,109.6,188.3,113.9z"/>
				<path class="st1" d="M154,155.5c0.2-0.8,0.4-1.6,0.6-2.4c2-7.7,5.2-12.8,8-16.2c4.8-5.7,12-11,16.4-18.6
					c1.2-2.1,2.8-4.9,3.2-8.7c0-0.2,0.1-0.5,0.1-0.7l0.3,0c3,14.1-0.2,29.4-8.6,41.2c-6,8.3-14.2,14.7-22.4,21
					c-3,2.3-6.2,4.7-9.8,5.8l-0.9-0.2c3.2-2.8,6.5-6.5,9.2-11.3C150.7,164.4,152.6,160.8,154,155.5z"/>
				<path class="st0" d="M139.1,178.2c-4.3,3.3-8,5-9.3,5.6c-14.2,6.1-26.9,2.4-30.1,1.4c0-0.1,0.2-0.4,0.1-0.9l0.1,0
					c3.1,0.3,25,2,36.6-12.2c5.2-6.4,7.1-14.5,8.1-19.3c2.2-9.8,1.5-17.7,1-22.1c-2.7-26.4-20.6-58.4-23.5-63.4l-0.4-0.1
					c0.5-4.2,0.3-7.7-0.1-10.6l0.3,0c6.4,12.6,12.7,26.1,18.8,40.7c2.4,5.6,9.2,17.7,13.1,33.7c1.1,4.5,2.2,9.9,1.6,16.8
					c-0.2,1.9-0.4,3.8-0.8,5.4c-0.2,0.8-0.4,1.6-0.6,2.4c-1.4,5.3-3.3,8.8-3.8,9.8c-2.7,4.8-6,8.5-9.2,11.3
					C140.4,177.2,139.7,177.7,139.1,178.2z"/>
				<path class="st1" d="M62.2,186.1L62.2,186.1c-5.7,0.6-16,0.7-27.3-4.3c-5.2-2.3-15.3-6.8-21.2-17.8c-2.9-5.3-3.6-10.1-4-12.5
					c-1.6-11.1,1.6-20.2,4.2-26.9c7.9-20.4,17.6-38.7,23.4-49c-2.5-9.1-3.4-16.1-2.8-20c0.5-3.2,1.6-5.9,1.6-5.9
					c1.7-4.2,4-7,6.5-9.9c1.6-1.9,3.9-4.3,7-6.8l0.2,0.1c3.5-0.6,6.8-2.7,8.9-5.6c0,0,0,0,0,0c0,0,0,0,0,0c-0.8-1.7-1.7-3.4-2.8-5.2
					c-2-3.6-4.2-6.8-6.3-9.6l0.3-0.5c2.2,1.4,4.7,3.2,7.3,5.3c2.8,2.4,5.1,4.7,7,6.8c3.8-1.2,9-2.5,15.3-2.7c5-0.2,9.3,0.4,12.7,1
					c1.8-1.4,3.2-3.2,4.9-4.6c0.9-0.7,1.9-1.4,2.9-2c1.3-0.8,2.5-1.6,3.8-2.4c1.4-0.9,2.8-1.7,4.3-2.3c-4,5-7.2,10.5-9.5,16.4
					l-0.1,0c-0.1,0.9,0.7,1.6,1.4,2.1c1.7,1.2,3.4,2.4,5.3,3.2c1.9,0.7,4.2,0.9,6.1,0c0.1,0,0.1-0.1,0.1-0.1l0.2,0
					c0,0.2,0,0.4-0.1,0.6l0.3,0.1c1.6,2.6,3.8,6.4,6.1,11.3c0.8,1.8,1.7,3.8,2.4,6c0.4,1.4,0.9,3.2,1.3,5.5
					c0.4,2.9,0.6,6.4,0.1,10.6l0.4,0.1c2.8,5,20.8,37,23.5,63.4c0.4,4.4,1.2,12.3-1,22.1c-1.1,4.8-2.9,12.9-8.1,19.3
					c-11.6,14.2-33.5,12.5-36.6,12.2l-0.1,0c0.1,0.5,0,0.8-0.1,0.9c-0.1,0.3-0.4,0.6-0.8,0.8c-4.2,2.9-10,3.4-14.6,1.1
					c-1.2-0.6-2.3-1.4-2.7-2.6c-0.2-0.5-0.2-0.9-0.2-1.3c0-0.4,0-0.7,0.1-0.9c0.3-2.1,2.2-11.1,4.8-23.6l-0.4-0.1
					c-2.5-1-5.4-1.8-8-1c-0.3,0.1-0.7,0.3-0.9,0.5c0,3.2,0.4,5.8,0.7,7.8c0.3,1.6,0.5,2.6,2,9.4c0.9,3.9,1.4,6.4,1.4,7.9
					c0,0.6-0.1,1.1-0.3,1.4c-1.6,2.8-5.8,3-9.1,3.2C68.8,188,64.2,188.3,62.2,186.1z M100.6,153.3l0.3,0.1c1.7-2.4,3.5-4.9,5.7-6.9
					c3.5-3.3,7.9-5.6,10.9-9.4c2.5-3.1,3.9-7,5.2-10.8l0,0c-2.4,4.5-5.2,7.5-7.2,9.4c-4.3,3.9-7.6,4.7-10.8,8.9
					C102.2,147.6,101.1,150.9,100.6,153.3z M63.1,147.7c-1.3-5.8-3.4-11.4-6.3-16.6l-0.2,0.1c0.1,2.4,0.6,5.9,2.2,9.9
					c1.2,2.9,2.6,5.1,3.8,6.7L63.1,147.7z M62.3,50.9c0.5-0.6,1.2-1.1,1.9-1.5c0.4-0.2,0.9-0.3,1.2-0.6s0.6-0.8,0.3-1.2
					c-0.2-0.3-0.4-0.4-0.7-0.5c-0.9-0.3-1.9-0.4-2.8-0.3c-0.3,0-0.6,0.1-0.7,0.4c-0.1,0.2-0.1,0.5-0.1,0.8c0.1,0.9,0.3,1.7,0.5,2.6
					L62.3,50.9z M89.6,45.3c-0.1-0.3-0.2-0.8-0.4-1.4c-0.5-1.4-1.2-3.5-3.1-4.9c-1.5-1.1-3.2-1.2-4-1.3c-0.6,0-2.4-0.1-4.4,0.9
					c-0.8,0.4-2,1-3,2.3c-1.4,1.9-1.2,4-1.2,4.7c0.7,0.4,1.5,0.7,2.3,1C81.5,48.5,87,46.5,89.6,45.3z M79.5,34.2
					c1.8-5,6.7-8,6.3-8.5c-0.2-0.3-1.4,0.5-2.5,1.2c-2.8,1.7-4.4,3.8-5.1,4.8c-0.4,0.6-3.2,4.5-2.3,5.4c0.4,0.4,1.4,0.1,1.5,0.1
					C78.7,36.7,79.2,34.9,79.5,34.2z M72.3,32.2c2.5-3.9,4.8-5.5,4.5-5.9c-0.3-0.4-2.3,0.7-3.1,1.2c-1.5,0.9-2.4,1.9-2.7,2.2
					c-3.7,3.9-8.2,13.6-7,14.4c0.2,0.1,0.9,0.4,1.8,0.1c0,0,0.1,0,0.1,0c1.6-0.5,2-2.5,2.8-4.6C68.7,39.5,70.2,35.5,72.3,32.2z
					 M61.9,34.8c1.5-4.3,6.3-6.9,5.9-7.4c-0.3-0.3-2,0.7-2.7,1.1c-2.9,1.7-4.3,3.8-4.7,4.3c-0.9,1.3-2.3,3.9-1.6,4.6
					c0.3,0.3,1.1,0.1,1.2,0C61.3,36.9,61.7,35.3,61.9,34.8z M59.5,45.3c0.6-2.1,0.1-4.2-1.2-5.6c-1.8-1.8-4.6-1.4-5.9-1.1
					c-0.5,0.1-1.1,0.2-1.6,0.5c-0.5,0.3-1,0.7-1.4,1.1c-1.2,1.1-2.3,2.4-2.8,4c-0.1,0.2-0.1,0.3,0,0.5c0.3,1.5,4.5,2.1,7.2,2.1
					C55,46.6,57,46.3,59.5,45.3z"/>
				<path class="st0" d="M122.7,126.2L122.7,126.2c-1.3,3.8-2.7,7.7-5.2,10.8c-3,3.7-7.4,6-10.9,9.4c-2.2,2.1-3.9,4.5-5.7,6.9
					l-0.3-0.1c0.6-2.3,1.7-5.6,4.1-8.7c3.3-4.2,6.5-5,10.8-8.9C117.5,133.7,120.2,130.8,122.7,126.2z"/>
				<path class="st0" d="M111.4,33c0,0.1-0.1,0.1-0.1,0.1c-1.9,0.9-4.1,0.8-6.1,0s-3.7-1.9-5.3-3.2c-0.7-0.5-1.5-1.2-1.4-2.1l0.1,0
					c2.3-5.9,5.6-11.5,9.5-16.4c0.1,0,0.1,0,0.2-0.1l0.1,0.2c2.7,6.8,3.8,14.1,3.2,21.4L111.4,33z"/>
				<path class="st9" d="M89.2,43.9c0.2,0.6,0.3,1.1,0.4,1.4c-2.6,1.2-8.1,3.2-13.9,1.2c-0.8-0.3-1.6-0.6-2.3-1
					c-0.1-0.7-0.2-2.8,1.2-4.7c0.9-1.3,2.2-1.9,3-2.3c2-1,3.8-0.9,4.4-0.9c0.8,0.1,2.5,0.2,4,1.3C87.9,40.4,88.7,42.5,89.2,43.9z"/>
				<path class="st0" d="M85.8,158.6l0.4,0.1c-2.6,12.4-4.5,21.4-4.8,23.6c0,0.2-0.1,0.5-0.1,0.9h-0.3c0-1.5-0.6-4-1.4-7.9
					c-1.5-6.8-1.8-7.8-2-9.4c-0.3-1.9-0.6-4.5-0.7-7.8c0.2-0.2,0.6-0.4,0.9-0.5C80.4,156.8,83.3,157.6,85.8,158.6z"/>
				<path class="st0" d="M85.7,25.7c0.5,0.5-4.4,3.5-6.3,8.5c-0.2,0.7-0.8,2.5-2.2,3c-0.1,0-1.1,0.4-1.5-0.1c-0.9-1,1.9-4.8,2.3-5.4
					c0.7-1,2.3-3,5.1-4.8C84.3,26.2,85.5,25.5,85.7,25.7z"/>
				<path class="st0" d="M76.8,26.3c0.3,0.4-2,2.1-4.5,5.9c-2.1,3.3-3.6,7.4-3.6,7.4c-0.8,2.2-1.3,4.1-2.8,4.6c0,0,0,0-0.1,0
					c-0.8,0.3-1.6,0-1.8-0.1c-1.2-0.8,3.3-10.4,7-14.4c0.3-0.3,1.2-1.3,2.7-2.2C74.5,27,76.5,25.9,76.8,26.3z"/>
				<path class="st0" d="M67.8,27.3c0.4,0.5-4.4,3.1-5.9,7.4c-0.2,0.6-0.7,2.1-1.9,2.5c-0.1,0-0.9,0.3-1.2,0
					c-0.7-0.7,0.7-3.3,1.6-4.6c0.3-0.5,1.8-2.6,4.7-4.3C65.8,28,67.6,27,67.8,27.3z"/>
				<path class="st3" d="M65.8,47.6c0.2,0.4,0,0.9-0.3,1.2s-0.8,0.5-1.2,0.6c-0.8,0.3-1.4,0.8-2,1.5L62,50.5
					c-0.2-0.8-0.4-1.7-0.5-2.6c0-0.3-0.1-0.5,0.1-0.8c0.2-0.2,0.5-0.3,0.7-0.4c1-0.2,1.9-0.1,2.8,0.3C65.4,47.2,65.7,47.3,65.8,47.6
					z"/>
				<path class="st0" d="M63.1,147.7l-0.4,0.1c-1.2-1.6-2.7-3.9-3.8-6.7c-1.6-3.9-2.1-7.5-2.2-9.9l0.2-0.1
					C59.7,136.3,61.8,141.9,63.1,147.7z"/>
				<path class="st9" d="M58.2,39.7c1.4,1.3,1.8,3.5,1.2,5.6c-2.5,1.1-4.5,1.3-5.8,1.3c-2.7,0.1-6.9-0.5-7.2-2.1c0-0.1,0-0.2,0-0.5
					c0.5-1.6,1.7-2.8,2.8-4c0.4-0.4,0.9-0.8,1.4-1.1c0.5-0.3,1-0.4,1.6-0.5C53.6,38.3,56.4,37.9,58.2,39.7z"/>
				<path class="st1" d="M58.7,27.6C58.7,27.6,58.7,27.6,58.7,27.6C58.7,27.6,58.7,27.6,58.7,27.6C58.7,27.6,58.7,27.6,58.7,27.6z"
					/>
				<path class="st0" d="M58.6,27.6C58.6,27.6,58.6,27.6,58.6,27.6c-2.1,2.9-5.3,5-8.9,5.6l-0.2-0.1c-0.7-2.7-1.3-6.2-1.4-10.2
					c-0.1-4.3,0.3-7.9,0.9-10.8l0.5,0.1c0.1,0.1,0.2,0.1,0.3,0.2l-0.3,0.5c2.1,2.8,4.2,6,6.3,9.6C56.9,24.1,57.8,25.9,58.6,27.6z"/>
			</g>
		</g>
	</g>
</g>
<path class="st4" d="M62.8,172.5c-3.7-4.4-8.2-8-12.7-11.5c-4.4-3.5-8.3-7.6-12-11.9c-3.7-4.3-6.7-9-7.8-14.7
	c-1.3-6.5-0.3-13.4,0.5-19.9c0.3-2.2-3.1-3.2-3.4-0.9c-1.5,10.9-2.6,22.3,3.6,32.1c2.9,4.5,6.6,8.4,10.3,12.3
	c3.9,4.1,8.6,7.3,12.9,11.1c3.8,3.4,11.4,9.5,7.8,15.3c-1.2,1.9,1.8,3.7,3.1,1.8C68.1,181.5,66,176.2,62.8,172.5z"/>
<path class="st4" d="M87.2,156.4c-2.8,9.2-4.4,19-5.1,28.6c-0.2,2.3,3.4,2.3,3.6,0c0.7-9.2,2.3-18.7,5-27.6
	C91.2,155.2,87.8,154.2,87.2,156.4z"/>
<path class="st4" d="M59.8,143.3c-5.1-1.6-8.6-6.8-11.2-11.2c-3.1-5.4-3.8-11.4-2.9-17.5c0.3-2.2-3.1-3.2-3.4-0.9
	c-1.1,7.1-0.4,13.9,3.2,20.2c3,5.3,7.3,10.9,13.3,12.8C61,147.4,61.9,143.9,59.8,143.3z"/>
<path class="st4" d="M107.2,129.9c-1.5,2.5-2.7,5.1-3.8,7.8c-1,2.7-1.5,5.7-3.1,8.2c-1.3,1.9,1.8,3.7,3.1,1.8
	c1.6-2.4,2.1-5.2,3.1-7.8c1-2.8,2.3-5.5,3.8-8.1C111.4,129.8,108.3,128,107.2,129.9z"/>
<path class="st4" d="M59.3,181.7c-9.2,0.2-18-0.5-26-5.5c-3.5-2.2-6.6-4.9-9.5-7.8c-2.9-2.9-6-6-8-9.5c-4.2-7.4-1.9-16.6-0.1-24.3
	c1.1-4.6,2.1-9.1,3.7-13.5c1.5-4.5,3.7-8.7,5.8-12.9c4.4-9,8.7-18.1,13.5-26.9c2.9,8.6,6.7,16.8,7.6,16.5c0.3-0.1,0.2-1,0.2-1.7
	c-0.7-8-4.3-15.2-4.8-17c-1-3.7-4.1-9.3-3.7-16c0.4-6.7,3.5-12.5,8.9-22.5c2.5-4.5,3.9-6.7,3.5-7c-0.8-0.6-7.2,4.5-11.2,11.7
	c-2.9,5-5,10-4.9,15.9c0.1,4.9,0.9,8.8,3.1,15.9c-0.3,0.1-0.6,0.4-0.8,0.8c-4.9,8.9-9.3,18.1-13.8,27.3c-2.2,4.4-4.5,8.8-6.2,13.4
	c-1.8,4.7-2.9,9.6-4.1,14.4c-2,8.4-4.2,17.8-0.5,26.1c1.7,3.9,4.8,7.1,7.7,10.2c2.9,3.1,6,5.9,9.5,8.4c3.9,2.8,8.3,5.1,13.1,6.2
	c5.6,1.4,11.4,1.4,17.1,1.3C61.5,185.2,61.5,181.6,59.3,181.7z"/>
<g>
	<g>
		<path class="st3" d="M77.5,38.6c-0.7,0.8-1.1,1.7-1.2,2.7c-0.2,1-0.4,2.5,0.5,3.2c0.7,0.5,1.5,0.7,2.3,0.3
			c1.4-0.7,1.3-2.8,1.7-4.1c0.5-2.1-2.3-3.2-3.4-1.4c-0.1,0.1-0.1,0.2-0.2,0.2c-0.6,0.8-0.2,2.1,0.7,2.6c0.9,0.5,2,0.2,2.6-0.7
			c0.1-0.1,0.1-0.2,0.2-0.2c-1.1-0.5-2.3-1-3.4-1.4c-0.1,0.5-0.2,1-0.3,1.5c0,0.2-0.1,0.5-0.1,0.7c0,0.1,0,0.1,0,0.2
			c-0.1,0.4,0,0.3,0.5-0.5c0.8,0.1,1.5,0.2,2.3,0.3c0,0,0,0-0.1,0c0.2,0.3,0.3,0.5,0.5,0.8c0.1,0.5,0.1-0.2,0.1-0.3
			c0,0.1,0.1-0.4,0.1-0.4c0.1-0.2,0.1-0.4,0.2-0.7c-0.1,0.2,0.2-0.3,0,0c0.7-0.8,0.8-1.9,0-2.7C79.5,37.9,78.2,37.9,77.5,38.6
			L77.5,38.6z"/>
	</g>
</g>
<g>
	<g>
		<path class="st3" d="M50,39.7c-0.3,0.5-0.7,1-0.9,1.7c-0.3,0.9-0.2,2.2,0.6,2.8c1,0.8,2.5,0.4,3-0.8c0.3-0.6,0.5-1.3,0.8-1.9
			c0.3-0.9-0.4-2.1-1.3-2.3c-1.1-0.2-1.9,0.3-2.3,1.3c-0.1,0.3-0.2,0.6-0.3,0.8c0-0.1,0-0.1,0.1-0.2c0,0.1-0.1,0.2-0.1,0.3
			c0,0.1-0.1,0.2-0.2,0.3c0.2-0.2,0.5-0.5,0.7-0.7c0,0,0,0-0.1,0c0.6,0,1.3,0,1.9,0c0,0,0,0,0,0c0.2,0.2,0.5,0.5,0.7,0.7
			c0.2,0.3,0.2,0.6,0.1,0.9c0,0,0-0.1,0-0.1c-0.2,0.5,0,0,0.1-0.1c0.2-0.3,0.3-0.5,0.5-0.8c0.5-0.8,0.2-2.1-0.7-2.6
			C51.6,38.5,50.6,38.8,50,39.7L50,39.7z"/>
	</g>
</g>
<path class="st3" d="M48.4,11.8c-0.3,3-0.5,6-0.8,9c-0.2,2.6-0.6,5.3-0.2,7.9c0.2,1.5,0.6,2.9,1.3,4.2c0.6,1,2.1,0.1,1.5-0.9
	c-1.6-2.7-1.3-6.1-1-9.1c0.3-3.7,0.6-7.5,1-11.2c0-0.5-0.4-0.9-0.9-0.9C48.7,10.9,48.4,11.3,48.4,11.8L48.4,11.8z"/>
<path class="st3" d="M64.5,25.3c3.5-0.9,7-1.7,10.6-2.2c3.5-0.5,7.1-0.7,10.6-0.4c2,0.2,4,0.5,6,0.9c1.1,0.2,1.6-1.5,0.5-1.7
	c-3.6-0.8-7.3-1.1-11-1.1c-3.7,0.1-7.4,0.6-11,1.4c-2,0.4-4.1,0.9-6.1,1.4C62.9,23.9,63.4,25.6,64.5,25.3L64.5,25.3z"/>
<path class="st3" d="M92.9,23.4c1.2-1,2.3-2.1,3.4-3.2c1.2-1.1,2.4-2.1,3.8-2.9c1.4-0.9,2.9-1.8,4.3-2.7c1.3-0.8,2.7-1.7,4.2-2.2
	c1.1-0.4,0.6-2.1-0.5-1.7c-1.6,0.5-3.1,1.4-4.5,2.3c-1.5,0.9-3,1.9-4.5,2.8c-1.4,0.9-2.8,1.9-4,3.1c-1.2,1.1-2.3,2.3-3.5,3.3
	c-0.4,0.3-0.3,0.9,0,1.3C92,23.8,92.5,23.7,92.9,23.4L92.9,23.4z"/>
<path class="st3" d="M107.6,11.9c2.1,5.4,3.3,11.1,3.4,16.9c0,1.6-0.1,3.3-0.2,4.9c0,0.5,0.4,0.9,0.9,0.9c0.5,0,0.8-0.4,0.9-0.9
	c0.5-5.9,0-11.8-1.6-17.5c-0.4-1.6-1-3.2-1.6-4.7c-0.2-0.4-0.6-0.8-1.1-0.6C107.8,11,107.4,11.5,107.6,11.9L107.6,11.9z"/>
<path class="st3" d="M107.6,10.9c-4.1,5.1-7.4,10.8-9.8,16.9c-0.2,0.5,0.2,1,0.6,1.1c0.5,0.1,0.9-0.2,1.1-0.6
	c2.3-5.8,5.5-11.2,9.4-16.1c0.3-0.4,0.4-0.9,0-1.3C108.6,10.6,107.9,10.5,107.6,10.9L107.6,10.9z"/>
<path class="st3" d="M49.2,12.9c5.4,3.3,10.2,7.5,14.4,12.2c0.3,0.4,0.9,0.3,1.3,0c0.4-0.4,0.3-0.9,0-1.3
	c-4.3-4.9-9.3-9.1-14.8-12.5C49.2,10.8,48.2,12.3,49.2,12.9L49.2,12.9z"/>
<path class="st3" d="M48.9,13.2c3.5,4.8,6.6,9.9,9.2,15.2c0.2,0.4,0.8,0.5,1.2,0.3c0.4-0.3,0.5-0.8,0.3-1.2
	c-2.6-5.4-5.7-10.4-9.2-15.2c-0.3-0.4-0.8-0.6-1.2-0.3C48.9,12.2,48.6,12.8,48.9,13.2L48.9,13.2z"/>
<path class="st3" d="M49.1,32.5c-2.2,1.8-4.2,3.7-6,5.8c-1.7,1.8-3.3,3.8-4.7,5.8c-2.5,3.6-4.2,8-4.7,12.4c-0.3,3.1,0.1,6.2,0.6,9.3
	c0.8,4.6,1.9,9,3.2,13.5c1.7,5.7,3.7,11.2,5.8,16.7c0.3,0.8,0.6,1.5,0.9,2.3c0.2,0.4,0.6,0.8,1.1,0.6c0.4-0.1,0.8-0.7,0.6-1.1
	c-2.3-5.5-4.3-11.2-6.1-16.9c-1.4-4.5-2.7-9.1-3.5-13.8c-0.6-3.2-1.1-6.2-0.9-9.5c0-0.3,0-0.6,0.1-0.9c0-0.1,0-0.3,0-0.4
	c0,0,0,0.2,0,0c0-0.1,0-0.1,0-0.2c0.2-1.3,0.5-2.7,0.9-4c0.6-1.9,1.3-3.6,2.3-5.3c1.3-2.2,2.9-4.1,4.5-6.1c1.6-1.9,3.4-3.7,5.2-5.4
	c0.6-0.5,1.2-1,1.8-1.5c0.4-0.3,0.3-0.9,0-1.3C50,32.1,49.4,32.2,49.1,32.5L49.1,32.5z"/>
<path class="st3" d="M111.1,34.3c2.6,4.1,4.8,8.4,6.7,12.8c1.7,3.8,2.8,7.7,3.1,11.8c0.2,2.9,0.1,5.9-0.3,8.8
	c-0.1,0.5,0.4,0.9,0.9,0.9c0.5,0,0.8-0.4,0.9-0.9c0.6-4.7,0.5-9.6-0.6-14.2c-0.5-2-1.2-4-2-6c-1.1-2.6-2.3-5.2-3.6-7.7
	c-1.2-2.2-2.4-4.4-3.7-6.5C112.1,32.4,110.5,33.3,111.1,34.3L111.1,34.3z"/>
<path class="st3" d="M121.1,57c6.8,13.3,13,26.9,18.8,40.7c1.6,3.8,3.6,7.6,5.3,11.4c2.6,5.8,4.9,11.8,6.6,17.9
	c1.8,6.3,3.1,12.7,2.8,19.2c-0.3,5.7-1.7,11.4-4.1,16.6c-3.9,8.3-10.8,15-18.9,19.2c-9,4.6-19.7,5.7-29.4,3.2
	c-0.6-0.1-1.2-0.3-1.8-0.5c-1.1-0.3-1.6,1.4-0.5,1.7c10.1,3,21.2,2.3,30.8-2.1c8.5-3.9,15.9-10.6,20.3-18.8c2.2-4,3.7-8.5,4.5-13
	c1.3-6.8,1-13.6-0.6-20.3c-1.5-6.6-3.6-13-6.2-19.2c-1.9-4.7-4.1-9.2-6.3-13.8c-1.1-2.4-2.1-4.9-3.2-7.4c-1.6-3.6-3.1-7.2-4.7-10.7
	c-3.1-6.8-6.3-13.6-9.6-20.3c-0.8-1.6-1.6-3.2-2.4-4.7C122.1,55,120.6,55.9,121.1,57L121.1,57z"/>
<path class="st12" d="M38.7,46.5"/>
<path class="st3" d="M36.7,75.2C32,83.5,27.6,92,23.5,100.6c-2.6,5.5-5.1,11-7.4,16.6c-2,4.9-4.1,9.8-5.6,14.8
	c-2.9,10.1-2.9,21.2,1.6,30.8c2.2,4.7,5.5,8.8,9.4,12.1c3.1,2.6,6.5,4.6,10.1,6.4c4.5,2.1,9.1,3.9,13.9,4.9
	c4.6,0.9,9.4,1.3,14.1,1.1c0.8,0,1.7-0.1,2.5-0.2c0.5,0,0.9-0.4,0.9-0.9c0-0.4-0.4-0.9-0.9-0.9c-4.1,0.4-8.3,0.3-12.5-0.2
	c-5.3-0.7-10.4-2.3-15.3-4.5c-3.2-1.5-6.4-3.1-9.3-5.1c-3.8-2.7-7.2-6.1-9.6-10.1c-5.5-8.9-6.4-20.1-4-30.1c1.1-4.8,3-9.4,4.8-14
	c2.2-5.6,4.7-11.1,7.2-16.6c4.1-8.9,8.6-17.6,13.4-26.2c0.4-0.8,0.9-1.6,1.3-2.3C38.8,75.1,37.2,74.2,36.7,75.2L36.7,75.2z"/>
<path class="st3" d="M97.1,180.6c0.6,1,1.3,2.2,1.7,3.3c0.1,0.3,0.2,0.6,0.2,0.9c0,0-0.1,0.2,0,0.1c-0.1,0.2-0.4,0.4-0.6,0.5
	c-0.8,0.6-1.7,1-2.6,1.4c-3.7,1.4-8,1.3-11.5-0.7c-0.8-0.4-1.5-1-1.8-1.9c-0.1-0.4-0.2-0.9-0.1-1.4c0-0.1,0-0.1,0-0.2c0,0.2,0,0,0,0
	c0-0.1,0-0.1,0-0.2c0.1-0.8,0.3-1.5,0.4-2.3c0.6-2.9,1.2-5.9,1.8-8.8c1-5,2.1-10,3.2-15c0.2-1.1-1.5-1.6-1.7-0.5
	c-1.7,7.9-3.4,15.9-4.9,23.8c-0.2,0.8-0.3,1.6-0.4,2.3c-0.2,0.9-0.2,1.9,0.2,2.7c0.4,1.1,1.2,2,2.2,2.6c1.8,1.2,4.1,1.8,6.3,2
	c2.2,0.2,4.4-0.1,6.5-0.8c1.2-0.4,2.3-0.9,3.3-1.6c0.6-0.4,1.2-0.8,1.5-1.6c0.2-0.5,0.1-1,0-1.5c-0.2-0.9-0.7-1.8-1.1-2.6
	c-0.3-0.6-0.6-1.1-0.9-1.7C98,178.7,96.5,179.6,97.1,180.6L97.1,180.6z"/>
<path class="st3" d="M135.5,122.1c0.7,2.6,0.5,5.3,0.4,8c-0.2,2.7-0.5,5.3-1.1,7.9c-1.1,4.6-3.4,8.8-6.3,12.6
	c-2.9,3.8-6.4,7.2-10,10.3c-1.9,1.7-4,3.4-6.1,4.8c-1.9,1.3-4,2.4-6.1,3.6c-2.2,1.2-4.3,2.4-6.1,4.1c-1.8,1.6-4,4.3-3.2,6.9
	c0.3,1.1,2.1,0.6,1.7-0.5c-0.4-1.1,0.3-2.3,0.9-3.2c0.6-0.8,1.3-1.6,2.1-2.3c1.6-1.4,3.5-2.5,5.3-3.5c2-1.1,4.1-2.2,6-3.5
	c2.2-1.5,4.2-3.1,6.2-4.8c7.2-6.2,14.3-13.6,16.9-23c0.8-2.9,1.2-6,1.4-9c0.2-3,0.4-6.1-0.4-9C136.9,120.5,135.2,121,135.5,122.1
	L135.5,122.1z"/>
<path class="st3" d="M26.6,113.5c-0.8,7.1-1.2,14.3,0,21.3c0.5,3.1,1.4,6.2,2.8,9.1c1.1,2.4,2.6,4.8,4.1,6.9
	c2.9,4,6.4,7.6,10.1,10.9c2.1,1.8,4.3,3.5,6.5,5.1c0.2,0.1,0.4,0.3,0.6,0.4c0.1,0.1-0.1-0.1,0.1,0.1c0.1,0.1,0.2,0.1,0.2,0.2
	c0.2,0.2,0.4,0.3,0.6,0.5c1,0.9,2.1,1.8,3,2.7c2.4,2.3,4.5,4.8,6.4,7.6c0.3,0.5,0.6,1,0.9,1.4c0-0.3,0-0.6,0-0.9
	c-1.1,1.9-2.1,4.4-1.1,6.6c0.8,1.8,2.8,2.7,4.6,3.1c1.9,0.3,3.9,0.3,5.9,0.2c2.1-0.1,4.3-0.2,6.4-0.9c1.7-0.5,3.7-1.6,4.2-3.5
	c0.4-1.5,0-3.2-0.3-4.7c-0.8-4.1-1.8-8.1-2.7-12.2c-0.7-3.3-1-6.5-1-9.9c0-0.7,0-1.5,0-2.2c0-1.1-1.7-1.1-1.8,0
	c-0.1,3.9,0.1,7.8,0.8,11.6c0.6,3.2,1.4,6.3,2.1,9.5c0.3,1.2,0.5,2.3,0.8,3.5c0.1,0.5,0.2,0.9,0.2,1.4c0,0.1,0,0.2,0.1,0.3
	c0,0.1,0,0.1,0,0.1c0,0,0-0.1,0,0c0,0.2,0,0.4,0.1,0.6c0,0.3,0,0.6,0,1c0,0.1,0,0.2,0,0.4c0-0.3,0,0.1,0,0.2c0,0.1-0.1,0.3-0.1,0.2
	s0,0,0,0c-0.1,0.1-0.1,0.2-0.2,0.3c-0.2,0.3-0.5,0.6-0.8,0.8c-1.5,1.2-3.6,1.4-5.5,1.6c-1.8,0.2-3.7,0.3-5.5,0.2
	c-1.7,0-3.6-0.2-4.9-1.2c-0.2-0.1-0.5-0.5-0.6-0.7c-0.2-0.4-0.4-0.8-0.4-1.2c-0.1-1,0.2-2.1,0.7-3c0.2-0.4,0.4-0.8,0.6-1.1
	c0.2-0.3,0.2-0.6,0-0.9c-3.1-4.9-7-9.3-11.6-12.8c-0.7-0.6-1.5-1.1-2.2-1.6c-0.2-0.2-0.5-0.4-0.7-0.6c-0.1-0.1-0.1-0.1-0.2-0.1
	c0.2,0.1,0,0-0.1-0.1c-0.2-0.1-0.3-0.2-0.4-0.3c-0.7-0.5-1.3-1.1-2-1.6c-3.6-3-7-6.3-10-10c-1.6-2-3.1-4.2-4.4-6.5
	c-1.4-2.6-2.4-5.3-3.1-8.1c-1.6-6.8-1.4-14-0.7-20.9c0.1-0.9,0.2-1.8,0.3-2.6c0-0.5-0.4-0.9-0.9-0.9C27,112.6,26.6,113,26.6,113.5
	L26.6,113.5z"/>
<path class="st3" d="M41.5,114.1c-1.5,6-1,12.4,1.4,18.1c1.2,2.9,2.9,5.5,5.1,7.7c1.9,1.9,4.2,3.6,6.4,5.1c2.6,1.7,5.4,3,8.4,4
	c0.4,0.1,0.8-0.1,1-0.4c0.2-0.4,0.1-0.8-0.1-1.1c-3.6-4.6-5.7-10.4-6-16.3c-0.1-1.1-1.8-1.1-1.8,0c0.2,5.1,1.7,10.1,4.4,14.4
	c0.7,1.1,1.4,2.1,2.2,3.1c0.3-0.5,0.6-1,0.9-1.5c-4.9-1.7-9.4-4.4-13.2-7.9c-1-0.9-2-1.9-2.8-3.1c-0.9-1.2-1.6-2.5-2.2-3.8
	c-1.2-2.6-2-5.4-2.4-8.2c-0.4-3.2-0.2-6.6,0.6-9.7C43.5,113.5,41.8,113,41.5,114.1L41.5,114.1z"/>
<path class="st3" d="M122.6,124.7c-2.2,4.3-5,8.1-8.7,11.2c-1.8,1.5-3.9,2.7-5.8,4.2c-2.1,1.6-3.9,3.5-5.4,5.8
	c-1.4,2.3-2.4,4.9-3,7.6c0.6,0.1,1.2,0.2,1.7,0.2c-0.5-6.9,1.1-13.9,4.5-19.9c0.7-1.3,1.6-2.6,2.5-3.8c0.3-0.4,0.1-1-0.3-1.2
	c-0.4-0.3-0.9-0.1-1.2,0.3c-4.2,5.7-6.7,12.6-7.2,19.6c-0.1,1.7-0.1,3.3,0,5c0.1,0.9,1.5,1.3,1.7,0.2c1.1-4.8,3.5-9.1,7.4-12.1
	c1.9-1.5,4-2.7,5.9-4.2c1.7-1.3,3.2-2.8,4.5-4.4c1.9-2.3,3.6-4.8,4.9-7.5C124.6,124.6,123.1,123.7,122.6,124.7L122.6,124.7z"/>
<path class="st3" d="M62.9,50.2c-0.2-0.6-0.3-1.3-0.4-1.9c0,0-0.2-0.8-0.1-0.8c-0.6,0.2-0.1,0.2,0,0.2c0,0,0.4-0.1,0.5-0.1
	c0.6,0,1.2,0,1.8,0.2c0.2,0,0.4,0.1,0.5,0.2c-0.1-0.2,0-0.1,0-0.1c-0.1,0.1-0.1,0.2-0.2,0.2c-0.4,0.3-1,0.4-1.5,0.7
	c-0.5,0.3-1,0.7-1.4,1.1c-0.8,0.8-1.4,1.9-1.6,3c-0.5,2.3,0.5,4.8,2.6,6c2,1.2,4.6,1,6.7,0.3c1.3-0.4,2.6-1,3.5-2.1
	c0.9-1.1,1.4-2.5,1-4c-0.3-1.1-2-0.6-1.7,0.5c0.7,2.4-2.2,3.7-4,4.1c-1.9,0.4-4.3,0.4-5.6-1.3c-1.3-1.7-1-4,0.5-5.4
	c0.3-0.3,0.8-0.6,1.2-0.8c0.6-0.3,1.2-0.5,1.6-0.9c0.4-0.4,0.7-1,0.7-1.6c-0.1-0.8-0.7-1.3-1.3-1.6c-0.7-0.3-1.5-0.4-2.2-0.4
	c-0.7,0-1.6,0-2.2,0.5c-0.6,0.6-0.5,1.3-0.4,2.1c0.1,0.8,0.3,1.5,0.5,2.2C61.5,51.8,63.2,51.3,62.9,50.2L62.9,50.2z"/>
<path class="st3" d="M53.8,50.5c-0.6,2.2-1,5.1,1.1,6.7c2,1.5,4.5,0.7,6.4-0.5c-0.4-0.5-0.7-0.9-1.1-1.4c-0.8,0.7-1.8,1.4-2.5,2.2
	c-0.6,0.6-1,1.4-1.3,2.2c-0.5,1.2-0.4,2.5,0,3.7c0.6,1.6,1.5,2.9,2.5,4.2c1.3,1.7,2.7,3.3,4.1,4.9c1.4,1.6,2.8,3.1,4.3,4.6
	c0.8,0.8,2.1-0.5,1.3-1.3c-2.7-2.6-5.2-5.4-7.5-8.2c-1-1.2-2-2.5-2.7-3.9c-0.2-0.5-0.5-1-0.6-1.6c0,0,0-0.3,0-0.2c0,0.1,0-0.2,0-0.2
	c0-0.1,0-0.2,0-0.3c0-0.1,0-0.1,0-0.2c0-0.3,0,0.1,0-0.1c0-0.1,0.1-0.3,0.1-0.4c0.2-0.6,0.5-1.3,0.9-1.8c0.3-0.4,0.8-0.7,1.2-1.1
	c0.5-0.4,1-0.8,1.5-1.3c0.8-0.7-0.2-2-1.1-1.4c-1.2,0.8-3.1,1.7-4.5,0.6c-1.4-1.1-0.8-3.3-0.4-4.7C55.9,49.8,54.1,49.4,53.8,50.5
	L53.8,50.5z"/>
<path class="st3" d="M74.4,45.6c-0.1-1.3,0.1-2.7,0.8-3.9c0.8-1.3,2.2-2.2,3.6-2.6c2.7-0.9,6.2-0.6,8,1.9c1,1.3,1.6,3,2,4.6
	c0.1-0.3,0.3-0.7,0.4-1c-1.9,0.9-4.2,1.6-6.5,1.8c-3,0.3-6.1-0.2-8.8-1.5c-1-0.5-1.9,1-0.9,1.5c3,1.5,6.4,2.2,9.7,1.8
	c2.6-0.3,5-1,7.4-2.1c0.4-0.2,0.5-0.7,0.4-1c-0.4-1.6-1-3.4-2-4.8c-1.2-1.7-2.9-3-5-3.3c-1.5-0.3-3.1-0.2-4.6,0.2
	c-1.8,0.5-3.6,1.5-4.8,2.9c-1.2,1.5-1.7,3.5-1.5,5.5c0,0.5,0.4,0.9,0.9,0.9C74,46.5,74.5,46.1,74.4,45.6z"/>
<path class="st3" d="M60.4,45.5c0.7-2.7-0.1-6-2.8-7.4c-1.1-0.6-2.4-0.7-3.6-0.7c-1.2,0.1-2.4,0.3-3.5,0.8c-1.3,0.6-2.4,1.9-3.3,3
	c-0.5,0.6-0.9,1.2-1.2,1.8c-0.3,0.6-0.5,1.3-0.3,2c0.3,1,1.3,1.5,2.2,1.8c1.1,0.4,2.3,0.6,3.5,0.7c2.9,0.2,5.8-0.2,8.4-1.4
	c0.4-0.2,0.5-0.8,0.3-1.2c-0.3-0.5-0.8-0.5-1.2-0.3c-2,0.8-4.1,1.3-6.2,1.2c-1,0-2-0.1-2.9-0.3c-0.9-0.2-1.6-0.4-2.3-0.8
	c0,0-0.1,0-0.1-0.1c0,0,0.1,0.1,0,0c0,0-0.1-0.1-0.2-0.2c-0.1-0.1,0,0,0,0c0,0-0.1-0.1-0.1-0.1c0,0.2,0,0,0,0c0,0,0,0,0.1-0.1
	c0-0.1,0.1-0.2,0.1-0.3c0.1-0.3,0.3-0.6,0.4-0.8c0.7-1,1.5-2,2.5-2.8c0.8-0.7,1.8-0.9,2.8-1.1c0.1,0,0.2,0,0.4,0c0.2,0,0.5,0,0.8,0
	c0.5,0,0.9,0,1.3,0.1c2.6,0.6,3.5,3.3,2.8,5.7C58.4,46.1,60.1,46.6,60.4,45.5z"/>
<path class="st3" d="M154.6,157.1c1.1-5.8,3-11.4,6.3-16.4c1.3-2,2.6-3.6,4.3-5.4c2.1-2.2,4.3-4.3,6.4-6.4
	c4.2-4.3,8.4-9.1,10.5-14.8c0.6-1.6,0.9-3.2,1.1-4.9c0.1-1.4,0-2.8,0-4.3c0-0.2,0-0.4,0-0.6c0,0.2,0,0.1,0,0
	c-0.1,0.2-0.1,0.3-0.4,0.4c-0.1,0.1-0.2,0.1-0.4,0.1c-0.2,0-0.1,0,0,0c0,0-0.2-0.1-0.1,0s-0.1-0.2,0,0c0.1,0.1,0.1,0.1,0.2,0.2
	c0.4,0.4,0.4,0.5,0.7,0.9c0.3,0.5,0.6,1,0.9,1.5c2.9,4.9,4.8,10.3,5.3,16c0.6,6.1-0.2,12.3-2,18.2c-1.6,5.2-4,10.2-7.1,14.6
	c-0.3,0.5-0.7,0.9-1,1.4c-0.1,0.1-0.1,0.1-0.1,0.2c0,0-0.1,0.1-0.1,0.1c0,0,0.1-0.1,0,0c-0.1,0.1-0.2,0.3-0.4,0.4
	c-0.2,0.3-0.5,0.6-0.7,0.9c-1.2,1.5-2.6,2.9-3.9,4.2c-3.7,3.6-8,6.6-12.6,8.9c-5.8,2.9-12.2,4.6-18.7,4.9c-1.2,0.1-2.5,0.1-3.7,0.1
	c-1.1,0-1.1,1.8,0,1.8c6.5,0.1,13.1-1,19.1-3.3c5.4-2.1,10.3-5.1,14.7-8.8c3-2.6,5.7-5.4,8.1-8.6c2.9-3.8,5.1-8,6.8-12.4
	c2.3-6,3.6-12.4,3.6-18.8c0-3.1-0.3-6.2-1-9.2c-0.7-2.9-1.7-5.7-3-8.3c-0.6-1.3-1.3-2.5-2-3.7c-0.5-0.8-1-1.7-1.8-2.4
	c-0.3-0.3-0.7-0.5-1.1-0.5c-0.6,0-0.9,0.4-1.1,0.9c-0.1,0.4-0.1,0.9-0.1,1.4c0,0.7,0.1,1.4,0.1,2.1c0,3.2-0.9,6.2-2.4,9.1
	c-1.5,2.8-3.3,5.3-5.3,7.6c-3.9,4.5-8.7,8.3-12.4,13c-3.4,4.3-5.7,9.2-7.2,14.4c-0.5,1.7-0.9,3.4-1.2,5.1c-0.1,0.5,0.1,1,0.6,1.1
	C154,157.9,154.6,157.6,154.6,157.1L154.6,157.1z"/>
<g>
	<g>
		<path class="st5" d="M25.6-34.9c1.6-0.6,3.7-1.6,5.4-0.7c1.1,0.6,1.8,1.8,2.8,2.5c2,1.3,4,1.1,5.9-0.3c1.9-1.4,0-4.7-1.9-3.2
			c-2,1.5-4.2-2.2-6.2-2.8c-2.4-0.8-4.8,0-7.1,0.9C22.3-37.6,23.3-34,25.6-34.9L25.6-34.9z"/>
	</g>
</g>
<g>
	<g>
		<path class="st5" d="M14.8-34.8c0.3,0,0.9-0.2,1.3-0.1c0.2,0,0.5,0.4,0.7,0.5c0.8,0.6,1.6,1.2,2.4,1.8c1.6,1.2,3,0.6,4.2-0.8
			c1.5-1.8-1.1-4.5-2.6-2.7c-0.3,0.3-0.4,0.6-0.8,0.7c0.6,0,1.3,0,1.9,0c-1.3-0.7-2.3-1.8-3.5-2.6c-0.5-0.3-1-0.6-1.7-0.7
			c-0.6-0.1-1.2,0.1-1.8,0.1C12.4-38.8,12.4-35,14.8-34.8L14.8-34.8z"/>
	</g>
</g>
<g>
	<g>
		<path class="st5" d="M53.4,42.3c1.9,0,1.9-3,0-3S51.4,42.3,53.4,42.3L53.4,42.3z"/>
	</g>
</g>
<g>
	<g>
		<path class="st5" d="M80.9,41.7c1.9,0,1.9-3,0-3S79,41.7,80.9,41.7L80.9,41.7z"/>
	</g>
</g>
</svg>
