<?xml version="1.0" encoding="utf-8"?>
<!-- Generator: Adobe Illustrator 26.0.3, SVG Export Plug-In . SVG Version: 6.00 Build 0)  -->
<svg version="1.1" id="Слой_1" xmlns="http://www.w3.org/2000/svg" xmlns:xlink="http://www.w3.org/1999/xlink" x="0px" y="0px"
	 viewBox="0 0 200 200" style="enable-background:new 0 0 200 200;" xml:space="preserve">
<style type="text/css">
	.st0{fill:#7C5226;}
	.st1{fill:#895D2C;}
	.st2{fill:#FFE006;}
	.st3{fill:#472D1C;}
	.st4{fill:#936334;}
	.st5{fill:#FFFFFF;}
	.st6{fill:none;stroke:#472D1C;stroke-width:1.25;stroke-miterlimit:10;}
	.st7{fill:#BC863F;}
	.st8{fill:#C89242;}
	.st9{fill:#A3966A;}
	.st10{fill:#D8A159;}
	.st11{fill:none;stroke:#472D1C;stroke-width:0.9;stroke-miterlimit:10;}
	.st12{fill:none;stroke:#472D1C;stroke-miterlimit:10;}
	.st13{fill:#FFFFFF;stroke:#FFFFFF;stroke-miterlimit:10;}
</style>
<g>
	<g>
		<g id="XMLID_00000181789037758601118630000007307674952649447327_">
			<g>
				<path class="st0" d="M637.7-107.5c5,13.5,1.9,31.2-7,44.5C628.6-60,619.4-47,602-41.7c-6.6,2-12.4,2.3-16.4,2.2
					c0.7-0.5,1.3-1.1,2-1.6l0.9,0.2c3.9-1.2,7.2-3.7,10.4-6.1c8.6-6.6,17.4-13.4,23.7-22.2c8.9-12.4,12.3-28.7,9.1-43.6l-0.4,0
					c0.2-3-0.3-5.1,0.2-5.2C632.6-118.5,636-112.1,637.7-107.5z"/>
				<path class="st1" d="M601.4-63.5c0.2-0.8,0.4-1.7,0.6-2.5c2.1-8.2,5.5-13.6,8.5-17.2c5-6.1,12.7-11.6,17.4-19.7
					c1.3-2.3,3-5.2,3.4-9.3c0-0.2,0-0.5,0.1-0.7l0.4,0c3.2,15-0.2,31.2-9.1,43.6c-6.3,8.8-15.1,15.6-23.7,22.2
					c-3.2,2.5-6.5,5-10.4,6.1l-0.9-0.2c3.4-3,6.9-6.9,9.8-12C597.9-54.1,599.9-57.8,601.4-63.5z"/>
				<path class="st0" d="M585.6-39.4c-4.5,3.5-8.5,5.3-9.9,5.9c-15,6.5-28.5,2.6-31.9,1.5c0-0.1,0.2-0.4,0.1-0.9l0.1,0
					c3.3,0.3,26.5,2.2,38.8-13c5.5-6.8,7.5-15.3,8.6-20.5c2.3-10.4,1.6-18.8,1.1-23.5c-2.9-28-21.9-62-24.9-67.3l-0.5-0.1
					c0.5-4.4,0.4-8.2-0.1-11.2l0.3-0.1c6.8,13.3,13.5,27.7,20,43.1c2.5,6,9.8,18.8,13.9,35.8c1.2,4.7,2.3,10.5,1.7,17.8
					c-0.2,2.1-0.5,4-0.9,5.8c-0.2,0.8-0.4,1.7-0.6,2.5c-1.5,5.6-3.5,9.4-4,10.4c-2.8,5.1-6.3,9.1-9.8,12
					C586.9-40.5,586.2-39.9,585.6-39.4z"/>
				<path class="st1" d="M568.2-94.5c-2.6,4.8-5.5,7.9-7.7,9.9c-4.6,4.2-8,5-11.5,9.5c-2.6,3.3-3.8,6.8-4.3,9.3l0.3,0.1
					c1.8-2.6,3.7-5.2,6-7.3c3.7-3.5,8.4-6,11.6-9.9C565.3-86.3,566.8-90.5,568.2-94.5L568.2-94.5z M504.1-174.4
					c0.6-0.7,1.3-1.2,2.1-1.6c0.5-0.2,0.9-0.4,1.3-0.7c0.4-0.3,0.6-0.9,0.4-1.3c-0.1-0.3-0.5-0.4-0.8-0.6c-1-0.4-2-0.5-3-0.3
					c-0.3,0.1-0.6,0.1-0.8,0.4c-0.1,0.2-0.1,0.5-0.1,0.8c0.1,0.9,0.3,1.8,0.6,2.7L504.1-174.4z M498.3-89.3l-0.2,0.1
					c0.1,2.5,0.6,6.3,2.3,10.4c1.2,3,2.8,5.4,4.1,7.1l0.5-0.1C503.6-77.9,501.4-83.8,498.3-89.3z M567-157.2l0.5,0.1
					c3,5.3,22,39.3,24.9,67.3c0.5,4.7,1.3,13.1-1.1,23.5c-1.2,5.1-3.1,13.7-8.6,20.5c-12.3,15.1-35.5,13.3-38.8,13l-0.1,0
					c0.1,0.5,0,0.8-0.1,0.9c-0.2,0.4-0.5,0.6-0.8,0.8c-4.5,3.1-10.6,3.6-15.5,1.2c-1.2-0.6-2.4-1.5-2.9-2.8c-0.2-0.5-0.2-1-0.2-1.3
					c0-0.4,0-0.8,0.1-1c0.4-2.3,2.3-11.8,5.1-25l-0.4-0.1c-2.7-1.1-5.7-1.9-8.5-1c-0.3,0.1-0.7,0.3-1,0.5c0,3.4,0.4,6.2,0.7,8.2
					c0.3,1.6,0.5,2.8,2.2,9.9c0.9,4.1,1.5,6.7,1.5,8.4c0,0.7-0.1,1.1-0.3,1.5c-1.7,2.9-6.2,3.2-9.7,3.4c-3,0.2-7.9,0.5-10-1.8l0,0
					c-6,0.5-17,0.7-28.9-4.6c-5.5-2.4-16.3-7.2-22.5-18.8c-3-5.6-3.8-10.7-4.2-13.3c-1.7-11.8,1.7-21.4,4.4-28.5
					c8.4-21.7,18.7-41,24.9-52c-2.6-9.7-3.6-17.1-2.9-21.1c0.6-3.4,1.7-6.3,1.7-6.3c1.8-4.5,4.2-7.4,6.8-10.5c1.7-2,4.1-4.6,7.4-7.2
					l0.2,0.1c3.8-0.6,7.2-2.8,9.4-5.9c0,0,0,0,0,0c0,0,0,0,0,0c-0.9-1.8-1.9-3.6-2.9-5.5c-2.2-3.8-4.4-7.2-6.6-10.2l0.3-0.5
					c2.4,1.5,5,3.4,7.8,5.6c3,2.5,5.4,5,7.4,7.2c4-1.3,9.5-2.6,16.2-2.8c5.3-0.2,9.9,0.4,13.5,1.1c1.9-1.5,3.4-3.4,5.2-4.9
					c1-0.8,2-1.4,3.1-2.1c1.3-0.8,2.7-1.7,4-2.5c1.5-0.9,2.9-1.8,4.5-2.4c-4.2,5.2-7.6,11.1-10.1,17.4l-0.1,0
					c-0.1,0.9,0.7,1.6,1.5,2.2c1.8,1.3,3.6,2.6,5.7,3.4c2.1,0.8,4.5,0.9,6.4,0c0.1,0,0.1-0.1,0.1-0.1l0.2,0c0,0.2,0,0.4-0.1,0.7
					l0.3,0.1c1.7,2.7,4.1,6.8,6.4,12c0.9,1.9,1.8,4,2.5,6.3c0.5,1.5,1,3.4,1.3,5.8C567.4-165.4,567.6-161.6,567-157.2z M533.1-180.3
					c-0.1-0.4-0.2-0.9-0.4-1.5c-0.5-1.5-1.3-3.7-3.3-5.2c-1.6-1.2-3.3-1.3-4.2-1.3c-0.6-0.1-2.6-0.1-4.7,0.9c-0.8,0.4-2.1,1-3.1,2.4
					c-1.4,2-1.3,4.2-1.3,5c0.7,0.4,1.5,0.7,2.4,1C524.5-176.9,530.3-179,533.1-180.3z M522.4-192.1c1.9-5.3,7.1-8.4,6.6-9
					c-0.2-0.3-1.5,0.5-2.7,1.2c-3,1.9-4.7,4-5.4,5.1c-0.5,0.6-3.4,4.8-2.5,5.8c0.4,0.4,1.5,0.1,1.5,0.1
					C521.5-189.5,522.1-191.4,522.4-192.1z M514.8-194.2c2.6-4.1,5.1-5.8,4.8-6.3c-0.3-0.4-2.4,0.8-3.3,1.3c-1.6,1-2.6,2-2.9,2.3
					c-3.9,4.2-8.7,14.4-7.4,15.2c0.2,0.1,1,0.4,1.9,0.1c0,0,0.1,0,0.1,0c1.6-0.6,2.2-2.6,3-4.9C510.9-186.4,512.5-190.7,514.8-194.2
					z M503.8-191.5c1.6-4.6,6.7-7.3,6.3-7.9c-0.3-0.3-2.1,0.7-2.9,1.2c-3,1.8-4.6,4-5,4.5c-0.9,1.4-2.4,4.1-1.7,4.9
					c0.4,0.4,1.2,0.1,1.3,0.1C503.1-189.3,503.6-190.9,503.8-191.5z M501.2-180.4c0.6-2.2,0.1-4.5-1.3-5.9c-2-1.9-4.9-1.5-6.2-1.2
					c-0.6,0.1-1.1,0.3-1.7,0.5c-0.5,0.3-1,0.7-1.5,1.1c-1.3,1.2-2.5,2.6-3,4.2c-0.1,0.2-0.1,0.4,0,0.5c0.3,1.6,4.8,2.3,7.6,2.2
					C496.4-179,498.6-179.2,501.2-180.4z"/>
				<path class="st0" d="M568.2-94.5L568.2-94.5c-1.4,4-2.9,8.2-5.6,11.5c-3.2,3.9-7.9,6.4-11.6,9.9c-2.3,2.2-4.1,4.8-6,7.3
					l-0.3-0.1c0.6-2.5,1.8-5.9,4.3-9.3c3.5-4.5,6.9-5.3,11.5-9.5C562.7-86.6,565.6-89.7,568.2-94.5z"/>
				<path class="st0" d="M556.2-193.3c0,0.1-0.1,0.1-0.1,0.1c-2,1-4.4,0.8-6.4,0c-2.1-0.8-3.9-2.1-5.7-3.4c-0.8-0.6-1.6-1.3-1.5-2.2
					l0.1,0c2.5-6.3,5.9-12.1,10.1-17.4c0.1,0,0.1-0.1,0.2-0.1l0.1,0.2c2.9,7.1,4,15,3.4,22.7L556.2-193.3z"/>
				<path class="st2" d="M532.7-181.8c0.2,0.6,0.4,1.1,0.4,1.5c-2.8,1.3-8.6,3.4-14.7,1.3c-0.9-0.3-1.7-0.6-2.4-1
					c-0.1-0.8-0.2-3,1.3-5c1-1.4,2.3-2,3.1-2.4c2.2-1,4.1-0.9,4.7-0.9c0.9,0.1,2.6,0.2,4.2,1.3C531.4-185.6,532.2-183.4,532.7-181.8
					z"/>
				<path class="st0" d="M529.1-60.2l0.4,0.1c-2.8,13.2-4.7,22.7-5.1,25c0,0.2-0.1,0.5-0.1,1H524c0-1.6-0.6-4.3-1.5-8.4
					c-1.6-7.2-1.9-8.3-2.2-9.9c-0.3-2-0.7-4.8-0.7-8.2c0.3-0.3,0.6-0.4,1-0.5C523.4-62.1,526.4-61.3,529.1-60.2z"/>
				<path class="st0" d="M529-201.1c0.5,0.6-4.7,3.7-6.6,9c-0.3,0.7-0.9,2.6-2.4,3.1c-0.1,0-1.1,0.4-1.5-0.1c-0.9-1,2-5.1,2.5-5.8
					c0.7-1,2.5-3.2,5.4-5.1C527.5-200.6,528.8-201.4,529-201.1z"/>
				<path class="st0" d="M519.5-200.5c0.4,0.4-2.1,2.2-4.8,6.3c-2.3,3.5-3.9,7.8-3.9,7.8c-0.9,2.3-1.4,4.3-3,4.9c0,0,0,0-0.1,0
					c-0.9,0.3-1.7,0-1.9-0.1c-1.3-0.8,3.5-11.1,7.4-15.2c0.3-0.3,1.3-1.4,2.9-2.3C517.1-199.7,519.2-200.9,519.5-200.5z"/>
				<path class="st0" d="M510-199.4c0.5,0.6-4.7,3.3-6.3,7.9c-0.2,0.6-0.7,2.2-2,2.7c-0.1,0-0.9,0.3-1.3-0.1
					c-0.7-0.7,0.8-3.5,1.7-4.9c0.4-0.5,1.9-2.8,5-4.5C507.9-198.7,509.8-199.7,510-199.4z"/>
				<path class="st3" d="M507.9-177.9c0.2,0.4,0,1-0.4,1.3c-0.4,0.3-0.9,0.5-1.3,0.7c-0.8,0.4-1.5,0.9-2.1,1.6l-0.3-0.5
					c-0.3-0.9-0.5-1.8-0.6-2.7c0-0.3-0.1-0.6,0.1-0.8c0.2-0.2,0.5-0.3,0.8-0.4c1-0.2,2.1-0.1,3,0.3
					C507.4-178.4,507.7-178.2,507.9-177.9z"/>
				<path class="st0" d="M505-71.7l-0.5,0.1c-1.3-1.7-2.8-4.1-4.1-7.1c-1.7-4.2-2.2-7.9-2.3-10.4l0.2-0.1
					C501.4-83.8,503.6-77.9,505-71.7z"/>
				<path class="st2" d="M499.9-186.3c1.5,1.4,1.9,3.7,1.3,5.9c-2.6,1.1-4.8,1.4-6.2,1.4c-2.8,0.1-7.3-0.5-7.6-2.2
					c0-0.1,0-0.3,0-0.5c0.6-1.6,1.8-3,3-4.2c0.5-0.4,0.9-0.8,1.5-1.1c0.5-0.3,1.1-0.4,1.7-0.5C495-187.8,497.9-188.2,499.9-186.3z"
					/>
				<path class="st1" d="M500.3-199.1C500.3-199.1,500.3-199.1,500.3-199.1C500.3-199.1,500.3-199.1,500.3-199.1
					C500.3-199.1,500.3-199.1,500.3-199.1z"/>
				<path class="st0" d="M500.3-199.1C500.3-199.1,500.3-199.1,500.3-199.1c-2.2,3.1-5.6,5.3-9.4,5.9l-0.2-0.1
					c-0.7-2.9-1.3-6.6-1.5-10.9c-0.1-4.5,0.4-8.4,1-11.5l0.5,0.1c0.1,0.1,0.2,0.1,0.3,0.2l-0.3,0.5c2.2,3,4.5,6.4,6.6,10.2
					C498.4-202.7,499.4-200.9,500.3-199.1z"/>
			</g>
		</g>
	</g>
</g>
<path class="st4" d="M504.7-45.5c-3.9-4.7-8.7-8.5-13.5-12.2c-4.7-3.7-8.8-8.1-12.7-12.6c-3.9-4.6-7.1-9.6-8.2-15.6
	c-1.3-6.9-0.4-14.2,0.6-21.1c0.3-2.4-3.3-3.4-3.6-1c-1.6,11.6-2.8,23.7,3.9,34.1c3,4.8,7,9,10.9,13c4.2,4.4,9.2,7.7,13.6,11.7
	c4,3.6,12.1,10.1,8.3,16.2c-1.3,2.1,2,4,3.2,1.9C510.3-35.9,508.1-41.5,504.7-45.5z"/>
<path class="st4" d="M530.5-62.5c-2.9,9.7-4.7,20.1-5.4,30.3c-0.2,2.4,3.6,2.4,3.8,0c0.7-9.8,2.4-19.8,5.3-29.3
	C534.8-63.8,531.2-64.8,530.5-62.5z"/>
<path class="st4" d="M501.5-76.5c-5.4-1.7-9.2-7.2-11.9-11.9c-3.3-5.7-4.1-12-3.1-18.5c0.4-2.4-3.3-3.4-3.6-1
	c-1.2,7.5-0.4,14.8,3.4,21.4c3.2,5.6,7.7,11.6,14.1,13.6C502.8-72.1,503.8-75.7,501.5-76.5z"/>
<path class="st4" d="M551.7-90.6c-1.6,2.6-2.9,5.4-4,8.2c-1.1,2.9-1.6,6.1-3.3,8.7c-1.3,2,1.9,3.9,3.2,1.9c1.7-2.5,2.3-5.5,3.2-8.3
	c1-3,2.4-5.9,4-8.6C556.2-90.8,553-92.7,551.7-90.6z"/>
<path class="st4" d="M500.9-35.7c-9.7,0.2-19.1-0.5-27.5-5.8c-3.7-2.3-7-5.2-10.1-8.3c-3-3-6.4-6.3-8.5-10.1
	c-4.4-7.8-2-17.6-0.1-25.8c1.1-4.8,2.3-9.7,3.9-14.3c1.6-4.7,3.9-9.2,6.1-13.7c4.7-9.5,9.3-19.1,14.4-28.5c3.1,9.1,7,17.8,8,17.5
	c0.3-0.1,0.2-1,0.2-1.8c-0.7-8.5-4.6-16.1-5.1-18.1c-1.1-3.9-4.3-9.8-3.9-16.9c0.4-7.1,3.7-13.3,9.4-23.9c2.6-4.8,4.2-7.1,3.7-7.4
	c-0.8-0.6-7.6,4.8-11.9,12.4c-3,5.4-5.3,10.6-5.2,16.9c0.1,5.2,0.9,9.3,3.3,16.8c-0.3,0.1-0.6,0.4-0.9,0.8
	c-5.2,9.4-9.9,19.2-14.7,28.9c-2.3,4.7-4.7,9.3-6.6,14.2c-1.9,5-3.1,10.2-4.3,15.3c-2.1,8.9-4.5,18.9-0.5,27.7
	c1.9,4.1,5.1,7.5,8.2,10.8c3.1,3.3,6.4,6.3,10.1,8.9c4.2,3,8.9,5.4,13.9,6.6c5.9,1.5,12.1,1.5,18.1,1.4
	C503.4-32,503.4-35.8,500.9-35.7z"/>
<path class="st3" d="M520.7-187c-0.6,0.7-1,1.7-1.2,2.6c-0.2,0.9-0.4,2.2,0.3,2.9c0.5,0.4,1.1,0.5,1.7,0.2c0.6-0.3,1-1.1,1.1-1.7
	c0.1-0.8,0.2-1.5,0.4-2.3c0.4-1.6-1.7-2.4-2.6-1.1c-0.1,0.1-0.1,0.2-0.2,0.3c-1,1.5,1.5,2.9,2.4,1.4c0.1-0.1,0.1-0.2,0.2-0.3
	c-0.9-0.4-1.7-0.7-2.6-1.1c-0.1,0.5-0.2,1.1-0.3,1.6c0,0.2-0.1,0.5-0.1,0.7c0,0.1,0,0.1,0,0.2c-0.1,0.3,0,0.3,0.3-0.2
	c0.6,0.1,1.1,0.1,1.7,0.2c0,0,0,0-0.1-0.1c0.1,0.2,0.2,0.4,0.4,0.6c-0.1-0.4,0.2-1.7,0.5-2c0.5-0.6,0.6-1.4,0-2
	C522.2-187.5,521.2-187.6,520.7-187L520.7-187z"/>
<path class="st3" d="M491.6-186c-0.4,0.5-0.7,1-0.9,1.6c-0.3,0.8-0.2,1.8,0.5,2.3c0.9,0.7,1.9,0.2,2.3-0.7c0.3-0.6,0.5-1.3,0.8-1.9
	c0.3-0.7-0.3-1.6-1-1.7c-0.8-0.2-1.5,0.2-1.7,1c-0.1,0.3-0.2,0.6-0.4,0.9c0.1-0.2-0.1,0.3-0.1,0.2c0,0.1-0.1,0.2-0.2,0.4
	c0.2-0.2,0.3-0.3,0.5-0.5c0,0,0,0-0.1,0c0.5,0,1,0,1.4,0c0,0,0,0,0,0c0.2,0.2,0.3,0.3,0.5,0.5c0.1,0.2,0.1,0.3,0.1,0.5
	c0,0,0-0.1,0-0.1c-0.1,0.2,0.1-0.2,0.1-0.2c0.2-0.3,0.4-0.6,0.5-0.8c0.4-0.6,0.1-1.6-0.5-1.9C492.8-186.9,492-186.6,491.6-186
	L491.6-186z"/>
<path class="st5" d="M523.5-185.3L523.5-185.3c0,0.1,0,0.1-0.1,0.2c0,0,0,0,0,0c0,0.1-0.1,0.1-0.1,0.1c0,0,0,0,0,0
	c0,0-0.1,0.1-0.1,0.1c0,0,0,0,0,0c-0.1,0-0.1,0.1-0.2,0.1c0,0,0,0,0,0c-0.1,0-0.1,0-0.2,0c0,0,0,0,0,0c-0.1,0-0.1,0-0.2,0
	c0,0,0,0,0,0c-0.1,0-0.1-0.1-0.2-0.1c0,0,0,0,0,0c-0.1-0.3-0.2-0.6-0.2-1c0,0,0,0,0,0c0-0.1,0.1-0.1,0.1-0.1c0,0,0,0,0,0
	c0,0,0.1-0.1,0.1-0.1c0,0,0,0,0,0c0.1,0,0.1-0.1,0.2-0.1c0,0,0,0,0,0c0.1,0,0.1,0,0.2,0c0,0,0,0,0,0c0.1,0,0.1,0,0.2,0h0
	c0.2,0.2,0.3,0.4,0.5,0.7v0C523.5-185.5,523.5-185.4,523.5-185.3C523.5-185.4,523.5-185.4,523.5-185.3
	C523.5-185.4,523.5-185.3,523.5-185.3C523.4-185.3,523.5-185.3,523.5-185.3c0,0.1,0,0.1-0.1,0.2c0,0,0,0,0-0.1c0,0-0.1,0.1-0.1,0.1
	c0,0,0,0,0.1,0c-0.3-0.3-0.6-0.6-1-1c0,0,0,0.1-0.1,0.1c0,0.1-0.1,0.2-0.1,0.3c0.3-0.1,0.7-0.3,1-0.4c0,0,0,0,0,0
	c0,0,0.1,0.1,0.1,0.1c0,0,0,0,0,0c0,0.1,0.1,0.1,0.1,0.1c0,0,0,0,0,0c0,0.1,0,0.1,0.1,0.2c0,0,0,0,0-0.1c0,0.1,0,0.1,0,0.2
	c0,0,0,0,0,0c0,0.1,0,0.1,0,0.2c0,0,0,0,0,0c0-0.1,0-0.2,0-0.3c0-0.1,0-0.2-0.1-0.3c0-0.1-0.1-0.1-0.1-0.1c-0.1-0.1-0.1-0.1-0.2-0.1
	c-0.1,0-0.1-0.1-0.2-0.1c-0.1,0-0.2,0-0.3,0c-0.1,0-0.1,0.1-0.2,0.1c-0.1,0.1-0.2,0.1-0.2,0.2c0,0.1,0,0.1-0.1,0.2
	c0,0.1-0.1,0.2-0.1,0.3c0,0.1,0,0.2,0,0.3c0,0.1,0.1,0.2,0.1,0.2c0,0.1,0.1,0.1,0.2,0.2c0.2,0.1,0.4,0.1,0.5,0.1
	c0.1,0,0.1-0.1,0.2-0.1c0.1-0.1,0.2-0.1,0.2-0.2C523.4-185.3,523.4-185.3,523.5-185.3c-0.5-0.3-0.9-0.4-1.3-0.6c0,0,0,0,0,0
	c0,0.1,0,0.1,0,0.2c0,0.1,0,0.2,0,0.2c0,0.1,0,0.1,0.1,0.2c0,0,0,0,0,0c0,0.1,0.1,0.1,0.1,0.1c0.1,0.1,0.1,0.1,0.2,0.1
	c0.1,0.1,0.2,0.1,0.4,0.1c0.1,0,0.2,0,0.3-0.1c0.1,0,0.2-0.1,0.2-0.1c0.1-0.1,0.2-0.2,0.2-0.3c0,0,0-0.1,0-0.1
	C523.6-185.4,523.5-185.4,523.5-185.3c0.1,0,0.1,0,0.1-0.1c0-0.1,0-0.1,0.1-0.2c0-0.1,0-0.2,0-0.3c0-0.1,0-0.1,0-0.2
	c0-0.1-0.1-0.2-0.2-0.2c-0.1-0.1-0.2-0.1-0.3-0.2c-0.1,0-0.2,0-0.3,0c-0.1,0-0.2,0-0.3,0.1c-0.2,0.1-0.3,0.2-0.4,0.4
	c0,0.1-0.1,0.1-0.1,0.2c0,0.1,0,0.2,0,0.3c0,0.1,0,0.1,0,0.2c0,0.1,0.1,0.2,0.1,0.2c0,0.1,0.1,0.1,0.1,0.1c0.1,0.1,0.2,0.1,0.2,0.1
	c0.1,0,0.2,0,0.2,0c0.1,0,0.1,0,0.2,0h0c0,0,0.1,0,0.1,0c0.1,0,0.2-0.1,0.2-0.2c0-0.1,0.1-0.1,0.1-0.2c0-0.1,0.1-0.2,0.1-0.3
	c0-0.1,0-0.2,0-0.3c0-0.1,0-0.1-0.1-0.2c-0.1-0.1-0.2-0.2-0.2-0.2c-0.2-0.1-0.4-0.1-0.7-0.1c-0.1,0-0.3,0.1-0.4,0.2
	c0,0-0.1,0.1-0.1,0.2c0,0.1-0.1,0.1-0.1,0.2c0,0.1,0,0.2,0,0.3c0,0.1,0,0.2,0.1,0.3c0,0.1,0.1,0.1,0.2,0.2c0.1,0.1,0.2,0.1,0.2,0.1
	c0.2,0,0.4,0,0.5-0.1c0,0,0.1-0.1,0.1-0.1C523.4-185.1,523.4-185.2,523.5-185.3L523.5-185.3z"/>
<path class="st5" d="M494.4-184.9C494.4-184.9,494.4-184.9,494.4-184.9c0,0,0,0.1-0.1,0.1c0,0,0,0,0,0c0,0.1-0.1,0.1-0.1,0.1
	c0,0,0,0,0,0c0,0-0.1,0.1-0.1,0.1c0,0,0,0,0,0c-0.1,0-0.1,0.1-0.2,0.1c0,0,0,0,0,0c-0.1,0-0.1,0-0.2,0c0,0,0,0,0,0
	c-0.1,0-0.1,0-0.2,0c0,0,0,0,0,0c-0.2-0.3-0.3-0.6-0.5-0.9c0,0,0,0,0,0c0-0.1,0-0.1,0.1-0.2c0,0,0,0,0,0c0-0.1,0.1-0.1,0.1-0.1
	c0,0,0,0,0,0c0,0,0.1-0.1,0.1-0.1c0,0,0,0,0,0c0.1,0,0.1-0.1,0.2-0.1c0,0,0,0,0,0c0.1,0,0.1,0,0.2,0c0,0,0,0,0,0c0.1,0,0.1,0,0.2,0
	c0,0,0,0,0,0c0.1,0,0.1,0.1,0.2,0.1c0,0,0,0,0,0c0,0,0.1,0.1,0.1,0.1c0,0,0,0,0,0c0.1,0.1,0.1,0.2,0.2,0.3c0,0,0,0,0,0
	c0,0.1,0,0.1,0,0.2c0,0,0,0,0,0C494.4-185.1,494.4-185,494.4-184.9l0-0.1C494.4-184.9,494.4-184.9,494.4-184.9
	C494.3-184.8,494.3-184.8,494.4-184.9c-0.1,0.1-0.1,0.1-0.1,0.2c0,0,0,0,0,0c0,0-0.1,0.1-0.1,0.1c0,0,0,0,0,0
	c-0.2,0-0.4,0.1-0.5,0.1h0c-0.1,0-0.1-0.1-0.2-0.1c0,0,0,0,0,0c0,0-0.1-0.1-0.1-0.1l0,0c0-0.1-0.1-0.1-0.1-0.1l0,0
	c0-0.1,0-0.1-0.1-0.2v0c0-0.1,0-0.1,0-0.2c0,0,0,0,0,0c0-0.1,0-0.1,0-0.2c0,0,0,0,0,0c0-0.1,0-0.1,0.1-0.2c0,0,0,0,0,0
	c0-0.1,0.1-0.1,0.1-0.1l0,0c0,0,0.1-0.1,0.1-0.1l0,0c0.1,0,0.1-0.1,0.2-0.1h0c0.1,0,0.1,0,0.2,0c0,0,0,0,0,0c0.1,0,0.1,0,0.2,0h0
	c-0.1,0-0.2,0-0.3,0c-0.1,0-0.2,0-0.3,0.1c-0.1,0-0.1,0.1-0.2,0.2c-0.1,0.1-0.1,0.1-0.1,0.2c0,0.2,0,0.4,0.1,0.5
	c0,0.1,0.1,0.1,0.1,0.1c0.1,0.1,0.2,0.1,0.3,0.2c0.1,0,0.1,0,0.2,0c0,0,0.1,0,0.2,0c0,0,0.1-0.1,0.2-0.1c0.1,0,0.1-0.1,0.1-0.1
	c0.1-0.1,0.2-0.4,0.2-0.6c0,0,0,0,0,0c0-0.1,0-0.2,0-0.2s0-0.1-0.1-0.2s-0.1-0.1-0.1-0.1c-0.1-0.1-0.2-0.2-0.3-0.2
	c-0.1,0-0.1,0-0.2,0c-0.1,0-0.2,0-0.3,0.1c-0.1,0-0.1,0.1-0.2,0.1l0,0c0,0.1-0.1,0.1-0.1,0.1c0,0,0,0,0,0c0,0.1,0,0.1-0.1,0.2
	c0,0,0,0.1,0,0.1c0,0,0,0.1,0,0.1s0,0.1,0,0.1s0,0.1,0,0.1c0,0.2,0.2,0.4,0.3,0.4c0,0,0.1,0,0.1,0c0,0,0.1,0,0.1,0
	c0.1,0,0.1,0,0.2,0c0.1,0,0.1,0,0.2,0c0.1,0,0.1-0.1,0.2-0.1c0,0,0,0,0.1-0.1s0,0,0.1-0.1C494.4-184.7,494.5-184.8,494.4-184.9
	c0.1,0,0.1,0,0.1-0.1c0,0,0-0.1,0-0.1c0-0.1,0-0.2,0-0.3c0-0.1,0-0.2-0.1-0.3c0-0.1-0.1-0.1-0.1-0.1c-0.1-0.1-0.2-0.1-0.3-0.2
	c-0.2-0.1-0.5,0-0.7,0.1s-0.4,0.3-0.4,0.5c0,0.1,0,0.2,0,0.3c0,0.1,0,0.2,0.1,0.3c0,0.1,0.1,0.1,0.2,0.2c0.1,0.1,0.1,0.1,0.2,0.1
	c0.2,0,0.4,0,0.5-0.1C494.2-184.6,494.3-184.7,494.4-184.9L494.4-184.9z"/>
<path class="st3" d="M489.2-215.8c-0.3,3.2-0.5,6.4-0.8,9.6c-0.2,2.8-0.6,5.6-0.2,8.4c0.2,1.6,0.6,3.2,1.5,4.6
	c0.8,1.3,2.8,0.1,2-1.2c-1.6-2.9-1.4-6.4-1.1-9.5c0.3-4,0.7-7.9,1-11.9c0-0.6-0.6-1.2-1.2-1.2C489.6-217,489.2-216.5,489.2-215.8
	L489.2-215.8z"/>
<path class="st3" d="M506.5-201.3c3.7-0.9,7.4-1.8,11.2-2.3c3.7-0.5,7.4-0.7,11.2-0.4c2.1,0.2,4.2,0.5,6.3,0.9
	c0.6,0.1,1.3-0.2,1.5-0.8c0.2-0.6-0.2-1.3-0.8-1.4c-3.8-0.8-7.8-1.2-11.7-1.1c-4,0.1-7.9,0.7-11.8,1.5c-2.2,0.4-4.3,0.9-6.4,1.5
	C504.5-203.2,505.1-200.9,506.5-201.3L506.5-201.3z"/>
<path class="st3" d="M536.8-203.3c1.3-1,2.4-2.3,3.6-3.4c1.2-1.2,2.5-2.2,4-3.1c1.5-1,3.1-1.9,4.6-2.9c1.4-0.9,2.8-1.8,4.4-2.3
	c0.6-0.2,1-0.8,0.8-1.4c-0.2-0.6-0.8-1-1.5-0.8c-1.7,0.6-3.3,1.5-4.8,2.4c-1.6,1-3.2,2-4.8,3c-1.5,1-3,2.1-4.3,3.3
	c-1.2,1.2-2.4,2.5-3.7,3.5c-0.5,0.4-0.4,1.2,0,1.7C535.6-202.9,536.3-202.9,536.8-203.3L536.8-203.3z"/>
<path class="st3" d="M551.9-215.6c2.3,5.7,3.5,11.7,3.5,17.8c0,1.7,0,3.5-0.2,5.2c-0.1,0.6,0.6,1.2,1.2,1.2c0.7,0,1.1-0.5,1.2-1.2
	c0.6-6.2,0-12.6-1.7-18.6c-0.5-1.7-1-3.4-1.7-5c-0.2-0.6-0.8-1-1.5-0.8C552.2-216.9,551.7-216.2,551.9-215.6L551.9-215.6z"/>
<path class="st3" d="M552-217c-4.4,5.5-7.9,11.5-10.5,18c-0.2,0.6,0.3,1.3,0.8,1.4c0.7,0.2,1.2-0.2,1.5-0.8c2.4-6.1,5.8-11.9,9.9-17
	c0.4-0.5,0.5-1.2,0-1.7C553.3-217.4,552.4-217.5,552-217L552-217z"/>
<path class="st3" d="M490.2-214.5c5.7,3.5,10.8,7.9,15.2,12.9c0.4,0.5,1.2,0.4,1.7,0c0.5-0.5,0.4-1.2,0-1.7
	c-4.5-5.2-9.9-9.6-15.7-13.3C490.1-217.3,488.9-215.3,490.2-214.5L490.2-214.5z"/>
<path class="st3" d="M489.8-214.2c3.7,5.1,7,10.5,9.8,16.1c0.3,0.6,1.1,0.7,1.6,0.4c0.6-0.3,0.7-1,0.4-1.6c-2.8-5.7-6-11.1-9.8-16.1
	c-0.4-0.5-1-0.8-1.6-0.4C489.7-215.5,489.4-214.7,489.8-214.2L489.8-214.2z"/>
<path class="st3" d="M490-194.1c-2.3,1.9-4.4,3.9-6.4,6.1c-1.8,2-3.5,4-5,6.2c-2.6,3.9-4.5,8.5-5,13.2c-0.4,3.3,0.1,6.6,0.6,9.9
	c0.8,4.8,2,9.6,3.4,14.3c1.8,6,3.9,11.9,6.2,17.8c0.3,0.8,0.6,1.6,1,2.4c0.2,0.6,0.8,1,1.5,0.8c0.6-0.2,1.1-0.9,0.8-1.4
	c-2.4-5.9-4.6-11.8-6.5-17.9c-1.5-4.8-2.8-9.7-3.8-14.6c-0.2-1-0.4-2-0.5-3c0-0.2-0.1-0.4-0.1-0.7c0-0.3,0,0.1,0-0.1
	c0-0.1,0-0.3,0-0.4c0-0.4-0.1-0.9-0.1-1.3c-0.1-1.5-0.2-3-0.2-4.5c0-0.3,0-0.6,0.1-0.9c0-0.1,0-0.3,0-0.4c0-0.1,0,0.3,0,0
	c0-0.1,0-0.1,0-0.2c0.2-1.4,0.6-2.8,1-4.2c0.6-1.9,1.4-3.8,2.4-5.6c1.4-2.3,3-4.3,4.8-6.4c1.7-2,3.6-3.9,5.6-5.7
	c0.6-0.6,1.3-1.1,1.9-1.6c0.5-0.4,0.4-1.2,0-1.7C491.1-194.6,490.5-194.5,490-194.1L490-194.1z"/>
<path class="st3" d="M555.7-191.9c2.7,4.3,5.1,8.9,7.2,13.6c0.9,2.1,1.7,4.2,2.3,6.4c0.2,0.9,0.4,1.9,0.6,2.8c0,0.2,0.1,0.5,0.1,0.7
	c0,0.1,0,0.2,0,0.4c0,0,0,0.2,0,0.1c0-0.1,0,0.1,0,0.2c0.1,0.6,0.1,1.2,0.2,1.8c0.2,3.1,0.1,6.2-0.3,9.3c-0.1,0.6,0.6,1.2,1.2,1.2
	c0.7,0,1.1-0.5,1.2-1.2c0.7-5,0.5-10.2-0.6-15.1c-0.5-2.2-1.2-4.3-2.1-6.3c-1.2-2.8-2.4-5.5-3.8-8.2c-1.2-2.3-2.5-4.6-3.9-6.9
	c-0.3-0.5-1-0.8-1.6-0.4C555.6-193.2,555.4-192.4,555.7-191.9L555.7-191.9z"/>
<path class="st3" d="M566.3-167.8c7.2,14.1,13.8,28.5,20,43.1c1.7,4.1,3.8,8,5.6,12.1c2.8,6.2,5.2,12.5,7,19
	c1.9,6.6,3.3,13.4,2.9,20.3c-0.3,6-1.8,12-4.3,17.4c-4.1,8.8-11.4,15.9-19.9,20.3c-9.5,4.9-20.7,6-31,3.4c-0.6-0.2-1.3-0.3-1.9-0.5
	c-1.5-0.4-2.1,1.8-0.6,2.3c10.8,3.2,22.6,2.4,32.9-2.2c9.1-4.1,16.9-11.3,21.7-20c2.3-4.3,3.9-9,4.8-13.8c1.4-7.2,1-14.5-0.6-21.7
	c-1.6-7-3.9-13.8-6.6-20.4c-2-5-4.4-9.8-6.7-14.7c-1.2-2.6-2.3-5.2-3.4-7.8c-1.6-3.8-3.3-7.6-5-11.4c-3.3-7.2-6.7-14.4-10.2-21.5
	c-0.8-1.7-1.7-3.4-2.5-5C567.7-170.4,565.7-169.2,566.3-167.8L566.3-167.8z"/>
<path class="st6" d="M479.2-179.1"/>
<path class="st3" d="M476.8-148.7c-5,8.8-9.6,17.8-14,26.9c-2.8,5.8-5.4,11.7-7.9,17.6c-2.1,5.2-4.3,10.4-5.9,15.8
	c-3.1,10.7-3,22.6,1.8,32.8c2.3,5,5.8,9.4,10,12.9c3.3,2.7,7,5,10.8,6.8c4.8,2.3,9.7,4.1,14.8,5.2c4.9,1,10,1.4,15,1.2
	c0.9,0,1.8-0.1,2.6-0.2c0.6-0.1,1.2-0.5,1.2-1.2c0-0.6-0.5-1.2-1.2-1.2c-4.4,0.4-8.8,0.3-13.2-0.2c-5.6-0.7-11-2.4-16.1-4.7
	c-3.4-1.5-6.8-3.3-9.8-5.5c-4-2.8-7.5-6.4-10.1-10.6c-5.8-9.4-6.8-21.2-4.3-31.7c1.2-5.1,3.1-10,5.1-14.8c2.4-5.9,4.9-11.8,7.6-17.6
	c4.4-9.4,9.1-18.7,14.2-27.8c0.5-0.8,0.9-1.7,1.4-2.5C479.5-148.9,477.5-150,476.8-148.7L476.8-148.7z"/>
<path class="st3" d="M540.8-36.8c0.3,0.4,0.5,0.9,0.8,1.3c0.2,0.3,0.4,0.7,0.5,1.1c0.2,0.5,0.3,0.6,0.4,1c0.1,0.3,0.2,0.6,0.2,0.9
	c0-0.2,0,0.1,0,0.1c0,0-0.1,0.1,0,0c-0.1,0.2-0.3,0.3-0.5,0.5c-0.8,0.6-1.8,1.1-2.7,1.4c-3.8,1.5-8.4,1.4-12-0.7
	c-0.8-0.5-1.5-1.1-1.8-1.9c-0.1-0.5-0.2-0.9-0.1-1.4c0-0.1,0-0.1,0-0.2c0,0.3,0,0.1,0,0c0-0.1,0-0.1,0-0.2c0.1-0.8,0.3-1.6,0.5-2.4
	c0.6-3.1,1.2-6.2,1.9-9.3c1.1-5.3,2.2-10.6,3.3-15.9c0.1-0.6-0.2-1.3-0.8-1.4c-0.6-0.2-1.3,0.2-1.5,0.8c-1.8,8.4-3.6,16.8-5.2,25.3
	c-0.2,0.8-0.3,1.7-0.5,2.5c-0.2,1-0.2,2,0.2,3c0.4,1.2,1.3,2.2,2.4,2.9c2,1.3,4.4,2,6.8,2.2c2.3,0.2,4.8-0.1,7-0.8
	c1.2-0.4,2.5-1,3.6-1.7c0.7-0.5,1.4-1,1.7-1.8c0.2-0.6,0.2-1.2,0-1.7c-0.2-1-0.7-1.9-1.2-2.8c-0.3-0.6-0.6-1.2-1-1.8
	C542.1-39.3,540-38.1,540.8-36.8L540.8-36.8z"/>
<path class="st3" d="M581.5-98.8c0.8,2.7,0.5,5.6,0.4,8.4s-0.5,5.6-1.1,8.3c-1.2,4.9-3.6,9.3-6.7,13.3c-3.1,4-6.8,7.6-10.5,10.9
	c-2,1.8-4.2,3.5-6.4,5.1c-2.1,1.4-4.3,2.6-6.4,3.8c-2.3,1.3-4.6,2.6-6.5,4.4c-2,1.8-4.3,4.7-3.4,7.5c0.5,1.4,2.7,0.8,2.3-0.6
	c-0.3-1.1,0.3-2.3,1-3.2c0.6-0.8,1.4-1.7,2.2-2.4c1.7-1.5,3.6-2.6,5.6-3.7c2.2-1.2,4.3-2.3,6.4-3.7c2.3-1.5,4.5-3.3,6.6-5.1
	c7.6-6.6,15.2-14.5,18-24.5c0.9-3.1,1.3-6.4,1.5-9.6c0.2-3.2,0.4-6.5-0.4-9.6C583.4-100.9,581.1-100.3,581.5-98.8L581.5-98.8z"/>
<path class="st3" d="M466.1-108c-0.8,7.5-1.3,15.2,0,22.7c0.6,3.4,1.5,6.6,2.9,9.7c1.2,2.6,2.7,5.1,4.4,7.4
	c3.1,4.3,6.8,8.1,10.8,11.6c2.2,1.9,4.5,3.7,6.9,5.5c0.2,0.2,0.4,0.3,0.6,0.5c0.2,0.1-0.2-0.1,0,0c0.1,0.1,0.2,0.1,0.3,0.2
	c0.2,0.2,0.4,0.3,0.6,0.5c1.1,0.9,2.2,1.9,3.2,2.9c2.5,2.4,4.8,5.1,6.8,8c0.3,0.5,0.7,1,1,1.5c0-0.4,0-0.8,0-1.2
	c-1.3,2.1-2.2,4.8-1.2,7.3c0.9,2,3,3,5,3.3c2.1,0.4,4.2,0.3,6.3,0.2c2.3-0.1,4.6-0.2,6.8-0.9c1.9-0.6,4.1-1.8,4.6-3.9
	c0.4-1.6,0-3.5-0.3-5.1c-0.8-4.3-1.9-8.6-2.8-12.9c-0.2-1-0.4-2-0.5-2.9c0-0.1,0-0.3-0.1-0.4c0,0.2,0-0.1,0-0.2
	c0-0.3-0.1-0.6-0.1-0.9c-0.1-0.6-0.1-1.2-0.2-1.8c-0.1-1.4-0.2-2.9-0.2-4.3c0-0.8,0-1.6,0-2.3c0-0.6-0.6-1.2-1.2-1.2
	c-0.7,0-1.2,0.5-1.2,1.2c-0.2,4.2,0.1,8.3,0.9,12.4c0.6,3.4,1.5,6.7,2.2,10c0.3,1.2,0.5,2.5,0.8,3.7c0.1,0.5,0.2,1,0.3,1.5
	c0,0.1,0,0.2,0,0.3c0,0,0,0.1,0,0.2c0,0,0-0.2,0-0.1c0,0.2,0,0.4,0.1,0.6c0,0.3,0,0.7,0,1c0,0,0,0.4,0,0.4c0,0,0.1-0.3,0-0.1
	c0,0.1,0,0.1,0,0.2c0,0.1-0.1,0.4,0,0.2c0-0.2,0,0,0,0c-0.1,0.1-0.1,0.2-0.2,0.3c-0.1,0.2,0,0-0.1,0.1c-0.1,0.1-0.2,0.2-0.2,0.2
	c-0.1,0.1-0.2,0.2-0.2,0.2c0,0-0.1,0.1-0.1,0.1c-0.2,0.1,0.1-0.1,0,0c-1.6,1.2-3.8,1.5-5.7,1.6s-3.9,0.3-5.8,0.3c-0.5,0-1,0-1.5-0.1
	c-0.1,0-0.2,0-0.4,0c-0.2,0,0.1,0-0.1,0c-0.2,0-0.5-0.1-0.7-0.1c-0.2,0-0.5-0.1-0.7-0.2c-0.1,0-0.2-0.1-0.3-0.1
	c-0.1,0-0.3-0.1-0.3-0.1c0.1,0-0.1-0.1-0.2-0.1c-0.1,0-0.2-0.1-0.3-0.1c-0.2-0.1-0.4-0.2-0.6-0.4c0.2,0.1,0,0-0.1-0.1
	c-0.1-0.1-0.1-0.1-0.2-0.2c-0.1-0.1-0.1-0.1-0.2-0.2c0.1,0.2,0-0.1-0.1-0.1c-0.2-0.4-0.4-0.8-0.4-1.2c-0.1-1,0.3-2.2,0.7-3
	c0.2-0.4,0.4-0.8,0.6-1.2c0.2-0.3,0.2-0.8,0-1.2c-3.3-5.2-7.5-9.9-12.4-13.7c-0.8-0.6-1.6-1.2-2.4-1.8c-0.3-0.2-0.5-0.4-0.8-0.6
	c-0.1,0-0.1-0.1-0.2-0.2c0.2,0.2,0.1,0.1,0,0c-0.2-0.1-0.3-0.2-0.5-0.4c-0.7-0.6-1.4-1.1-2.1-1.7c-3.8-3.2-7.4-6.7-10.6-10.6
	c-0.5-0.6-0.8-0.9-1.2-1.5c-0.4-0.6-0.8-1.1-1.2-1.7c-0.8-1.2-1.5-2.4-2.2-3.6c-0.7-1.2-1.3-2.5-1.8-3.7c-0.6-1.6-1.1-3.2-1.5-4.8
	c-1.7-7.2-1.5-14.8-0.8-22.1c0.1-0.9,0.2-1.8,0.3-2.8c0.1-0.6-0.6-1.2-1.2-1.2C466.5-109.2,466.1-108.6,466.1-108L466.1-108z"/>
<path class="st3" d="M481.9-107.4c-1.6,6.4-1.1,13.3,1.5,19.3c1.3,3.1,3.1,5.9,5.4,8.2c2.1,2.1,4.4,3.9,6.9,5.5
	c2.8,1.8,5.8,3.2,8.9,4.3c0.5,0.2,1.1-0.1,1.3-0.5c0.3-0.5,0.1-1-0.2-1.4c-0.1-0.1-0.1-0.1,0,0c0-0.1-0.1-0.1-0.1-0.2
	c-0.1-0.1-0.2-0.3-0.3-0.4c-0.2-0.3-0.4-0.6-0.6-0.9c-0.4-0.6-0.9-1.3-1.2-2c-0.9-1.5-1.6-3.1-2.2-4.8c-1-2.9-1.6-5.8-1.8-8.8
	c0-0.6-0.5-1.2-1.2-1.2c-0.6,0-1.2,0.5-1.2,1.2c0.3,5.4,1.9,10.8,4.7,15.4c0.7,1.2,1.5,2.3,2.3,3.3c0.4-0.7,0.8-1.3,1.1-2
	c-2.5-0.9-4.9-1.9-7.2-3.3c-2.4-1.4-4.6-3.1-6.7-5c-1.1-1-2.1-2-3-3.2c-0.9-1.3-1.7-2.7-2.4-4.1c-1.3-2.7-2.1-5.6-2.5-8.6
	c-0.4-3.4-0.2-6.9,0.6-10.2C484.5-108.3,482.2-108.9,481.9-107.4L481.9-107.4z"/>
<path class="st3" d="M567.8-96.2c-2.3,4.5-5.3,8.6-9.2,11.8c-1.9,1.6-4.1,2.9-6.1,4.4c-2.3,1.7-4.2,3.8-5.8,6.2
	c-1.5,2.5-2.6,5.2-3.2,8.1c0.8,0.1,1.5,0.2,2.3,0.3c-0.5-7.3,1.1-14.7,4.7-21c0.8-1.4,1.7-2.7,2.6-4c0.4-0.5,0.1-1.3-0.4-1.6
	c-0.6-0.3-1.2-0.1-1.6,0.4c-4.5,6.1-7.2,13.4-7.7,20.9c-0.1,1.8-0.1,3.5,0,5.3c0,0.6,0.4,1.1,1,1.2c0.5,0.1,1.2-0.3,1.3-0.8
	c0.5-2.4,1.3-4.7,2.6-6.8c0.7-1.3,1.6-2.5,2.6-3.6c0.8-0.8,1.8-1.8,2.6-2.4c2-1.6,4.2-2.9,6.3-4.5c1.8-1.4,3.4-3,4.8-4.7
	c2.1-2.4,3.8-5.1,5.2-8c0.3-0.6,0.2-1.3-0.4-1.6C568.9-97,568.1-96.8,567.8-96.2L567.8-96.2z"/>
<path class="st3" d="M505-175.2c-0.2-0.7-0.4-1.4-0.5-2c0-0.1,0-0.8-0.1-0.8c0,0.1-0.1,0.2-0.1,0.4c0,0,0,0.1-0.1,0.1
	c0,0,0.4-0.1,0.5-0.1c0.6-0.1,1.3,0,1.9,0.2c-0.1,0,0.5,0.1,0.3,0.1c0.4,0.1,0.1,0.1,0.1,0c-0.1,0.2-0.1-0.3,0-0.3
	c0.1,0-0.2,0.2-0.1,0.2c-0.5,0.4-1.1,0.5-1.6,0.8c-0.6,0.3-1.1,0.7-1.5,1.2c-0.9,0.9-1.5,2.1-1.8,3.3c-0.5,2.6,0.6,5.3,2.9,6.6
	c2.2,1.3,5,1.1,7.3,0.4c1.4-0.4,2.9-1.1,3.9-2.3c1-1.2,1.5-2.9,1.1-4.4c-0.4-1.4-2.7-0.8-2.3,0.6c0.3,0.9-0.2,2-1,2.7
	c-0.9,0.7-2,1.1-3.1,1.4c-1.9,0.5-4.4,0.4-5.7-1.2c-1.4-1.7-1-4,0.5-5.5c0.4-0.4,0.7-0.6,1.2-0.9c0.6-0.3,1.3-0.5,1.8-1
	c0.5-0.5,0.8-1.2,0.8-1.9c-0.1-1-0.8-1.6-1.6-1.9c-0.8-0.3-1.6-0.4-2.4-0.5c-0.8,0-1.8,0.1-2.5,0.6c-0.8,0.7-0.6,1.6-0.5,2.5
	c0.1,0.8,0.3,1.6,0.5,2.4C503.2-173.1,505.4-173.7,505-175.2L505-175.2z"/>
<path class="st3" d="M495-174.9c-0.4,1.3-0.7,2.7-0.5,4.1c0.2,1.3,0.8,2.5,1.8,3.3c2.2,1.6,5,0.8,7-0.6c-0.5-0.6-1-1.2-1.4-1.9
	c-0.9,0.8-1.9,1.5-2.7,2.4c-0.6,0.7-1.1,1.5-1.4,2.4c-0.5,1.3-0.5,2.7,0,4c0.6,1.7,1.6,3.1,2.7,4.5c1.4,1.8,2.9,3.5,4.4,5.2
	c1.5,1.7,3,3.3,4.6,4.8c1.1,1.1,2.8-0.6,1.7-1.7c-2.8-2.8-5.5-5.7-8-8.7c-1.1-1.3-2.1-2.6-2.8-4.1c-0.1-0.1-0.1-0.3-0.2-0.4
	c-0.1-0.3,0,0.1,0-0.1c0-0.1-0.1-0.2-0.1-0.3c-0.1-0.3-0.2-0.6-0.2-0.9c0,0,0-0.3,0-0.1c0,0.2,0-0.1,0-0.1c0-0.1,0-0.2,0-0.4
	c0-0.1,0-0.1,0-0.2c0-0.3,0,0.2,0,0c0-0.1,0.1-0.3,0.1-0.4c0-0.2,0.1-0.3,0.2-0.5c0-0.1,0-0.1,0.1-0.2c-0.1,0.2,0-0.1,0.1-0.1
	c0.2-0.4,0.4-0.8,0.6-1c0.4-0.4,0.8-0.8,1.2-1.1c0.5-0.4,1-0.9,1.6-1.4c1-0.9-0.3-2.6-1.4-1.9c-1.3,0.9-3.2,1.7-4.5,0.7
	c-1.3-1.1-0.8-3.3-0.3-4.8C497.6-175.7,495.4-176.4,495-174.9L495-174.9z"/>
<path class="st3" d="M517.2-180c0-0.6,0-1.2,0-1.7c0,0.2,0,0,0-0.1c0-0.1,0-0.2,0.1-0.3c0-0.2,0.1-0.4,0.2-0.6
	c0.1-0.4,0.3-0.9,0.6-1.3c0.8-1.4,2.2-2.2,3.7-2.7c2.8-0.9,6.3-0.6,8.2,1.9c1.1,1.4,1.6,3,2.1,4.8c0.2-0.4,0.4-0.9,0.5-1.3
	c-0.1,0.1-0.2,0.1-0.3,0.1c0,0-0.4,0.2-0.2,0.1c-0.2,0.1-0.5,0.2-0.7,0.3c-0.5,0.2-1.1,0.4-1.6,0.6c-1.3,0.4-2.6,0.7-3.9,0.8
	c-3.2,0.3-6.4-0.1-9.2-1.6c-0.6-0.3-1.3-0.1-1.6,0.4c-0.3,0.5-0.2,1.3,0.4,1.6c3.2,1.6,6.8,2.3,10.4,1.9c2.8-0.3,5.4-1.1,7.9-2.2
	c0.5-0.2,0.7-0.9,0.5-1.3c-0.4-1.8-1.1-3.6-2.1-5.1c-1.3-1.9-3.2-3.2-5.5-3.6c-1.7-0.3-3.3-0.3-5,0.2c-1.9,0.5-3.9,1.6-5.2,3.2
	c-1.3,1.7-1.9,3.9-1.7,6c0.1,0.6,0.5,1.2,1.2,1.2C516.7-178.8,517.3-179.4,517.2-180z"/>
<path class="st3" d="M502.4-180.1c0.8-3-0.1-6.6-3-8.1c-1.2-0.6-2.6-0.8-4-0.7c-1.3,0.1-2.7,0.3-3.8,0.9c-1.4,0.7-2.6,2-3.5,3.2
	c-0.5,0.6-0.9,1.3-1.3,2s-0.6,1.5-0.4,2.2c0.4,1.1,1.5,1.7,2.5,2c1.2,0.4,2.5,0.6,3.8,0.7c3.1,0.3,6.2-0.3,9.1-1.5
	c0.6-0.2,0.7-1.1,0.4-1.6c-0.4-0.6-1-0.7-1.6-0.4c-1.2,0.5-2.5,0.9-3.7,1.1c-0.1,0-0.2,0-0.4,0.1c-0.2,0,0.1,0,0,0
	c-0.1,0-0.1,0-0.2,0c-0.2,0-0.5,0.1-0.7,0.1c-0.5,0-0.9,0-1.4,0c-0.5,0-1,0-1.6-0.1c-0.6-0.1-0.9-0.1-1.5-0.2
	c-0.5-0.1-1-0.2-1.4-0.4c-0.1,0-0.2-0.1-0.4-0.1c-0.2-0.1,0.1,0.1-0.1,0c-0.2-0.1-0.4-0.2-0.5-0.3c0,0-0.1-0.1-0.1-0.1
	c0,0,0.2,0.1,0.1,0.1c0,0-0.1-0.1-0.2-0.2c-0.1,0,0.1,0.1,0.1,0.1c0,0,0-0.1-0.1-0.1c0.1,0.3,0,0,0,0c0.1-0.1-0.1,0.2,0.1,0
	c0-0.1,0.1-0.2,0.1-0.3c0.1-0.3,0.3-0.6,0.5-0.9c0.7-1.1,1.6-2.1,2.6-2.9c0.8-0.7,1.8-0.9,2.9-1.1c0,0,0.1,0,0.1,0c0,0-0.2,0-0.1,0
	c0.1,0,0.2,0,0.3,0c0.3,0,0.5,0,0.8,0c0.2,0,0.5,0,0.7,0c0.1,0,0.1,0,0.2,0c0,0-0.1,0,0,0c0.1,0,0.3,0.1,0.4,0.1
	c1.2,0.3,2.1,0.9,2.6,2.1c0.5,1.1,0.5,2.4,0.2,3.7C499.7-179.2,502-178.6,502.4-180.1z"/>
<path class="st3" d="M602.3-61.7c1.2-6.2,3.2-12,6.6-17.3c0.3-0.5,0.7-1,1-1.4c0.2-0.2,0.3-0.4,0.5-0.7c0.1-0.1,0.2-0.2,0.2-0.3
	c0,0,0.1-0.2,0,0c0-0.1,0.1-0.1,0.2-0.2c0.8-1.1,1.7-2.1,2.6-3.1c2.2-2.3,4.5-4.5,6.8-6.8c4.5-4.6,8.9-9.7,11.2-15.8
	c0.6-1.7,1-3.5,1.2-5.3c0.1-1.5,0-3,0-4.5c0-0.1,0-0.6,0-0.6c0,0-0.1,0.3,0,0.1c-0.1,0.2-0.2,0.4-0.5,0.6c-0.2,0.1-0.3,0.1-0.5,0.1
	c-0.2,0-0.2,0-0.1,0c0,0-0.3-0.2-0.1,0c0.2,0.1-0.2-0.2,0,0c0.1,0.1,0.1,0.1,0.2,0.2c0.1,0.1,0.3,0.3,0.4,0.4c-0.2-0.2,0,0,0.1,0.1
	c0.1,0.1,0.2,0.2,0.2,0.3c0.3,0.5,0.7,1,1,1.6c3,5.2,5,10.9,5.6,16.9c0.6,6.5-0.2,13-2.1,19.2c-1.7,5.5-4.2,10.8-7.5,15.5
	c-0.3,0.5-0.7,1-1.1,1.5c0,0.1-0.1,0.1-0.2,0.2c-0.2,0.2,0.1-0.1,0,0c-0.1,0.2-0.2,0.3-0.4,0.5c-0.3,0.3-0.5,0.7-0.8,1
	c-1.3,1.6-2.7,3.1-4.2,4.5c-4,3.8-8.3,7-13.3,9.4c-6.1,3-12.9,4.8-19.8,5.2c-1.3,0.1-2.6,0.1-3.9,0.1c-1.5,0-1.5,2.3,0,2.3
	c6.9,0.2,13.9-1,20.4-3.5c5.7-2.2,11-5.4,15.7-9.4c3.2-2.7,6.1-5.8,8.6-9.2c3-4,5.4-8.5,7.3-13.2c2.5-6.3,3.8-13.2,3.8-20
	c0-3.3-0.4-6.6-1.1-9.8c-0.7-3.1-1.8-6-3.2-8.9c-0.7-1.3-1.3-2.7-2.1-4c-0.5-0.9-1.1-1.9-1.9-2.6c-0.4-0.3-0.8-0.6-1.3-0.6
	c-0.7,0-1.2,0.5-1.4,1.1c-0.1,0.5-0.1,1-0.1,1.5c0,0.7,0.1,1.4,0.1,2.2c0,3.4-0.9,6.6-2.5,9.5c-1.6,2.9-3.4,5.6-5.6,8.1
	c-4.2,4.8-9.2,8.8-13.2,13.8c-3.6,4.6-6.1,9.8-7.7,15.4c-0.5,1.8-0.9,3.6-1.3,5.4c-0.1,0.6,0.2,1.3,0.8,1.5
	C601.4-60.7,602.2-61.1,602.3-61.7L602.3-61.7z"/>
<g>
	<g>
		<g id="XMLID_00000042724077965026646600000000012046476275680156_">
			<path class="st7" d="M190.3,114.7c4.7,12.7,1.8,29.4-6.6,41.9c-1.9,2.9-10.6,15.1-27,20.1c-6.2,1.9-11.7,2.2-15.4,2.1
				c0.6-0.5,1.2-1,1.9-1.5l0.9,0.2c3.7-1.1,6.8-3.5,9.8-5.8c8.1-6.2,16.3-12.6,22.3-20.9c8.4-11.7,11.5-27,8.5-41.1l-0.3,0
				c0.2-2.8-0.3-4.8,0.2-4.9C185.4,104.4,188.7,110.3,190.3,114.7z"/>
			<path class="st8" d="M184.6,109.6c3,14.1-0.2,29.4-8.5,41.1c-6,8.3-14.2,14.7-22.3,20.9c-3,2.3-6.2,4.7-9.8,5.8l-0.9-0.2
				c3.2-2.8,6.5-6.5,9.2-11.3c0.5-0.9,2.4-4.5,3.8-9.7c0.2-0.8,0.4-1.6,0.6-2.4c2-7.6,5.2-12.7,8-16.1c4.7-5.7,12-11,16.4-18.6
				c1.2-2.1,2.8-4.9,3.2-8.7c0-0.2,0-0.5,0.1-0.7L184.6,109.6z"/>
			<path class="st7" d="M124.8,126.9L124.8,126.9c-1.3,3.8-2.7,7.7-5.2,10.8c-3,3.7-7.4,6-10.9,9.3c-2.1,2.1-3.9,4.5-5.6,6.9
				l-0.3-0.1c0.5-2.3,1.7-5.6,4.1-8.7c3.3-4.2,6.5-5,10.8-8.9C119.7,134.4,122.4,131.5,124.8,126.9z"/>
			<path class="st7" d="M110.5,12.6c2.7,6.7,3.8,14.1,3.2,21.3l-0.2,0c0,0.1-0.1,0.1-0.1,0.1c-1.9,0.9-4.1,0.8-6,0
				c-2-0.7-3.7-1.9-5.3-3.1c-0.7-0.5-1.5-1.2-1.4-2.1l0.1,0c2.3-5.9,5.5-11.4,9.5-16.4c0.1,0,0.1,0,0.2-0.1L110.5,12.6z"/>
			<path class="st8" d="M64.6,51.8c0.5-0.6,1.2-1.1,2-1.5c0.4-0.2,0.9-0.3,1.2-0.6c0.4-0.3,0.6-0.8,0.4-1.2
				c-0.1-0.3-0.5-0.4-0.7-0.5c-0.9-0.3-1.9-0.4-2.8-0.3c-0.3,0-0.6,0.1-0.7,0.4c-0.1,0.2-0.1,0.5-0.1,0.8c0.1,0.9,0.3,1.7,0.5,2.6
				L64.6,51.8z M64.9,148.5l0.4-0.1c-1.3-5.8-3.4-11.4-6.3-16.5l-0.1,0.1c0.1,2.4,0.6,5.9,2.2,9.8C62.3,144.6,63.7,146.8,64.9,148.5
				z M102.7,153.9l0.3,0.1c1.7-2.4,3.5-4.8,5.6-6.9c3.5-3.3,7.9-5.6,10.9-9.3c2.5-3.1,3.9-7,5.2-10.8h0c-2.4,4.5-5.1,7.5-7.2,9.3
				c-4.3,3.9-7.5,4.7-10.8,8.9C104.4,148.3,103.3,151.6,102.7,153.9z M113.7,34c0,0.2,0,0.4,0,0.6l0.3,0.1c1.6,2.6,3.9,6.4,6,11.3
				c0.8,1.8,1.7,3.8,2.4,5.9c0.5,1.4,0.9,3.2,1.3,5.5c0.4,2.9,0.6,6.4,0.1,10.5l0.5,0c2.8,5,20.7,37,23.4,63.3
				c0.5,4.4,1.2,12.3-1,22.1c-1.1,4.8-2.9,12.9-8.1,19.3c-11.6,14.2-33.4,12.5-36.5,12.2l-0.1,0c0.1,0.5,0,0.8-0.1,0.9
				c-0.1,0.3-0.5,0.6-0.8,0.8c-4.2,2.9-10,3.4-14.6,1.1c-1.1-0.6-2.3-1.4-2.7-2.6c-0.2-0.5-0.2-1-0.2-1.4c0-0.3,0-0.6,0.1-0.7
				c0.4-2.1,2.2-11.1,4.8-23.5l-0.4-0.1c-2.5-1-5.4-1.8-8-1c-0.3,0.1-0.7,0.3-0.9,0.5c0,3.2,0.4,5.8,0.7,7.7c0.3,1.5,0.5,2.6,2,9.4
				c0.8,3.7,1.4,6.2,1.4,7.7c0,0.7-0.1,1.2-0.3,1.6c-1.6,2.7-5.8,3-9.1,3.2c-2.8,0.2-7.4,0.5-9.4-1.7l0,0c-5.6,0.5-16,0.6-27.2-4.4
				c-5.2-2.3-15.3-6.8-21.2-17.7c-2.9-5.3-3.6-10-4-12.5c-1.6-11.1,1.6-20.1,4.2-26.8c7.9-20.4,17.6-38.6,23.4-48.9l0,0
				c-2.5-9.1-3.4-16.1-2.8-19.9c0.5-3.2,1.6-5.9,1.6-5.9c1.7-4.2,4-7,6.5-9.9c1.6-1.9,3.9-4.3,7-6.8l0.2,0.1
				c3.5-0.6,6.8-2.7,8.8-5.6c0,0,0,0,0,0c0,0,0,0,0,0c-0.8-1.7-1.7-3.4-2.7-5.2c-2-3.6-4.2-6.8-6.3-9.6l0.3-0.5
				c2.2,1.4,4.7,3.2,7.3,5.3c2.8,2.4,5.1,4.7,7,6.8c3.8-1.2,9-2.5,15.3-2.7c5-0.2,9.3,0.4,12.7,1c1.8-1.4,3.2-3.2,4.9-4.6
				c0.9-0.7,1.9-1.4,2.9-2c1.3-0.8,2.5-1.6,3.8-2.4c1.4-0.9,2.8-1.7,4.3-2.3c-4,4.9-7.2,10.5-9.5,16.4l-0.1,0
				c-0.1,0.9,0.7,1.5,1.4,2.1c1.7,1.2,3.4,2.4,5.3,3.1c2,0.7,4.2,0.9,6,0c0.1,0,0.1-0.1,0.1-0.1L113.7,34z M91.8,46.2
				c-0.1-0.3-0.2-0.8-0.4-1.4c-0.5-1.4-1.3-3.5-3.1-4.9c-1.5-1.1-3.1-1.2-4-1.3c-0.6,0-2.4-0.1-4.4,0.9c-0.8,0.4-2,1-3,2.3
				c-1.4,1.9-1.2,4-1.2,4.7c0.7,0.4,1.5,0.7,2.3,1C83.8,49.4,89.2,47.4,91.8,46.2z M81.7,35.1c1.8-5,6.7-8,6.2-8.5
				c-0.2-0.3-1.4,0.5-2.5,1.2c-2.8,1.7-4.4,3.8-5.1,4.8C79.9,33.2,77.1,37,78,38c0.4,0.4,1.4,0.1,1.5,0
				C80.9,37.5,81.5,35.8,81.7,35.1z M74.6,33.1c2.5-3.8,4.8-5.5,4.5-5.9c-0.3-0.4-2.3,0.7-3.1,1.2c-1.5,0.9-2.4,1.9-2.7,2.2
				c-3.6,3.9-8.2,13.6-7,14.3c0.2,0.1,1,0.4,1.8,0.1c0,0,0.1,0,0.1,0c1.5-0.5,2-2.4,2.8-4.6C70.9,40.4,72.4,36.4,74.6,33.1z
				 M64.2,35.7c1.5-4.3,6.3-6.9,5.9-7.4c-0.3-0.3-2,0.7-2.7,1.1c-2.9,1.7-4.3,3.8-4.7,4.2c-0.9,1.3-2.3,3.9-1.6,4.6
				c0.4,0.4,1.1,0.1,1.2,0C63.5,37.8,64,36.2,64.2,35.7z M61.8,46.1c0.6-2.1,0.1-4.2-1.2-5.6c-1.9-1.8-4.6-1.4-5.9-1.1
				c-0.5,0.1-1.1,0.2-1.6,0.5c-0.5,0.3-1,0.7-1.4,1.1c-1.2,1.1-2.3,2.4-2.9,4c-0.1,0.2-0.1,0.3,0,0.5c0.3,1.5,4.5,2.1,7.1,2
				C57.2,47.4,59.3,47.2,61.8,46.1z"/>
			<path class="st7" d="M141.2,178.8c-4.2,3.3-8,5-9.3,5.6c-14.1,6.1-26.8,2.4-30.1,1.4c0-0.1,0.1-0.4,0.1-0.9l0.1,0
				c3.1,0.3,24.9,2,36.5-12.2c5.2-6.4,7-14.5,8.1-19.3c2.2-9.8,1.5-17.7,1-22.1C144.9,105,127,73,124.2,68l-0.5,0
				c0.5-4.2,0.3-7.7-0.1-10.5l0.3,0c6.3,12.5,12.7,26.1,18.8,40.6c2.4,5.6,9.2,17.7,13.1,33.7c1.1,4.5,2.2,9.9,1.6,16.8
				c-0.2,1.9-0.5,3.7-0.8,5.4c-0.2,0.8-0.4,1.6-0.6,2.4c-1.4,5.3-3.3,8.8-3.8,9.7c-2.7,4.8-6,8.5-9.2,11.3
				C142.4,177.8,141.8,178.3,141.2,178.8z"/>
			<path class="st9" d="M91.4,44.8c0.2,0.6,0.3,1.1,0.4,1.4c-2.6,1.2-8.1,3.2-13.9,1.2c-0.8-0.3-1.6-0.6-2.3-1
				c-0.1-0.7-0.2-2.8,1.2-4.7c1-1.3,2.1-1.9,3-2.3c2-1,3.8-0.9,4.4-0.9c0.9,0.1,2.5,0.2,4,1.3C90.2,41.2,90.9,43.3,91.4,44.8z"/>
			<path class="st7" d="M88,26.6c0.5,0.5-4.4,3.5-6.2,8.5c-0.2,0.7-0.8,2.5-2.2,3c-0.1,0-1.1,0.4-1.5,0c-0.9-1,1.9-4.8,2.3-5.4
				c0.7-1,2.3-3,5.1-4.8C86.5,27.1,87.7,26.4,88,26.6z"/>
			<path class="st7" d="M83.7,182.9c0,0.2-0.1,0.4-0.1,0.7l-0.3,0c0-1.5-0.6-4-1.4-7.7c-1.5-6.8-1.8-7.8-2-9.4
				c-0.3-1.9-0.6-4.5-0.7-7.7c0.2-0.2,0.6-0.4,0.9-0.5c2.6-0.9,5.4-0.1,8,1l0.4,0.1C85.8,171.7,84,180.7,83.7,182.9z"/>
			<path class="st7" d="M79,27.2c0.3,0.4-2,2.1-4.5,5.9c-2.1,3.3-3.6,7.4-3.6,7.4c-0.8,2.1-1.3,4-2.8,4.6c0,0,0,0-0.1,0
				c-0.8,0.3-1.6,0-1.8-0.1c-1.2-0.8,3.3-10.4,7-14.3c0.3-0.3,1.2-1.3,2.7-2.2C76.7,27.9,78.7,26.8,79,27.2z"/>
			<path class="st7" d="M70.1,28.2c0.4,0.5-4.4,3.1-5.9,7.4c-0.2,0.6-0.7,2.1-1.9,2.5c-0.1,0-0.9,0.3-1.2,0
				c-0.7-0.7,0.7-3.3,1.6-4.6c0.3-0.5,1.8-2.6,4.7-4.2C68.1,28.9,69.8,27.9,70.1,28.2z"/>
			<path class="st3" d="M68.1,48.4c0.2,0.4,0,0.9-0.4,1.2c-0.4,0.3-0.8,0.5-1.2,0.6c-0.8,0.3-1.4,0.9-2,1.5l-0.3-0.5
				c-0.2-0.8-0.4-1.7-0.5-2.6c0-0.3-0.1-0.5,0.1-0.8c0.1-0.2,0.5-0.3,0.7-0.4c1-0.2,1.9-0.1,2.8,0.3C67.6,48,67.9,48.2,68.1,48.4z"
				/>
			<path class="st7" d="M65.4,148.4l-0.4,0.1c-1.2-1.6-2.7-3.9-3.8-6.7c-1.6-3.9-2.1-7.5-2.2-9.8l0.1-0.1
				C61.9,137,64.1,142.6,65.4,148.4z"/>
			<path class="st9" d="M60.5,40.6c1.4,1.3,1.8,3.5,1.2,5.6c-2.5,1.1-4.5,1.3-5.8,1.3c-2.6,0.1-6.9-0.5-7.1-2c0-0.1,0-0.2,0-0.5
				c0.5-1.5,1.6-2.8,2.9-4c0.4-0.4,0.9-0.8,1.4-1.1c0.5-0.2,1-0.4,1.6-0.5C55.9,39.2,58.7,38.8,60.5,40.6z"/>
			<path class="st1" d="M60.9,28.5C60.9,28.5,60.9,28.5,60.9,28.5C60.9,28.5,60.9,28.5,60.9,28.5C60.9,28.5,60.9,28.5,60.9,28.5z"/>
			<path class="st7" d="M50.5,23.8c-0.1-4.3,0.3-7.9,0.9-10.8l0.5,0.1c0.1,0.1,0.2,0.1,0.3,0.2l-0.3,0.5c2.1,2.8,4.2,6,6.3,9.6
				c1,1.8,1.9,3.5,2.7,5.2c0,0,0,0,0,0c-2.1,2.9-5.3,5-8.8,5.6L51.9,34C51.3,31.3,50.7,27.8,50.5,23.8z"/>
		</g>
	</g>
</g>
<g>
	<g>
		<g id="XMLID_00000064347245415292051310000005557788704351437711_">
			<path class="st7" d="M190.3,114.7c4.7,12.7,1.8,29.4-6.6,41.9c-1.9,2.9-10.6,15.1-27,20.1c-6.2,1.9-11.7,2.2-15.4,2.1
				c0.6-0.5,1.2-1,1.9-1.5l0.9,0.2c3.7-1.1,6.8-3.5,9.8-5.8c8.1-6.2,16.3-12.6,22.3-20.9c8.4-11.7,11.5-27,8.5-41.1l-0.3,0
				c0.2-2.8-0.3-4.8,0.2-4.9C185.4,104.4,188.7,110.3,190.3,114.7z"/>
			<path class="st8" d="M184.6,109.6c3,14.1-0.2,29.4-8.5,41.1c-6,8.3-14.2,14.7-22.3,20.9c-3,2.3-6.2,4.7-9.8,5.8l-0.9-0.2
				c3.2-2.8,6.5-6.5,9.2-11.3c0.5-0.9,2.4-4.5,3.8-9.7c0.2-0.8,0.4-1.6,0.6-2.4c2-7.6,5.2-12.7,8-16.1c4.7-5.7,12-11,16.4-18.6
				c1.2-2.1,2.8-4.9,3.2-8.7c0-0.2,0-0.5,0.1-0.7L184.6,109.6z"/>
			<path class="st7" d="M124.8,126.9L124.8,126.9c-1.3,3.8-2.7,7.7-5.2,10.8c-3,3.7-7.4,6-10.9,9.3c-2.1,2.1-3.9,4.5-5.6,6.9
				l-0.3-0.1c0.5-2.3,1.7-5.6,4.1-8.7c3.3-4.2,6.5-5,10.8-8.9C119.7,134.4,122.4,131.5,124.8,126.9z"/>
			<path class="st7" d="M110.5,12.6c2.7,6.7,3.8,14.1,3.2,21.3l-0.2,0c0,0.1-0.1,0.1-0.1,0.1c-1.9,0.9-4.1,0.8-6,0
				c-2-0.7-3.7-1.9-5.3-3.1c-0.7-0.5-1.5-1.2-1.4-2.1l0.1,0c2.3-5.9,5.5-11.4,9.5-16.4c0.1,0,0.1,0,0.2-0.1L110.5,12.6z"/>
			<path class="st8" d="M64.6,51.8c0.5-0.6,1.2-1.1,2-1.5c0.4-0.2,0.9-0.3,1.2-0.6c0.4-0.3,0.6-0.8,0.4-1.2
				c-0.1-0.3-0.5-0.4-0.7-0.5c-0.9-0.3-1.9-0.4-2.8-0.3c-0.3,0-0.6,0.1-0.7,0.4c-0.1,0.2-0.1,0.5-0.1,0.8c0.1,0.9,0.3,1.7,0.5,2.6
				L64.6,51.8z M64.9,148.5l0.4-0.1c-1.3-5.8-3.4-11.4-6.3-16.5l-0.1,0.1c0.1,2.4,0.6,5.9,2.2,9.8C62.3,144.6,63.7,146.8,64.9,148.5
				z M102.7,153.9l0.3,0.1c1.7-2.4,3.5-4.8,5.6-6.9c3.5-3.3,7.9-5.6,10.9-9.3c2.5-3.1,3.9-7,5.2-10.8h0c-2.4,4.5-5.1,7.5-7.2,9.3
				c-4.3,3.9-7.5,4.7-10.8,8.9C104.4,148.3,103.3,151.6,102.7,153.9z M113.7,34c0,0.2,0,0.4,0,0.6l0.3,0.1c1.6,2.6,3.9,6.4,6,11.3
				c0.8,1.8,1.7,3.8,2.4,5.9c0.5,1.4,0.9,3.2,1.3,5.5c0.4,2.9,0.6,6.4,0.1,10.5l0.5,0c2.8,5,20.7,37,23.4,63.3
				c0.5,4.4,1.2,12.3-1,22.1c-1.1,4.8-2.9,12.9-8.1,19.3c-11.6,14.2-33.4,12.5-36.5,12.2l-0.1,0c0.1,0.5,0,0.8-0.1,0.9
				c-0.1,0.3-0.5,0.6-0.8,0.8c-4.2,2.9-10,3.4-14.6,1.1c-1.1-0.6-2.3-1.4-2.7-2.6c-0.2-0.5-0.2-1-0.2-1.4c0-0.3,0-0.6,0.1-0.7
				c0.4-2.1,2.2-11.1,4.8-23.5l-0.4-0.1c-2.5-1-5.4-1.8-8-1c-0.3,0.1-0.7,0.3-0.9,0.5c0,3.2,0.4,5.8,0.7,7.7c0.3,1.5,0.5,2.6,2,9.4
				c0.8,3.7,1.4,6.2,1.4,7.7c0,0.7-0.1,1.2-0.3,1.6c-1.6,2.7-5.8,3-9.1,3.2c-2.8,0.2-7.4,0.5-9.4-1.7l0,0c-5.6,0.5-16,0.6-27.2-4.4
				c-5.2-2.3-15.3-6.8-21.2-17.7c-2.9-5.3-3.6-10-4-12.5c-1.6-11.1,1.6-20.1,4.2-26.8c7.9-20.4,17.6-38.6,23.4-48.9l0,0
				c-2.5-9.1-3.4-16.1-2.8-19.9c0.5-3.2,1.6-5.9,1.6-5.9c1.7-4.2,4-7,6.5-9.9c1.6-1.9,3.9-4.3,7-6.8l0.2,0.1
				c3.5-0.6,6.8-2.7,8.8-5.6c0,0,0,0,0,0c0,0,0,0,0,0c-0.8-1.7-1.7-3.4-2.7-5.2c-2-3.6-4.2-6.8-6.3-9.6l0.3-0.5
				c2.2,1.4,4.7,3.2,7.3,5.3c2.8,2.4,5.1,4.7,7,6.8c3.8-1.2,9-2.5,15.3-2.7c5-0.2,9.3,0.4,12.7,1c1.8-1.4,3.2-3.2,4.9-4.6
				c0.9-0.7,1.9-1.4,2.9-2c1.3-0.8,2.5-1.6,3.8-2.4c1.4-0.9,2.8-1.7,4.3-2.3c-4,4.9-7.2,10.5-9.5,16.4l-0.1,0
				c-0.1,0.9,0.7,1.5,1.4,2.1c1.7,1.2,3.4,2.4,5.3,3.1c2,0.7,4.2,0.9,6,0c0.1,0,0.1-0.1,0.1-0.1L113.7,34z M91.8,46.2
				c-0.1-0.3-0.2-0.8-0.4-1.4c-0.5-1.4-1.3-3.5-3.1-4.9c-1.5-1.1-3.1-1.2-4-1.3c-0.6,0-2.4-0.1-4.4,0.9c-0.8,0.4-2,1-3,2.3
				c-1.4,1.9-1.2,4-1.2,4.7c0.7,0.4,1.5,0.7,2.3,1C83.8,49.4,89.2,47.4,91.8,46.2z M81.7,35.1c1.8-5,6.7-8,6.2-8.5
				c-0.2-0.3-1.4,0.5-2.5,1.2c-2.8,1.7-4.4,3.8-5.1,4.8C79.9,33.2,77.1,37,78,38c0.4,0.4,1.4,0.1,1.5,0
				C80.9,37.5,81.5,35.8,81.7,35.1z M74.6,33.1c2.5-3.8,4.8-5.5,4.5-5.9c-0.3-0.4-2.3,0.7-3.1,1.2c-1.5,0.9-2.4,1.9-2.7,2.2
				c-3.6,3.9-8.2,13.6-7,14.3c0.2,0.1,1,0.4,1.8,0.1c0,0,0.1,0,0.1,0c1.5-0.5,2-2.4,2.8-4.6C70.9,40.4,72.4,36.4,74.6,33.1z
				 M64.2,35.7c1.5-4.3,6.3-6.9,5.9-7.4c-0.3-0.3-2,0.7-2.7,1.1c-2.9,1.7-4.3,3.8-4.7,4.2c-0.9,1.3-2.3,3.9-1.6,4.6
				c0.4,0.4,1.1,0.1,1.2,0C63.5,37.8,64,36.2,64.2,35.7z M61.8,46.1c0.6-2.1,0.1-4.2-1.2-5.6c-1.9-1.8-4.6-1.4-5.9-1.1
				c-0.5,0.1-1.1,0.2-1.6,0.5c-0.5,0.3-1,0.7-1.4,1.1c-1.2,1.1-2.3,2.4-2.9,4c-0.1,0.2-0.1,0.3,0,0.5c0.3,1.5,4.5,2.1,7.1,2
				C57.2,47.4,59.3,47.2,61.8,46.1z"/>
			<path class="st7" d="M141.2,178.8c-4.2,3.3-8,5-9.3,5.6c-14.1,6.1-26.8,2.4-30.1,1.4c0-0.1,0.1-0.4,0.1-0.9l0.1,0
				c3.1,0.3,24.9,2,36.5-12.2c5.2-6.4,7-14.5,8.1-19.3c2.2-9.8,1.5-17.7,1-22.1C144.9,105,127,73,124.2,68l-0.5,0
				c0.5-4.2,0.3-7.7-0.1-10.5l0.3,0c6.3,12.5,12.7,26.1,18.8,40.6c2.4,5.6,9.2,17.7,13.1,33.7c1.1,4.5,2.2,9.9,1.6,16.8
				c-0.2,1.9-0.5,3.7-0.8,5.4c-0.2,0.8-0.4,1.6-0.6,2.4c-1.4,5.3-3.3,8.8-3.8,9.7c-2.7,4.8-6,8.5-9.2,11.3
				C142.4,177.8,141.8,178.3,141.2,178.8z"/>
			<path class="st9" d="M91.4,44.8c0.2,0.6,0.3,1.1,0.4,1.4c-2.6,1.2-8.1,3.2-13.9,1.2c-0.8-0.3-1.6-0.6-2.3-1
				c-0.1-0.7-0.2-2.8,1.2-4.7c1-1.3,2.1-1.9,3-2.3c2-1,3.8-0.9,4.4-0.9c0.9,0.1,2.5,0.2,4,1.3C90.2,41.2,90.9,43.3,91.4,44.8z"/>
			<path class="st7" d="M88,26.6c0.5,0.5-4.4,3.5-6.2,8.5c-0.2,0.7-0.8,2.5-2.2,3c-0.1,0-1.1,0.4-1.5,0c-0.9-1,1.9-4.8,2.3-5.4
				c0.7-1,2.3-3,5.1-4.8C86.5,27.1,87.7,26.4,88,26.6z"/>
			<path class="st7" d="M83.7,182.9c0,0.2-0.1,0.4-0.1,0.7l-0.3,0c0-1.5-0.6-4-1.4-7.7c-1.5-6.8-1.8-7.8-2-9.4
				c-0.3-1.9-0.6-4.5-0.7-7.7c0.2-0.2,0.6-0.4,0.9-0.5c2.6-0.9,5.4-0.1,8,1l0.4,0.1C85.8,171.7,84,180.7,83.7,182.9z"/>
			<path class="st7" d="M79,27.2c0.3,0.4-2,2.1-4.5,5.9c-2.1,3.3-3.6,7.4-3.6,7.4c-0.8,2.1-1.3,4-2.8,4.6c0,0,0,0-0.1,0
				c-0.8,0.3-1.6,0-1.8-0.1c-1.2-0.8,3.3-10.4,7-14.3c0.3-0.3,1.2-1.3,2.7-2.2C76.7,27.9,78.7,26.8,79,27.2z"/>
			<path class="st7" d="M70.1,28.2c0.4,0.5-4.4,3.1-5.9,7.4c-0.2,0.6-0.7,2.1-1.9,2.5c-0.1,0-0.9,0.3-1.2,0
				c-0.7-0.7,0.7-3.3,1.6-4.6c0.3-0.5,1.8-2.6,4.7-4.2C68.1,28.9,69.8,27.9,70.1,28.2z"/>
			<path class="st3" d="M68.1,48.4c0.2,0.4,0,0.9-0.4,1.2c-0.4,0.3-0.8,0.5-1.2,0.6c-0.8,0.3-1.4,0.9-2,1.5l-0.3-0.5
				c-0.2-0.8-0.4-1.7-0.5-2.6c0-0.3-0.1-0.5,0.1-0.8c0.1-0.2,0.5-0.3,0.7-0.4c1-0.2,1.9-0.1,2.8,0.3C67.6,48,67.9,48.2,68.1,48.4z"
				/>
			<path class="st7" d="M65.4,148.4l-0.4,0.1c-1.2-1.6-2.7-3.9-3.8-6.7c-1.6-3.9-2.1-7.5-2.2-9.8l0.1-0.1
				C61.9,137,64.1,142.6,65.4,148.4z"/>
			<path class="st9" d="M60.5,40.6c1.4,1.3,1.8,3.5,1.2,5.6c-2.5,1.1-4.5,1.3-5.8,1.3c-2.6,0.1-6.9-0.5-7.1-2c0-0.1,0-0.2,0-0.5
				c0.5-1.5,1.6-2.8,2.9-4c0.4-0.4,0.9-0.8,1.4-1.1c0.5-0.2,1-0.4,1.6-0.5C55.9,39.2,58.7,38.8,60.5,40.6z"/>
			<path class="st1" d="M60.9,28.5C60.9,28.5,60.9,28.5,60.9,28.5C60.9,28.5,60.9,28.5,60.9,28.5C60.9,28.5,60.9,28.5,60.9,28.5z"/>
			<path class="st7" d="M50.5,23.8c-0.1-4.3,0.3-7.9,0.9-10.8l0.5,0.1c0.1,0.1,0.2,0.1,0.3,0.2l-0.3,0.5c2.1,2.8,4.2,6,6.3,9.6
				c1,1.8,1.9,3.5,2.7,5.2c0,0,0,0,0,0c-2.1,2.9-5.3,5-8.8,5.6L51.9,34C51.3,31.3,50.7,27.8,50.5,23.8z"/>
		</g>
	</g>
</g>
<path class="st10" d="M65.1,173.1c-3.7-4.4-8.2-8-12.7-11.5c-4.4-3.5-8.3-7.6-11.9-11.9c-3.7-4.3-6.7-9-7.8-14.7
	c-1.3-6.5-0.3-13.3,0.5-19.8c0.3-2.2-3.1-3.2-3.4-0.9c-1.5,10.9-2.6,22.3,3.6,32c2.9,4.5,6.6,8.4,10.3,12.3c3.9,4.1,8.6,7.2,12.8,11
	c3.7,3.4,11.4,9.5,7.8,15.2c-1.2,1.9,1.9,3.7,3.1,1.8C70.4,182.1,68.3,176.8,65.1,173.1z"/>
<path class="st10" d="M89.4,157.1c-2.8,9.2-4.4,19-5.1,28.5c-0.2,2.3,3.4,2.3,3.5,0c0.6-9.2,2.3-18.7,5-27.5
	C93.5,155.8,90,154.9,89.4,157.1z"/>
<path class="st10" d="M62,143.9c-5.1-1.6-8.6-6.8-11.2-11.2c-3.1-5.4-3.8-11.3-2.9-17.4c0.4-2.2-3.1-3.2-3.4-0.9
	c-1.1,7.1-0.4,13.9,3.2,20.2c3,5.3,7.3,10.9,13.3,12.8C63.3,148,64.2,144.6,62,143.9z"/>
<path class="st10" d="M109.3,130.6c-1.5,2.5-2.7,5.1-3.7,7.8c-1,2.7-1.5,5.7-3.1,8.1c-1.3,1.9,1.8,3.7,3.1,1.8
	c1.6-2.4,2.1-5.1,3-7.8c1-2.8,2.3-5.5,3.8-8.1C113.6,130.5,110.5,128.7,109.3,130.6z"/>
<path class="st10" d="M61.5,182.3c-9.2,0.2-18-0.5-25.9-5.5c-3.5-2.2-6.6-4.9-9.5-7.8c-2.9-2.9-6-6-8-9.5
	c-4.1-7.4-1.9-16.5-0.1-24.2c1.1-4.5,2.1-9.1,3.7-13.5c1.5-4.5,3.7-8.6,5.8-12.9c4.4-9,8.7-18,13.5-26.8c2.9,8.6,6.6,16.8,7.5,16.5
	c0.3-0.1,0.2-1,0.2-1.7c-0.6-8-4.3-15.2-4.8-17c-1-3.7-4-9.2-3.7-15.9c0.4-6.7,3.5-12.5,8.9-22.5c2.5-4.5,3.9-6.6,3.5-7
	c-0.7-0.6-7.1,4.5-11.2,11.7c-2.9,5-5,10-4.9,15.9c0.1,4.9,0.9,8.8,3.1,15.8c-0.3,0.1-0.6,0.4-0.8,0.8c-4.9,8.9-9.3,18.1-13.8,27.2
	c-2.2,4.4-4.5,8.8-6.2,13.4c-1.8,4.7-2.9,9.6-4.1,14.4c-2.2,9.4-3.3,17.2-0.5,26c0.9,2.6,2.4,7.3,6.5,11.5c2.3,2.4,5.1,4,10.7,7
	c5.6,3.1,8.5,5.1,13,6.2c5.6,1.4,11.4,1.4,17,1.3C63.8,185.8,63.8,182.2,61.5,182.3z"/>
<path class="st3" d="M80.2,39.9c-0.6,0.7-0.9,1.6-1.1,2.4c-0.1,0.8-0.4,2.1,0.3,2.7c0.5,0.4,1,0.5,1.6,0.2c0.6-0.3,0.9-1,1-1.6
	c0.1-0.7,0.2-1.4,0.4-2.1c0.4-1.5-1.6-2.3-2.4-1c0,0.1-0.1,0.2-0.2,0.2c-0.9,1.4,1.4,2.8,2.3,1.3c0-0.1,0.1-0.2,0.2-0.2
	c-0.8-0.3-1.6-0.7-2.4-1c-0.1,0.5-0.2,1-0.3,1.5c0,0.2-0.1,0.5-0.1,0.7c0,0.1,0,0.1,0,0.2c-0.1,0.3,0,0.2,0.2-0.1
	c0.5,0.1,1.1,0.1,1.6,0.2c0,0,0,0-0.1,0c0.1,0.2,0.2,0.4,0.3,0.6c-0.1-0.3,0.2-1.6,0.5-1.9c0.5-0.5,0.5-1.4,0-1.9
	C81.6,39.4,80.6,39.4,80.2,39.9L80.2,39.9z"/>
<path class="st3" d="M52.8,40.9c-0.3,0.5-0.7,1-0.9,1.5c-0.3,0.7-0.2,1.7,0.5,2.2c0.8,0.6,1.8,0.2,2.2-0.6c0.3-0.6,0.5-1.2,0.7-1.8
	c0.2-0.6-0.3-1.5-0.9-1.6c-0.8-0.2-1.4,0.2-1.6,0.9c-0.1,0.3-0.2,0.6-0.3,0.8c0.1-0.2-0.1,0.3-0.1,0.2c0,0.1-0.1,0.2-0.2,0.3
	c0.2-0.2,0.3-0.3,0.5-0.5c0,0,0,0-0.1,0c0.5,0,0.9,0,1.3,0c0,0,0,0,0,0c0.2,0.2,0.3,0.3,0.5,0.5c0.1,0.1,0.1,0.3,0.1,0.5
	c0,0,0-0.1,0-0.1c-0.1,0.2,0.1-0.2,0.1-0.2c0.2-0.3,0.3-0.5,0.5-0.8c0.4-0.6,0.1-1.5-0.5-1.8C53.9,40,53.2,40.2,52.8,40.9L52.8,40.9
	z"/>
<path class="st3" d="M50.8,12.8c-0.3,3-0.5,6-0.8,9c-0.2,2.6-0.6,5.3-0.2,7.9c0.2,1.5,0.6,2.9,1.3,4.2c0.5,0.9,1.9,0.1,1.4-0.8
	c-1.6-2.8-1.3-6.1-1.1-9.1c0.3-3.7,0.6-7.5,1-11.2c0-0.4-0.4-0.8-0.8-0.8C51.1,12,50.8,12.3,50.8,12.8L50.8,12.8z"/>
<path class="st3" d="M66.7,26.2c3.5-0.9,7-1.7,10.6-2.2c3.5-0.5,7.1-0.7,10.6-0.4c2,0.2,4,0.5,6,0.9c1,0.2,1.4-1.3,0.4-1.5
	c-3.6-0.8-7.3-1.1-11-1.1c-3.7,0.1-7.4,0.6-11,1.4c-2,0.4-4,0.9-6.1,1.4C65.3,24.9,65.7,26.4,66.7,26.2L66.7,26.2z"/>
<path class="st3" d="M95.1,24.3c1.2-1,2.3-2.1,3.4-3.2c1.2-1.1,2.4-2.1,3.8-2.9c1.4-0.9,2.9-1.8,4.3-2.7c1.3-0.8,2.7-1.7,4.2-2.2
	c1-0.3,0.5-1.9-0.4-1.5c-1.6,0.5-3,1.4-4.5,2.3c-1.5,0.9-3,1.9-4.5,2.8c-1.4,0.9-2.8,1.9-4,3.1c-1.2,1.1-2.3,2.3-3.5,3.3
	c-0.3,0.3-0.3,0.9,0,1.1C94.3,24.6,94.7,24.6,95.1,24.3L95.1,24.3z"/>
<path class="st3" d="M109.8,12.9c2.1,5.4,3.3,11.1,3.4,16.9c0,1.6,0,3.3-0.2,4.9c0,0.4,0.4,0.8,0.8,0.8c0.5,0,0.8-0.4,0.8-0.8
	c0.5-5.9,0-11.8-1.6-17.5c-0.5-1.6-1-3.2-1.6-4.7c-0.2-0.4-0.5-0.7-1-0.6C110,12,109.7,12.5,109.8,12.9L109.8,12.9z"/>
<path class="st3" d="M109.8,11.9c-4.1,5.1-7.4,10.8-9.8,16.8c-0.2,0.4,0.2,0.9,0.6,1c0.5,0.1,0.8-0.2,1-0.6
	c2.3-5.8,5.5-11.3,9.4-16.1c0.3-0.3,0.3-0.8,0-1.1C110.7,11.6,110.1,11.5,109.8,11.9L109.8,11.9z"/>
<path class="st3" d="M51.6,13.8C56.9,17.1,61.8,21.2,66,26c0.7,0.8,1.8-0.4,1.1-1.1c-4.3-4.8-9.2-9-14.7-12.5
	C51.5,11.8,50.7,13.2,51.6,13.8L51.6,13.8z"/>
<path class="st3" d="M51.3,14.1c3.5,4.8,6.6,9.9,9.2,15.2c0.5,0.9,1.8,0.1,1.4-0.8c-2.6-5.3-5.7-10.4-9.2-15.2
	C52.4,13,52,12.8,51.6,13C51.2,13.2,51,13.8,51.3,14.1L51.3,14.1z"/>
<path class="st3" d="M51.4,33.4c-2.1,1.8-4.2,3.7-6,5.8c-1.6,1.8-3.3,3.8-4.7,5.8c-2.5,3.6-4.1,7.9-4.6,12.3c-0.3,3,0.1,6.2,0.6,9.2
	c0.8,4.5,1.9,9,3.2,13.4c1.7,5.7,3.7,11.2,5.8,16.7c0.3,0.8,0.6,1.5,0.9,2.3c0.2,0.4,0.5,0.7,1,0.6c0.4-0.1,0.7-0.6,0.6-1
	C46,93,43.9,87.4,42.1,81.6c-1.4-4.5-2.7-9.1-3.5-13.8c-0.6-3.1-1.1-6.3-0.9-9.5c0-0.3,0-0.6,0.1-0.9c0-0.1,0-0.2,0-0.4
	c0,0,0,0.1,0,0c0-0.1,0-0.1,0-0.2c0.2-1.3,0.5-2.7,0.9-4c0.6-1.9,1.3-3.6,2.3-5.3c1.3-2.2,2.9-4.1,4.5-6.1c1.6-1.9,3.4-3.7,5.2-5.4
	c0.6-0.5,1.2-1,1.8-1.5c0.3-0.3,0.3-0.8,0-1.1C52.2,33.1,51.8,33.1,51.4,33.4L51.4,33.4z"/>
<path class="st3" d="M113.4,35.1c2.6,4.1,4.8,8.4,6.7,12.8c1.7,3.8,2.8,7.7,3.1,11.8c0.2,2.9,0.1,5.9-0.3,8.8
	c-0.1,0.4,0.4,0.8,0.8,0.8c0.5,0,0.7-0.4,0.8-0.8c0.6-4.7,0.5-9.5-0.6-14.1c-0.5-2-1.2-4-2-5.9c-1.1-2.6-2.3-5.1-3.6-7.6
	c-1.1-2.2-2.4-4.4-3.7-6.5C114.2,33.5,112.8,34.3,113.4,35.1L113.4,35.1z"/>
<path class="st3" d="M123.3,57.8c6.7,13.3,13,26.8,18.8,40.6c1.6,3.9,3.6,7.6,5.3,11.4c2.6,5.8,4.9,11.8,6.6,17.9
	c1.8,6.3,3.1,12.7,2.7,19.2c-0.3,5.7-1.7,11.4-4.1,16.6c-3.9,8.3-10.8,15-18.8,19.2c-9,4.6-19.7,5.7-29.4,3.2
	c-0.6-0.1-1.2-0.3-1.8-0.5c-1-0.3-1.4,1.2-0.4,1.5c10,3,21.1,2.2,30.7-2.1c8.5-3.8,15.8-10.6,20.3-18.8c2.2-4,3.7-8.5,4.5-13
	c1.3-6.8,1-13.5-0.6-20.2c-1.5-6.5-3.6-13-6.2-19.2c-1.9-4.6-4.1-9.2-6.2-13.7c-1.1-2.4-2.2-4.9-3.2-7.4c-1.5-3.6-3.1-7.1-4.7-10.7
	c-3.1-6.8-6.3-13.6-9.6-20.2c-0.8-1.6-1.6-3.1-2.4-4.7C124.3,56,122.9,56.8,123.3,57.8L123.3,57.8z"/>
<path class="st11" d="M41.1,47.3"/>
<path class="st3" d="M39.1,76.1c-4.7,8.3-9.1,16.7-13.2,25.3c-2.6,5.5-5.1,11-7.4,16.5c-2,4.9-4.1,9.8-5.5,14.8
	c-2.9,10-2.9,21.1,1.6,30.6c2.2,4.6,5.4,8.8,9.4,12.1c3.1,2.6,6.5,4.6,10.1,6.4c4.5,2.1,9,3.9,13.9,4.9c4.6,1,9.4,1.3,14.1,1.1
	c0.8,0,1.6-0.1,2.5-0.2c1-0.1,1-1.7,0-1.6c-4.1,0.4-8.3,0.3-12.4-0.2c-5.3-0.7-10.5-2.3-15.3-4.5c-3.2-1.5-6.4-3.1-9.3-5.1
	c-3.8-2.7-7.2-6.1-9.6-10.1c-5.5-8.9-6.4-20.1-4-30.1c1.1-4.8,3-9.4,4.8-14c2.2-5.6,4.7-11.1,7.2-16.6c4.1-8.9,8.6-17.6,13.4-26.1
	c0.4-0.8,0.9-1.6,1.3-2.3C41,76,39.6,75.2,39.1,76.1L39.1,76.1z"/>
<path class="st3" d="M99.4,181.1c0.6,1,1.2,2.1,1.7,3.3c0.1,0.3,0.2,0.6,0.2,0.9c0,0.3-0.4,0.5-0.7,0.7c-0.8,0.5-1.7,1-2.6,1.4
	c-3.7,1.4-8.1,1.3-11.5-0.7c-0.8-0.5-1.5-1.1-1.8-2c-0.2-0.6-0.2-1.3-0.1-1.8c0.1-0.8,0.3-1.5,0.4-2.3c0.6-2.9,1.2-5.8,1.8-8.8
	c1-5,2.1-10,3.1-15c0.2-1-1.3-1.4-1.5-0.4c-1.7,7.9-3.4,15.8-4.9,23.8c-0.1,0.8-0.3,1.6-0.4,2.3c-0.1,0.9-0.1,1.8,0.1,2.7
	c0.4,1.1,1.2,1.9,2.1,2.5c3.6,2.4,8.7,2.6,12.7,1.2c1.1-0.4,2.3-0.9,3.3-1.6c0.6-0.4,1.2-0.8,1.5-1.5c0.2-0.5,0.1-1,0-1.5
	c-0.2-0.9-0.6-1.7-1.1-2.5c-0.3-0.6-0.6-1.1-0.9-1.7C100.2,179.4,98.8,180.2,99.4,181.1L99.4,181.1z"/>
<path class="st3" d="M137.7,122.8c0.7,2.6,0.5,5.4,0.4,8c-0.2,2.7-0.5,5.3-1.1,7.9c-1.1,4.6-3.4,8.8-6.3,12.6
	c-2.9,3.8-6.4,7.2-10,10.3c-1.9,1.7-4,3.4-6.1,4.8c-2,1.3-4,2.4-6.1,3.6c-2.1,1.2-4.3,2.4-6.1,4.1c-1.8,1.6-4,4.2-3.2,6.8
	c0.3,1,1.9,0.6,1.5-0.4c-0.4-1.2,0.3-2.3,1-3.2c0.6-0.9,1.3-1.6,2.1-2.3c1.6-1.4,3.5-2.5,5.3-3.5c2-1.1,4.1-2.2,6-3.5
	c2.1-1.5,4.2-3.1,6.1-4.8c7.1-6.2,14.3-13.6,16.9-22.9c0.8-2.9,1.2-6,1.4-9c0.2-3,0.4-6-0.4-8.9
	C138.9,121.4,137.4,121.8,137.7,122.8L137.7,122.8z"/>
<path class="st3" d="M29,114.2c-0.8,7-1.2,14.2,0,21.2c0.5,3.1,1.4,6.2,2.7,9.1c1.1,2.5,2.5,4.8,4.1,6.9c2.9,4,6.4,7.6,10.1,10.8
	c2.1,1.8,4.2,3.5,6.4,5.1c0.6,0.4,0.9,0.7,1.5,1.2c1,0.9,2.1,1.8,3,2.7c2.4,2.3,4.5,4.8,6.4,7.6c0.3,0.5,0.6,1,0.9,1.4
	c0-0.3,0-0.5,0-0.8c-1.1,1.9-2.1,4.4-1.1,6.5c0.8,1.8,2.7,2.7,4.6,3c1.9,0.3,3.9,0.3,5.8,0.2c2.1-0.1,4.3-0.2,6.3-0.9
	c1.6-0.5,3.7-1.6,4.1-3.5c0.4-1.5,0-3.2-0.3-4.6c-0.8-4.1-1.8-8.1-2.7-12.2c-0.7-3.2-1-6.6-1-9.9c0-0.7,0-1.5,0-2.2c0-1-1.6-1-1.6,0
	c-0.1,3.9,0.1,7.8,0.8,11.6c0.6,3.2,1.4,6.3,2.1,9.5c0.4,1.9,1,4,1.1,5.9c0,0.3,0,0.6,0,1c0,0.1,0,0.2,0,0.4c0-0.2,0,0.1,0,0.2
	c0,0.1-0.1,0.3-0.1,0.2c0.1-0.1,0,0,0,0c-0.1,0.1-0.1,0.2-0.2,0.3c-0.2,0.3-0.5,0.6-0.8,0.8c-1.5,1.2-3.7,1.4-5.5,1.6
	c-1.8,0.2-3.7,0.3-5.5,0.2c-1.6,0-3.6-0.2-4.9-1.2c-1.5-1.2-1.1-3.4-0.4-5c0.2-0.4,0.4-0.8,0.6-1.1c0.1-0.2,0.1-0.6,0-0.8
	c-3.1-4.9-7-9.2-11.6-12.8c-0.7-0.5-1.4-1.1-2.1-1.6c-0.2-0.2-0.5-0.4-0.7-0.5c-0.1,0-0.1-0.1-0.2-0.1c0.1,0.1-0.1,0-0.1-0.1
	c-0.1-0.1-0.3-0.2-0.4-0.3c-0.7-0.5-1.3-1.1-2-1.6c-3.6-3-7-6.3-10-10c-1.6-2-3.1-4.2-4.4-6.5c-1.4-2.6-2.4-5.3-3.1-8.1
	c-1.6-6.8-1.4-14-0.7-20.9c0.1-0.9,0.2-1.7,0.3-2.6c0-0.4-0.4-0.8-0.8-0.8C29.4,113.4,29.1,113.8,29,114.2L29,114.2z"/>
<path class="st3" d="M43.9,114.9c-1.5,5.9-1,12.3,1.4,18c1.2,2.9,2.9,5.5,5,7.6c1.9,1.9,4.1,3.6,6.4,5.1c2.6,1.7,5.4,3,8.3,4
	c0.3,0.1,0.7-0.1,0.9-0.4c0.2-0.3,0.1-0.7-0.1-1c-3.6-4.7-5.7-10.4-6-16.3c0-1-1.6-1-1.6,0c0.2,5,1.7,10,4.3,14.3
	c0.6,1.1,1.4,2.1,2.1,3.1c0.3-0.4,0.5-0.9,0.8-1.3c-4.9-1.7-9.4-4.4-13.2-7.9c-1-0.9-2-2-2.9-3.1c-0.9-1.2-1.6-2.5-2.2-3.8
	c-1.2-2.6-2-5.4-2.4-8.2c-0.4-3.2-0.2-6.5,0.6-9.7C45.7,114.3,44.1,113.9,43.9,114.9L43.9,114.9z"/>
<path class="st3" d="M124.8,125.4c-2.2,4.3-5,8.1-8.7,11.2c-1.8,1.5-3.9,2.8-5.8,4.2c-2.1,1.6-3.9,3.5-5.3,5.8
	c-1.4,2.3-2.4,4.9-3,7.5c0.5,0.1,1,0.1,1.6,0.2c-0.5-6.9,1.1-13.9,4.5-20c0.7-1.3,1.6-2.6,2.5-3.8c0.3-0.4,0.1-0.9-0.3-1.1
	c-0.4-0.2-0.8-0.1-1.1,0.3c-4.2,5.7-6.7,12.5-7.2,19.5c-0.1,1.7-0.1,3.3,0,5c0.1,0.9,1.4,1.1,1.6,0.2c1.1-4.8,3.5-9.2,7.4-12.2
	c1.9-1.5,4-2.7,5.8-4.2c1.6-1.3,3.2-2.8,4.5-4.4c1.9-2.3,3.5-4.8,4.9-7.5C126.6,125.3,125.2,124.5,124.8,125.4L124.8,125.4z"/>
<path class="st3" d="M65.1,51.1c-0.2-0.6-0.3-1.3-0.4-1.9c0-0.2-0.2-0.6-0.1-0.8c-0.1,0.2-0.1,0,0,0.1c0.1,0,0.4-0.1,0.5-0.1
	c0.6,0,1.2,0,1.8,0.2c0.1,0,0.5,0.1,0.6,0.3c0-0.1,0,0,0,0c0,0.1-0.1,0.2-0.2,0.3c-0.4,0.3-1,0.4-1.5,0.7c-0.5,0.3-1,0.7-1.4,1.1
	c-0.8,0.8-1.4,1.8-1.6,3c-0.4,2.3,0.5,4.7,2.6,5.9c2,1.1,4.5,1,6.6,0.3c1.3-0.4,2.6-1,3.5-2.1c0.9-1.1,1.3-2.5,0.9-3.9
	c-0.3-1-1.8-0.6-1.5,0.4c0.7,2.4-2.2,3.8-4.1,4.2c-1.9,0.5-4.4,0.4-5.7-1.3c-1.3-1.7-1-4.1,0.5-5.5c0.4-0.4,0.8-0.6,1.2-0.9
	c0.5-0.3,1.2-0.4,1.6-0.9c0.4-0.4,0.7-1,0.7-1.6c-0.1-0.8-0.6-1.2-1.3-1.5c-0.7-0.3-1.5-0.4-2.2-0.4c-0.7,0-1.5,0-2.1,0.5
	c-0.6,0.5-0.5,1.3-0.4,2c0.1,0.8,0.3,1.5,0.5,2.2C63.8,52.5,65.4,52.1,65.1,51.1L65.1,51.1z"/>
<path class="st3" d="M56.2,51.4c-0.6,2.2-1,5,1.1,6.5c1.9,1.5,4.5,0.7,6.3-0.5c-0.3-0.4-0.6-0.8-1-1.2c-0.8,0.7-1.8,1.4-2.5,2.2
	c-0.6,0.6-1,1.4-1.3,2.1c-0.5,1.2-0.4,2.4,0,3.6c0.6,1.5,1.5,2.9,2.5,4.2c1.3,1.7,2.7,3.3,4.1,4.8c1.4,1.6,2.8,3.1,4.3,4.5
	c0.7,0.7,1.9-0.4,1.1-1.1c-2.7-2.6-5.2-5.4-7.5-8.2c-1-1.2-2-2.5-2.7-4c-0.3-0.5-0.5-1.1-0.6-1.6c-0.1-0.4-0.1-0.9,0.1-1.3
	c0.2-0.6,0.5-1.3,1-1.8c0.3-0.4,0.8-0.7,1.2-1.1c0.5-0.4,1-0.9,1.5-1.3c0.7-0.6-0.2-1.8-1-1.2c-1.3,0.9-3.2,1.7-4.6,0.6
	c-1.5-1.1-0.9-3.4-0.5-4.8C58,50.8,56.5,50.4,56.2,51.4L56.2,51.4z"/>
<path class="st3" d="M76.6,46.5c-0.1-1.4,0.1-2.7,0.8-3.9c0.8-1.3,2.2-2.2,3.7-2.7c2.8-1,6.2-0.5,8.1,1.9c1,1.3,1.6,3,2,4.6
	c0.1-0.3,0.2-0.6,0.4-0.9c-4.8,2.2-10.5,2.8-15.3,0.3c-0.9-0.5-1.7,0.9-0.8,1.4c3,1.5,6.3,2.1,9.6,1.8c2.5-0.3,5-1,7.3-2.1
	c0.3-0.1,0.4-0.6,0.4-0.9c-0.4-1.6-1-3.3-2-4.7c-1.2-1.7-2.9-2.9-5-3.3c-1.5-0.3-3-0.2-4.5,0.2c-1.8,0.5-3.6,1.4-4.8,2.9
	c-1.2,1.5-1.7,3.5-1.5,5.4c0,0.4,0.3,0.8,0.8,0.8C76.2,47.3,76.6,46.9,76.6,46.5z"/>
<path class="st3" d="M62.6,46.3c0.7-2.7-0.1-5.9-2.7-7.3c-1.1-0.5-2.3-0.7-3.6-0.6c-1.1,0.1-2.4,0.3-3.4,0.8c-1.3,0.6-2.4,1.9-3.3,3
	c-0.4,0.6-0.9,1.2-1.1,1.8c-0.3,0.6-0.5,1.2-0.3,1.9c0.3,0.9,1.3,1.4,2.2,1.7c1.1,0.4,2.3,0.6,3.5,0.7c2.9,0.2,5.7-0.2,8.4-1.4
	c0.4-0.2,0.5-0.8,0.3-1.1c-0.2-0.4-0.7-0.5-1.1-0.3c-2,0.9-4.1,1.3-6.2,1.2c-1,0-2-0.1-2.9-0.3c-0.8-0.2-1.7-0.4-2.3-0.8
	c0,0-0.1,0-0.1-0.1c0,0,0.1,0.1,0,0c0,0-0.1-0.1-0.1-0.1c-0.1-0.1,0,0,0,0c0,0-0.1-0.1-0.1-0.1c0,0.2,0,0,0-0.1
	c0-0.4,0.4-0.9,0.6-1.3c0.6-1,1.5-2,2.5-2.8c0.8-0.7,1.8-0.9,2.9-1.1c0.8-0.1,1.7-0.1,2.6,0c2.6,0.6,3.5,3.4,2.9,5.8
	C60.8,46.9,62.3,47.3,62.6,46.3z"/>
<path class="st3" d="M156.6,157.7c1.1-5.8,3-11.4,6.3-16.3c2.9-4.4,6.9-8,10.7-11.8c4.2-4.3,8.3-9,10.5-14.8
	c0.6-1.6,0.9-3.2,1.1-4.9c0.1-1.4,0-2.8,0-4.3c0-0.2,0-0.4,0-0.6c0,0.2,0,0,0,0c-0.1,0.1-0.1,0.2-0.3,0.3c-0.1,0-0.2,0-0.3,0
	c-0.1,0-0.1,0,0,0c0,0-0.2,0,0,0c0.1,0-0.1-0.1,0,0c0.1,0.1,0.1,0.1,0.2,0.2c0.3,0.3,0.4,0.5,0.7,0.9c0.3,0.5,0.6,1,0.9,1.5
	c2.9,4.9,4.8,10.4,5.3,16.1c0.5,6.1-0.2,12.3-2,18.2c-1.6,5.2-4,10.2-7.1,14.6c-0.3,0.5-0.7,0.9-1,1.4c0,0.1-0.1,0.1-0.2,0.2
	c0,0,0,0.1-0.1,0.1c0,0,0.1-0.1,0,0c-0.1,0.1-0.2,0.3-0.3,0.4c-0.2,0.3-0.5,0.6-0.7,0.9c-1.2,1.5-2.5,2.9-3.9,4.2
	c-3.7,3.6-8,6.6-12.6,8.9c-5.8,2.9-12.2,4.5-18.7,4.9c-1.2,0.1-2.5,0.1-3.7,0c-1,0-1,1.6,0,1.6c6.5,0.1,13-1,19.1-3.3
	c5.3-2.1,10.3-5.1,14.6-8.8c3-2.5,5.7-5.4,8-8.5c2.8-3.8,5.1-8,6.8-12.4c2.3-5.9,3.6-12.3,3.6-18.7c0-3.1-0.3-6.1-1-9.1
	c-0.7-2.9-1.7-5.6-3-8.3c-0.6-1.3-1.3-2.5-2-3.7c-0.5-0.8-1-1.7-1.8-2.4c-0.7-0.6-1.7-0.7-2,0.4c-0.1,0.4-0.1,0.9-0.1,1.4
	c0,0.7,0.1,1.4,0.1,2c0,3.2-0.9,6.2-2.4,9.1c-1.5,2.8-3.3,5.3-5.3,7.6c-3.9,4.5-8.7,8.3-12.4,13c-3.3,4.3-5.7,9.2-7.2,14.4
	c-0.5,1.7-0.9,3.4-1.2,5.1c-0.1,0.4,0.1,0.9,0.6,1C156,158.4,156.6,158.1,156.6,157.7L156.6,157.7z"/>
<g>
	<g id="XMLID_00000095309716193527598610000003406457924162321280_">
		<g>
			<path class="st1" d="M360.2,154.7c0.9-0.9,1.9-1.8,2.8-2.7C362.1,152.9,361.2,153.8,360.2,154.7z"/>
			<path class="st0" d="M349.7,147.8c0-0.1,0.1-0.2,0.1-0.3C349.7,147.6,349.7,147.7,349.7,147.8c0,0.3-0.1,0.6-0.2,0.9
				C349.6,148.4,349.6,148.1,349.7,147.8z"/>
			<path class="st1" d="M342.2,169c0.8-0.5,1.6-1.1,2.4-1.6C343.7,168,343,168.5,342.2,169z"/>
			<path class="st1" d="M342.2,169c-1.4,0.9-2.9,1.7-4.5,2.2c-0.2,0.1-0.4,0.2-0.7,0.2l-0.9-0.2c3.2-2.8,6.5-6.5,9.2-11.3
				c0.5-0.9,2.4-4.5,3.8-9.8c0.1-0.3,0.1-0.6,0.2-0.9c0.1-0.2,0.1-0.5,0.2-0.7c0.1-0.3,0.1-0.6,0.2-0.9c0-0.1,0-0.2,0-0.3
				c2-7.5,5.2-12.6,8-15.9c4.8-5.7,12-11,16.4-18.6c1.2-2.1,2.8-4.9,3.2-8.7c0-0.2,0.1-0.5,0.1-0.7l0.3,0c1.9,8.8,1.3,18.1-1.4,26.6
				c-1.6,5.2-4.1,10.1-7.2,14.5c-1.9,2.6-3.9,5-6.2,7.3c-0.9,0.9-1.8,1.8-2.8,2.7c-1.4,1.3-2.9,2.6-4.3,3.8
				c-1.4,1.2-2.9,2.3-4.3,3.5c-1.6,1.2-3.2,2.5-4.8,3.7c-0.8,0.6-1.5,1.2-2.3,1.7C343.7,168,343,168.5,342.2,169z"/>
			<path class="st0" d="M349.1,150.2c0.1-0.3,0.1-0.6,0.2-0.8C349.3,149.6,349.2,149.9,349.1,150.2c-1.4,5.3-3.3,8.8-3.8,9.8
				c-2.7,4.8-6,8.5-9.2,11.3h0c3.2-2.8,6.5-6.5,9.2-11.3C345.8,159,347.7,155.5,349.1,150.2z"/>
			<path class="st1" d="M337,171.5c0.2-0.1,0.5-0.1,0.7-0.2C337.5,171.3,337.2,171.4,337,171.5l-0.9-0.2l0,0L337,171.5z"/>
			<path class="st0" d="M349.7,170.7c-6.2,1.9-11.6,2.2-15.4,2.1c0.6-0.5,1.2-1,1.9-1.5h0l0.9,0.2c0.2-0.1,0.5-0.1,0.7-0.2
				c1.6-0.5,3.1-1.3,4.5-2.2c0.8-0.5,1.6-1.1,2.4-1.6c0.8-0.6,1.5-1.2,2.3-1.7c1.6-1.2,3.2-2.4,4.8-3.7c1.5-1.1,2.9-2.3,4.3-3.5
				c1.5-1.2,2.9-2.5,4.3-3.8c0.9-0.9,1.9-1.8,2.8-2.7c2.2-2.3,4.3-4.7,6.2-7.3c3.1-4.4,5.6-9.3,7.2-14.5c2.7-8.6,3.2-17.8,1.4-26.7
				l-0.3,0c0.2-2.9-0.3-4.8,0.2-5c0.9-0.3,4.2,5.7,5.8,10c4.7,12.8,1.8,29.4-6.7,42C374.8,153.5,366.1,165.7,349.7,170.7z"/>
			<polygon class="st0" points="336.1,171.3 336.1,171.3 336.1,171.3 336.1,171.3 336.1,171.3 			"/>
			<path class="st0" d="M336.1,171.3L336.1,171.3c-0.6,0.5-1.2,1.1-1.9,1.5h0C334.9,172.4,335.5,171.8,336.1,171.3z"/>
			<path class="st0" d="M317.8,120.9c-0.3,0.5-0.6,1.1-0.9,1.6C317.2,122,317.5,121.5,317.8,120.9z"/>
			<path class="st1" d="M317.2,61.8C317.2,61.8,317.2,61.8,317.2,61.8l-0.4,0v0L317.2,61.8z"/>
			<path class="st0" d="M306.4,27.8c-1.9,0.9-4.1,0.8-6.1,0c-0.2-0.1-0.5-0.2-0.8-0.3c0.2,0.1,0.5,0.2,0.7,0.3
				C302.3,28.6,304.5,28.7,306.4,27.8c0,0,0.1-0.1,0.1-0.1l0.2,0c0,0,0,0,0,0l-0.1,0C306.5,27.8,306.5,27.8,306.4,27.8z"/>
			<path class="st0" d="M293.7,22.7c2.3-5.9,5.6-11.5,9.5-16.4c0.1,0,0.1,0,0.2-0.1l0.1,0.2c2.7,6.8,3.8,14.1,3.2,21.4l0,0
				c0,0,0,0,0,0l-0.2,0c0,0.1-0.1,0.1-0.1,0.1c-1.9,0.9-4.1,0.8-6.1,0c-0.2-0.1-0.5-0.2-0.7-0.3c-0.5-0.2-0.9-0.4-1.3-0.7
				c-1.1-0.6-2.2-1.4-3.2-2.2c0,0,0,0,0,0C294.3,24.2,293.5,23.5,293.7,22.7L293.7,22.7z"/>
			<path class="st0" d="M301.7,141.1c-0.3,0.3-0.5,0.5-0.8,0.8c-0.5,0.5-1,1.1-1.5,1.7c-0.5,0.6-0.9,1.2-1.4,1.8
				c-0.7,0.9-1.3,1.8-2,2.7l-0.3-0.1c0.5-2.3,1.7-5.6,4.1-8.7c3.3-4.2,6.5-5,10.8-8.9c0.4-0.4,0.8-0.7,1.2-1.2
				c1.6-1.6,3.4-3.7,5.1-6.6c0.3-0.5,0.6-1,0.9-1.6c-0.2,0.5-0.3,0.9-0.5,1.4c-0.2,0.6-0.4,1.2-0.7,1.8c-0.7,1.8-1.4,3.5-2.4,5.1
				c-0.5,0.9-1.1,1.7-1.7,2.5C309.6,135.4,305.1,137.7,301.7,141.1z"/>
			<path class="st0" d="M300.9,141.9c-0.5,0.5-1,1.1-1.5,1.7C299.9,143,300.4,142.4,300.9,141.9z"/>
			<path class="st0" d="M299.6,27.6c-0.5-0.2-0.9-0.4-1.3-0.7C298.7,27.1,299.2,27.4,299.6,27.6z"/>
			<path class="st0" d="M299.4,143.5c-0.5,0.6-0.9,1.2-1.4,1.8C298.5,144.7,298.9,144.1,299.4,143.5z"/>
			<path class="st0" d="M298,145.3c-0.7,0.9-1.3,1.8-2,2.7C296.7,147.1,297.3,146.2,298,145.3z"/>
			<path class="st0" d="M294.9,178.9c3.1,0.3,25,2,36.6-12.2c5.2-6.4,7-14.5,8.1-19.3c2.2-9.8,1.5-17.7,1-22.2
				c-2.7-26.4-20.6-58.4-23.5-63.4h0c0,0,0,0,0,0l-0.4-0.1c0.5-4.2,0.4-7.7-0.1-10.6l0.3,0c6.4,12.6,12.7,26.1,18.8,40.7
				c2.4,5.6,9.2,17.7,13.1,33.7c1.1,4.5,2.2,9.9,1.6,16.8c-0.2,1.8-0.4,3.6-0.8,5.2c0,0.1,0,0.2-0.1,0.3c-0.1,0.3-0.1,0.6-0.2,0.9
				c-0.1,0.2-0.1,0.5-0.2,0.7c-0.1,0.3-0.1,0.6-0.2,0.8c-1.4,5.3-3.3,8.8-3.8,9.8c-2.7,4.8-6,8.5-9.2,11.3l0,0
				c-0.6,0.5-1.2,1.1-1.9,1.5h0l0,0c-4.3,3.3-8,5-9.3,5.6c-14.2,6.1-26.9,2.4-30.1,1.4C294.8,179.7,295,179.4,294.9,178.9
				L294.9,178.9z"/>
			<path class="st0" d="M280.9,20.4C280.9,20.4,280.9,20.4,280.9,20.4c-0.1-0.1-0.2-0.1-0.3,0C280.7,20.3,280.8,20.3,280.9,20.4z"/>
			<path class="st2" d="M277.2,32.4c0.8,0.1,2.5,0.2,4,1.3c0.4,0.2,0.7,0.5,0.9,0.8c0.2,0.2,0.4,0.4,0.5,0.6c0.4,0.5,0.7,1.1,1,1.6
				c0.3,0.7,0.5,1.3,0.7,1.8c0.2,0.6,0.3,1.1,0.4,1.4c-2.6,1.2-8.1,3.2-13.9,1.2c-0.8-0.3-1.6-0.6-2.3-1c-0.1-0.7-0.2-2.8,1.2-4.7
				c0.9-1.3,2.2-1.9,3-2.3C274.8,32.3,276.6,32.4,277.2,32.4z"/>
			<path class="st0" d="M276.5,176.9c0.3-2.1,2.2-11.1,4.8-23.6l0,0C278.7,165.8,276.9,174.8,276.5,176.9c0,0.2,0,0.5,0,0.9h0v0
				C276.5,177.4,276.5,177.1,276.5,176.9z"/>
			<path class="st0" d="M276.2,177.8c0-1.5-0.5-4-1.4-7.9c-1.5-6.8-1.8-7.8-2-9.4c-0.3-1.9-0.6-4.5-0.7-7.8c0.2-0.2,0.6-0.4,0.9-0.5
				c1-0.3,2.1-0.4,3.1-0.4c0.5,0,1,0.1,1.4,0.2c0.2,0,0.5,0.1,0.7,0.2c0.3,0.1,0.6,0.2,0.9,0.2c0.2,0.1,0.4,0.1,0.5,0.2
				c0.5,0.2,0.9,0.3,1.4,0.5l0.4,0.1c-2.6,12.4-4.5,21.4-4.8,23.6c0,0.2-0.1,0.5-0.1,0.9v0H276.2z"/>
			<path class="st0" d="M273.2,26.3c-0.3,0.4-1.8,2.5-2.3,4C271.5,28.8,272.9,26.7,273.2,26.3c0.7-1,2.3-3,5.1-4.8
				c0.4-0.2,0.7-0.4,1.1-0.6c-0.3,0.2-0.7,0.4-1.1,0.6C275.6,23.3,273.9,25.4,273.2,26.3z"/>
			<path class="st0" d="M270.8,31.5c-0.1-0.2-0.1-0.6,0-0.9c0-0.1,0.1-0.2,0.1-0.3c0.5-1.5,2-3.5,2.3-4c0.7-1,2.3-3,5.1-4.8
				c0.4-0.2,0.7-0.4,1.1-0.6c0.5-0.3,0.9-0.5,1.1-0.5c0.1-0.1,0.3,0,0.3,0c0.1,0.2-0.2,0.5-0.7,1c-0.1,0.1-0.1,0.1-0.2,0.2
				c-0.2,0.2-0.5,0.5-0.8,0.8c-0.1,0.1-0.2,0.2-0.2,0.2c-0.2,0.2-0.3,0.3-0.5,0.5c-0.1,0.1-0.2,0.2-0.3,0.3
				c-0.1,0.1-0.2,0.2-0.3,0.3c-0.2,0.2-0.4,0.4-0.5,0.6c-0.3,0.3-0.5,0.6-0.8,1c-0.3,0.5-0.7,0.9-1,1.5c-0.4,0.7-0.7,1.4-1,2.1
				c-0.2,0.5-0.5,1.6-1.3,2.4c-0.2,0.2-0.6,0.4-0.9,0.6c-0.1,0-1.1,0.4-1.5-0.1C270.9,31.7,270.8,31.6,270.8,31.5z"/>
			<path class="st0" d="M271,30.3c0,0.1-0.1,0.2-0.1,0.3C270.9,30.5,270.9,30.4,271,30.3z"/>
			<path class="st0" d="M271.1,21c-0.1,0.1-0.2,0.1-0.4,0.2C270.8,21.1,271,21,271.1,21z"/>
			<path class="st0" d="M268.8,22.1c-1.1,0.7-1.9,1.4-2.4,1.9C266.9,23.5,267.7,22.8,268.8,22.1c0.2-0.1,0.4-0.2,0.6-0.4
				C269.2,21.9,269,22,268.8,22.1z"/>
			<path class="st0" d="M266.4,24c-0.1,0.1-0.2,0.3-0.3,0.3c-3.4,3.7-7.7,12.5-7.1,14.2c-0.6-1.6,3.7-10.5,7.1-14.2
				C266.2,24.3,266.3,24.1,266.4,24z"/>
			<path class="st0" d="M261.9,23.2c0.1-0.1,0.2-0.2,0.4-0.3C262.2,23,262,23.1,261.9,23.2z"/>
			<path class="st0" d="M268.8,22.1c0.2-0.1,0.4-0.2,0.6-0.4c0.4-0.2,0.8-0.5,1.2-0.6c0.1-0.1,0.3-0.1,0.4-0.2
				c0.4-0.1,0.7-0.2,0.8-0.1c0.3,0.4-2,2.1-4.5,5.9c-0.5,0.8-1,1.7-1.5,2.6c-0.8,1.6-1.5,3.1-1.8,4c-0.1,0.1-0.1,0.2-0.1,0.3
				c-0.1,0.3-0.2,0.5-0.2,0.5c-0.8,2.1-1.3,4.1-2.8,4.6c0,0,0,0-0.1,0c-0.6,0.2-1.1,0.1-1.4,0c-0.1,0-0.1,0-0.1,0c0,0-0.1,0-0.1,0
				c-0.1,0-0.1-0.1-0.2-0.1c0,0-0.1,0-0.1-0.1c0,0,0,0,0,0c0,0,0-0.1,0-0.1c-0.6-1.6,3.7-10.4,7.1-14.2c0.1-0.1,0.2-0.2,0.3-0.3
				C266.9,23.6,267.7,22.8,268.8,22.1z"/>
			<path class="st0" d="M260.6,24.4c0.2-0.2,0.5-0.5,0.7-0.7C261.1,24,260.8,24.2,260.6,24.4z"/>
			<path class="st3" d="M259.7,44c0.2-0.1,0.4-0.2,0.6-0.3C260.1,43.8,259.9,43.9,259.7,44z"/>
			<path class="st0" d="M260.3,24.7c-0.1,0.1-0.2,0.2-0.2,0.2C260.2,24.8,260.2,24.8,260.3,24.7z"/>
			<path class="st1" d="M259.5,38.9c0.3,0.1,0.9,0.1,1.4,0c0,0,0.1,0,0.1,0c1.6-0.5,2-2.5,2.8-4.6c0,0,0.1-0.2,0.2-0.5
				c0-0.1,0.1-0.2,0.1-0.3c0.4-0.9,1-2.4,1.8-4c0.5-0.9,1-1.7,1.5-2.6c2.5-3.9,4.8-5.5,4.5-5.9c0,0,0,0,0,0
				c-0.1-0.1-0.4-0.1-0.8,0.1c-0.1,0.1-0.2,0.1-0.4,0.2c-0.4,0.2-0.9,0.4-1.2,0.6c-0.3,0.1-0.5,0.3-0.7,0.4
				c-1.1,0.7-1.9,1.4-2.4,1.9c-0.1,0.1-0.3,0.3-0.3,0.3c-3.5,3.7-7.7,12.5-7.1,14.2c0,0,0,0.1,0,0.1c0,0,0,0,0,0c0,0,0,0.1,0.1,0.1
				c0,0,0.1,0,0.2,0.1c0,0,0,0,0.1,0C259.4,38.8,259.4,38.8,259.5,38.9z M257.4,45.6c0.5-0.6,1.2-1.1,2-1.5c0.1,0,0.2-0.1,0.3-0.1
				c0.2-0.1,0.4-0.2,0.6-0.3c0.1-0.1,0.2-0.1,0.3-0.2c0.4-0.3,0.6-0.8,0.4-1.2c-0.1-0.1-0.2-0.2-0.3-0.3c-0.1,0-0.1-0.1-0.2-0.1
				c-0.1,0-0.1-0.1-0.2-0.1l0,0c-0.9-0.3-1.9-0.4-2.8-0.3c-0.1,0-0.3,0.1-0.4,0.1h0c-0.1,0.1-0.2,0.1-0.3,0.2c0,0.1-0.1,0.1-0.1,0.2
				c0,0,0,0,0,0c0,0.2,0,0.4,0,0.5c0.1,0.9,0.3,1.7,0.5,2.6l0,0L257.4,45.6z M254,31.9c0.4,0.3,1.1,0.1,1.2,0c1.2-0.4,1.7-2,1.9-2.5
				c0.6-1.8,1.8-3.3,3-4.5c0.1-0.1,0.2-0.2,0.2-0.2c0.1-0.1,0.2-0.2,0.2-0.2c0.2-0.2,0.5-0.5,0.7-0.7c0.2-0.2,0.4-0.4,0.6-0.6
				c0.1-0.1,0.2-0.2,0.4-0.3c0.5-0.5,0.8-0.8,0.7-0.9c0,0-0.1-0.1-0.2-0.1c-0.1,0-0.1,0-0.2,0c-0.6,0.1-1.8,0.8-2.3,1.1
				c-0.7,0.4-1.3,0.9-1.9,1.3c-0.4,0.3-0.8,0.7-1.1,1c-0.1,0.1-0.2,0.2-0.3,0.3c-0.8,0.8-1.2,1.4-1.4,1.7
				C254.7,28.6,253.3,31.2,254,31.9z M253.4,34.3c-0.7-0.7-1.5-1-2.3-1.2c-0.9-0.2-1.9-0.2-2.7-0.1c-0.4,0-0.6,0.1-0.9,0.1
				c0,0,0,0,0,0c-0.4,0.1-0.8,0.2-1.2,0.3c-0.1,0-0.3,0.1-0.4,0.2c-0.5,0.3-1,0.7-1.4,1.1c-0.2,0.1-0.3,0.3-0.4,0.4
				c-1,1-1.9,2.2-2.4,3.5c0,0,0,0.1,0,0.2c0,0.1,0,0.2,0,0.3c0.3,1.5,4.5,2.1,7.2,2.1c0.6,0,1.4-0.1,2.3-0.3c0.1,0,0.2,0,0.3-0.1
				c0.4-0.1,0.8-0.2,1.2-0.3c0.6-0.2,1.3-0.4,2-0.7h0c0-0.2,0.1-0.3,0.1-0.4c0.1-0.3,0.1-0.6,0.1-0.9c0,0,0,0,0-0.1
				C255,36.9,254.5,35.4,253.4,34.3z M303.2,6.2c-4,5-7.2,10.5-9.5,16.4l-0.1,0c-0.1,0.9,0.7,1.6,1.4,2.1c0,0,0,0,0,0
				c1.1,0.8,2.1,1.5,3.2,2.2c0.4,0.2,0.9,0.5,1.3,0.7c0.2,0.1,0.5,0.2,0.8,0.3c2,0.7,4.2,0.9,6.1,0c0.1,0,0.1-0.1,0.1-0.1l0.1,0
				c0,0.2,0,0.4,0,0.6l0.3,0.1c1.6,2.6,3.9,6.4,6.1,11.3c0.8,1.8,1.7,3.8,2.4,6c0.5,1.4,0.9,3.2,1.3,5.5c0.4,2.9,0.6,6.4,0.1,10.6
				l0,0v0l0.4,0.1c2.9,5,20.8,37,23.5,63.4c0.5,4.4,1.2,12.3-1,22.2c-1.1,4.8-2.9,12.9-8.1,19.3c-11.6,14.2-33.5,12.5-36.6,12.2
				l-0.1,0c0.1,0.5,0,0.8-0.1,0.9c-0.1,0.3-0.4,0.6-0.8,0.8c-4.2,2.9-10,3.4-14.6,1.1c-1.2-0.6-2.3-1.4-2.7-2.6
				c-0.2-0.5-0.2-0.9-0.2-1.3h0c0-0.4,0-0.7,0.1-0.9c0.3-2.2,2.2-11.1,4.8-23.6l0,0l-0.4-0.1c-0.4-0.2-0.9-0.3-1.4-0.5
				c-0.2-0.1-0.3-0.1-0.5-0.2c-0.3-0.1-0.6-0.2-0.9-0.2c-0.2-0.1-0.5-0.1-0.7-0.2c-0.5-0.1-1-0.2-1.4-0.2c-1.1-0.1-2.1,0-3.1,0.3
				c-0.3,0.1-0.7,0.3-0.9,0.5c0,3.2,0.4,5.8,0.7,7.8c0.3,1.6,0.5,2.6,2,9.4c0.9,3.9,1.4,6.3,1.4,7.9c0,0.6-0.1,1.1-0.3,1.4
				c-1.6,2.8-5.8,3-9.1,3.2c-2.8,0.2-7.4,0.5-9.4-1.7l0,0c-5.7,0.5-16,0.6-27.2-4.4c-5.2-2.3-15.3-6.8-21.2-17.8
				c-2.9-5.3-3.6-10.1-4-12.5c-1.6-11.1,1.6-20.2,4.2-26.9c7.9-20.4,17.6-38.7,23.5-49c-2.5-9.1-3.4-16.1-2.8-20
				c0.5-3.2,1.6-5.9,1.6-5.9c1.7-4.2,4-7,6.5-9.9c1.6-1.9,3.9-4.3,7-6.8h0c0,0,0,0,0,0l0.2,0.1c3.5-0.6,6.8-2.7,8.9-5.6c0,0,0,0,0,0
				c0,0,0,0,0,0v0c0,0,0,0,0,0c0,0,0,0,0,0c-0.4-0.8-0.9-1.7-1.3-2.6c-0.5-0.9-0.9-1.7-1.4-2.6c-2.1-3.6-4.2-6.8-6.3-9.6l0.3-0.5
				c2.2,1.4,4.7,3.2,7.3,5.3c2.8,2.4,5.1,4.7,7,6.8c3.8-1.2,9-2.5,15.3-2.7c5-0.2,9.3,0.4,12.7,1c1.8-1.4,3.2-3.2,4.9-4.6
				c0.9-0.7,1.9-1.4,2.9-2c1.3-0.8,2.5-1.6,3.8-2.4C300.3,7.6,301.7,6.8,303.2,6.2z M296,148c0.7-0.9,1.3-1.8,2-2.7
				c0.4-0.6,0.9-1.2,1.4-1.8c0.5-0.6,1-1.1,1.5-1.7c0.3-0.3,0.5-0.5,0.8-0.8c3.5-3.3,7.9-5.6,10.9-9.4c0.6-0.8,1.2-1.6,1.7-2.5
				c1-1.6,1.7-3.3,2.4-5.1c0.2-0.6,0.5-1.2,0.7-1.8c0.2-0.5,0.3-0.9,0.5-1.4c0,0,0,0,0,0.1c-0.3,0.5-0.6,1.1-0.9,1.6
				c-1.7,2.8-3.5,5-5.1,6.6c-0.4,0.4-0.8,0.8-1.2,1.2c-4.3,3.9-7.5,4.7-10.8,8.9c-2.4,3.1-3.5,6.4-4.1,8.7L296,148z M272.4,31.8
				c0.4-0.1,0.7-0.3,0.9-0.6c0.8-0.7,1.1-1.9,1.3-2.4c0.3-0.8,0.6-1.5,1-2.1c0.3-0.5,0.6-1,1-1.5c0.2-0.4,0.5-0.7,0.8-1
				c0.2-0.2,0.4-0.4,0.5-0.6c0.1-0.1,0.2-0.2,0.3-0.3s0.2-0.2,0.3-0.3c0.2-0.2,0.3-0.3,0.5-0.5c0.1-0.1,0.2-0.2,0.2-0.2
				c0.3-0.3,0.6-0.6,0.8-0.8c0.1-0.1,0.1-0.1,0.2-0.2c0.5-0.5,0.8-0.9,0.7-1c0,0,0,0,0,0c-0.1-0.1-0.2-0.1-0.3,0
				c-0.3,0.1-0.7,0.3-1.1,0.5c-0.3,0.2-0.7,0.4-1.1,0.6c-2.8,1.7-4.4,3.8-5.1,4.8c-0.3,0.4-1.8,2.5-2.3,4c-0.1,0.1-0.1,0.2-0.1,0.3
				c-0.1,0.3-0.1,0.7,0,0.9c0,0.1,0.1,0.2,0.1,0.2C271.3,32.2,272.3,31.9,272.4,31.8z M272.8,33.3c-0.8,0.4-2,1-3,2.3
				c-1.4,1.9-1.3,4-1.2,4.7c0.7,0.4,1.4,0.7,2.3,1c5.8,1.9,11.3,0,13.9-1.2c-0.1-0.3-0.2-0.8-0.4-1.4c-0.2-0.5-0.4-1.2-0.7-1.8
				c-0.2-0.5-0.6-1.1-1-1.6c-0.2-0.2-0.3-0.4-0.5-0.6c-0.3-0.3-0.6-0.6-0.9-0.8c-1.5-1.1-3.2-1.2-4-1.3
				C276.6,32.4,274.8,32.3,272.8,33.3z M258.2,142.4c-1-4.3-2.4-8.6-4.3-12.6c-0.6-1.3-1.3-2.7-2-4h0l-0.1,0.1h0c0,0.1,0,0.3,0,0.5
				c0,0.3,0,0.6,0.1,1c0,0.3,0.1,0.7,0.1,1.1c0.1,0.4,0.1,0.8,0.2,1.2c0.3,1.8,0.8,3.9,1.8,6.1c1.2,2.9,2.6,5.1,3.8,6.7h0
				L258.2,142.4z"/>
			<path class="st0" d="M259,38.6C259,38.6,259,38.6,259,38.6C259,38.6,259,38.6,259,38.6z"/>
			<path class="st3" d="M257.4,41.4c0.9-0.2,1.9-0.1,2.8,0.3c0.1,0,0.1,0.1,0.2,0.1c0.1,0,0.1,0.1,0.2,0.1c0.1,0.1,0.2,0.2,0.3,0.3
				c0.2,0.4,0,0.9-0.4,1.2c-0.1,0.1-0.2,0.1-0.3,0.2c-0.2,0.1-0.4,0.2-0.6,0.3c-0.1,0-0.2,0.1-0.3,0.1c-0.8,0.3-1.4,0.8-2,1.5
				l-0.3-0.5c-0.2-0.8-0.4-1.7-0.5-2.6c0-0.2-0.1-0.4,0-0.6c0,0,0,0,0,0c0-0.1,0-0.1,0.1-0.2c0.1-0.1,0.2-0.2,0.3-0.3h0
				C257.1,41.5,257.2,41.5,257.4,41.4z"/>
			<path class="st0" d="M258.4,24.4c-0.4,0.3-0.8,0.7-1.1,1C257.6,25,258,24.7,258.4,24.4z"/>
			<path class="st0" d="M257.3,25.3c-0.1,0.1-0.2,0.2-0.3,0.3C257.1,25.5,257.2,25.4,257.3,25.3z"/>
			<path class="st3" d="M260.2,41.7c-0.9-0.3-1.9-0.4-2.8-0.3c-0.1,0-0.3,0.1-0.4,0.1c0.1-0.1,0.3-0.1,0.4-0.1
				C258.3,41.3,259.3,41.4,260.2,41.7L260.2,41.7z"/>
			<path class="st3" d="M256.6,41.8c0.1-0.1,0.2-0.2,0.3-0.2C256.8,41.6,256.7,41.7,256.6,41.8c0,0.1-0.1,0.1-0.1,0.2
				C256.6,41.9,256.6,41.9,256.6,41.8z"/>
			<path class="st3" d="M256.6,42.6c0.1,0.9,0.3,1.7,0.5,2.6l0,0C256.9,44.3,256.7,43.4,256.6,42.6c0-0.2-0.1-0.4,0-0.6
				C256.5,42.2,256.5,42.4,256.6,42.6z"/>
			<path class="st0" d="M254,31.9c-0.7-0.7,0.7-3.3,1.6-4.6c0.2-0.2,0.6-0.9,1.4-1.7c0.1-0.1,0.2-0.2,0.3-0.3c0.3-0.3,0.7-0.6,1.1-1
				c0.6-0.4,1.2-0.9,1.9-1.3c0.6-0.3,1.7-1,2.3-1.1c0.1,0,0.1,0,0.2,0c0.1,0,0.1,0,0.2,0.1c0.1,0.1-0.2,0.5-0.7,0.9
				c-0.1,0.1-0.2,0.2-0.4,0.3c-0.2,0.2-0.4,0.4-0.6,0.6c-0.2,0.2-0.5,0.4-0.7,0.7c-0.1,0.1-0.2,0.2-0.2,0.2
				c-0.1,0.1-0.2,0.2-0.2,0.2c-1.2,1.2-2.4,2.7-3,4.5c-0.2,0.6-0.7,2.1-1.9,2.5C255.1,32,254.3,32.3,254,31.9z"/>
			<path class="st9" d="M254.8,38.6c0,0.3-0.1,0.6-0.1,0.9C254.8,39.2,254.8,38.9,254.8,38.6z"/>
			<path class="st9" d="M254.7,39.5c0,0.1-0.1,0.3-0.1,0.4h0C254.7,39.8,254.7,39.6,254.7,39.5z"/>
			<path class="st0" d="M254,135.7c-0.9-2.2-1.4-4.3-1.8-6.1c-0.1-0.4-0.1-0.8-0.2-1.2c0-0.4-0.1-0.7-0.1-1.1c0-0.4-0.1-0.7-0.1-1
				c0-0.2,0-0.3,0-0.5l0.1-0.1c0.7,1.3,1.4,2.6,2,4c1.9,4,3.3,8.3,4.3,12.6l-0.4,0.1C256.6,140.9,255.1,138.6,254,135.7z"/>
			<path class="st1" d="M253.8,22.2C253.8,22.2,253.8,22.2,253.8,22.2C253.8,22.2,253.8,22.2,253.8,22.2
				C253.8,22.2,253.8,22.2,253.8,22.2z"/>
			<path class="st9" d="M253.4,34.3c1.1,1.1,1.6,2.6,1.5,4.2C255,36.9,254.5,35.4,253.4,34.3c-0.7-0.7-1.5-1-2.3-1.2
				C251.9,33.3,252.7,33.7,253.4,34.3z"/>
			<path class="st0" d="M251.9,125.8c0.7,1.3,1.4,2.6,2,4C253.3,128.4,252.7,127.1,251.9,125.8L251.9,125.8z"/>
			<path class="st2" d="M248.8,41.2c-2.7,0.1-6.9-0.5-7.2-2.1c0-0.1,0-0.2,0-0.3c0-0.1,0-0.1,0.1-0.2c0.5-1.4,1.4-2.5,2.4-3.5
				c0.1-0.2,0.3-0.3,0.4-0.4c0.4-0.4,0.9-0.8,1.4-1.1c0.1-0.1,0.2-0.1,0.4-0.2c0.4-0.1,0.8-0.2,1.2-0.3c0.2-0.1,0.6-0.1,0.9-0.2
				c0.8-0.1,1.7-0.1,2.7,0.1c0.8,0.2,1.6,0.5,2.3,1.2c1.1,1,1.6,2.6,1.5,4.2c0,0,0,0,0,0.1c0,0.3-0.1,0.6-0.1,0.9
				c0,0.1-0.1,0.3-0.1,0.4c-0.7,0.3-1.4,0.5-2,0.7c-0.4,0.1-0.8,0.2-1.2,0.3c-0.1,0-0.2,0-0.3,0.1C250.2,41.2,249.4,41.2,248.8,41.2
				z"/>
			<path class="st9" d="M247.5,33.2c0.2,0,0.5-0.1,0.9-0.1C248,33.1,247.7,33.2,247.5,33.2C247.5,33.2,247.5,33.2,247.5,33.2z"/>
			<path class="st9" d="M246.3,33.5c0.4-0.2,0.8-0.2,1.2-0.3C247.1,33.3,246.7,33.4,246.3,33.5z"/>
			<path class="st0" d="M245.1,7L245.1,7C245,7,245,7,245.1,7C245,6.9,245,6.9,245.1,7z"/>
			<path class="st0" d="M253.8,22.2c-2.1,2.9-5.3,5-8.9,5.6l-0.2-0.1c0,0,0,0,0,0l0.2,0.1C248.5,27.2,251.7,25.2,253.8,22.2
				C253.8,22.2,253.8,22.2,253.8,22.2z"/>
			<path class="st0" d="M244.8,7.4c2.1,2.8,4.2,6,6.3,9.6c0.5,0.9,1,1.8,1.4,2.6c-0.5-0.9-0.9-1.7-1.5-2.6
				C249,13.4,246.8,10.2,244.8,7.4l0.2-0.5c0,0,0,0,0,0L244.8,7.4z"/>
			<path class="st0" d="M244.7,7.4c2.1,2.8,4.2,6,6.3,9.6c0.5,0.9,1,1.8,1.5,2.6c0.5,0.9,0.9,1.7,1.3,2.6c0,0,0,0,0,0v0
				c-2.1,2.9-5.3,5-8.9,5.6l-0.2-0.1h0c-0.6-2.7-1.2-6.2-1.4-10.2c-0.1-4.3,0.3-8,0.9-10.8l0.4,0.1c0.1,0.1,0.2,0.1,0.3,0.2
				L244.7,7.4z"/>
		</g>
		<g>
		</g>
	</g>
</g>
<path class="st4" d="M258,167.1c-3.7-4.4-8.2-8-12.7-11.5c-4.4-3.5-8.3-7.6-12-11.9c-3.7-4.3-6.7-9-7.8-14.7
	c-1.3-6.5-0.3-13.4,0.6-19.9c0.3-2.2-3.1-3.2-3.4-0.9c-1.5,10.9-2.6,22.4,3.6,32.1c2.9,4.5,6.6,8.4,10.3,12.3
	c3.9,4.1,8.7,7.3,12.9,11.1c3.8,3.4,11.4,9.5,7.8,15.3c-1.2,1.9,1.9,3.7,3.1,1.8C263.2,176.1,261.2,170.9,258,167.1z"/>
<path class="st4" d="M282.3,151.1c-2.8,9.2-4.4,19-5.1,28.6c-0.2,2.3,3.4,2.3,3.6,0c0.6-9.2,2.3-18.7,5-27.6
	C286.4,149.8,283,148.9,282.3,151.1z"/>
<path class="st4" d="M254.9,137.9c-5.1-1.6-8.6-6.8-11.2-11.2c-3.1-5.4-3.8-11.4-2.9-17.5c0.4-2.2-3.1-3.2-3.4-0.9
	c-1.1,7.1-0.4,13.9,3.2,20.2c3,5.3,7.3,10.9,13.3,12.8C256.1,142,257.1,138.6,254.9,137.9z"/>
<path class="st4" d="M302.3,124.6c-1.5,2.5-2.7,5.1-3.8,7.8c-1,2.7-1.5,5.7-3.1,8.2c-1.3,1.9,1.8,3.7,3.1,1.8c1.6-2.4,2.1-5.2,3-7.8
	c1-2.8,2.3-5.5,3.8-8.1C306.5,124.4,303.5,122.6,302.3,124.6z"/>
<path class="st4" d="M254.4,176.3c-9.2,0.2-18-0.5-26-5.5c-3.5-2.2-6.6-4.9-9.5-7.8c-2.9-2.9-6-6-8-9.5c-4.2-7.4-1.9-16.6-0.1-24.3
	c1.1-4.6,2.1-9.1,3.7-13.5c1.5-4.5,3.7-8.7,5.8-12.9c4.4-9,8.7-18.1,13.5-26.9c2.9,8.6,6.7,16.8,7.6,16.5c0.3-0.1,0.2-1,0.2-1.7
	c-0.7-8-4.3-15.2-4.8-17c-1-3.7-4.1-9.3-3.7-16c0.4-6.7,3.5-12.5,8.9-22.5c2.4-4.5,3.9-6.7,3.5-7c-0.8-0.6-7.2,4.5-11.2,11.7
	c-2.9,5-5,10-4.9,15.9c0.1,4.9,0.9,8.8,3.1,15.9c-0.3,0.1-0.6,0.4-0.8,0.8c-4.9,8.9-9.3,18.1-13.8,27.3c-2.2,4.4-4.5,8.8-6.2,13.4
	c-1.8,4.7-2.9,9.6-4.1,14.4c-2,8.4-4.2,17.8-0.5,26.1c1.7,3.9,4.8,7.1,7.7,10.2c2.9,3.1,6,5.9,9.5,8.4c3.9,2.8,8.3,5.1,13.1,6.2
	c5.6,1.4,11.4,1.4,17.1,1.3C256.7,179.9,256.7,176.3,254.4,176.3z"/>
<g>
	<g>
		<path class="st3" d="M272.7,33.3c-0.7,0.8-1,1.7-1.2,2.7c-0.2,1-0.4,2.5,0.5,3.2c0.7,0.5,1.5,0.7,2.3,0.3c1.4-0.7,1.3-2.8,1.7-4.1
			c0.5-2.1-2.3-3.2-3.4-1.4c-0.1,0.1-0.1,0.2-0.2,0.2c-0.6,0.8-0.2,2.1,0.7,2.6c0.9,0.5,2,0.2,2.6-0.7c0.1-0.1,0.1-0.2,0.2-0.2
			c-1.1-0.5-2.3-1-3.4-1.4c-0.1,0.5-0.2,1-0.3,1.5c0,0.2-0.1,0.5-0.1,0.7c0,0.1,0,0.1,0,0.2c-0.1,0.4,0,0.3,0.5-0.5
			c0.8,0.1,1.5,0.2,2.3,0.3c0,0,0,0-0.1,0c0.2,0.3,0.3,0.5,0.5,0.8c0.1,0.5,0.1-0.2,0.1-0.3c0,0.1,0.1-0.4,0.1-0.4
			c0-0.2,0.1-0.4,0.2-0.7c0,0.2,0.2-0.3,0,0c0.7-0.8,0.8-1.9,0-2.7C274.7,32.6,273.4,32.5,272.7,33.3L272.7,33.3z"/>
	</g>
</g>
<g>
	<g>
		<path class="st3" d="M245.1,34.4c-0.4,0.5-0.7,1-0.9,1.7c-0.3,0.9-0.2,2.2,0.6,2.8c1,0.8,2.5,0.4,3-0.8c0.3-0.6,0.6-1.3,0.8-1.9
			c0.3-0.9-0.4-2.1-1.3-2.3c-1.1-0.2-1.9,0.3-2.3,1.3c-0.1,0.3-0.2,0.6-0.3,0.8c0-0.1,0.1-0.1,0.1-0.2c0,0.1-0.1,0.2-0.1,0.3
			c-0.1,0.1-0.1,0.2-0.2,0.3c0.2-0.2,0.4-0.5,0.7-0.7c0,0,0,0-0.1,0c0.6,0,1.3,0,1.9,0c0,0,0,0-0.1,0c0.2,0.2,0.4,0.5,0.7,0.7
			c0.2,0.3,0.2,0.6,0.1,0.9c0,0,0-0.1,0-0.1c-0.2,0.5,0,0,0.1-0.1c0.2-0.3,0.3-0.5,0.5-0.8c0.5-0.8,0.2-2.1-0.7-2.6
			C246.8,33.2,245.7,33.5,245.1,34.4L245.1,34.4z"/>
	</g>
</g>
<path class="st3" d="M243.5,6.5c-0.3,3-0.5,6-0.8,9c-0.2,2.6-0.6,5.3-0.2,7.9c0.2,1.5,0.6,2.9,1.3,4.2c0.6,1,2.1,0.1,1.5-0.9
	c-1.6-2.7-1.3-6.1-1-9.1c0.3-3.7,0.6-7.5,1-11.2c0-0.5-0.4-0.9-0.9-0.9C243.9,5.6,243.6,6,243.5,6.5L243.5,6.5z"/>
<path class="st3" d="M259.6,20c3.5-0.9,7-1.7,10.6-2.2c3.5-0.5,7.1-0.7,10.6-0.4c2,0.2,4,0.5,6,0.9c1.1,0.2,1.6-1.5,0.5-1.7
	c-3.6-0.8-7.3-1.1-11-1.1c-3.7,0.1-7.4,0.6-11,1.4c-2,0.4-4.1,0.9-6.1,1.4C258.1,18.5,258.5,20.3,259.6,20L259.6,20z"/>
<path class="st3" d="M288.1,18.1c1.2-1,2.3-2.1,3.4-3.2c1.2-1.1,2.4-2.1,3.8-2.9c1.4-0.9,2.9-1.8,4.3-2.7c1.3-0.8,2.7-1.7,4.2-2.2
	c1.1-0.4,0.6-2.1-0.5-1.7c-1.6,0.5-3.1,1.4-4.5,2.3c-1.5,0.9-3,1.9-4.5,2.8c-1.4,0.9-2.8,1.9-4,3.1c-1.2,1.1-2.3,2.3-3.5,3.3
	c-0.4,0.3-0.3,0.9,0,1.3C287.2,18.5,287.7,18.4,288.1,18.1L288.1,18.1z"/>
<path class="st3" d="M302.7,6.6c2.1,5.4,3.3,11.1,3.4,16.9c0,1.6,0,3.3-0.2,4.9c0,0.5,0.4,0.9,0.9,0.9c0.5,0,0.8-0.4,0.9-0.9
	c0.5-5.9,0-11.8-1.6-17.5c-0.4-1.6-1-3.2-1.6-4.7c-0.2-0.4-0.6-0.8-1.1-0.6C302.9,5.6,302.5,6.1,302.7,6.6L302.7,6.6z"/>
<path class="st3" d="M302.8,5.5c-4.1,5.1-7.4,10.8-9.8,16.9c-0.2,0.5,0.2,1,0.6,1.1c0.5,0.1,0.9-0.2,1.1-0.6
	c2.3-5.8,5.5-11.2,9.4-16.1c0.3-0.4,0.4-0.9,0-1.3C303.7,5.2,303.1,5.1,302.8,5.5L302.8,5.5z"/>
<path class="st3" d="M244.4,7.5c5.4,3.3,10.2,7.5,14.4,12.2c0.3,0.4,0.9,0.3,1.3,0c0.4-0.4,0.3-0.9,0-1.3
	c-4.3-4.9-9.3-9.1-14.8-12.5C244.3,5.4,243.4,6.9,244.4,7.5L244.4,7.5z"/>
<path class="st3" d="M244.1,7.9c3.5,4.8,6.6,9.9,9.2,15.2c0.2,0.4,0.8,0.5,1.2,0.3c0.4-0.3,0.5-0.8,0.3-1.2
	c-2.6-5.4-5.7-10.4-9.2-15.2c-0.3-0.4-0.8-0.6-1.2-0.3C244,6.9,243.8,7.5,244.1,7.9L244.1,7.9z"/>
<path class="st3" d="M244.2,27.1c-2.1,1.8-4.2,3.7-6,5.8c-1.7,1.8-3.3,3.8-4.7,5.8c-2.5,3.6-4.2,8-4.7,12.4
	c-0.3,3.1,0.1,6.2,0.6,9.3c0.8,4.6,1.9,9,3.2,13.5c1.7,5.7,3.7,11.2,5.9,16.7c0.3,0.8,0.6,1.5,0.9,2.3c0.2,0.4,0.6,0.8,1.1,0.6
	c0.4-0.1,0.8-0.7,0.6-1.1c-2.3-5.5-4.3-11.2-6.1-16.9c-1.4-4.5-2.7-9.1-3.6-13.8c-0.6-3.2-1.1-6.2-0.9-9.5c0-0.3,0-0.6,0.1-0.9
	c0-0.1,0-0.3,0-0.4c0,0,0,0.2,0,0c0-0.1,0-0.1,0-0.2c0.2-1.3,0.6-2.7,0.9-4c0.6-1.9,1.3-3.6,2.3-5.3c1.3-2.2,2.9-4.1,4.5-6.1
	c1.6-1.9,3.4-3.7,5.2-5.4c0.6-0.5,1.2-1,1.8-1.5c0.4-0.3,0.3-0.9,0-1.3C245.1,26.7,244.6,26.8,244.2,27.1L244.2,27.1z"/>
<path class="st3" d="M306.3,28.9c2.6,4.1,4.8,8.4,6.7,12.8c1.6,3.8,2.8,7.7,3.1,11.8c0.2,2.9,0.1,5.9-0.3,8.8
	c-0.1,0.5,0.4,0.9,0.9,0.9c0.5,0,0.8-0.4,0.9-0.9c0.6-4.7,0.5-9.6-0.6-14.2c-0.5-2-1.2-4-2-6c-1.1-2.6-2.3-5.2-3.6-7.7
	c-1.1-2.2-2.4-4.4-3.7-6.5C307.2,27.1,305.7,28,306.3,28.9L306.3,28.9z"/>
<path class="st3" d="M316.3,51.6c6.8,13.3,13,26.9,18.9,40.7c1.6,3.8,3.6,7.6,5.3,11.4c2.6,5.8,4.9,11.8,6.6,17.9
	c1.8,6.3,3.1,12.7,2.8,19.2c-0.3,5.7-1.7,11.4-4.1,16.6c-3.9,8.3-10.8,15-18.9,19.2c-9,4.6-19.7,5.7-29.4,3.2
	c-0.6-0.1-1.2-0.3-1.8-0.5c-1.1-0.3-1.6,1.4-0.5,1.7c10.1,3,21.2,2.3,30.8-2.1c8.5-3.9,15.9-10.6,20.3-18.8c2.2-4,3.7-8.5,4.5-13
	c1.3-6.8,1-13.6-0.6-20.3c-1.5-6.6-3.6-13-6.2-19.2c-1.9-4.7-4.1-9.2-6.3-13.8c-1.1-2.4-2.1-4.9-3.2-7.4c-1.6-3.6-3.1-7.2-4.7-10.7
	c-3.1-6.8-6.3-13.6-9.6-20.3c-0.8-1.6-1.6-3.2-2.4-4.7C317.3,49.7,315.8,50.6,316.3,51.6L316.3,51.6z"/>
<path class="st12" d="M233.9,41.1"/>
<path class="st3" d="M231.8,69.9c-4.7,8.3-9.1,16.8-13.2,25.4c-2.6,5.5-5.1,11-7.4,16.6c-2,4.9-4.1,9.8-5.5,14.8
	c-2.9,10.1-2.9,21.2,1.6,30.8c2.2,4.7,5.5,8.8,9.4,12.1c3.1,2.6,6.5,4.6,10.1,6.4c4.5,2.1,9.1,3.9,13.9,4.9
	c4.6,0.9,9.4,1.3,14.1,1.1c0.8,0,1.6-0.1,2.5-0.2c0.5,0,0.9-0.4,0.9-0.9c0-0.4-0.4-0.9-0.9-0.9c-4.1,0.4-8.3,0.3-12.5-0.2
	c-5.3-0.7-10.4-2.3-15.3-4.5c-3.2-1.5-6.4-3.1-9.3-5.1c-3.8-2.7-7.2-6.1-9.6-10.1c-5.5-8.9-6.4-20.1-4-30.1c1.1-4.8,3-9.4,4.8-14
	c2.2-5.6,4.7-11.1,7.2-16.6c4.1-8.9,8.6-17.6,13.4-26.2c0.4-0.8,0.9-1.6,1.3-2.3C233.9,69.8,232.4,68.9,231.8,69.9L231.8,69.9z"/>
<path class="st3" d="M292.2,175.2c0.6,1,1.3,2.2,1.7,3.3c0.1,0.3,0.2,0.6,0.2,0.9c0,0-0.1,0.2,0,0.1c-0.1,0.2-0.4,0.4-0.6,0.5
	c-0.8,0.6-1.7,1-2.6,1.4c-3.7,1.4-8,1.3-11.5-0.7c-0.8-0.4-1.5-1-1.8-1.9c-0.1-0.4-0.2-0.9-0.1-1.4c0-0.1,0-0.1,0-0.2c0,0.2,0,0,0,0
	c0-0.1,0-0.1,0-0.2c0.1-0.8,0.3-1.5,0.4-2.3c0.6-2.9,1.2-5.9,1.8-8.8c1-5,2.1-10,3.1-15c0.2-1.1-1.5-1.6-1.7-0.5
	c-1.7,7.9-3.4,15.9-4.9,23.8c-0.1,0.8-0.3,1.6-0.4,2.3c-0.2,0.9-0.2,1.9,0.1,2.7c0.4,1.1,1.2,2,2.2,2.6c1.8,1.2,4.1,1.8,6.3,2
	c2.2,0.2,4.4-0.1,6.5-0.8c1.2-0.4,2.3-0.9,3.3-1.6c0.6-0.4,1.2-0.8,1.5-1.6c0.2-0.5,0.1-1,0-1.5c-0.2-0.9-0.7-1.8-1.1-2.6
	c-0.3-0.6-0.6-1.1-0.9-1.7C293.2,173.3,291.6,174.2,292.2,175.2L292.2,175.2z"/>
<path class="st3" d="M330.6,116.8c0.7,2.6,0.5,5.3,0.4,8c-0.2,2.7-0.5,5.3-1.1,7.9c-1.1,4.6-3.4,8.8-6.3,12.6
	c-2.9,3.8-6.4,7.2-10,10.3c-1.9,1.7-4,3.4-6.1,4.8c-1.9,1.3-4,2.4-6.1,3.6c-2.1,1.2-4.3,2.4-6.1,4.1c-1.8,1.6-4,4.3-3.2,6.9
	c0.3,1.1,2.1,0.6,1.7-0.5c-0.4-1.1,0.3-2.3,1-3.2c0.6-0.8,1.3-1.6,2.1-2.3c1.6-1.4,3.5-2.5,5.3-3.5c2-1.1,4.1-2.2,6-3.5
	c2.2-1.5,4.2-3.1,6.2-4.8c7.1-6.2,14.3-13.6,16.9-23c0.8-2.9,1.2-6,1.4-9c0.2-3,0.4-6.1-0.4-9C332,115.2,330.3,115.6,330.6,116.8
	L330.6,116.8z"/>
<path class="st3" d="M221.7,108.2c-0.8,7.1-1.2,14.3,0,21.3c0.5,3.1,1.4,6.2,2.8,9.1c1.1,2.4,2.6,4.8,4.2,6.9
	c2.9,4,6.4,7.6,10.1,10.9c2.1,1.8,4.3,3.5,6.5,5.1c0.2,0.1,0.4,0.3,0.6,0.4c0.1,0.1-0.1-0.1,0.1,0.1c0.1,0.1,0.2,0.1,0.2,0.2
	c0.2,0.2,0.4,0.3,0.6,0.5c1.1,0.9,2.1,1.8,3,2.7c2.4,2.3,4.5,4.8,6.4,7.6c0.3,0.5,0.6,1,0.9,1.4c0-0.3,0-0.6,0-0.9
	c-1.1,1.9-2.1,4.4-1.1,6.6c0.8,1.8,2.8,2.7,4.6,3.1c1.9,0.3,3.9,0.3,5.9,0.2c2.1-0.1,4.3-0.2,6.4-0.9c1.7-0.5,3.7-1.6,4.2-3.5
	c0.4-1.5,0-3.2-0.3-4.7c-0.8-4.1-1.8-8.1-2.7-12.2c-0.7-3.3-1-6.5-1-9.9c0-0.7,0-1.5,0-2.2c0-1.1-1.7-1.1-1.8,0
	c-0.1,3.9,0.1,7.8,0.8,11.6c0.6,3.2,1.4,6.3,2.1,9.5c0.3,1.2,0.5,2.3,0.8,3.5c0.1,0.5,0.2,0.9,0.2,1.4c0,0.1,0,0.2,0,0.3
	c0,0.1,0,0.1,0,0.1c0,0,0-0.1,0,0c0,0.2,0,0.4,0.1,0.6c0,0.3,0,0.6,0,1c0,0.1,0,0.2,0,0.4c0-0.3,0,0.1,0,0.2c0,0.1-0.1,0.3-0.1,0.2
	s0,0,0,0c-0.1,0.1-0.1,0.2-0.2,0.3c-0.2,0.3-0.5,0.6-0.8,0.8c-1.5,1.2-3.6,1.4-5.5,1.6c-1.8,0.2-3.7,0.3-5.5,0.2
	c-1.7,0-3.6-0.2-4.9-1.2c-0.2-0.1-0.5-0.5-0.6-0.7c-0.2-0.4-0.4-0.8-0.4-1.2c-0.1-1,0.2-2.1,0.7-3c0.2-0.4,0.4-0.8,0.6-1.1
	c0.2-0.3,0.2-0.6,0-0.9c-3.1-4.9-7-9.3-11.6-12.8c-0.7-0.6-1.4-1.1-2.2-1.6c-0.2-0.2-0.5-0.4-0.7-0.6c-0.1-0.1-0.1-0.1-0.2-0.1
	c0.2,0.1,0,0-0.1-0.1c-0.2-0.1-0.3-0.2-0.4-0.3c-0.7-0.5-1.3-1.1-2-1.6c-3.6-3-7-6.3-10-10c-1.6-2-3.1-4.2-4.4-6.5
	c-1.4-2.6-2.4-5.3-3.1-8.1c-1.6-6.8-1.4-14-0.7-20.9c0.1-0.9,0.2-1.8,0.3-2.6c0-0.5-0.4-0.9-0.9-0.9
	C222.1,107.3,221.8,107.7,221.7,108.2L221.7,108.2z"/>
<path class="st3" d="M236.6,108.8c-1.5,6-1,12.4,1.4,18.1c1.2,2.9,2.9,5.5,5.1,7.7c1.9,1.9,4.1,3.6,6.4,5.1c2.6,1.7,5.4,3,8.4,4
	c0.4,0.1,0.8-0.1,1-0.4c0.2-0.4,0.1-0.8-0.1-1.1c-3.6-4.6-5.7-10.4-6-16.3c-0.1-1.1-1.8-1.1-1.8,0c0.2,5.1,1.7,10.1,4.4,14.4
	c0.7,1.1,1.4,2.1,2.2,3.1c0.3-0.5,0.6-1,0.9-1.5c-4.9-1.7-9.4-4.4-13.2-7.9c-1-0.9-2-1.9-2.8-3.1c-0.9-1.2-1.6-2.5-2.2-3.8
	c-1.2-2.6-2-5.4-2.4-8.2c-0.4-3.2-0.2-6.6,0.6-9.7C238.6,108.1,236.9,107.7,236.6,108.8L236.6,108.8z"/>
<path class="st3" d="M317.7,119.4c-2.2,4.3-5,8.1-8.7,11.2c-1.8,1.5-3.9,2.7-5.8,4.2c-2.1,1.6-3.9,3.5-5.4,5.8
	c-1.4,2.3-2.4,4.9-3,7.6c0.6,0.1,1.2,0.2,1.7,0.2c-0.5-6.9,1.1-13.9,4.5-19.9c0.7-1.3,1.6-2.6,2.5-3.8c0.3-0.4,0.1-1-0.3-1.2
	c-0.5-0.3-0.9-0.1-1.2,0.3c-4.2,5.7-6.7,12.6-7.2,19.6c-0.1,1.7-0.1,3.3,0,5c0.1,0.9,1.5,1.3,1.7,0.2c1.1-4.8,3.5-9.1,7.4-12.1
	c1.9-1.5,4-2.7,5.9-4.2c1.6-1.3,3.2-2.8,4.5-4.4c1.9-2.3,3.6-4.8,4.9-7.5C319.8,119.2,318.2,118.3,317.7,119.4L317.7,119.4z"/>
<path class="st3" d="M258,44.9c-0.2-0.6-0.3-1.3-0.4-1.9c0,0-0.2-0.8-0.1-0.8c-0.6,0.2-0.1,0.2,0,0.2c0,0,0.4-0.1,0.5-0.1
	c0.6,0,1.2,0,1.8,0.2c0.2,0,0.4,0.1,0.5,0.2c-0.1-0.2,0-0.1,0-0.1c-0.1,0.1-0.1,0.2-0.2,0.2c-0.4,0.3-1,0.4-1.5,0.7
	c-0.5,0.3-1,0.7-1.4,1.1c-0.8,0.8-1.4,1.9-1.6,3c-0.4,2.3,0.5,4.8,2.6,6c2,1.2,4.6,1,6.7,0.3c1.3-0.4,2.6-1,3.5-2.1
	c0.9-1.1,1.4-2.5,1-4c-0.3-1.1-2-0.6-1.7,0.5c0.7,2.4-2.2,3.7-4,4.1c-1.9,0.4-4.3,0.4-5.6-1.3c-1.3-1.7-1-4,0.5-5.4
	c0.4-0.3,0.8-0.6,1.2-0.8c0.6-0.3,1.2-0.5,1.6-0.9c0.5-0.4,0.7-1,0.7-1.6c-0.1-0.8-0.6-1.3-1.4-1.6c-0.7-0.3-1.5-0.4-2.2-0.4
	c-0.7,0-1.6,0-2.1,0.5c-0.6,0.6-0.6,1.3-0.4,2.1c0.1,0.8,0.3,1.5,0.5,2.2C256.6,46.5,258.4,46,258,44.9L258,44.9z"/>
<path class="st3" d="M249,45.1c-0.6,2.2-1,5.1,1.1,6.7c2,1.5,4.6,0.7,6.4-0.5c-0.4-0.5-0.7-0.9-1.1-1.4c-0.8,0.7-1.8,1.4-2.6,2.2
	c-0.6,0.6-1,1.4-1.3,2.2c-0.5,1.2-0.4,2.5,0,3.7c0.6,1.6,1.5,2.9,2.5,4.2c1.3,1.7,2.7,3.3,4.1,4.9c1.4,1.6,2.8,3.1,4.3,4.6
	c0.8,0.8,2.1-0.5,1.3-1.3c-2.7-2.6-5.2-5.4-7.6-8.2c-1-1.2-2-2.5-2.7-3.9c-0.2-0.5-0.5-1-0.6-1.6c0,0,0-0.3,0-0.2c0,0.1,0-0.2,0-0.2
	c0-0.1,0-0.2,0-0.3c0-0.1,0-0.1,0-0.2c0-0.3,0,0.1,0-0.1c0-0.1,0.1-0.3,0.1-0.4c0.2-0.6,0.5-1.3,0.9-1.8c0.3-0.4,0.8-0.7,1.2-1.1
	c0.5-0.4,1-0.8,1.5-1.3c0.8-0.7-0.2-2-1.1-1.4c-1.2,0.8-3.1,1.7-4.5,0.6c-1.4-1.1-0.8-3.3-0.4-4.7C251,44.5,249.3,44,249,45.1
	L249,45.1z"/>
<path class="st3" d="M269.6,40.3c-0.1-1.3,0.1-2.7,0.8-3.9c0.8-1.3,2.2-2.2,3.6-2.6c2.7-0.9,6.2-0.6,8,1.9c1,1.3,1.6,3,2,4.6
	c0.1-0.3,0.3-0.7,0.4-1c-1.9,0.9-4.2,1.6-6.5,1.8c-3,0.3-6.1-0.2-8.8-1.5c-1-0.5-1.9,1-0.9,1.5c3,1.5,6.4,2.2,9.7,1.8
	c2.6-0.3,5-1,7.4-2.1c0.4-0.2,0.5-0.7,0.4-1c-0.4-1.6-1-3.4-2-4.8c-1.2-1.7-3-3-5-3.3c-1.5-0.3-3.1-0.2-4.6,0.2
	c-1.8,0.5-3.6,1.5-4.8,2.9c-1.2,1.5-1.7,3.5-1.5,5.5c0,0.5,0.4,0.9,0.9,0.9C269.1,41.1,269.6,40.7,269.6,40.3z"/>
<path class="st3" d="M255.5,40.2c0.7-2.7-0.1-6-2.8-7.4c-1.1-0.6-2.4-0.7-3.6-0.7c-1.2,0.1-2.4,0.3-3.5,0.8c-1.3,0.6-2.4,1.9-3.3,3
	c-0.4,0.6-0.9,1.2-1.2,1.8c-0.3,0.6-0.5,1.3-0.3,2c0.3,1,1.4,1.5,2.2,1.8c1.1,0.4,2.4,0.6,3.5,0.7c2.9,0.2,5.8-0.2,8.4-1.4
	c0.4-0.2,0.5-0.8,0.3-1.2c-0.3-0.5-0.8-0.5-1.2-0.3c-2,0.8-4.1,1.3-6.2,1.2c-1,0-2-0.1-2.9-0.3c-0.9-0.2-1.6-0.4-2.3-0.8
	c0,0-0.1,0-0.1-0.1c0,0,0.1,0.1,0,0c-0.1,0-0.1-0.1-0.1-0.2c-0.1-0.1,0,0,0,0c0,0-0.1-0.1-0.1-0.1c0,0.2,0,0,0,0c0,0,0,0,0.1-0.1
	c0.1-0.1,0.1-0.2,0.1-0.3c0.1-0.3,0.3-0.6,0.4-0.8c0.7-1,1.5-2,2.5-2.8c0.8-0.7,1.8-0.9,2.8-1.1c0.1,0,0.2,0,0.4,0
	c0.2,0,0.5,0,0.8,0c0.4,0,0.9,0,1.3,0.1c2.6,0.6,3.5,3.3,2.8,5.7C253.5,40.8,255.3,41.3,255.5,40.2z"/>
<path class="st3" d="M349.8,151.8c1.1-5.8,3-11.4,6.3-16.4c1.3-2,2.6-3.6,4.3-5.4c2.1-2.2,4.3-4.3,6.4-6.4
	c4.2-4.3,8.4-9.1,10.5-14.8c0.6-1.6,0.9-3.2,1.1-4.9c0.1-1.4,0-2.8,0-4.3c0-0.2,0-0.4,0-0.6c0,0.2,0,0.1,0,0
	c-0.1,0.2-0.1,0.3-0.4,0.4c-0.1,0.1-0.2,0.1-0.4,0.1c-0.2,0-0.1,0,0,0c0,0-0.2-0.1,0,0s-0.1-0.2,0,0c0.1,0.1,0.1,0.1,0.2,0.2
	c0.4,0.4,0.4,0.5,0.7,0.9c0.3,0.5,0.6,1,0.9,1.5c2.9,4.9,4.8,10.3,5.3,16c0.5,6.1-0.2,12.3-2,18.2c-1.6,5.2-4,10.2-7.1,14.6
	c-0.3,0.5-0.7,0.9-1,1.4c-0.1,0.1-0.1,0.1-0.1,0.2c0,0-0.1,0.1-0.1,0.1c0,0,0.1-0.1,0,0c-0.1,0.1-0.2,0.3-0.4,0.4
	c-0.2,0.3-0.5,0.6-0.7,0.9c-1.2,1.5-2.5,2.9-3.9,4.2c-3.7,3.6-8,6.6-12.6,8.9c-5.8,2.9-12.2,4.6-18.7,4.9c-1.2,0.1-2.5,0.1-3.7,0.1
	c-1.1,0-1.1,1.8,0,1.8c6.5,0.1,13.1-1,19.1-3.3c5.4-2.1,10.3-5.1,14.7-8.8c3-2.6,5.7-5.4,8.1-8.6c2.9-3.8,5.1-8,6.8-12.4
	c2.3-6,3.6-12.4,3.6-18.8c0-3.1-0.3-6.2-1-9.2c-0.7-2.9-1.7-5.7-3-8.3c-0.6-1.3-1.3-2.5-2-3.7c-0.5-0.8-1-1.7-1.8-2.4
	c-0.3-0.3-0.7-0.5-1.1-0.5c-0.5,0-0.9,0.4-1.1,0.9c-0.1,0.4-0.1,0.9-0.1,1.4c0,0.7,0.1,1.4,0.1,2.1c0,3.2-0.9,6.2-2.4,9.1
	c-1.5,2.8-3.3,5.3-5.3,7.6c-3.9,4.5-8.7,8.3-12.4,13c-3.4,4.3-5.7,9.2-7.2,14.4c-0.5,1.7-0.9,3.4-1.2,5.1c-0.1,0.5,0.1,1,0.6,1.1
	C349.1,152.5,349.7,152.2,349.8,151.8L349.8,151.8z"/>
<g>
	<g>
		<path class="st5" d="M25.6-34.9c1.6-0.6,3.7-1.6,5.4-0.7c1.1,0.6,1.8,1.8,2.8,2.5c2,1.3,4,1.1,5.9-0.3c1.9-1.4,0-4.7-1.9-3.2
			c-2,1.5-4.2-2.2-6.2-2.8c-2.4-0.8-4.8,0-7.1,0.9C22.3-37.6,23.3-34,25.6-34.9L25.6-34.9z"/>
	</g>
</g>
<g>
	<g>
		<path class="st5" d="M14.8-34.8c0.3,0,0.9-0.2,1.3-0.1c0.2,0,0.5,0.4,0.7,0.5c0.8,0.6,1.6,1.2,2.4,1.8c1.6,1.2,3,0.6,4.2-0.8
			c1.5-1.8-1.1-4.5-2.6-2.7c-0.3,0.3-0.4,0.6-0.8,0.7c0.6,0,1.3,0,1.9,0c-1.3-0.7-2.3-1.8-3.5-2.6c-0.5-0.3-1-0.6-1.7-0.7
			c-0.6-0.1-1.2,0.1-1.8,0.1C12.4-38.8,12.4-35,14.8-34.8L14.8-34.8z"/>
	</g>
</g>
<g>
	<g>
		<path class="st5" d="M248.5,37c1.9,0,1.9-3,0-3C246.6,34,246.6,37,248.5,37L248.5,37z"/>
	</g>
</g>
<g>
	<g>
		<path class="st5" d="M276.1,36.3c1.9,0,1.9-3,0-3C274.1,33.3,274.1,36.3,276.1,36.3L276.1,36.3z"/>
	</g>
</g>
<ellipse class="st13" cx="82.4" cy="41.5" rx="0.7" ry="0.6"/>
<ellipse class="st13" cx="55.1" cy="41.9" rx="0.7" ry="0.6"/>
</svg>
