<?xml version="1.0" encoding="utf-8"?>
<!-- Generator: Adobe Illustrator 26.0.3, SVG Export Plug-In . SVG Version: 6.00 Build 0)  -->
<svg version="1.1" id="Слой_1" xmlns="http://www.w3.org/2000/svg" xmlns:xlink="http://www.w3.org/1999/xlink" x="0px" y="0px"
	 viewBox="0 0 1528 1354" style="enable-background:new 0 0 1528 1354;" xml:space="preserve">
<style type="text/css">
	.st0{fill:#C89242;stroke:#000000;stroke-miterlimit:10;}
	.st1{fill:#BD893D;}
</style>
<path class="st0" d="M0,394.1"/>
<g>
	<path class="st1" d="M-35.8,336.8C-19.4,170.3,11.6,157.4,22,155.8c17.5-2.7,43.5,16.9,50.3,39.6c5.4,17.9-4.5,26.3-4.9,49.8
		c-0.6,29,14.4,66.6,40.5,80.5c28.1,14.9,83.7-10.7,106.4-49.5c12.1-20.7,20.3-43.9,35.4-62.4c15.2-18.5,40.6-31.5,62.4-22.3
		c36.7,15.4,29.9,70.2,46.4,107.1c23.1,51.2,102.4,58.3,138.5,15.7c52.6-61.8,14.8-176.4,78.6-226.1c4.9-3.9,11.1-7.3,17.2-6.1
		c6.8,1.3,11.3,7.8,14.6,14.1c27.1,51.6,14.9,115.9,33,171.4c1.3,4,2.9,8.1,6.1,10.7c10.1,8.1,23.9-5.5,26.5-18.3
		c2.6-12.8,1.6-28.1,11.5-36.4c11.4-9.7,29.7-2.2,38.1,10.3c8.4,12.5,10.2,28.2,14.8,42.6c12.9,41.3,50.2,73.6,92.1,79.7
		c42,6.2,86.6-14.2,110.3-50.2c15.3-23.4,21.9-51.6,35.6-76.1c13.6-24.5,38.9-46.3,65.9-41.4c25.6,4.6,41.8,30.9,49.2,56.4
		s9.2,53,21.8,76.2c12.6,23.3,41.7,40.7,64.6,28.3c28.2-15.3,23.5-56.8,21.2-89.3c-3.1-42.2,5-85.3,23.3-123.5
		c2.6-5.6,5.8-11.2,10.8-14.7c10.8-7.3,25.7-1.1,35.3,7.9c26.8,25.3,30.9,66.4,33.2,103.6c2.8,44.5,5.6,89.1,8.3,133.6
		c1,15.8,4.3,34.9,18.8,40.3c12.3,4.6,26.2-4.6,31.8-16.7c5.7-12.1,5.2-26.1,4.6-39.5c-1.2-27-2.3-54-3.5-81
		c-0.7-15.7-1.2-32.2,5.6-46.3c6.8-14.1,23.7-24.5,37.9-18.4c13.4,5.7,18.1,22.1,23.8,35.7c5.7,13.7,18.3,28.1,32.1,23.5
		c7.7-2.5,12.6-9,15.6-13.2c9.2-13.2,28.1-28.3,71.3-35.7c-4,388.4-8,776.7-12.1,1165.1c-523.3-3.7-1046.7-7.3-1570-11
		C-45,1100.1-60.1,584.5-35.8,336.8z"/>
</g>
</svg>
