<?xml version="1.0" encoding="utf-8"?>
<!-- Generator: Adobe Illustrator 26.0.3, SVG Export Plug-In . SVG Version: 6.00 Build 0)  -->
<svg version="1.1" id="Слой_1" xmlns="http://www.w3.org/2000/svg" xmlns:xlink="http://www.w3.org/1999/xlink" x="0px" y="0px"
	 viewBox="0 0 1920 1080" style="enable-background:new 0 0 1920 1080;" xml:space="preserve">
<style type="text/css">
	.st0{fill:#C89242;stroke:#000000;stroke-miterlimit:10;}
	.st1{fill:#BD893D;}
</style>
<path class="st0" d="M0,394.1"/>
<g>
	<path class="st1" d="M1.4,307.2c8.7-83.2,25.7-208,70.1-214.7c21.2-3.2,52.7,20,61,47c6.5,21.2-5.4,31.2-6,59
		c-0.7,34.4,17.4,79,49.1,95.5c34.1,17.7,101.5-12.7,129-58.7c14.7-24.5,24.6-52.1,42.9-74c18.4-21.9,49.2-37.3,75.6-26.4
		c44.5,18.3,36.2,83.3,56.3,127c28,60.7,124.1,69.1,167.9,18.6c63.8-73.3,18-209.2,95.3-268.1c6-4.6,13.4-8.6,20.9-7.2
		c8.2,1.6,13.7,9.3,17.7,16.7c32.9,61.2,18.1,137.4,40,203.3c1.6,4.7,3.5,9.6,7.4,12.7c12.2,9.6,29-6.5,32.1-21.7
		c3.1-15.2,2-33.3,13.9-43.2c13.8-11.5,36-2.6,46.2,12.2s12.4,33.4,17.9,50.5c15.6,49,60.8,87.3,111.7,94.5
		c50.9,7.3,105-16.8,133.7-59.5c18.6-27.7,26.6-61.2,43.1-90.2s47.1-54.9,79.9-49.1c31,5.5,50.7,36.7,59.6,66.9
		c8.9,30.2,11.2,62.8,26.4,90.4c15.3,27.6,50.5,48.3,78.3,33.5c34.2-18.1,28.5-67.3,25.7-105.9c-3.7-50.1,6.1-101.2,28.2-146.4
		c3.2-6.6,7-13.3,13.1-17.4c13.1-8.7,31.2-1.3,42.8,9.4c32.5,30,37.4,78.7,40.3,122.9c3.4,52.8,6.8,105.6,10.1,158.4
		c1.2,18.7,5.2,41.4,22.8,47.8c14.9,5.4,31.8-5.5,38.6-19.8c6.9-14.3,6.3-30.9,5.6-46.8c-1.4-32-2.8-64-4.2-96.1
		c-0.8-18.6-1.5-38.2,6.8-54.9c8.3-16.7,28.7-29,45.9-21.8c16.2,6.8,21.9,26.2,28.8,42.3c6.9,16.2,22.2,33.3,38.9,27.9
		c9.3-3,15.3-10.7,18.9-15.7c11.1-15.6,34.1-33.5,86.4-42.3c2,308,4,616,6,924c-644,2.3-1288,4.7-1932,7
		C-27.5,686.3-12.6,441.8,1.4,307.2z"/>
</g>
</svg>
