<?xml version="1.0" encoding="utf-8"?>
<!-- Generator: Adobe Illustrator 26.0.3, SVG Export Plug-In . SVG Version: 6.00 Build 0)  -->
<svg version="1.1" id="Слой_1" xmlns="http://www.w3.org/2000/svg" xmlns:xlink="http://www.w3.org/1999/xlink" x="0px" y="0px"
	 viewBox="0 0 200 200" style="enable-background:new 0 0 200 200;" xml:space="preserve">
<style type="text/css">
	.st0{fill:#7C5226;}
	.st1{fill:#895D2C;}
	.st2{fill:#FFE006;}
	.st3{fill:#472D1C;}
	.st4{fill:#936334;}
	.st5{fill:#FFFFFF;}
	.st6{fill:none;stroke:#472D1C;stroke-width:1.25;stroke-miterlimit:10;}
	.st7{fill:#BC863F;}
	.st8{fill:#C89242;}
	.st9{fill:#A3966A;}
	.st10{fill:#D8A159;}
	.st11{fill:none;stroke:#472D1C;stroke-width:0.9;stroke-miterlimit:10;}
	.st12{fill:none;stroke:#472D1C;stroke-miterlimit:10;}
</style>
<g>
	<g>
		<g id="XMLID_00000181789037758601118630000007307674952649447327_">
			<g>
				<path class="st0" d="M637.74-107.54c5.01,13.54,1.89,31.21-7.05,44.51c-2.06,3.07-11.27,16.06-28.71,21.38
					c-6.58,2-12.37,2.32-16.39,2.23c0.66-0.51,1.32-1.06,1.99-1.64l0.94,0.18c3.89-1.16,7.2-3.68,10.42-6.14
					c8.62-6.62,17.37-13.37,23.69-22.22c8.89-12.44,12.28-28.68,9.09-43.64l-0.37-0.02c0.22-3.02-0.32-5.06,0.22-5.25
					C632.57-118.5,636.04-112.14,637.74-107.54z"/>
				<path class="st1" d="M601.37-63.46c0.21-0.81,0.42-1.66,0.6-2.54c2.12-8.16,5.52-13.58,8.5-17.18
					c5.04-6.09,12.74-11.64,17.42-19.74c1.31-2.27,2.96-5.19,3.41-9.26c0.03-0.25,0.05-0.5,0.06-0.73l0.37,0.02
					c3.18,14.96-0.2,31.2-9.09,43.64c-6.32,8.85-15.07,15.6-23.69,22.22c-3.22,2.47-6.53,4.98-10.42,6.14l-0.94-0.18
					c3.4-2.97,6.92-6.91,9.75-12.03C597.87-54.1,599.9-57.85,601.37-63.46z"/>
				<path class="st0" d="M585.59-39.42c-4.51,3.53-8.49,5.33-9.88,5.93c-15,6.47-28.5,2.57-31.94,1.46
					c0.04-0.09,0.15-0.41,0.07-0.93l0.07-0.01c3.31,0.31,26.5,2.16,38.8-12.95c5.55-6.81,7.47-15.35,8.62-20.47
					c2.35-10.42,1.56-18.78,1.07-23.48c-2.87-28-21.88-61.98-24.88-67.26l-0.48-0.06c0.53-4.43,0.37-8.17-0.07-11.2l0.29-0.05
					c6.75,13.32,13.48,27.7,19.98,43.11c2.52,5.98,9.76,18.79,13.92,35.75c1.16,4.74,2.3,10.54,1.66,17.82
					c-0.18,2.05-0.48,3.98-0.86,5.76c-0.21,0.82-0.41,1.67-0.6,2.54c-1.48,5.61-3.5,9.36-4.05,10.36
					c-2.83,5.12-6.35,9.06-9.75,12.03C586.91-40.48,586.25-39.93,585.59-39.42z"/>
				<path class="st1" d="M568.18-94.5c-2.59,4.8-5.45,7.92-7.65,9.91c-4.6,4.18-8,5-11.48,9.47c-2.58,3.32-3.75,6.78-4.34,9.27
					l0.35,0.08c1.85-2.57,3.71-5.15,5.98-7.33c3.67-3.53,8.36-5.98,11.58-9.93C565.32-86.34,566.78-90.46,568.18-94.5L568.18-94.5z
					 M504.15-174.35c0.56-0.67,1.27-1.22,2.07-1.57c0.45-0.2,0.93-0.36,1.3-0.68c0.37-0.32,0.6-0.88,0.37-1.31
					c-0.15-0.29-0.47-0.45-0.78-0.57c-0.95-0.35-2-0.46-3.01-0.29c-0.29,0.05-0.61,0.14-0.78,0.39c-0.15,0.23-0.12,0.53-0.09,0.81
					c0.13,0.92,0.32,1.83,0.58,2.72L504.15-174.35z M498.33-89.3l-0.16,0.09c0.12,2.53,0.6,6.28,2.31,10.45
					c1.24,3.03,2.77,5.41,4.08,7.13l0.46-0.11C503.63-77.86,501.37-83.8,498.33-89.3z M567.05-157.19l0.48,0.06
					c2.99,5.29,22.01,39.26,24.88,67.26c0.49,4.71,1.27,13.06-1.07,23.48c-1.15,5.12-3.08,13.66-8.62,20.47
					c-12.3,15.11-35.49,13.26-38.8,12.95l-0.07,0.01c0.08,0.52-0.03,0.84-0.07,0.93c-0.15,0.36-0.47,0.62-0.79,0.84
					c-4.45,3.12-10.61,3.59-15.48,1.18c-1.23-0.61-2.44-1.47-2.88-2.77c-0.17-0.49-0.23-0.96-0.24-1.35
					c-0.02-0.43,0.03-0.76,0.06-0.96c0.37-2.28,2.29-11.8,5.09-24.98l-0.44-0.09c-2.68-1.1-5.7-1.94-8.45-1.01
					c-0.35,0.12-0.71,0.28-0.97,0.53c0.04,3.42,0.38,6.2,0.71,8.21c0.27,1.64,0.53,2.75,2.15,9.94c0.92,4.09,1.51,6.74,1.51,8.37
					c0,0.65-0.09,1.14-0.3,1.5c-1.66,2.92-6.16,3.2-9.67,3.42c-2.96,0.19-7.89,0.49-10.02-1.79l-0.05,0.05
					c-6,0.55-16.97,0.67-28.86-4.62c-5.48-2.44-16.27-7.24-22.52-18.83c-3.04-5.63-3.82-10.68-4.2-13.28
					c-1.73-11.77,1.69-21.39,4.43-28.48c8.37-21.65,18.68-40.99,24.86-51.99c-2.64-9.67-3.61-17.11-2.94-21.14
					c0.57-3.41,1.71-6.28,1.71-6.28c1.78-4.49,4.25-7.44,6.84-10.47c1.7-1.99,4.12-4.56,7.39-7.25l0.18,0.1
					c3.75-0.64,7.21-2.83,9.39-5.93c0.01-0.01,0.02-0.02,0.02-0.02c-0.01,0-0.02,0-0.03,0.01c-0.87-1.78-1.85-3.62-2.92-5.5
					c-2.18-3.82-4.44-7.21-6.65-10.2l0.3-0.49c2.38,1.5,5.03,3.36,7.75,5.65c2.97,2.51,5.42,4.99,7.39,7.24
					c4.01-1.29,9.55-2.61,16.24-2.84c5.31-0.18,9.9,0.38,13.47,1.08c1.87-1.48,3.38-3.37,5.23-4.86c0.96-0.77,2.01-1.44,3.06-2.09
					c1.34-0.84,2.67-1.69,4.01-2.53c1.45-0.92,2.92-1.84,4.54-2.41c-4.21,5.25-7.63,11.14-10.1,17.4l-0.06-0.01
					c-0.13,0.9,0.7,1.65,1.45,2.2c1.78,1.3,3.6,2.59,5.67,3.35c2.07,0.76,4.45,0.92,6.43-0.04c0.06-0.03,0.12-0.07,0.12-0.14
					l0.2,0.02c-0.02,0.23-0.03,0.45-0.06,0.68l0.31,0.13c1.73,2.74,4.09,6.79,6.42,11.97c0.87,1.93,1.81,4.02,2.55,6.31
					c0.48,1.5,1,3.44,1.34,5.81C567.42-165.37,567.58-161.62,567.05-157.19z M533.14-180.32c-0.08-0.35-0.22-0.88-0.44-1.5
					c-0.54-1.53-1.33-3.74-3.33-5.18c-1.63-1.17-3.35-1.28-4.25-1.34c-0.64-0.05-2.58-0.11-4.72,0.91c-0.85,0.4-2.14,1.01-3.14,2.41
					c-1.44,2-1.33,4.25-1.26,5.01c0.74,0.38,1.54,0.73,2.41,1.02C524.54-176.95,530.34-179.04,533.14-180.32z M522.37-192.09
					c1.92-5.33,7.14-8.45,6.64-9c-0.25-0.28-1.53,0.53-2.68,1.25c-2.95,1.85-4.67,4.03-5.42,5.06c-0.47,0.65-3.38,4.76-2.45,5.77
					c0.41,0.45,1.45,0.09,1.54,0.06C521.51-189.49,522.1-191.35,522.37-192.09z M514.77-194.24c2.64-4.08,5.11-5.81,4.75-6.26
					c-0.32-0.4-2.44,0.76-3.32,1.3c-1.58,0.97-2.58,2.02-2.86,2.32c-3.87,4.18-8.7,14.42-7.41,15.25c0.18,0.11,1.01,0.4,1.89,0.12
					c0.04-0.01,0.06-0.02,0.08-0.03c1.65-0.57,2.17-2.6,3.01-4.88C510.91-186.43,512.5-190.72,514.77-194.24z M503.76-191.5
					c1.58-4.57,6.72-7.33,6.27-7.89c-0.27-0.34-2.1,0.72-2.87,1.16c-3.05,1.77-4.61,3.99-4.97,4.52c-0.94,1.39-2.44,4.12-1.71,4.85
					c0.37,0.37,1.19,0.09,1.29,0.05C503.06-189.27,503.56-190.9,503.76-191.5z M501.17-180.37c0.6-2.19,0.15-4.49-1.31-5.92
					c-1.96-1.92-4.9-1.46-6.25-1.19c-0.57,0.11-1.15,0.26-1.67,0.53c-0.55,0.29-1.02,0.7-1.48,1.13c-1.27,1.19-2.45,2.56-3.02,4.21
					c-0.08,0.23-0.06,0.35-0.04,0.48c0.27,1.64,4.78,2.26,7.6,2.18C496.37-178.99,498.57-179.24,501.17-180.37z"/>
				<path class="st0" d="M568.18-94.5L568.18-94.5c-1.4,4.03-2.86,8.16-5.56,11.46c-3.22,3.95-7.9,6.4-11.58,9.93
					c-2.28,2.19-4.14,4.77-5.98,7.33l-0.35-0.08c0.59-2.49,1.76-5.95,4.34-9.27c3.48-4.47,6.88-5.29,11.48-9.47
					C562.73-86.58,565.59-89.7,568.18-94.5z"/>
				<path class="st0" d="M556.22-193.31c0,0.06-0.07,0.11-0.12,0.14c-1.98,0.96-4.36,0.8-6.43,0.04c-2.07-0.76-3.89-2.05-5.67-3.35
					c-0.75-0.55-1.57-1.29-1.45-2.2l0.06,0.01c2.47-6.26,5.89-12.15,10.1-17.4c0.07-0.03,0.14-0.05,0.2-0.07l0.06,0.19
					c2.87,7.15,4.05,14.97,3.44,22.66L556.22-193.31z"/>
				<path class="st2" d="M532.69-181.82c0.22,0.62,0.36,1.15,0.44,1.5c-2.8,1.28-8.6,3.37-14.74,1.33
					c-0.87-0.29-1.67-0.64-2.41-1.02c-0.07-0.77-0.18-3.02,1.26-5.01c1-1.39,2.29-2,3.14-2.41c2.15-1.02,4.08-0.95,4.72-0.91
					c0.9,0.06,2.61,0.18,4.25,1.34C531.36-185.56,532.15-183.35,532.69-181.82z"/>
				<path class="st0" d="M529.1-60.16l0.44,0.09c-2.8,13.17-4.73,22.7-5.09,24.98c-0.03,0.2-0.08,0.54-0.06,0.96l-0.34,0
					c0-1.63-0.59-4.27-1.51-8.37c-1.61-7.18-1.88-8.3-2.15-9.94c-0.33-2.01-0.67-4.79-0.71-8.21c0.26-0.26,0.62-0.41,0.97-0.53
					C523.4-62.1,526.41-61.26,529.1-60.16z"/>
				<path class="st0" d="M529-201.09c0.5,0.55-4.71,3.66-6.64,9c-0.27,0.74-0.86,2.6-2.37,3.14c-0.1,0.03-1.13,0.39-1.54-0.06
					c-0.93-1.01,1.98-5.12,2.45-5.77c0.74-1.03,2.46-3.21,5.42-5.06C527.48-200.56,528.76-201.36,529-201.09z"/>
				<path class="st0" d="M519.52-200.51c0.36,0.45-2.11,2.18-4.75,6.26c-2.28,3.53-3.86,7.82-3.86,7.82
					c-0.85,2.28-1.36,4.31-3.01,4.88c-0.02,0-0.05,0.02-0.08,0.03c-0.88,0.29-1.71,0-1.89-0.12c-1.29-0.83,3.55-11.07,7.41-15.25
					c0.28-0.31,1.28-1.36,2.86-2.32C517.08-199.74,519.2-200.91,519.52-200.51z"/>
				<path class="st0" d="M510.03-199.39c0.45,0.56-4.69,3.32-6.27,7.89c-0.2,0.6-0.7,2.23-1.98,2.69c-0.1,0.04-0.92,0.32-1.29-0.05
					c-0.73-0.73,0.76-3.46,1.71-4.85c0.35-0.53,1.92-2.75,4.97-4.52C507.93-198.67,509.76-199.73,510.03-199.39z"/>
				<path class="st3" d="M507.89-177.91c0.24,0.43,0.01,0.99-0.37,1.31c-0.37,0.32-0.86,0.47-1.3,0.68c-0.8,0.36-1.51,0.9-2.07,1.57
					l-0.34-0.5c-0.26-0.89-0.45-1.8-0.58-2.72c-0.04-0.28-0.06-0.57,0.09-0.81c0.16-0.25,0.48-0.34,0.78-0.39
					c1.01-0.17,2.06-0.06,3.01,0.29C507.41-178.36,507.73-178.2,507.89-177.91z"/>
				<path class="st0" d="M505.01-71.73l-0.46,0.11c-1.31-1.72-2.84-4.1-4.08-7.13c-1.71-4.17-2.18-7.92-2.31-10.45l0.16-0.09
					C501.37-83.8,503.63-77.86,505.01-71.73z"/>
				<path class="st2" d="M499.85-186.29c1.46,1.43,1.91,3.73,1.31,5.92c-2.6,1.13-4.79,1.38-6.17,1.42
					c-2.81,0.08-7.32-0.54-7.6-2.18c-0.02-0.13-0.04-0.26,0.04-0.48c0.57-1.65,1.75-3.01,3.02-4.21c0.45-0.43,0.93-0.84,1.48-1.13
					c0.52-0.27,1.09-0.42,1.67-0.53C494.96-187.75,497.89-188.21,499.85-186.29z"/>
				<path class="st1" d="M500.3-199.13c0,0.01-0.01,0.02-0.02,0.02c0,0,0-0.01-0.01-0.02C500.28-199.13,500.3-199.13,500.3-199.13z"
					/>
				<path class="st0" d="M500.28-199.13c0,0,0.01,0.01,0.01,0.02c-2.18,3.11-5.64,5.29-9.39,5.93l-0.18-0.1
					c-0.7-2.89-1.34-6.57-1.46-10.85c-0.12-4.53,0.36-8.43,0.96-11.48l0.48,0.09c0.11,0.06,0.21,0.13,0.32,0.2l-0.3,0.49
					c2.2,2.99,4.47,6.38,6.65,10.2C498.43-202.74,499.4-200.91,500.28-199.13z"/>
			</g>
			<g>
			</g>
		</g>
	</g>
</g>
<path class="st4" d="M504.74-45.5c-3.89-4.65-8.73-8.49-13.48-12.21c-4.71-3.69-8.79-8.1-12.68-12.63
	c-3.94-4.58-7.07-9.58-8.24-15.58c-1.34-6.93-0.36-14.16,0.58-21.08c0.32-2.37-3.31-3.4-3.63-1c-1.59,11.61-2.78,23.69,3.85,34.05
	c3.05,4.77,7.04,8.96,10.94,13.04c4.17,4.36,9.17,7.7,13.64,11.72C499.71-45.61,507.84-39.1,504-33c-1.3,2.06,1.96,3.95,3.25,1.9
	C510.3-35.94,508.09-41.5,504.74-45.5z"/>
<path class="st4" d="M530.51-62.49c-2.93,9.74-4.7,20.14-5.41,30.28c-0.17,2.42,3.6,2.41,3.77,0c0.69-9.81,2.44-19.85,5.28-29.27
	C534.85-63.82,531.21-64.81,530.51-62.49z"/>
<path class="st4" d="M501.47-76.46c-5.38-1.72-9.17-7.19-11.86-11.86c-3.29-5.73-4.06-12.04-3.06-18.52c0.37-2.37-3.26-3.39-3.63-1
	c-1.17,7.5-0.39,14.77,3.44,21.42c3.22,5.6,7.72,11.55,14.11,13.59C502.78-72.09,503.78-75.72,501.47-76.46z"/>
<path class="st4" d="M551.72-90.58c-1.57,2.62-2.91,5.38-3.98,8.24c-1.08,2.89-1.57,6.06-3.3,8.67c-1.35,2.02,1.92,3.91,3.25,1.9
	c1.68-2.53,2.27-5.48,3.23-8.31c1.03-3.02,2.41-5.87,4.04-8.6C556.22-90.76,552.97-92.66,551.72-90.58z"/>
<path class="st4" d="M500.94-35.72c-9.74,0.17-19.08-0.49-27.53-5.79c-3.7-2.32-7.02-5.19-10.1-8.27
	c-3.05-3.05-6.38-6.32-8.51-10.11c-4.41-7.84-2.02-17.56-0.11-25.77c1.12-4.83,2.27-9.66,3.89-14.35c1.64-4.74,3.92-9.19,6.14-13.68
	c4.7-9.53,9.27-19.15,14.35-28.49c3.12,9.14,7.05,17.82,8.02,17.5c0.3-0.1,0.25-1.02,0.18-1.78c-0.69-8.48-4.56-16.15-5.09-18.05
	c-1.1-3.89-4.31-9.82-3.93-16.91c0.38-7.1,3.73-13.3,9.44-23.88c2.6-4.81,4.17-7.05,3.72-7.41c-0.79-0.64-7.58,4.83-11.87,12.4
	c-3.03,5.35-5.33,10.6-5.18,16.87c0.13,5.22,0.94,9.33,3.26,16.81c-0.33,0.14-0.63,0.4-0.86,0.8c-5.24,9.45-9.87,19.23-14.66,28.92
	c-2.31,4.68-4.74,9.33-6.57,14.23c-1.86,4.98-3.12,10.15-4.33,15.32c-2.09,8.94-4.45,18.9-0.51,27.68
	c1.85,4.12,5.13,7.53,8.21,10.77c3.09,3.26,6.41,6.3,10.06,8.93c4.17,3,8.85,5.36,13.85,6.6c5.91,1.47,12.06,1.51,18.12,1.41
	C503.36-31.99,503.37-35.76,500.94-35.72z"/>
<path class="st3" d="M520.73-186.99c-0.64,0.72-0.98,1.66-1.15,2.59c-0.15,0.85-0.44,2.24,0.34,2.87c0.52,0.42,1.1,0.54,1.71,0.22
	c0.63-0.32,0.96-1.05,1.07-1.71c0.13-0.77,0.25-1.53,0.44-2.29c0.4-1.57-1.72-2.43-2.58-1.09c-0.06,0.09-0.11,0.17-0.17,0.26
	c-0.99,1.53,1.46,2.95,2.44,1.43c0.06-0.09,0.11-0.17,0.17-0.26c-0.86-0.36-1.72-0.73-2.58-1.09c-0.13,0.52-0.25,1.05-0.34,1.58
	c-0.04,0.24-0.06,0.48-0.11,0.71c-0.01,0.06-0.02,0.12-0.03,0.18c-0.11,0.31-0.02,0.26,0.26-0.16c0.57,0.07,1.14,0.15,1.71,0.22
	c-0.02-0.02-0.04-0.04-0.07-0.05c0.12,0.21,0.24,0.42,0.36,0.62c-0.07-0.36,0.17-1.66,0.51-2.04c0.51-0.57,0.56-1.44,0-2
	C522.21-187.5,521.24-187.56,520.73-186.99L520.73-186.99z"/>
<path class="st3" d="M491.6-185.97c-0.35,0.53-0.7,1.03-0.92,1.62c-0.29,0.76-0.21,1.81,0.47,2.34c0.85,0.66,1.93,0.24,2.34-0.68
	c0.28-0.63,0.54-1.26,0.78-1.9c0.26-0.69-0.29-1.58-0.99-1.74c-0.8-0.18-1.46,0.24-1.74,0.99c-0.11,0.3-0.23,0.6-0.35,0.9
	c0.07-0.18-0.12,0.29-0.11,0.25c-0.05,0.12-0.1,0.25-0.17,0.36c0.17-0.17,0.34-0.34,0.51-0.51c-0.02,0.01-0.04,0.02-0.07,0.03
	c0.48,0,0.95,0,1.43,0c-0.02-0.01-0.03-0.02-0.05-0.03c0.17,0.17,0.34,0.34,0.51,0.51c0.12,0.16,0.15,0.33,0.09,0.5
	c0.01-0.04,0.02-0.09,0.04-0.13c-0.11,0.21,0.11-0.19,0.14-0.24c0.17-0.29,0.37-0.56,0.55-0.84c0.41-0.62,0.14-1.59-0.51-1.93
	C492.83-186.85,492.04-186.63,491.6-185.97L491.6-185.97z"/>
<path class="st5" d="M523.45-185.33c0,0,0-0.01,0-0.01c-0.02,0.06-0.05,0.11-0.07,0.17c0-0.01,0.01-0.01,0.01-0.02
	c-0.04,0.05-0.07,0.1-0.11,0.14c0.01-0.01,0.02-0.02,0.02-0.02c-0.05,0.04-0.1,0.07-0.14,0.11c0.01-0.01,0.02-0.01,0.03-0.02
	c-0.06,0.02-0.11,0.05-0.17,0.07c0.01,0,0.02-0.01,0.03-0.01c-0.06,0.01-0.13,0.02-0.19,0.03c0.01,0,0.02,0,0.03,0
	c-0.06-0.01-0.13-0.02-0.19-0.03c0.01,0,0.02,0,0.03,0.01c-0.06-0.02-0.11-0.05-0.17-0.07c0.01,0,0.01,0.01,0.02,0.01
	c-0.08-0.32-0.17-0.64-0.25-0.97c0,0,0,0.01-0.01,0.01c0.04-0.05,0.07-0.1,0.11-0.14c-0.01,0.01-0.02,0.02-0.03,0.03
	c0.05-0.04,0.1-0.07,0.14-0.11c-0.01,0-0.01,0.01-0.02,0.01c0.06-0.02,0.11-0.05,0.17-0.07c-0.01,0-0.02,0.01-0.04,0.01
	c0.06-0.01,0.13-0.02,0.19-0.03c-0.01,0-0.02,0-0.03,0c0.06,0.01,0.13,0.02,0.19,0.03c0,0-0.01,0-0.01,0
	c0.17,0.23,0.35,0.45,0.52,0.68c0,0,0-0.01,0-0.01c-0.01,0.06-0.02,0.13-0.03,0.19c0-0.02,0.01-0.04,0.02-0.07
	c-0.02,0.06-0.05,0.11-0.07,0.17c0.01-0.03,0.02-0.05,0.04-0.07c-0.04,0.05-0.07,0.1-0.11,0.14c0.01-0.02,0.03-0.03,0.05-0.05
	c-0.05,0.04-0.1,0.07-0.14,0.11c0.02-0.01,0.04-0.03,0.06-0.04c-0.32-0.32-0.64-0.64-0.97-0.97c-0.02,0.03-0.04,0.06-0.06,0.09
	c-0.04,0.08-0.08,0.17-0.1,0.26c0.35-0.14,0.69-0.28,1.04-0.42c-0.01-0.01-0.02-0.01-0.03-0.02c0.05,0.04,0.1,0.07,0.14,0.11
	c-0.01-0.01-0.01-0.01-0.02-0.02c0.04,0.05,0.07,0.1,0.11,0.14c-0.01-0.01-0.01-0.02-0.02-0.03c0.02,0.06,0.05,0.11,0.07,0.17
	c-0.01-0.02-0.01-0.03-0.01-0.05c0.01,0.06,0.02,0.13,0.03,0.19c0-0.01,0-0.02,0-0.02c-0.01,0.06-0.02,0.13-0.03,0.19
	c0-0.01,0-0.02,0.01-0.03c0.03-0.09,0.03-0.19,0.01-0.28c0-0.09-0.03-0.18-0.08-0.26c-0.04-0.05-0.07-0.1-0.11-0.14
	c-0.06-0.07-0.14-0.12-0.23-0.15c-0.06-0.03-0.11-0.05-0.18-0.05c-0.09-0.02-0.19-0.02-0.28,0.01c-0.06,0.02-0.11,0.05-0.17,0.07
	c-0.11,0.06-0.19,0.15-0.25,0.25c-0.03,0.06-0.05,0.12-0.08,0.18c-0.05,0.08-0.08,0.17-0.08,0.26c-0.02,0.09-0.02,0.19,0.01,0.28
	c0.02,0.09,0.06,0.17,0.13,0.24c0.05,0.08,0.12,0.14,0.2,0.18c0.16,0.09,0.36,0.13,0.54,0.07c0.06-0.02,0.11-0.05,0.17-0.07
	c0.11-0.06,0.19-0.15,0.25-0.25c0.03-0.06,0.05-0.12,0.08-0.18c-0.43-0.18-0.86-0.36-1.29-0.54c0,0.01-0.01,0.02-0.01,0.03
	c-0.01,0.06-0.02,0.14-0.03,0.21c0,0.07,0.01,0.17,0.04,0.24c0.02,0.06,0.05,0.13,0.08,0.18c0,0.01,0.01,0.01,0.01,0.01
	c0.04,0.05,0.07,0.1,0.11,0.14c0.06,0.06,0.12,0.11,0.19,0.15c0.11,0.06,0.23,0.1,0.36,0.1c0.1,0,0.19-0.02,0.27-0.06
	c0.09-0.03,0.16-0.08,0.23-0.15c0.09-0.09,0.15-0.19,0.18-0.31c0.01-0.03,0.01-0.05,0.02-0.07c-0.02,0.06-0.05,0.11-0.07,0.17
	c0.02-0.04,0.04-0.07,0.06-0.11c0.02-0.06,0.05-0.11,0.07-0.17c0.03-0.09,0.03-0.19,0.01-0.28c0-0.06-0.02-0.12-0.05-0.18
	c-0.03-0.09-0.08-0.16-0.15-0.23c-0.09-0.08-0.2-0.14-0.31-0.18c-0.09-0.03-0.19-0.03-0.28-0.01c-0.09,0-0.18,0.03-0.26,0.08
	c-0.16,0.07-0.27,0.21-0.37,0.35c-0.05,0.07-0.08,0.15-0.1,0.23c-0.03,0.09-0.03,0.18-0.04,0.27c0.01,0.06,0.02,0.13,0.03,0.19
	c0.02,0.09,0.06,0.17,0.13,0.24c0.03,0.05,0.07,0.1,0.13,0.13c0.07,0.06,0.15,0.1,0.24,0.13c0.07,0.01,0.15,0.03,0.23,0.03
	c0.06-0.01,0.13-0.02,0.19-0.03c0,0,0.01,0,0.01,0c0.04-0.01,0.07-0.03,0.11-0.04c0.1-0.04,0.17-0.09,0.25-0.16
	c0.05-0.05,0.1-0.12,0.14-0.18c0.05-0.08,0.08-0.17,0.08-0.26c0.02-0.09,0.02-0.19-0.01-0.28c-0.02-0.06-0.05-0.11-0.07-0.17
	c-0.06-0.11-0.15-0.19-0.25-0.25c-0.19-0.13-0.44-0.14-0.66-0.08c-0.13,0.03-0.26,0.11-0.36,0.21c-0.04,0.04-0.09,0.11-0.13,0.16
	c-0.04,0.06-0.06,0.13-0.09,0.2c-0.03,0.09-0.03,0.19-0.01,0.28c0,0.09,0.03,0.18,0.08,0.26c0.04,0.08,0.11,0.15,0.18,0.2
	c0.07,0.06,0.15,0.1,0.24,0.13c0.18,0.04,0.38,0.03,0.54-0.07c0.05-0.04,0.1-0.07,0.14-0.11
	C523.36-185.1,523.42-185.21,523.45-185.33L523.45-185.33z"/>
<path class="st5" d="M494.38-184.88c0-0.01,0.01-0.02,0.01-0.03c-0.02,0.06-0.05,0.11-0.07,0.17c0.01-0.01,0.01-0.03,0.02-0.04
	c-0.04,0.05-0.07,0.1-0.11,0.14c0.01-0.01,0.02-0.02,0.03-0.03c-0.05,0.04-0.1,0.07-0.14,0.11c0.01-0.01,0.03-0.02,0.04-0.02
	c-0.06,0.02-0.11,0.05-0.17,0.07c0.01-0.01,0.03-0.01,0.04-0.01c-0.06,0.01-0.13,0.02-0.19,0.03c0.02,0,0.03,0,0.04,0
	c-0.06-0.01-0.13-0.02-0.19-0.03c0.01,0,0.02,0,0.03,0.01c-0.16-0.29-0.33-0.58-0.49-0.87c0,0.01,0,0.02-0.01,0.03
	c0.02-0.06,0.05-0.11,0.07-0.17c0,0.01-0.01,0.01-0.01,0.02c0.04-0.05,0.07-0.1,0.11-0.14c-0.01,0.01-0.01,0.01-0.02,0.02
	c0.05-0.04,0.1-0.07,0.14-0.11c-0.01,0.01-0.02,0.01-0.02,0.01c0.06-0.02,0.11-0.05,0.17-0.07c-0.01,0-0.02,0.01-0.03,0.01
	c0.06-0.01,0.13-0.02,0.19-0.03c-0.01,0-0.02,0-0.03,0c0.06,0.01,0.13,0.02,0.19,0.03c-0.01,0-0.02,0-0.03-0.01
	c0.06,0.02,0.11,0.05,0.17,0.07c-0.01,0-0.01-0.01-0.02-0.01c0.05,0.04,0.1,0.07,0.14,0.11c-0.01,0-0.01-0.01-0.01-0.01
	c0.06,0.1,0.12,0.21,0.18,0.31c0-0.01-0.01-0.01-0.01-0.02c0.01,0.06,0.02,0.13,0.03,0.19c0-0.01,0-0.01,0-0.02
	c-0.01,0.06-0.02,0.13-0.03,0.19c0,0,0-0.01,0-0.01c-0.02,0.06-0.05,0.11-0.07,0.17c0-0.01,0.01-0.01,0.01-0.02
	c-0.04,0.05-0.07,0.1-0.11,0.14c0-0.01,0.01-0.01,0.02-0.02c-0.05,0.04-0.1,0.07-0.14,0.11c0,0,0.01,0,0.01-0.01
	c-0.18,0.02-0.36,0.05-0.54,0.07c0,0,0.01,0,0.01,0c-0.06-0.02-0.11-0.05-0.17-0.07c0,0,0.01,0,0.01,0.01
	c-0.05-0.04-0.1-0.07-0.14-0.11c0,0,0.01,0.01,0.01,0.01c-0.04-0.05-0.07-0.1-0.11-0.14c0,0,0.01,0.01,0.01,0.01
	c-0.02-0.06-0.05-0.11-0.07-0.17c0,0,0,0.01,0,0.01c-0.01-0.06-0.02-0.13-0.03-0.19c0,0.01,0,0.02,0,0.03
	c0.01-0.06,0.02-0.13,0.03-0.19c0,0.01,0,0.02-0.01,0.02c0.02-0.06,0.05-0.11,0.07-0.17c0,0.01-0.01,0.02-0.02,0.03
	c0.04-0.05,0.07-0.1,0.11-0.14c0,0-0.01,0.01-0.01,0.01c0.05-0.04,0.1-0.07,0.14-0.11c0,0-0.01,0.01-0.01,0.01
	c0.06-0.02,0.11-0.05,0.17-0.07c0,0-0.01,0-0.01,0c0.06-0.01,0.13-0.02,0.19-0.03c-0.01,0-0.01,0-0.02,0
	c0.06,0.01,0.13,0.02,0.19,0.03c0,0-0.01,0-0.01,0c-0.09-0.03-0.19-0.03-0.28-0.01c-0.09,0-0.18,0.03-0.26,0.08
	c-0.08,0.04-0.15,0.11-0.2,0.18c-0.06,0.07-0.1,0.15-0.13,0.24c-0.04,0.18-0.03,0.38,0.07,0.54c0.04,0.05,0.07,0.1,0.11,0.14
	c0.09,0.09,0.19,0.15,0.31,0.18c0.07,0.01,0.14,0.03,0.2,0.03c0.05,0,0.15-0.01,0.2-0.03c0.05-0.01,0.14-0.05,0.18-0.08
	c0.06-0.03,0.11-0.07,0.15-0.12c0.15-0.15,0.22-0.35,0.23-0.56c0-0.01,0-0.02,0-0.02c0-0.05-0.02-0.16-0.03-0.2
	c-0.01-0.04-0.05-0.14-0.08-0.18c-0.03-0.04-0.08-0.12-0.12-0.15c-0.08-0.09-0.22-0.16-0.33-0.2c-0.06-0.02-0.12-0.03-0.19-0.03
	c-0.1,0-0.19,0.02-0.27,0.06c-0.1,0.04-0.15,0.06-0.24,0.15c0,0-0.01,0.01-0.01,0.01c-0.04,0.05-0.07,0.1-0.11,0.14
	c0,0.01-0.01,0.01-0.01,0.02c-0.02,0.06-0.05,0.11-0.07,0.17c-0.01,0.03-0.02,0.07-0.02,0.1c-0.01,0.03-0.01,0.07-0.01,0.11
	c0,0.04,0.01,0.07,0.01,0.11c0,0.04,0.01,0.07,0.01,0.1c0.04,0.18,0.18,0.35,0.34,0.45c0.03,0.02,0.06,0.03,0.1,0.04
	c0.05,0.02,0.07,0.03,0.11,0.04c0.07,0.02,0.13,0.03,0.2,0.03c0.06,0,0.14-0.01,0.21-0.03c0.07-0.02,0.15-0.05,0.21-0.09
	c0.03-0.02,0.05-0.04,0.08-0.06c0.03-0.02,0.05-0.04,0.08-0.06c0.05-0.05,0.1-0.12,0.12-0.16c0.02-0.03,0.03-0.06,0.05-0.1
	c0.01-0.03,0.04-0.07,0.04-0.11c0.03-0.09,0.03-0.19,0.01-0.28c0-0.09-0.03-0.18-0.08-0.26c-0.04-0.05-0.07-0.1-0.11-0.14
	c-0.09-0.09-0.19-0.15-0.31-0.18c-0.22-0.08-0.49-0.03-0.68,0.08c-0.19,0.11-0.36,0.32-0.41,0.53c-0.03,0.09-0.03,0.19-0.01,0.28
	c0,0.09,0.03,0.18,0.08,0.26c0.04,0.08,0.11,0.15,0.18,0.2c0.07,0.06,0.15,0.1,0.24,0.13c0.18,0.04,0.38,0.03,0.54-0.07
	C494.2-184.55,494.34-184.7,494.38-184.88L494.38-184.88z"/>
<path class="st3" d="M489.16-215.83c-0.27,3.19-0.55,6.38-0.82,9.57c-0.24,2.78-0.61,5.61-0.25,8.39c0.21,1.63,0.64,3.19,1.46,4.62
	c0.75,1.31,2.79,0.13,2.03-1.19c-1.65-2.87-1.35-6.35-1.08-9.53c0.33-3.96,0.68-7.91,1.02-11.87c0.05-0.63-0.58-1.18-1.18-1.18
	C489.65-217,489.21-216.46,489.16-215.83L489.16-215.83z"/>
<path class="st3" d="M506.55-201.27c3.71-0.9,7.44-1.77,11.23-2.33c3.69-0.54,7.44-0.69,11.17-0.4c2.11,0.16,4.2,0.48,6.27,0.92
	c0.62,0.13,1.27-0.18,1.45-0.82c0.16-0.59-0.2-1.31-0.82-1.45c-3.84-0.83-7.79-1.23-11.72-1.14c-3.95,0.09-7.88,0.68-11.75,1.47
	c-2.16,0.44-4.3,0.95-6.44,1.47C504.45-203.19,505.07-200.91,506.55-201.27L506.55-201.27z"/>
<path class="st3" d="M536.79-203.34c1.3-1.04,2.43-2.26,3.62-3.42c1.22-1.18,2.54-2.16,3.97-3.07c1.53-0.97,3.07-1.94,4.61-2.9
	c1.4-0.88,2.82-1.77,4.4-2.3c0.6-0.2,1-0.81,0.82-1.45c-0.16-0.59-0.84-1.02-1.45-0.82c-1.72,0.58-3.29,1.48-4.82,2.45
	c-1.58,1-3.17,1.99-4.75,2.99c-1.55,0.98-3.01,2.05-4.33,3.32c-1.24,1.19-2.4,2.46-3.74,3.54c-0.5,0.4-0.41,1.25,0,1.66
	C535.61-202.85,536.29-202.94,536.79-203.34L536.79-203.34z"/>
<path class="st3" d="M551.92-215.63c2.26,5.67,3.48,11.71,3.55,17.82c0.02,1.74-0.05,3.47-0.21,5.2c-0.06,0.63,0.58,1.18,1.18,1.18
	c0.69,0,1.12-0.54,1.18-1.18c0.58-6.24-0.01-12.6-1.72-18.63c-0.48-1.7-1.05-3.37-1.71-5.01c-0.24-0.59-0.79-1-1.45-0.82
	C552.18-216.93,551.68-216.23,551.92-215.63L551.92-215.63z"/>
<path class="st3" d="M552.04-217c-4.38,5.46-7.9,11.51-10.48,18.02c-0.23,0.59,0.26,1.29,0.82,1.45c0.67,0.18,1.21-0.23,1.45-0.82
	c2.42-6.1,5.77-11.86,9.88-16.98c0.4-0.5,0.48-1.18,0-1.66C553.29-217.41,552.44-217.5,552.04-217L552.04-217z"/>
<path class="st3" d="M490.18-214.49c5.68,3.53,10.81,7.89,15.22,12.91c0.42,0.48,1.24,0.43,1.66,0c0.47-0.47,0.42-1.19,0-1.66
	c-4.54-5.17-9.85-9.65-15.7-13.28C490.08-217.32,488.89-215.28,490.18-214.49L490.18-214.49z"/>
<path class="st3" d="M489.77-214.22c3.74,5.08,7.02,10.48,9.79,16.15c0.28,0.57,1.09,0.73,1.61,0.42c0.58-0.34,0.7-1.04,0.42-1.61
	c-2.77-5.67-6.05-11.07-9.79-16.15c-0.38-0.51-1.02-0.77-1.61-0.42C489.69-215.54,489.39-214.74,489.77-214.22L489.77-214.22z"/>
<path class="st3" d="M489.96-194.1c-2.28,1.89-4.44,3.94-6.42,6.15c-1.77,1.97-3.51,4.02-5.01,6.21c-2.65,3.88-4.45,8.54-4.96,13.22
	c-0.35,3.27,0.12,6.65,0.65,9.87c0.8,4.83,2.02,9.58,3.41,14.27c1.79,6.01,3.89,11.93,6.21,17.75c0.32,0.81,0.65,1.61,0.97,2.42
	c0.24,0.59,0.78,1.01,1.45,0.82c0.56-0.15,1.06-0.86,0.82-1.45c-2.4-5.88-4.6-11.84-6.49-17.9c-1.5-4.81-2.83-9.7-3.77-14.65
	c-0.19-1-0.36-2-0.51-3c-0.03-0.22-0.06-0.45-0.1-0.67c-0.04-0.3,0.01,0.07-0.02-0.14c-0.02-0.13-0.03-0.26-0.05-0.4
	c-0.05-0.43-0.1-0.86-0.14-1.29c-0.15-1.51-0.23-3.03-0.17-4.54c0.01-0.31,0.04-0.63,0.07-0.94c0.01-0.14,0.04-0.27,0.05-0.41
	c0-0.05-0.05,0.3-0.01,0.04c0.01-0.07,0.02-0.14,0.03-0.2c0.23-1.42,0.58-2.83,1-4.2c0.59-1.95,1.38-3.8,2.41-5.57
	c1.35-2.33,3.01-4.34,4.75-6.38c1.73-2.02,3.59-3.94,5.57-5.72c0.63-0.56,1.26-1.11,1.91-1.64c0.49-0.41,0.42-1.24,0-1.66
	C491.14-194.59,490.45-194.51,489.96-194.1L489.96-194.1z"/>
<path class="st3" d="M555.72-191.89c2.74,4.34,5.09,8.9,7.15,13.6c0.92,2.09,1.72,4.22,2.29,6.43c0.24,0.93,0.44,1.86,0.6,2.81
	c0.04,0.24,0.08,0.48,0.12,0.73c0.02,0.12,0.04,0.25,0.05,0.37c0-0.01,0.03,0.2,0.01,0.1c-0.01-0.08,0.02,0.14,0.02,0.16
	c0.07,0.58,0.13,1.16,0.18,1.75c0.25,3.11,0.13,6.24-0.28,9.33c-0.08,0.63,0.6,1.18,1.18,1.18c0.7,0,1.09-0.54,1.18-1.18
	c0.66-5.03,0.54-10.17-0.61-15.12c-0.51-2.16-1.24-4.26-2.1-6.31c-1.17-2.77-2.43-5.51-3.83-8.18c-1.22-2.34-2.54-4.63-3.94-6.86
	c-0.34-0.54-1.05-0.75-1.61-0.42C555.61-193.19,555.38-192.43,555.72-191.89L555.72-191.89z"/>
<path class="st3" d="M566.33-167.84c7.16,14.14,13.79,28.53,19.98,43.11c1.74,4.09,3.8,8.03,5.61,12.09
	c2.75,6.16,5.16,12.48,7.02,18.97c1.9,6.64,3.29,13.38,2.9,20.33c-0.33,5.98-1.81,12.05-4.33,17.44
	c-4.09,8.75-11.36,15.86-19.91,20.26c-9.47,4.87-20.72,5.97-31.03,3.42c-0.64-0.16-1.27-0.33-1.9-0.52
	c-1.46-0.43-2.08,1.84-0.63,2.27c10.77,3.18,22.63,2.4,32.86-2.24c9.07-4.11,16.91-11.29,21.65-20.05c2.33-4.3,3.91-9.05,4.81-13.85
	c1.37-7.23,1.03-14.51-0.6-21.66c-1.59-6.96-3.86-13.76-6.57-20.36c-2.04-4.97-4.38-9.8-6.66-14.67c-1.21-2.58-2.28-5.22-3.41-7.84
	c-1.64-3.8-3.32-7.59-5.03-11.37c-3.28-7.23-6.69-14.4-10.21-21.52c-0.83-1.68-1.67-3.35-2.52-5.02
	C567.68-170.38,565.65-169.19,566.33-167.84L566.33-167.84z"/>
<path class="st6" d="M479.18-179.1"/>
<path class="st3" d="M476.78-148.72c-4.95,8.82-9.64,17.79-14,26.91c-2.77,5.81-5.41,11.69-7.89,17.64
	c-2.15,5.16-4.33,10.37-5.89,15.75c-3.1,10.72-3.03,22.58,1.75,32.81c2.32,4.97,5.8,9.37,10.01,12.88c3.29,2.74,6.95,4.96,10.8,6.81
	c4.75,2.27,9.66,4.14,14.83,5.2c4.94,1.01,10.01,1.41,15.05,1.16c0.87-0.04,1.75-0.11,2.62-0.19c0.63-0.06,1.18-0.5,1.18-1.18
	c0-0.59-0.54-1.24-1.18-1.18c-4.39,0.4-8.84,0.34-13.21-0.24c-5.59-0.74-10.99-2.38-16.13-4.7c-3.43-1.54-6.76-3.29-9.84-5.46
	c-4.03-2.85-7.54-6.44-10.13-10.64c-5.79-9.37-6.76-21.15-4.26-31.72c1.2-5.1,3.14-9.99,5.09-14.85c2.38-5.92,4.94-11.77,7.64-17.56
	c4.39-9.42,9.14-18.68,14.18-27.77c0.46-0.83,0.92-1.66,1.39-2.49C479.55-148.85,477.52-150.04,476.78-148.72L476.78-148.72z"/>
<path class="st3" d="M540.83-36.8c0.26,0.44,0.51,0.88,0.75,1.33c0.19,0.35,0.37,0.7,0.55,1.06c0.23,0.48,0.31,0.64,0.44,1.01
	c0.1,0.29,0.22,0.59,0.2,0.89c0.01-0.25,0.02,0.08-0.02,0.08c0.01,0-0.07,0.06,0.02-0.05c-0.12,0.16-0.34,0.32-0.55,0.46
	c-0.85,0.57-1.79,1.07-2.71,1.42c-3.83,1.45-8.39,1.35-11.97-0.74c-0.8-0.47-1.52-1.07-1.76-1.9c-0.14-0.46-0.17-0.91-0.13-1.4
	c0-0.07,0.01-0.13,0.02-0.2c-0.02,0.29-0.02,0.13,0,0.05c0.01-0.07,0.02-0.14,0.03-0.2c0.14-0.81,0.29-1.61,0.45-2.42
	c0.6-3.11,1.24-6.2,1.88-9.3c1.09-5.3,2.21-10.59,3.34-15.88c0.13-0.62-0.18-1.27-0.82-1.45c-0.59-0.16-1.31,0.2-1.45,0.82
	c-1.8,8.41-3.6,16.82-5.23,25.26c-0.16,0.83-0.32,1.65-0.46,2.48c-0.16,1.01-0.17,2.05,0.16,3.03c0.43,1.25,1.33,2.19,2.42,2.91
	c1.99,1.31,4.43,1.96,6.78,2.18c2.33,0.22,4.75-0.07,6.96-0.83c1.25-0.43,2.46-1,3.56-1.72c0.7-0.46,1.41-0.96,1.7-1.79
	c0.19-0.56,0.16-1.16,0.03-1.73c-0.22-0.97-0.71-1.9-1.17-2.78c-0.31-0.6-0.64-1.19-0.99-1.77C542.08-39.28,540.05-38.1,540.83-36.8
	L540.83-36.8z"/>
<path class="st3" d="M581.51-98.83c0.75,2.74,0.55,5.63,0.37,8.43c-0.18,2.8-0.48,5.59-1.13,8.33c-1.17,4.88-3.61,9.32-6.67,13.28
	c-3.1,4-6.76,7.57-10.55,10.91c-2.04,1.81-4.16,3.52-6.42,5.06c-2.07,1.41-4.26,2.59-6.44,3.8c-2.3,1.27-4.58,2.62-6.52,4.41
	c-1.95,1.8-4.33,4.71-3.44,7.55c0.45,1.44,2.73,0.83,2.27-0.63c-0.35-1.13,0.34-2.26,0.98-3.18c0.59-0.84,1.36-1.65,2.17-2.36
	c1.65-1.45,3.64-2.6,5.6-3.69c2.15-1.19,4.31-2.35,6.36-3.72c2.31-1.55,4.49-3.29,6.59-5.12c7.61-6.62,15.22-14.51,18.02-24.47
	c0.88-3.13,1.26-6.39,1.49-9.62c0.23-3.19,0.44-6.47-0.42-9.59C583.38-100.92,581.11-100.3,581.51-98.83L581.51-98.83z"/>
<path class="st3" d="M466.06-107.99c-0.81,7.52-1.29,15.15-0.02,22.66c0.57,3.36,1.51,6.64,2.94,9.74c1.2,2.6,2.71,5.05,4.41,7.36
	c3.12,4.26,6.81,8.08,10.78,11.56c2.22,1.94,4.55,3.72,6.9,5.49c0.21,0.15,0.41,0.31,0.61,0.47c0.16,0.12-0.18-0.14,0.03,0.03
	c0.09,0.07,0.18,0.14,0.27,0.21c0.22,0.17,0.43,0.35,0.65,0.52c1.11,0.91,2.19,1.87,3.22,2.86c2.51,2.43,4.78,5.1,6.75,7.99
	c0.34,0.5,0.68,1.01,1,1.53c0-0.4,0-0.79,0-1.19c-1.26,2.13-2.25,4.85-1.2,7.27c0.87,2,3,2.98,5.04,3.34
	c2.08,0.37,4.19,0.31,6.28,0.19c2.28-0.14,4.63-0.24,6.82-0.93c1.87-0.59,4.1-1.83,4.61-3.9c0.41-1.63-0.03-3.47-0.34-5.07
	c-0.84-4.33-1.94-8.6-2.84-12.92c-0.2-0.97-0.38-1.95-0.52-2.94c-0.02-0.13-0.04-0.27-0.06-0.4c0.03,0.19-0.01-0.11-0.02-0.16
	c-0.04-0.29-0.07-0.58-0.1-0.87c-0.07-0.59-0.12-1.18-0.17-1.77c-0.11-1.43-0.17-2.86-0.17-4.28c0-0.78,0.01-1.56,0.04-2.34
	c0.02-0.64-0.56-1.18-1.18-1.18c-0.66,0-1.15,0.54-1.18,1.18c-0.15,4.15,0.11,8.33,0.88,12.41c0.64,3.37,1.47,6.7,2.22,10.05
	c0.28,1.24,0.55,2.48,0.8,3.72c0.1,0.49,0.18,0.97,0.26,1.46c0.02,0.1,0.03,0.21,0.05,0.31c0.01,0.05,0.01,0.1,0.02,0.15
	c0-0.01-0.03-0.2-0.01-0.07c0.02,0.2,0.05,0.4,0.06,0.6c0.03,0.34,0.05,0.68,0.04,1.01c0,0.03-0.04,0.39-0.03,0.39
	c-0.03-0.01,0.06-0.32,0.01-0.08c-0.01,0.06-0.03,0.13-0.04,0.19c-0.02,0.07-0.11,0.4-0.05,0.17c0.05-0.19,0.02-0.05-0.01,0.01
	c-0.07,0.11-0.13,0.21-0.2,0.32c-0.11,0.17,0.04-0.03-0.09,0.13c-0.07,0.09-0.15,0.17-0.23,0.25c-0.08,0.08-0.16,0.16-0.25,0.24
	c-0.04,0.04-0.09,0.07-0.13,0.11c-0.15,0.12,0.12-0.09-0.03,0.03c-1.59,1.18-3.77,1.47-5.7,1.64c-1.93,0.17-3.9,0.31-5.84,0.27
	c-0.5-0.01-1-0.04-1.49-0.09c-0.12-0.01-0.24-0.03-0.35-0.04c-0.22-0.02,0.06,0.01-0.15-0.02c-0.25-0.04-0.5-0.08-0.74-0.14
	c-0.24-0.05-0.48-0.11-0.71-0.18c-0.11-0.03-0.21-0.07-0.31-0.1c-0.06-0.02-0.34-0.13-0.26-0.09c0.09,0.04-0.15-0.07-0.2-0.09
	c-0.09-0.05-0.19-0.09-0.28-0.14c-0.19-0.11-0.38-0.23-0.56-0.36c0.16,0.12-0.01-0.02-0.07-0.07c-0.07-0.07-0.15-0.14-0.21-0.21
	c-0.07-0.07-0.13-0.15-0.2-0.22c0.14,0.17-0.04-0.06-0.08-0.13c-0.24-0.38-0.38-0.84-0.41-1.21c-0.07-1.05,0.27-2.18,0.68-3.05
	c0.19-0.41,0.41-0.81,0.64-1.2c0.21-0.35,0.22-0.84,0-1.19c-3.29-5.22-7.48-9.88-12.35-13.66c-0.78-0.6-1.57-1.18-2.35-1.77
	c-0.26-0.19-0.51-0.39-0.77-0.58c-0.07-0.05-0.14-0.11-0.21-0.16c0.2,0.15,0.07,0.06-0.04-0.03c-0.16-0.12-0.31-0.24-0.47-0.36
	c-0.72-0.56-1.42-1.14-2.12-1.72c-3.83-3.21-7.44-6.73-10.57-10.62c-0.46-0.57-0.75-0.95-1.18-1.53c-0.42-0.57-0.83-1.14-1.22-1.72
	c-0.79-1.17-1.54-2.37-2.21-3.61c-0.67-1.22-1.29-2.52-1.75-3.7c-0.62-1.57-1.1-3.19-1.49-4.83c-1.73-7.23-1.45-14.78-0.76-22.13
	c0.09-0.93,0.18-1.85,0.28-2.78c0.07-0.63-0.59-1.18-1.18-1.18C466.55-109.17,466.13-108.63,466.06-107.99L466.06-107.99z"/>
<path class="st3" d="M481.85-107.43c-1.65,6.41-1.08,13.27,1.5,19.35c1.29,3.05,3.06,5.86,5.42,8.19c2.07,2.05,4.43,3.9,6.88,5.47
	c2.78,1.79,5.8,3.21,8.93,4.27c0.49,0.17,1.08-0.11,1.33-0.54c0.29-0.49,0.14-1.01-0.18-1.43c-0.08-0.11-0.09-0.12-0.03-0.04
	c-0.05-0.06-0.1-0.13-0.15-0.19c-0.1-0.13-0.2-0.26-0.29-0.4c-0.21-0.28-0.41-0.57-0.6-0.86c-0.44-0.64-0.85-1.3-1.24-1.98
	c-0.88-1.53-1.63-3.12-2.22-4.78c-1.05-2.92-1.62-5.84-1.77-8.85c-0.03-0.64-0.52-1.18-1.18-1.18c-0.61,0-1.21,0.54-1.18,1.18
	c0.26,5.43,1.85,10.76,4.66,15.41c0.71,1.17,1.49,2.27,2.33,3.35c0.38-0.66,0.76-1.31,1.15-1.97c-2.55-0.87-4.87-1.93-7.24-3.34
	c-2.38-1.42-4.61-3.1-6.66-4.97c-1.07-0.98-2.12-2.03-2.97-3.21c-0.92-1.27-1.71-2.65-2.38-4.06c-1.28-2.67-2.13-5.64-2.48-8.56
	c-0.41-3.44-0.21-6.9,0.65-10.25C484.5-108.27,482.23-108.89,481.85-107.43L481.85-107.43z"/>
<path class="st3" d="M567.85-96.25c-2.29,4.54-5.27,8.55-9.19,11.81c-1.93,1.6-4.08,2.88-6.09,4.38c-2.3,1.72-4.25,3.78-5.77,6.23
	c-1.54,2.47-2.61,5.23-3.24,8.07c0.77,0.1,1.54,0.21,2.31,0.31c-0.49-7.3,1.14-14.65,4.74-21.03c0.79-1.39,1.66-2.73,2.61-4.01
	c0.38-0.51,0.08-1.31-0.42-1.61c-0.6-0.35-1.23-0.09-1.61,0.42c-4.5,6.07-7.15,13.4-7.67,20.93c-0.12,1.76-0.12,3.53,0,5.3
	c0.04,0.58,0.42,1.08,1.02,1.16c0.55,0.07,1.16-0.26,1.29-0.84c0.53-2.39,1.35-4.67,2.57-6.79c0.73-1.27,1.58-2.48,2.57-3.57
	c0.77-0.85,1.77-1.76,2.58-2.38c2.04-1.57,4.25-2.89,6.26-4.5c1.75-1.4,3.37-2.98,4.81-4.7c2.06-2.45,3.81-5.14,5.25-8
	c0.29-0.57,0.15-1.28-0.42-1.61C568.94-96.98,568.14-96.82,567.85-96.25L567.85-96.25z"/>
<path class="st3" d="M505.02-175.16c-0.19-0.67-0.35-1.35-0.47-2.04c-0.01-0.07-0.04-0.75-0.09-0.79c-0.05,0.12-0.1,0.23-0.15,0.35
	c-0.02,0.03-0.05,0.05-0.08,0.07c0.03,0.02,0.39-0.07,0.45-0.07c0.64-0.05,1.26,0.01,1.87,0.2c-0.08-0.02,0.45,0.15,0.3,0.1
	c0.41,0.13,0.07,0.08,0.1,0.03c-0.11,0.21-0.08-0.33-0.03-0.3c0.06,0.03-0.18,0.2-0.15,0.18c-0.45,0.35-1.06,0.46-1.56,0.75
	c-0.56,0.32-1.09,0.73-1.54,1.2c-0.86,0.9-1.53,2.05-1.77,3.28c-0.49,2.57,0.59,5.3,2.9,6.63c2.19,1.26,4.96,1.13,7.3,0.4
	c1.43-0.45,2.88-1.14,3.86-2.3c1.03-1.22,1.53-2.85,1.09-4.42c-0.42-1.45-2.69-0.84-2.27,0.63c0.27,0.95-0.19,1.96-1,2.66
	c-0.86,0.74-2.03,1.13-3.12,1.39c-1.94,0.46-4.4,0.38-5.69-1.24c-1.35-1.69-0.99-4.02,0.47-5.46c0.37-0.36,0.72-0.61,1.21-0.87
	c0.6-0.31,1.27-0.49,1.79-0.98c0.52-0.49,0.84-1.18,0.8-1.9c-0.06-0.96-0.76-1.56-1.6-1.89c-0.77-0.31-1.61-0.45-2.44-0.46
	c-0.81-0.01-1.82,0.06-2.45,0.63c-0.75,0.68-0.65,1.57-0.51,2.47c0.13,0.8,0.31,1.6,0.53,2.38
	C503.16-173.07,505.43-173.69,505.02-175.16L505.02-175.16z"/>
<path class="st3" d="M494.96-174.9c-0.36,1.33-0.68,2.7-0.5,4.08c0.17,1.29,0.75,2.47,1.81,3.26c2.16,1.6,4.99,0.77,7.04-0.59
	c-0.48-0.62-0.95-1.23-1.43-1.85c-0.89,0.77-1.91,1.5-2.7,2.39c-0.64,0.72-1.07,1.53-1.43,2.41c-0.53,1.32-0.48,2.71,0.01,4.04
	c0.61,1.67,1.63,3.14,2.71,4.54c1.39,1.81,2.91,3.51,4.42,5.21c1.48,1.66,3.01,3.27,4.61,4.82c1.09,1.06,2.75-0.61,1.66-1.66
	c-2.83-2.75-5.5-5.69-8-8.74c-1.06-1.29-2.08-2.64-2.83-4.13c-0.07-0.14-0.14-0.28-0.2-0.42c-0.15-0.33,0.04,0.12-0.03-0.08
	c-0.03-0.09-0.07-0.17-0.1-0.26c-0.1-0.29-0.19-0.59-0.25-0.89c0-0.01-0.05-0.32-0.02-0.13c0.02,0.19-0.01-0.12-0.01-0.13
	c-0.01-0.12-0.01-0.25-0.01-0.37c0-0.06,0.01-0.12,0.01-0.18c-0.01-0.29-0.04,0.17,0,0c0.03-0.15,0.06-0.29,0.1-0.43
	c0.05-0.16,0.11-0.31,0.17-0.46c0.02-0.06,0.05-0.13,0.08-0.19c-0.08,0.19,0.05-0.1,0.07-0.14c0.17-0.35,0.39-0.75,0.61-1.02
	c0.35-0.44,0.81-0.78,1.23-1.15c0.52-0.45,1.04-0.9,1.56-1.35c1.01-0.87-0.31-2.59-1.43-1.85c-1.33,0.88-3.2,1.73-4.55,0.67
	c-1.33-1.05-0.75-3.27-0.34-4.76C497.64-175.74,495.37-176.36,494.96-174.9L494.96-174.9z"/>
<path class="st3" d="M517.24-180.01c-0.05-0.58-0.05-1.16,0.02-1.73c-0.02,0.17,0.01-0.04,0.01-0.06c0.02-0.11,0.04-0.22,0.06-0.33
	c0.04-0.2,0.09-0.41,0.16-0.61c0.14-0.45,0.33-0.87,0.57-1.27c0.82-1.35,2.22-2.18,3.71-2.69c2.78-0.95,6.32-0.65,8.24,1.88
	c1.09,1.43,1.64,3.04,2.07,4.82c0.18-0.44,0.36-0.89,0.54-1.33c-0.11,0.05-0.22,0.1-0.34,0.15c-0.04,0.02-0.43,0.18-0.18,0.08
	c-0.23,0.1-0.47,0.19-0.7,0.28c-0.53,0.2-1.07,0.39-1.61,0.56c-1.27,0.39-2.61,0.7-3.91,0.84c-3.18,0.34-6.37-0.14-9.22-1.61
	c-0.57-0.29-1.28-0.15-1.61,0.42c-0.31,0.53-0.15,1.32,0.42,1.61c3.21,1.65,6.82,2.31,10.41,1.93c2.76-0.29,5.4-1.09,7.92-2.23
	c0.48-0.22,0.65-0.86,0.54-1.33c-0.42-1.75-1.09-3.6-2.11-5.1c-1.28-1.89-3.21-3.23-5.48-3.61c-1.66-0.28-3.35-0.27-4.98,0.17
	c-1.94,0.52-3.93,1.57-5.19,3.18c-1.32,1.68-1.9,3.86-1.7,5.98c0.06,0.63,0.5,1.18,1.18,1.18
	C516.66-178.83,517.3-179.37,517.24-180.01z"/>
<path class="st3" d="M502.38-180.05c0.79-3-0.08-6.61-3.04-8.09c-1.22-0.61-2.59-0.82-3.95-0.74c-1.28,0.08-2.66,0.3-3.83,0.86
	c-1.39,0.67-2.6,1.99-3.54,3.19c-0.49,0.62-0.94,1.27-1.27,1.99c-0.33,0.72-0.63,1.46-0.35,2.24c0.39,1.11,1.51,1.68,2.55,2.04
	c1.22,0.43,2.53,0.6,3.81,0.71c3.14,0.27,6.18-0.26,9.07-1.51c0.58-0.25,0.72-1.11,0.42-1.61c-0.35-0.6-1.02-0.67-1.61-0.42
	c-1.19,0.51-2.45,0.87-3.73,1.09c-0.13,0.02-0.25,0.04-0.38,0.06c-0.21,0.03,0.15-0.02-0.05,0.01c-0.06,0.01-0.12,0.01-0.18,0.02
	c-0.24,0.03-0.47,0.05-0.71,0.06c-0.46,0.03-0.93,0.04-1.4,0.03c-0.52-0.01-1.05-0.04-1.57-0.09c-0.61-0.06-0.86-0.09-1.46-0.2
	c-0.49-0.09-0.97-0.21-1.44-0.36c-0.12-0.04-0.24-0.08-0.36-0.13c-0.21-0.08,0.1,0.06-0.09-0.04c-0.18-0.09-0.35-0.18-0.52-0.29
	c-0.04-0.02-0.07-0.05-0.1-0.07c0.01,0,0.17,0.15,0.08,0.06c-0.04-0.04-0.11-0.13-0.16-0.16c-0.09-0.04,0.06,0.07,0.08,0.1
	c-0.02-0.04-0.05-0.08-0.07-0.12c0.14,0.33-0.01,0.03,0.02,0.01c0.06-0.05-0.07,0.17,0.06,0.04c0.05-0.05,0.08-0.21,0.11-0.29
	c0.13-0.3,0.3-0.59,0.47-0.87c0.67-1.09,1.6-2.05,2.57-2.87c0.82-0.7,1.84-0.91,2.88-1.07c0.05-0.01,0.1-0.01,0.15-0.02
	c-0.02,0-0.2,0.02-0.06,0.01c0.11-0.01,0.21-0.02,0.32-0.03c0.27-0.02,0.53-0.04,0.8-0.04c0.24,0,0.49,0.01,0.73,0.03
	c0.06,0,0.12,0.01,0.19,0.02c-0.03,0-0.14-0.02,0,0c0.15,0.02,0.29,0.05,0.44,0.09c1.17,0.28,2.07,0.95,2.62,2.06
	c0.54,1.07,0.54,2.45,0.22,3.67C499.72-179.21,501.99-178.58,502.38-180.05z"/>
<path class="st3" d="M602.3-61.7c1.16-6.17,3.2-12.03,6.62-17.28c0.32-0.49,0.65-0.97,0.99-1.45c0.16-0.22,0.32-0.44,0.48-0.65
	c0.08-0.11,0.16-0.21,0.24-0.31c0.03-0.04,0.14-0.18-0.01,0.01c0.05-0.06,0.1-0.13,0.15-0.19c0.83-1.06,1.72-2.07,2.64-3.05
	c2.2-2.35,4.55-4.54,6.82-6.82c4.54-4.57,8.91-9.7,11.19-15.82c0.63-1.69,1.01-3.46,1.17-5.26c0.14-1.52,0.03-3.02,0-4.54
	c0-0.05-0.01-0.6,0.02-0.6c0.04,0-0.1,0.31,0.01,0.05c-0.1,0.23-0.18,0.41-0.5,0.55c-0.17,0.07-0.32,0.07-0.5,0.07
	c-0.19,0-0.15-0.03-0.08-0.01c-0.01,0-0.31-0.16-0.11-0.04c0.18,0.12-0.21-0.21-0.04-0.04c0.06,0.06,0.13,0.12,0.2,0.19
	c0.14,0.14,0.26,0.29,0.39,0.45c-0.19-0.24,0.03,0.04,0.08,0.11c0.08,0.12,0.17,0.23,0.25,0.35c0.35,0.51,0.67,1.03,0.98,1.57
	c3.02,5.21,5.04,10.94,5.58,16.9c0.59,6.5-0.24,12.99-2.13,19.21c-1.67,5.5-4.19,10.76-7.49,15.47c-0.35,0.49-0.7,0.98-1.07,1.46
	c-0.05,0.07-0.1,0.14-0.16,0.21c-0.18,0.24,0.09-0.11-0.02,0.03c-0.12,0.16-0.24,0.31-0.37,0.47c-0.26,0.33-0.52,0.65-0.79,0.97
	c-1.31,1.57-2.7,3.07-4.17,4.49c-3.96,3.82-8.32,6.95-13.32,9.43c-6.12,3.04-12.91,4.79-19.75,5.15c-1.31,0.07-2.62,0.08-3.93,0.06
	c-1.52-0.03-1.52,2.32,0,2.35c6.93,0.15,13.9-1.02,20.36-3.54c5.73-2.23,11.01-5.43,15.68-9.41c3.2-2.72,6.08-5.8,8.6-9.15
	c3.04-4.04,5.44-8.54,7.27-13.25c2.47-6.34,3.84-13.17,3.82-19.98c-0.01-3.28-0.36-6.58-1.09-9.78c-0.71-3.08-1.84-6.03-3.21-8.88
	c-0.65-1.35-1.34-2.68-2.12-3.96c-0.54-0.89-1.13-1.87-1.92-2.57c-0.38-0.34-0.8-0.58-1.33-0.59c-0.69-0.01-1.21,0.52-1.4,1.14
	c-0.14,0.47-0.1,1.03-0.08,1.52c0.03,0.72,0.07,1.45,0.07,2.17c0.01,3.41-0.92,6.56-2.5,9.49c-1.56,2.9-3.44,5.57-5.61,8.05
	c-4.19,4.78-9.23,8.8-13.16,13.82c-3.58,4.58-6.13,9.85-7.74,15.43c-0.52,1.78-0.93,3.59-1.28,5.41c-0.12,0.62,0.17,1.27,0.82,1.45
	C601.42-60.72,602.18-61.08,602.3-61.7L602.3-61.7z"/>
<g>
	<g>
		<g id="XMLID_00000042724077965026646600000000012046476275680156_">
			<path class="st7" d="M580.59-345.55c4.72,12.74,1.79,29.37-6.63,41.89c-1.94,2.89-10.61,15.12-27.02,20.12
				c-6.2,1.89-11.66,2.19-15.43,2.1c0.62-0.48,1.24-1,1.88-1.55l0.89,0.17c3.66-1.09,6.78-3.46,9.81-5.78
				c8.11-6.23,16.35-12.59,22.3-20.91c8.37-11.71,11.55-26.99,8.55-41.07l-0.34-0.02c0.21-2.84-0.3-4.76,0.21-4.94
				C575.73-355.86,578.99-349.87,580.59-345.55z"/>
			<path class="st8" d="M574.93-350.58c3,14.08-0.18,29.36-8.55,41.07c-5.95,8.32-14.18,14.68-22.3,20.91
				c-3.03,2.32-6.15,4.69-9.81,5.78l-0.89-0.17c3.2-2.79,6.51-6.5,9.17-11.32c0.52-0.94,2.42-4.47,3.81-9.74
				c0.21-0.78,0.4-1.59,0.57-2.44c2-7.65,5.19-12.74,7.99-16.12c4.74-5.73,11.99-10.95,16.39-18.57c1.23-2.14,2.78-4.88,3.2-8.72
				c0.02-0.24,0.05-0.47,0.06-0.69L574.93-350.58z"/>
			<path class="st7" d="M515.13-333.27l0.01,0c-1.33,3.79-2.7,7.67-5.24,10.78c-3.03,3.72-7.44,6.02-10.89,9.34
				c-2.14,2.06-3.89,4.49-5.63,6.9l-0.34-0.07c0.55-2.34,1.66-5.6,4.08-8.72c3.28-4.21,6.48-4.97,10.81-8.91
				C510-325.82,512.69-328.76,515.13-333.27z"/>
			<path class="st7" d="M500.82-447.58c2.7,6.73,3.81,14.09,3.23,21.32l-0.18-0.01c0,0.06-0.06,0.1-0.12,0.13
				c-1.86,0.9-4.1,0.75-6.05,0.04c-1.95-0.71-3.66-1.93-5.33-3.15c-0.7-0.51-1.49-1.21-1.37-2.06l0.06,0.01
				c2.33-5.89,5.54-11.43,9.5-16.37c0.07-0.02,0.13-0.05,0.19-0.07L500.82-447.58z"/>
			<path class="st8" d="M454.87-408.42c0.53-0.63,1.2-1.15,1.95-1.48c0.42-0.19,0.88-0.33,1.23-0.64c0.35-0.3,0.57-0.83,0.35-1.23
				c-0.15-0.27-0.45-0.42-0.74-0.53c-0.9-0.34-1.89-0.43-2.84-0.28c-0.28,0.05-0.57,0.13-0.73,0.37c-0.15,0.22-0.12,0.5-0.08,0.76
				c0.12,0.87,0.3,1.73,0.54,2.57L454.87-408.42z M455.25-311.75l0.43-0.1c-1.3-5.78-3.43-11.36-6.29-16.53l-0.15,0.08
				c0.11,2.39,0.56,5.91,2.17,9.84C452.57-315.61,454.01-313.37,455.25-311.75z M493.04-306.31l0.34,0.07
				c1.74-2.41,3.48-4.84,5.63-6.9c3.45-3.32,7.86-5.63,10.89-9.34c2.54-3.12,3.91-6.99,5.24-10.78l-0.01,0
				c-2.44,4.52-5.13,7.45-7.2,9.33c-4.33,3.93-7.53,4.7-10.81,8.91C494.7-311.92,493.6-308.65,493.04-306.31z M504.05-426.25
				c-0.01,0.21-0.03,0.43-0.05,0.64l0.29,0.12c1.62,2.57,3.85,6.39,6.04,11.26c0.82,1.82,1.7,3.78,2.4,5.94
				c0.45,1.4,0.94,3.23,1.27,5.47c0.41,2.86,0.57,6.38,0.07,10.55l0.45,0.05c2.82,4.97,20.71,36.95,23.42,63.3
				c0.45,4.43,1.19,12.29-1.01,22.1c-1.08,4.82-2.89,12.85-8.11,19.26c-11.57,14.22-33.4,12.48-36.52,12.19l-0.07,0.01
				c0.08,0.49-0.03,0.78-0.06,0.87c-0.14,0.34-0.45,0.58-0.75,0.79c-4.18,2.94-9.98,3.38-14.56,1.11c-1.15-0.57-2.3-1.39-2.71-2.61
				c-0.18-0.53-0.23-1.03-0.23-1.43c0-0.32,0.03-0.58,0.06-0.74c0.35-2.14,2.16-11.1,4.79-23.5l-0.41-0.09
				c-2.53-1.04-5.37-1.83-7.95-0.95c-0.33,0.11-0.67,0.26-0.91,0.5c0.04,3.22,0.35,5.84,0.67,7.73c0.26,1.55,0.5,2.6,2.02,9.35
				c0.84,3.72,1.38,6.17,1.41,7.71c0.02,0.69-0.07,1.21-0.27,1.57c-1.56,2.74-5.8,3.01-9.1,3.22c-2.79,0.17-7.42,0.46-9.43-1.69
				l-0.05,0.05c-5.65,0.52-15.96,0.63-27.16-4.35c-5.16-2.29-15.31-6.81-21.19-17.72c-2.86-5.3-3.6-10.05-3.96-12.5
				c-1.62-11.08,1.59-20.13,4.17-26.81c7.88-20.37,17.58-38.57,23.4-48.92v0c-2.49-9.1-3.4-16.1-2.77-19.9
				c0.54-3.21,1.6-5.91,1.6-5.91c1.67-4.23,4-6.99,6.45-9.86c1.6-1.86,3.88-4.29,6.95-6.82l0.17,0.09c3.52-0.6,6.78-2.66,8.84-5.58
				c0.01-0.01,0.01-0.02,0.02-0.02c-0.01,0-0.02,0-0.03,0.01c-0.83-1.67-1.74-3.41-2.74-5.17c-2.05-3.59-4.18-6.79-6.26-9.6
				l0.29-0.46c2.24,1.41,4.73,3.16,7.3,5.32c2.8,2.35,5.09,4.7,6.96,6.81c3.77-1.21,8.99-2.46,15.28-2.67
				c5-0.17,9.32,0.35,12.68,1.02c1.75-1.39,3.17-3.17,4.92-4.58c0.91-0.73,1.89-1.35,2.88-1.97c1.26-0.79,2.52-1.59,3.78-2.38
				c1.37-0.86,2.75-1.73,4.27-2.27c-3.96,4.94-7.18,10.48-9.5,16.37l-0.06-0.01c-0.12,0.85,0.67,1.55,1.37,2.06
				c1.67,1.22,3.39,2.44,5.33,3.15c1.95,0.71,4.18,0.87,6.05-0.04c0.06-0.02,0.12-0.07,0.12-0.13L504.05-426.25z M482.15-414.03
				c-0.08-0.34-0.21-0.83-0.42-1.42c-0.51-1.43-1.26-3.52-3.14-4.87c-1.54-1.1-3.15-1.21-4-1.27c-0.61-0.04-2.42-0.1-4.44,0.85
				c-0.8,0.38-2.01,0.95-2.96,2.27c-1.36,1.88-1.25,4-1.18,4.72c0.69,0.36,1.45,0.69,2.27,0.96
				C474.06-410.86,479.51-412.83,482.15-414.03z M472.01-425.12c1.81-5.02,6.72-7.95,6.25-8.47c-0.23-0.26-1.44,0.5-2.53,1.18
				c-2.78,1.74-4.4,3.79-5.1,4.76c-0.44,0.61-3.18,4.48-2.3,5.43c0.39,0.42,1.36,0.09,1.46,0.05
				C471.21-422.67,471.76-424.43,472.01-425.12z M464.87-427.14c2.48-3.84,4.8-5.47,4.46-5.9c-0.3-0.38-2.29,0.72-3.12,1.22
				c-1.49,0.91-2.43,1.9-2.7,2.19c-3.64,3.93-8.19,13.56-6.97,14.34c0.17,0.11,0.95,0.38,1.78,0.11c0.03-0.01,0.06-0.02,0.08-0.02
				c1.55-0.54,2.04-2.44,2.83-4.59C461.23-419.79,462.73-423.83,464.87-427.14z M454.51-424.56c1.49-4.31,6.32-6.9,5.9-7.43
				c-0.26-0.32-1.97,0.68-2.69,1.1c-2.87,1.66-4.34,3.76-4.68,4.25c-0.88,1.3-2.3,3.88-1.61,4.56c0.35,0.35,1.12,0.08,1.22,0.05
				C453.85-422.46,454.31-424,454.51-424.56z M452.06-414.09c0.57-2.06,0.14-4.23-1.23-5.57c-1.85-1.8-4.61-1.38-5.88-1.12
				c-0.54,0.11-1.08,0.25-1.56,0.5c-0.52,0.27-0.96,0.66-1.39,1.06c-1.2,1.12-2.31,2.41-2.85,3.96c-0.07,0.21-0.06,0.33-0.04,0.45
				c0.26,1.54,4.51,2.13,7.15,2.05C447.55-412.79,449.61-413.02,452.06-414.09z"/>
			<path class="st7" d="M531.51-281.44c-4.24,3.32-7.99,5.02-9.3,5.58c-14.12,6.09-26.83,2.42-30.06,1.38
				c0.04-0.09,0.15-0.39,0.06-0.87l0.07-0.01c3.12,0.29,24.94,2.03,36.52-12.19c5.22-6.41,7.03-14.45,8.11-19.26
				c2.21-9.81,1.47-17.67,1.01-22.1c-2.7-26.35-20.59-58.33-23.42-63.3l-0.45-0.05c0.5-4.17,0.35-7.69-0.07-10.55l0.27-0.04
				c6.35,12.54,12.68,26.06,18.81,40.57c2.38,5.63,9.19,17.68,13.1,33.65c1.1,4.46,2.17,9.92,1.56,16.77
				c-0.17,1.91-0.45,3.72-0.8,5.38c-0.21,0.79-0.4,1.6-0.57,2.44c-1.39,5.28-3.29,8.8-3.81,9.74c-2.66,4.82-5.97,8.53-9.17,11.32
				C532.75-282.44,532.12-281.92,531.51-281.44z"/>
			<path class="st9" d="M481.73-415.45c0.21,0.58,0.34,1.08,0.42,1.42c-2.64,1.2-8.09,3.17-13.87,1.24
				c-0.82-0.27-1.57-0.6-2.27-0.96c-0.07-0.72-0.18-2.84,1.18-4.72c0.95-1.31,2.15-1.88,2.96-2.27c2.02-0.96,3.84-0.9,4.44-0.85
				c0.85,0.06,2.46,0.17,4,1.27C480.48-418.98,481.22-416.88,481.73-415.45z"/>
			<path class="st7" d="M478.26-433.59c0.47,0.51-4.44,3.45-6.25,8.47c-0.25,0.69-0.8,2.45-2.22,2.96c-0.1,0.03-1.06,0.37-1.46-0.05
				c-0.88-0.95,1.86-4.82,2.3-5.43c0.7-0.96,2.32-3.02,5.1-4.76C476.82-433.09,478.03-433.84,478.26-433.59z"/>
			<path class="st7" d="M473.97-277.36c-0.03,0.16-0.06,0.42-0.06,0.74l-0.32,0.01c-0.04-1.55-0.57-4-1.41-7.71
				c-1.52-6.76-1.77-7.8-2.02-9.35c-0.31-1.89-0.63-4.51-0.67-7.73c0.25-0.24,0.58-0.39,0.91-0.5c2.58-0.88,5.42-0.09,7.95,0.95
				l0.41,0.09C476.13-288.47,474.31-279.5,473.97-277.36z"/>
			<path class="st7" d="M469.33-433.04c0.34,0.43-1.99,2.06-4.46,5.9c-2.14,3.31-3.64,7.35-3.64,7.35
				c-0.79,2.15-1.28,4.05-2.83,4.59c-0.02,0.01-0.05,0.01-0.08,0.02c-0.83,0.27-1.61,0-1.78-0.11c-1.21-0.78,3.34-10.42,6.97-14.34
				c0.27-0.29,1.21-1.28,2.7-2.19C467.04-432.32,469.03-433.42,469.33-433.04z"/>
			<path class="st7" d="M460.4-431.99c0.43,0.53-4.41,3.12-5.9,7.43c-0.19,0.56-0.66,2.1-1.86,2.53c-0.09,0.03-0.87,0.3-1.22-0.05
				c-0.69-0.68,0.72-3.26,1.61-4.56c0.34-0.5,1.81-2.59,4.68-4.25C458.43-431.31,460.15-432.31,460.4-431.99z"/>
			<path class="st3" d="M458.39-411.78c0.22,0.41,0,0.93-0.35,1.23c-0.35,0.3-0.8,0.45-1.23,0.64c-0.75,0.34-1.42,0.85-1.95,1.48
				l-0.32-0.47c-0.24-0.84-0.42-1.7-0.54-2.57c-0.04-0.26-0.06-0.54,0.08-0.76c0.15-0.23,0.45-0.32,0.73-0.37
				c0.95-0.16,1.94-0.06,2.84,0.28C457.94-412.2,458.24-412.05,458.39-411.78z"/>
			<path class="st7" d="M455.68-311.85l-0.43,0.1c-1.23-1.62-2.67-3.86-3.84-6.71c-1.61-3.93-2.06-7.45-2.17-9.84l0.15-0.08
				C452.25-323.21,454.38-317.62,455.68-311.85z"/>
			<path class="st9" d="M450.83-419.66c1.38,1.34,1.8,3.51,1.23,5.57c-2.45,1.07-4.51,1.3-5.81,1.34c-2.64,0.08-6.89-0.51-7.15-2.05
				c-0.02-0.12-0.04-0.24,0.04-0.45c0.54-1.55,1.65-2.84,2.85-3.96c0.43-0.4,0.88-0.79,1.39-1.06c0.49-0.25,1.02-0.4,1.56-0.5
				C446.22-421.03,448.98-421.46,450.83-419.66z"/>
			<path class="st1" d="M451.25-431.75c-0.01,0.01-0.01,0.02-0.02,0.02c0-0.01-0.01-0.01-0.01-0.02
				C451.23-431.74,451.24-431.74,451.25-431.75z"/>
			<path class="st7" d="M440.85-436.44c-0.12-4.26,0.33-7.94,0.9-10.81l0.46,0.09c0.1,0.06,0.2,0.12,0.3,0.18l-0.29,0.46
				c2.08,2.81,4.2,6.01,6.26,9.6c1.01,1.77,1.92,3.5,2.74,5.17c0,0.01,0.01,0.01,0.01,0.02c-2.06,2.92-5.32,4.98-8.84,5.58
				l-0.17-0.09C441.56-428.96,440.96-432.41,440.85-436.44z"/>
		</g>
	</g>
</g>
<path class="st10" d="M455.43-287.16c-3.66-4.37-8.22-7.99-12.69-11.49c-4.43-3.47-8.27-7.62-11.93-11.88
	c-3.71-4.31-6.66-9.02-7.75-14.67c-1.26-6.52-0.34-13.33,0.55-19.84c0.3-2.23-3.11-3.2-3.42-0.94c-1.49,10.93-2.62,22.3,3.62,32.05
	c2.87,4.49,6.63,8.43,10.3,12.27c3.92,4.1,8.63,7.25,12.83,11.03c3.74,3.37,11.4,9.49,7.78,15.23c-1.22,1.94,1.85,3.72,3.06,1.79
	C460.66-278.16,458.58-283.4,455.43-287.16z"/>
<path class="st10" d="M479.68-303.15c-2.76,9.17-4.42,18.95-5.09,28.49c-0.16,2.28,3.39,2.27,3.55,0c0.65-9.23,2.3-18.68,4.96-27.55
	C483.76-304.4,480.34-305.33,479.68-303.15z"/>
<path class="st10" d="M452.35-316.3c-5.06-1.62-8.63-6.76-11.16-11.16c-3.1-5.39-3.82-11.33-2.88-17.43
	c0.35-2.23-3.07-3.19-3.42-0.94c-1.1,7.06-0.36,13.9,3.23,20.16c3.03,5.27,7.26,10.87,13.28,12.79
	C453.59-312.18,454.52-315.6,452.35-316.3z"/>
<path class="st10" d="M499.64-329.59c-1.48,2.47-2.73,5.06-3.74,7.76c-1.02,2.72-1.48,5.71-3.11,8.15c-1.27,1.91,1.8,3.68,3.06,1.79
	c1.58-2.38,2.14-5.15,3.04-7.82c0.97-2.84,2.27-5.52,3.81-8.09C503.88-329.76,500.81-331.54,499.64-329.59z"/>
<path class="st10" d="M451.85-277.96c-9.17,0.16-17.96-0.46-25.91-5.45c-3.48-2.18-6.6-4.88-9.51-7.78c-2.87-2.87-6-5.95-8.01-9.51
	c-4.15-7.38-1.9-16.53-0.1-24.25c1.06-4.54,2.14-9.09,3.66-13.5c1.54-4.46,3.69-8.65,5.78-12.87c4.43-8.97,8.72-18.02,13.51-26.81
	c2.94,8.6,6.63,16.77,7.54,16.47c0.28-0.09,0.23-0.96,0.17-1.68c-0.65-7.98-4.29-15.2-4.79-16.98c-1.03-3.66-4.05-9.24-3.7-15.91
	c0.36-6.68,3.51-12.52,8.88-22.48c2.45-4.53,3.92-6.64,3.5-6.98c-0.74-0.6-7.13,4.54-11.17,11.67c-2.85,5.04-5.02,9.98-4.87,15.88
	c0.12,4.92,0.89,8.78,3.07,15.82c-0.31,0.13-0.6,0.37-0.81,0.75c-4.93,8.89-9.29,18.1-13.79,27.22c-2.17,4.41-4.46,8.78-6.18,13.39
	c-1.75,4.69-2.94,9.56-4.07,14.42c-2.2,9.39-3.33,17.17-0.48,26.05c0.85,2.64,2.4,7.31,6.53,11.55c2.34,2.41,5.15,3.97,10.66,6.98
	c5.61,3.07,8.49,5.08,13.04,6.21c5.57,1.38,11.35,1.43,17.05,1.33C454.12-274.45,454.13-278,451.85-277.96z"/>
<path class="st3" d="M470.47-420.31c-0.6,0.68-0.92,1.56-1.08,2.44c-0.15,0.8-0.42,2.11,0.32,2.7c0.49,0.39,1.04,0.5,1.61,0.21
	c0.59-0.3,0.9-0.99,1.01-1.61c0.12-0.72,0.24-1.44,0.42-2.15c0.38-1.48-1.62-2.29-2.43-1.02c-0.05,0.08-0.1,0.16-0.16,0.24
	c-0.93,1.44,1.37,2.78,2.3,1.34c0.05-0.08,0.1-0.16,0.16-0.24c-0.81-0.34-1.62-0.68-2.43-1.02c-0.12,0.49-0.23,0.98-0.32,1.48
	c-0.04,0.22-0.06,0.45-0.1,0.67c-0.01,0.06-0.02,0.11-0.03,0.17c-0.1,0.29-0.02,0.24,0.24-0.15c0.54,0.07,1.07,0.14,1.61,0.21
	c-0.02-0.02-0.04-0.03-0.06-0.05c0.11,0.2,0.23,0.39,0.34,0.59c-0.07-0.34,0.16-1.56,0.48-1.92c0.48-0.54,0.53-1.35,0-1.88
	C471.87-420.8,470.95-420.85,470.47-420.31L470.47-420.31z"/>
<path class="st3" d="M443.06-419.36c-0.33,0.49-0.66,0.97-0.87,1.52c-0.27,0.72-0.2,1.7,0.45,2.2c0.8,0.62,1.81,0.23,2.2-0.64
	c0.26-0.59,0.51-1.19,0.73-1.79c0.25-0.65-0.27-1.49-0.93-1.64c-0.76-0.17-1.37,0.23-1.64,0.93c-0.11,0.28-0.22,0.57-0.33,0.84
	c0.07-0.17-0.12,0.27-0.1,0.24c-0.05,0.12-0.1,0.23-0.16,0.34c0.16-0.16,0.32-0.32,0.48-0.48c-0.02,0.01-0.04,0.02-0.06,0.03
	c0.45,0,0.89,0,1.34,0c-0.02-0.01-0.03-0.02-0.05-0.03c0.16,0.16,0.32,0.32,0.48,0.48c0.11,0.15,0.14,0.31,0.09,0.47
	c0.01-0.04,0.02-0.08,0.03-0.12c-0.1,0.2,0.1-0.18,0.13-0.22c0.16-0.27,0.34-0.53,0.52-0.79c0.38-0.58,0.13-1.5-0.48-1.82
	C444.22-420.19,443.47-419.98,443.06-419.36L443.06-419.36z"/>
<path class="st5" d="M473.03-418.75c0,0,0-0.01,0-0.01c-0.02,0.05-0.04,0.11-0.07,0.16c0-0.01,0.01-0.01,0.01-0.02
	c-0.03,0.04-0.07,0.09-0.1,0.13c0.01-0.01,0.01-0.02,0.02-0.02c-0.04,0.03-0.09,0.07-0.13,0.1c0.01-0.01,0.02-0.01,0.03-0.02
	c-0.05,0.02-0.11,0.04-0.16,0.07c0.01,0,0.02-0.01,0.03-0.01c-0.06,0.01-0.12,0.02-0.18,0.02c0.01,0,0.02,0,0.03,0
	c-0.06-0.01-0.12-0.02-0.18-0.02c0.01,0,0.02,0,0.03,0.01c-0.05-0.02-0.11-0.04-0.16-0.07c0.01,0,0.01,0.01,0.02,0.01
	c-0.08-0.3-0.16-0.61-0.24-0.91c0,0,0,0.01-0.01,0.01c0.03-0.04,0.07-0.09,0.1-0.13c-0.01,0.01-0.02,0.02-0.03,0.02
	c0.04-0.03,0.09-0.07,0.13-0.1c-0.01,0-0.01,0.01-0.02,0.01c0.05-0.02,0.11-0.04,0.16-0.07c-0.01,0-0.02,0.01-0.03,0.01
	c0.06-0.01,0.12-0.02,0.18-0.02c-0.01,0-0.02,0-0.02,0c0.06,0.01,0.12,0.02,0.18,0.02c0,0-0.01,0-0.01,0
	c0.16,0.21,0.33,0.43,0.49,0.64c0,0,0-0.01,0-0.01c-0.01,0.06-0.02,0.12-0.02,0.18c0-0.02,0.01-0.04,0.02-0.06
	c-0.02,0.05-0.04,0.11-0.07,0.16c0.01-0.02,0.02-0.05,0.04-0.07c-0.03,0.04-0.07,0.09-0.1,0.13c0.01-0.02,0.03-0.03,0.05-0.05
	c-0.04,0.03-0.09,0.07-0.13,0.1c0.02-0.01,0.04-0.02,0.06-0.03c-0.3-0.3-0.61-0.61-0.91-0.91c-0.02,0.03-0.04,0.06-0.05,0.09
	c-0.04,0.08-0.07,0.16-0.09,0.24c0.33-0.13,0.65-0.26,0.98-0.4c-0.01,0-0.02-0.01-0.03-0.02c0.04,0.03,0.09,0.07,0.13,0.1
	c-0.01,0-0.01-0.01-0.02-0.02c0.03,0.04,0.07,0.09,0.1,0.13c-0.01-0.01-0.01-0.02-0.02-0.03c0.02,0.05,0.04,0.11,0.07,0.16
	c-0.01-0.01-0.01-0.03-0.01-0.04c0.01,0.06,0.02,0.12,0.02,0.18c0-0.01,0-0.01,0-0.02c-0.01,0.06-0.02,0.12-0.02,0.18
	c0-0.01,0-0.02,0.01-0.03c0.03-0.09,0.03-0.18,0.01-0.27c0-0.09-0.03-0.17-0.08-0.25c-0.03-0.04-0.07-0.09-0.1-0.13
	c-0.06-0.06-0.13-0.11-0.21-0.14c-0.05-0.03-0.11-0.05-0.17-0.05c-0.09-0.02-0.18-0.02-0.27,0.01c-0.05,0.02-0.11,0.04-0.16,0.07
	c-0.1,0.06-0.18,0.14-0.24,0.24c-0.02,0.06-0.05,0.11-0.07,0.17c-0.05,0.08-0.07,0.16-0.08,0.25c-0.02,0.09-0.02,0.18,0.01,0.27
	c0.02,0.09,0.06,0.16,0.12,0.23c0.05,0.07,0.11,0.13,0.19,0.17c0.15,0.08,0.34,0.12,0.51,0.07c0.05-0.02,0.11-0.04,0.16-0.07
	c0.1-0.06,0.18-0.14,0.24-0.24c0.02-0.06,0.05-0.11,0.07-0.17c-0.4-0.17-0.81-0.34-1.21-0.51c0,0.01-0.01,0.02-0.01,0.03
	c-0.01,0.06-0.02,0.13-0.02,0.19c0,0.07,0.01,0.16,0.04,0.23c0.02,0.06,0.04,0.12,0.08,0.17c0,0,0.01,0.01,0.01,0.01
	c0.03,0.04,0.07,0.09,0.1,0.13c0.05,0.05,0.11,0.11,0.18,0.14c0.1,0.06,0.22,0.09,0.34,0.09c0.09,0,0.18-0.02,0.26-0.06
	c0.08-0.03,0.15-0.07,0.21-0.14c0.08-0.08,0.14-0.18,0.17-0.29c0.01-0.02,0.01-0.05,0.02-0.07c-0.02,0.05-0.04,0.11-0.07,0.16
	c0.02-0.04,0.03-0.07,0.06-0.1c0.02-0.05,0.04-0.11,0.07-0.16c0.03-0.09,0.03-0.18,0.01-0.27c0-0.06-0.02-0.12-0.05-0.17
	c-0.03-0.08-0.07-0.15-0.14-0.21c-0.08-0.08-0.18-0.14-0.29-0.17c-0.09-0.03-0.18-0.03-0.27-0.01c-0.09,0-0.17,0.03-0.25,0.08
	c-0.15,0.07-0.26,0.2-0.35,0.33c-0.04,0.06-0.07,0.14-0.1,0.22c-0.03,0.08-0.03,0.17-0.04,0.25c0.01,0.06,0.02,0.12,0.02,0.18
	c0.02,0.09,0.06,0.16,0.12,0.23c0.03,0.05,0.07,0.09,0.12,0.12c0.06,0.06,0.14,0.1,0.23,0.12c0.07,0.01,0.14,0.03,0.21,0.03
	c0.06-0.01,0.12-0.02,0.18-0.02c0,0,0.01,0,0.01,0c0.04-0.01,0.07-0.03,0.1-0.04c0.09-0.04,0.16-0.08,0.24-0.15
	c0.05-0.05,0.09-0.11,0.13-0.17c0.05-0.08,0.07-0.16,0.08-0.25c0.02-0.09,0.02-0.18-0.01-0.27c-0.02-0.05-0.04-0.11-0.07-0.16
	c-0.06-0.1-0.14-0.18-0.24-0.24c-0.18-0.12-0.42-0.13-0.62-0.08c-0.12,0.03-0.25,0.11-0.33,0.2c-0.04,0.04-0.09,0.1-0.12,0.15
	c-0.04,0.06-0.06,0.12-0.08,0.19c-0.03,0.09-0.03,0.18-0.01,0.27c0,0.09,0.03,0.17,0.08,0.25c0.04,0.08,0.1,0.14,0.17,0.19
	c0.06,0.06,0.14,0.1,0.23,0.12c0.17,0.04,0.36,0.03,0.51-0.07c0.04-0.03,0.09-0.07,0.13-0.1C472.95-418.54,473-418.64,473.03-418.75
	L473.03-418.75z"/>
<path class="st5" d="M445.67-418.33c0-0.01,0.01-0.02,0.01-0.03c-0.02,0.05-0.04,0.11-0.07,0.16c0.01-0.01,0.01-0.02,0.02-0.04
	c-0.03,0.04-0.07,0.09-0.1,0.13c0.01-0.01,0.02-0.02,0.03-0.03c-0.04,0.03-0.09,0.07-0.13,0.1c0.01-0.01,0.02-0.01,0.04-0.02
	c-0.05,0.02-0.11,0.04-0.16,0.07c0.01-0.01,0.03-0.01,0.04-0.01c-0.06,0.01-0.12,0.02-0.18,0.02c0.01,0,0.03,0,0.04,0
	c-0.06-0.01-0.12-0.02-0.18-0.02c0.01,0,0.02,0,0.03,0.01c-0.15-0.27-0.31-0.55-0.46-0.82c0,0.01,0,0.02-0.01,0.03
	c0.02-0.05,0.04-0.11,0.07-0.16c0,0.01-0.01,0.01-0.01,0.01c0.03-0.04,0.07-0.09,0.1-0.13c-0.01,0.01-0.01,0.01-0.02,0.02
	c0.04-0.03,0.09-0.07,0.13-0.1c-0.01,0.01-0.01,0.01-0.02,0.01c0.05-0.02,0.11-0.04,0.16-0.07c-0.01,0-0.02,0.01-0.03,0.01
	c0.06-0.01,0.12-0.02,0.18-0.02c-0.01,0-0.02,0-0.03,0c0.06,0.01,0.12,0.02,0.18,0.02c-0.01,0-0.02,0-0.03-0.01
	c0.05,0.02,0.11,0.04,0.16,0.07c-0.01,0-0.01-0.01-0.02-0.01c0.04,0.03,0.09,0.07,0.13,0.1c0,0-0.01-0.01-0.01-0.01
	c0.06,0.1,0.11,0.2,0.17,0.29c0-0.01-0.01-0.01-0.01-0.02c0.01,0.06,0.02,0.12,0.02,0.18c0-0.01,0-0.01,0-0.02
	c-0.01,0.06-0.02,0.12-0.02,0.18c0,0,0-0.01,0-0.01c-0.02,0.05-0.04,0.11-0.07,0.16c0-0.01,0.01-0.01,0.01-0.02
	c-0.03,0.04-0.07,0.09-0.1,0.13c0-0.01,0.01-0.01,0.02-0.01c-0.04,0.03-0.09,0.07-0.13,0.1c0,0,0.01,0,0.01,0
	c-0.17,0.02-0.34,0.04-0.51,0.07c0,0,0,0,0.01,0c-0.05-0.02-0.11-0.04-0.16-0.07c0,0,0.01,0,0.01,0.01
	c-0.04-0.03-0.09-0.07-0.13-0.1c0,0,0.01,0.01,0.01,0.01c-0.03-0.04-0.07-0.09-0.1-0.13c0,0,0,0.01,0.01,0.01
	c-0.02-0.05-0.04-0.11-0.07-0.16c0,0,0,0.01,0,0.01c-0.01-0.06-0.02-0.12-0.02-0.18c0,0.01,0,0.02,0,0.03
	c0.01-0.06,0.02-0.12,0.02-0.18c0,0.01,0,0.01-0.01,0.02c0.02-0.05,0.04-0.11,0.07-0.16c0,0.01-0.01,0.02-0.01,0.03
	c0.03-0.04,0.07-0.09,0.1-0.13c0,0-0.01,0.01-0.01,0.01c0.04-0.03,0.09-0.07,0.13-0.1c0,0-0.01,0.01-0.01,0.01
	c0.05-0.02,0.11-0.04,0.16-0.07c0,0-0.01,0-0.01,0c0.06-0.01,0.12-0.02,0.18-0.02c0,0-0.01,0-0.01,0c0.06,0.01,0.12,0.02,0.18,0.02
	c0,0-0.01,0-0.01,0c-0.09-0.03-0.18-0.03-0.27-0.01c-0.09,0-0.17,0.03-0.25,0.08c-0.08,0.04-0.14,0.1-0.19,0.17
	c-0.06,0.06-0.1,0.14-0.12,0.23c-0.04,0.17-0.03,0.36,0.07,0.51c0.03,0.04,0.07,0.09,0.1,0.13c0.08,0.08,0.18,0.14,0.29,0.17
	c0.06,0.01,0.13,0.03,0.19,0.03c0.05,0,0.14-0.01,0.19-0.03c0.05-0.01,0.13-0.05,0.17-0.07c0.05-0.03,0.1-0.07,0.15-0.11
	c0.14-0.14,0.21-0.33,0.22-0.52c0-0.01,0-0.01,0-0.02c0-0.04-0.01-0.15-0.03-0.19c-0.01-0.04-0.05-0.13-0.07-0.17
	c-0.02-0.04-0.08-0.11-0.11-0.15c-0.08-0.08-0.2-0.15-0.31-0.18c-0.06-0.02-0.12-0.03-0.18-0.03c-0.09,0-0.18,0.02-0.26,0.06
	c-0.1,0.04-0.14,0.06-0.23,0.15c0,0-0.01,0.01-0.01,0.01c-0.03,0.04-0.07,0.09-0.1,0.13c0,0.01-0.01,0.01-0.01,0.02
	c-0.02,0.05-0.04,0.11-0.07,0.16c-0.01,0.03-0.01,0.06-0.01,0.1c0,0.03-0.01,0.07-0.01,0.1c0,0.03,0.01,0.07,0.01,0.1
	c0,0.03,0.01,0.07,0.01,0.1c0.04,0.17,0.17,0.33,0.32,0.42c0.03,0.02,0.06,0.03,0.09,0.04c0.04,0.02,0.06,0.03,0.1,0.04
	c0.06,0.02,0.13,0.03,0.19,0.02c0.06,0,0.14-0.01,0.19-0.03c0.07-0.02,0.14-0.05,0.2-0.08c0.03-0.02,0.05-0.04,0.07-0.06
	c0.03-0.02,0.05-0.04,0.07-0.06c0.04-0.04,0.1-0.12,0.12-0.15c0.02-0.03,0.02-0.05,0.04-0.09c0.01-0.03,0.04-0.07,0.04-0.11
	c0.03-0.09,0.03-0.18,0.01-0.27c0-0.09-0.03-0.17-0.08-0.25c-0.03-0.04-0.07-0.09-0.1-0.13c-0.08-0.08-0.18-0.14-0.29-0.17
	c-0.21-0.07-0.46-0.03-0.64,0.08c-0.18,0.1-0.34,0.3-0.38,0.5c-0.03,0.09-0.03,0.18-0.01,0.27c0,0.09,0.03,0.17,0.08,0.25
	c0.04,0.08,0.1,0.14,0.17,0.19c0.06,0.06,0.14,0.1,0.23,0.12c0.17,0.04,0.36,0.03,0.51-0.07
	C445.51-418.02,445.64-418.16,445.67-418.33L445.67-418.33z"/>
<path class="st3" d="M441.07-447.45c-0.26,3-0.51,6.01-0.77,9.01c-0.22,2.61-0.57,5.28-0.24,7.9c0.19,1.48,0.59,2.9,1.33,4.19
	c0.51,0.89,1.89,0.09,1.38-0.81c-1.58-2.75-1.32-6.08-1.06-9.12c0.32-3.72,0.64-7.45,0.96-11.17c0.04-0.43-0.39-0.8-0.8-0.8
	C441.41-448.25,441.11-447.88,441.07-447.45L441.07-447.45z"/>
<path class="st3" d="M457.04-434.06c3.5-0.85,7.01-1.67,10.57-2.19c3.51-0.51,7.06-0.66,10.59-0.39c2.01,0.16,4.01,0.45,5.98,0.88
	c1,0.22,1.43-1.32,0.42-1.54c-3.59-0.77-7.27-1.14-10.95-1.06c-3.69,0.08-7.36,0.63-10.97,1.37c-2.03,0.42-4.05,0.9-6.07,1.39
	C455.62-435.35,456.04-433.81,457.04-434.06L457.04-434.06z"/>
<path class="st3" d="M485.36-435.92c1.22-0.98,2.29-2.13,3.41-3.22c1.17-1.13,2.43-2.07,3.8-2.93c1.44-0.91,2.89-1.82,4.33-2.73
	c1.34-0.84,2.7-1.69,4.21-2.2c0.97-0.32,0.55-1.86-0.42-1.54c-1.6,0.53-3.04,1.38-4.46,2.27c-1.49,0.94-2.98,1.87-4.47,2.82
	c-1.44,0.91-2.79,1.89-4.01,3.07c-1.16,1.12-2.26,2.32-3.52,3.33c-0.34,0.27-0.28,0.85,0,1.13
	C484.57-435.59,485.03-435.65,485.36-435.92L485.36-435.92z"/>
<path class="st3" d="M500.13-447.36c2.14,5.36,3.29,11.08,3.35,16.85c0.02,1.64-0.05,3.27-0.2,4.9c-0.04,0.43,0.39,0.8,0.8,0.8
	c0.46,0,0.76-0.37,0.8-0.8c0.54-5.85-0.01-11.8-1.6-17.45c-0.45-1.6-0.99-3.17-1.61-4.72c-0.16-0.4-0.53-0.68-0.98-0.56
	C500.3-448.23,499.96-447.76,500.13-447.36L500.13-447.36z"/>
<path class="st3" d="M500.15-448.34c-4.09,5.09-7.38,10.75-9.79,16.82c-0.16,0.4,0.17,0.88,0.56,0.98c0.45,0.12,0.82-0.16,0.98-0.56
	c2.3-5.79,5.47-11.26,9.38-16.12c0.27-0.34,0.33-0.8,0-1.13C501-448.62,500.43-448.68,500.15-448.34L500.15-448.34z"/>
<path class="st3" d="M441.88-446.46c5.37,3.33,10.22,7.45,14.39,12.2c0.68,0.77,1.8-0.36,1.13-1.13
	c-4.26-4.84-9.23-9.04-14.71-12.45C441.81-448.38,441.01-447,441.88-446.46L441.88-446.46z"/>
<path class="st3" d="M441.61-446.1c3.52,4.78,6.61,9.87,9.21,15.2c0.45,0.92,1.83,0.11,1.38-0.81c-2.6-5.33-5.69-10.42-9.21-15.2
	c-0.26-0.35-0.69-0.52-1.09-0.29C441.55-446.99,441.35-446.45,441.61-446.1L441.61-446.1z"/>
<path class="st3" d="M441.73-426.79c-2.15,1.78-4.17,3.71-6.04,5.79c-1.65,1.84-3.27,3.75-4.66,5.79c-2.46,3.6-4.15,7.93-4.62,12.29
	c-0.33,3.05,0.11,6.2,0.6,9.21c0.75,4.54,1.9,9.02,3.21,13.43c1.68,5.66,3.66,11.22,5.84,16.71c0.3,0.76,0.61,1.52,0.92,2.27
	c0.16,0.4,0.53,0.68,0.98,0.56c0.38-0.1,0.72-0.58,0.56-0.98c-2.26-5.53-4.33-11.14-6.11-16.85c-1.41-4.53-2.66-9.12-3.55-13.79
	c-0.59-3.14-1.08-6.29-0.94-9.52c0.01-0.29,0.03-0.59,0.06-0.88c0.01-0.13,0.03-0.25,0.04-0.38c0-0.02-0.02,0.14,0.01-0.04
	c0.01-0.06,0.02-0.13,0.03-0.19c0.22-1.34,0.54-2.66,0.94-3.96c0.56-1.86,1.32-3.63,2.3-5.32c1.27-2.19,2.88-4.14,4.52-6.06
	c1.63-1.91,3.38-3.71,5.24-5.38c0.59-0.53,1.19-1.04,1.8-1.55c0.33-0.27,0.28-0.84,0-1.13
	C442.53-427.12,442.06-427.07,441.73-426.79L441.73-426.79z"/>
<path class="st3" d="M503.67-425.08c2.57,4.09,4.79,8.38,6.73,12.8c1.66,3.77,2.8,7.66,3.13,11.77c0.24,2.93,0.12,5.87-0.26,8.78
	c-0.06,0.43,0.41,0.8,0.8,0.8c0.48,0,0.74-0.37,0.8-0.8c0.61-4.71,0.52-9.52-0.57-14.15c-0.48-2.04-1.16-4.01-1.97-5.93
	c-1.09-2.59-2.27-5.13-3.57-7.62c-1.15-2.2-2.39-4.35-3.71-6.46C504.5-426.76,503.12-425.96,503.67-425.08L503.67-425.08z"/>
<path class="st3" d="M513.65-402.45c6.74,13.3,12.98,26.84,18.81,40.57c1.63,3.85,3.57,7.56,5.28,11.38
	c2.6,5.82,4.88,11.79,6.63,17.93c1.8,6.27,3.1,12.65,2.74,19.21c-0.31,5.69-1.7,11.4-4.12,16.57c-3.87,8.27-10.76,15.02-18.85,19.18
	c-8.99,4.62-19.66,5.67-29.44,3.25c-0.6-0.15-1.2-0.31-1.79-0.49c-0.99-0.29-1.41,1.25-0.42,1.54c10.05,2.97,21.13,2.25,30.69-2.07
	c8.49-3.84,15.82-10.56,20.26-18.76c2.18-4.02,3.65-8.47,4.5-12.96c1.28-6.75,0.95-13.55-0.57-20.22
	c-1.49-6.55-3.63-12.95-6.19-19.16c-1.91-4.65-4.1-9.18-6.24-13.73c-1.14-2.43-2.15-4.91-3.21-7.38c-1.55-3.58-3.12-7.15-4.73-10.7
	c-3.09-6.8-6.29-13.56-9.61-20.25c-0.78-1.58-1.57-3.15-2.37-4.72C514.57-404.17,513.19-403.37,513.65-402.45L513.65-402.45z"/>
<path class="st11" d="M431.37-412.89"/>
<path class="st3" d="M429.38-384.14c-4.66,8.3-9.07,16.74-13.17,25.33c-2.6,5.45-5.07,10.95-7.39,16.52
	c-2.02,4.86-4.07,9.76-5.54,14.82c-2.9,10-2.85,21.09,1.62,30.63c2.18,4.65,5.43,8.77,9.37,12.06c3.07,2.56,6.5,4.63,10.1,6.36
	c4.45,2.13,9.05,3.87,13.89,4.86c4.62,0.95,9.37,1.31,14.08,1.08c0.82-0.04,1.65-0.1,2.47-0.17c1.01-0.09,1.02-1.69,0-1.6
	c-4.14,0.38-8.32,0.32-12.43-0.22c-5.32-0.7-10.45-2.26-15.33-4.46c-3.23-1.45-6.36-3.09-9.26-5.14c-3.83-2.71-7.18-6.12-9.65-10.13
	c-5.49-8.89-6.41-20.06-4.04-30.09c1.13-4.8,2.95-9.4,4.79-13.97c2.25-5.6,4.67-11.13,7.22-16.6c4.13-8.87,8.6-17.58,13.35-26.13
	c0.43-0.78,0.87-1.56,1.31-2.34C431.26-384.24,429.88-385.04,429.38-384.14L429.38-384.14z"/>
<path class="st3" d="M489.66-279.13c0.62,1.04,1.25,2.13,1.66,3.27c0.1,0.28,0.23,0.61,0.2,0.92c-0.04,0.32-0.36,0.51-0.67,0.72
	c-0.82,0.55-1.7,1.02-2.62,1.36c-3.66,1.38-8.07,1.28-11.5-0.73c-0.78-0.46-1.54-1.07-1.8-1.97c-0.19-0.64-0.17-1.32-0.08-1.81
	c0.13-0.76,0.28-1.52,0.42-2.28c0.57-2.92,1.16-5.84,1.77-8.75c1.03-4.99,2.08-9.97,3.14-14.95c0.21-1-1.32-1.43-1.54-0.42
	c-1.69,7.91-3.39,15.82-4.92,23.77c-0.15,0.78-0.31,1.56-0.43,2.34c-0.15,0.9-0.14,1.82,0.15,2.69c0.38,1.1,1.18,1.92,2.14,2.55
	c3.63,2.38,8.66,2.63,12.69,1.24c1.15-0.4,2.26-0.92,3.28-1.59c0.59-0.39,1.21-0.81,1.46-1.5c0.17-0.47,0.14-0.99,0.03-1.46
	c-0.2-0.89-0.65-1.74-1.07-2.54c-0.29-0.56-0.6-1.12-0.93-1.66C490.51-280.81,489.13-280.01,489.66-279.13L489.66-279.13z"/>
<path class="st3" d="M527.97-337.44c0.72,2.61,0.53,5.35,0.36,8.02c-0.18,2.66-0.46,5.32-1.08,7.92c-1.11,4.62-3.41,8.83-6.31,12.57
	c-2.93,3.79-6.39,7.16-9.97,10.33c-1.94,1.72-3.96,3.35-6.1,4.81c-1.95,1.32-4.01,2.44-6.06,3.57c-2.14,1.18-4.27,2.43-6.07,4.1
	c-1.75,1.62-3.96,4.24-3.16,6.8c0.31,0.98,1.85,0.56,1.54-0.42c-0.36-1.16,0.31-2.31,0.95-3.23c0.59-0.85,1.31-1.6,2.09-2.28
	c1.6-1.41,3.47-2.49,5.33-3.52c2.02-1.12,4.06-2.21,5.98-3.5c2.15-1.45,4.19-3.07,6.14-4.77c7.12-6.2,14.26-13.57,16.88-22.89
	c0.82-2.92,1.18-5.95,1.4-8.97c0.21-2.97,0.42-6.03-0.38-8.94C529.24-338.85,527.7-338.43,527.97-337.44L527.97-337.44z"/>
<path class="st3" d="M419.34-345.97c-0.76,7.05-1.22,14.21-0.03,21.24c0.53,3.13,1.4,6.2,2.73,9.09c1.13,2.45,2.55,4.75,4.15,6.92
	c2.92,3.99,6.38,7.56,10.1,10.81c2.07,1.81,4.24,3.47,6.43,5.12c0.58,0.44,0.92,0.7,1.54,1.2c1.05,0.86,2.06,1.76,3.03,2.69
	c2.38,2.3,4.53,4.84,6.4,7.58c0.32,0.47,0.64,0.95,0.94,1.44c0-0.27,0-0.54,0-0.81c-1.12,1.9-2.07,4.37-1.13,6.53
	c0.79,1.82,2.71,2.67,4.56,3c1.92,0.34,3.89,0.28,5.83,0.16c2.12-0.13,4.3-0.22,6.34-0.86c1.65-0.52,3.67-1.62,4.12-3.45
	c0.37-1.48-0.04-3.16-0.32-4.61c-0.79-4.07-1.83-8.1-2.68-12.16c-0.68-3.25-0.98-6.57-0.99-9.89c0-0.73,0.01-1.47,0.04-2.2
	c0.04-1.03-1.56-1.03-1.6,0c-0.14,3.88,0.1,7.78,0.82,11.59c0.6,3.17,1.38,6.31,2.09,9.46c0.43,1.94,0.96,4,1.13,5.9
	c0.03,0.32,0.04,0.64,0.03,0.95c0,0.12-0.01,0.25-0.03,0.37c0.02-0.22-0.02,0.11-0.04,0.19c-0.02,0.06-0.11,0.31-0.06,0.2
	c0.06-0.12-0.01,0.02-0.03,0.04c-0.06,0.1-0.12,0.2-0.18,0.3c-0.21,0.31-0.5,0.59-0.8,0.82c-1.53,1.17-3.67,1.42-5.52,1.59
	c-1.82,0.16-3.67,0.29-5.49,0.25c-1.64-0.04-3.59-0.18-4.93-1.23c-1.53-1.19-1.14-3.39-0.38-5.02c0.18-0.39,0.38-0.76,0.6-1.13
	c0.14-0.24,0.15-0.57,0-0.81c-3.09-4.89-7.01-9.25-11.58-12.79c-0.71-0.55-1.43-1.08-2.15-1.62c-0.24-0.18-0.48-0.36-0.72-0.55
	c-0.07-0.05-0.13-0.1-0.2-0.15c0.14,0.11-0.06-0.05-0.1-0.08c-0.15-0.11-0.29-0.23-0.44-0.34c-0.67-0.53-1.34-1.07-2-1.62
	c-3.61-3.02-7-6.33-9.95-10c-1.64-2.04-3.14-4.21-4.39-6.52c-1.4-2.56-2.41-5.26-3.08-8.1c-1.63-6.84-1.38-13.96-0.73-20.91
	c0.08-0.87,0.17-1.74,0.26-2.62c0.05-0.43-0.4-0.8-0.8-0.8C419.66-346.77,419.38-346.4,419.34-345.97L419.34-345.97z"/>
<path class="st3" d="M434.18-345.36c-1.53,5.94-1.01,12.33,1.38,17.97c1.2,2.85,2.85,5.47,5.05,7.64c1.93,1.91,4.13,3.63,6.41,5.1
	c2.6,1.67,5.41,2.99,8.33,3.99c0.33,0.11,0.73-0.08,0.9-0.37c0.19-0.33,0.1-0.68-0.12-0.97c-3.63-4.66-5.74-10.42-6.02-16.31
	c-0.05-1.02-1.65-1.03-1.6,0c0.25,5.05,1.72,10.01,4.34,14.34c0.65,1.08,1.37,2.1,2.15,3.09c0.26-0.44,0.52-0.89,0.78-1.33
	c-4.91-1.67-9.39-4.4-13.22-7.9c-1.03-0.94-2.03-1.95-2.85-3.09c-0.87-1.2-1.6-2.49-2.24-3.82c-1.23-2.57-2.04-5.38-2.37-8.21
	c-0.39-3.25-0.19-6.55,0.62-9.73C435.98-345.93,434.44-346.35,434.18-345.36L434.18-345.36z"/>
<path class="st3" d="M515.09-334.77c-2.15,4.26-5.02,8.12-8.7,11.18c-1.83,1.53-3.88,2.75-5.79,4.17c-2.12,1.59-3.91,3.5-5.32,5.75
	c-1.44,2.3-2.43,4.88-3.02,7.52c0.52,0.07,1.04,0.14,1.57,0.21c-0.46-6.92,1.09-13.9,4.51-19.95c0.74-1.31,1.56-2.57,2.46-3.78
	c0.26-0.35,0.06-0.89-0.29-1.09c-0.41-0.24-0.83-0.06-1.09,0.29c-4.2,5.67-6.69,12.51-7.18,19.54c-0.11,1.66-0.11,3.32,0,4.98
	c0.06,0.85,1.36,1.14,1.57,0.21c1.06-4.76,3.5-9.17,7.41-12.17c1.9-1.46,3.96-2.68,5.83-4.18c1.65-1.32,3.17-2.8,4.53-4.42
	c1.93-2.28,3.55-4.8,4.89-7.47C516.92-334.88,515.55-335.68,515.09-334.77L515.09-334.77z"/>
<path class="st3" d="M455.39-409.1c-0.18-0.63-0.33-1.27-0.44-1.92c-0.04-0.23-0.16-0.6-0.1-0.83c-0.07,0.25-0.07,0.05,0.01,0.09
	c0.07,0.03,0.42-0.07,0.5-0.08c0.63-0.05,1.24,0.02,1.84,0.2c0.13,0.04,0.5,0.11,0.56,0.27c-0.04-0.1-0.01-0.02-0.03,0.03
	c-0.05,0.12-0.14,0.2-0.25,0.28c-0.44,0.31-1,0.44-1.47,0.71c-0.51,0.29-0.98,0.66-1.39,1.08c-0.78,0.81-1.37,1.84-1.58,2.95
	c-0.44,2.29,0.54,4.71,2.59,5.89c1.99,1.14,4.51,1,6.63,0.34c1.29-0.4,2.61-1.03,3.49-2.09c0.89-1.07,1.33-2.49,0.94-3.86
	c-0.28-0.99-1.82-0.57-1.54,0.42c0.69,2.43-2.23,3.76-4.1,4.19c-1.93,0.45-4.37,0.38-5.7-1.31c-1.32-1.67-0.98-4.06,0.49-5.51
	c0.35-0.35,0.76-0.64,1.2-0.86c0.55-0.28,1.16-0.44,1.62-0.87c0.43-0.4,0.7-0.98,0.66-1.57c-0.06-0.75-0.62-1.22-1.28-1.48
	c-0.7-0.28-1.46-0.42-2.21-0.42c-0.68-0.01-1.55,0.03-2.09,0.5c-0.62,0.54-0.52,1.3-0.4,2.03c0.12,0.76,0.29,1.5,0.5,2.24
	C454.13-407.69,455.67-408.11,455.39-409.1L455.39-409.1z"/>
<path class="st3" d="M446.52-408.86c-0.6,2.2-1.01,4.99,1.09,6.55c1.94,1.45,4.48,0.66,6.31-0.55c-0.32-0.42-0.64-0.84-0.97-1.25
	c-0.84,0.73-1.8,1.41-2.54,2.25c-0.56,0.63-0.95,1.36-1.26,2.13c-0.48,1.2-0.43,2.43,0.01,3.63c0.57,1.54,1.52,2.91,2.51,4.2
	c1.29,1.68,2.7,3.26,4.11,4.84c1.39,1.56,2.84,3.08,4.33,4.54c0.74,0.72,1.86-0.41,1.13-1.13c-2.66-2.59-5.18-5.36-7.53-8.23
	c-1.01-1.23-2-2.52-2.71-3.95c-0.26-0.52-0.46-1.06-0.57-1.63c-0.08-0.43-0.07-0.88,0.06-1.33c0.2-0.65,0.52-1.31,0.95-1.84
	c0.33-0.41,0.76-0.74,1.16-1.08c0.49-0.42,0.98-0.85,1.47-1.27c0.68-0.59-0.21-1.75-0.97-1.25c-1.28,0.85-3.18,1.72-4.59,0.63
	c-1.46-1.12-0.86-3.36-0.46-4.83C448.34-409.42,446.8-409.85,446.52-408.86L446.52-408.86z"/>
<path class="st3" d="M466.88-413.74c-0.13-1.36,0.09-2.74,0.81-3.92c0.81-1.33,2.23-2.18,3.68-2.68c2.76-0.95,6.25-0.54,8.1,1.92
	c0.99,1.32,1.59,3.02,1.98,4.61c0.12-0.3,0.24-0.6,0.37-0.9c-4.8,2.18-10.47,2.78-15.33,0.29c-0.91-0.47-1.72,0.91-0.81,1.38
	c2.98,1.53,6.32,2.13,9.64,1.78c2.54-0.27,4.98-1.01,7.3-2.06c0.32-0.15,0.44-0.58,0.37-0.9c-0.39-1.62-1.01-3.34-1.95-4.72
	c-1.16-1.72-2.92-2.91-4.97-3.26c-1.5-0.26-3.04-0.23-4.52,0.16c-1.78,0.48-3.6,1.44-4.75,2.91c-1.19,1.52-1.68,3.5-1.51,5.41
	c0.04,0.43,0.34,0.8,0.8,0.8C466.49-412.95,466.92-413.31,466.88-413.74z"/>
<path class="st3" d="M452.9-413.87c0.71-2.7-0.06-5.94-2.72-7.26c-1.1-0.55-2.34-0.73-3.56-0.65c-1.15,0.07-2.4,0.26-3.44,0.77
	c-1.28,0.62-2.4,1.85-3.27,2.96c-0.44,0.57-0.85,1.16-1.15,1.81c-0.28,0.6-0.54,1.22-0.3,1.87c0.33,0.93,1.32,1.4,2.19,1.71
	c1.12,0.39,2.33,0.56,3.5,0.66c2.9,0.25,5.71-0.23,8.38-1.38c0.4-0.17,0.48-0.75,0.29-1.09c-0.24-0.41-0.69-0.46-1.09-0.29
	c-1.97,0.85-4.08,1.27-6.22,1.23c-0.98-0.02-1.97-0.1-2.93-0.29c-0.82-0.16-1.66-0.35-2.34-0.8c-0.03-0.02-0.07-0.04-0.1-0.07
	c0.01,0.01,0.08,0.07,0.02,0.01c-0.05-0.05-0.1-0.1-0.15-0.15c-0.06-0.07,0.02,0.02,0.02,0.03c-0.01-0.01-0.06-0.08-0.07-0.11
	c0.05,0.17-0.02-0.02-0.01-0.07c0.05-0.35,0.42-0.94,0.64-1.29c0.65-1.05,1.54-1.97,2.47-2.76c0.81-0.7,1.81-0.93,2.85-1.09
	c0.76-0.11,1.74-0.14,2.57,0.05c2.64,0.62,3.53,3.36,2.9,5.78C451.1-413.3,452.64-412.87,452.9-413.87z"/>
<path class="st3" d="M546.94-302.49c1.09-5.77,3.04-11.39,6.26-16.33c2.9-4.44,6.93-8.02,10.69-11.8
	c4.23-4.26,8.33-9.05,10.45-14.75c0.58-1.57,0.94-3.2,1.09-4.87c0.13-1.43,0.03-2.84,0-4.27c0-0.19,0-0.38,0.01-0.57
	c-0.02,0.19-0.03,0.02,0.02-0.03c-0.1,0.11-0.06,0.21-0.29,0.32c-0.1,0.05-0.2,0.05-0.31,0.04c-0.14-0.01-0.08-0.01-0.03,0
	c-0.03-0.01-0.19-0.04-0.03,0c0.12,0.03-0.08-0.09,0.02,0.02c0.06,0.06,0.12,0.11,0.18,0.18c0.33,0.34,0.44,0.51,0.72,0.91
	c0.33,0.48,0.63,0.97,0.92,1.47c2.87,4.94,4.78,10.36,5.29,16.06c0.55,6.11-0.24,12.3-2.02,18.16c-1.58,5.2-3.96,10.18-7.08,14.63
	c-0.33,0.47-0.66,0.93-1.01,1.38c-0.05,0.06-0.1,0.13-0.15,0.19c-0.03,0.03-0.05,0.07-0.08,0.1c0.02-0.02,0.1-0.13,0.01-0.01
	c-0.11,0.15-0.23,0.29-0.35,0.44c-0.24,0.31-0.49,0.61-0.74,0.91c-1.23,1.48-2.54,2.89-3.93,4.22c-3.72,3.59-7.96,6.62-12.59,8.92
	c-5.83,2.89-12.25,4.55-18.74,4.89c-1.23,0.06-2.47,0.08-3.7,0.05c-1.03-0.02-1.03,1.57,0,1.6c6.49,0.14,13.02-0.96,19.08-3.32
	c5.34-2.08,10.27-5.07,14.62-8.78c2.99-2.54,5.69-5.42,8.05-8.55c2.84-3.78,5.1-7.99,6.81-12.39c2.31-5.94,3.6-12.34,3.58-18.72
	c-0.01-3.06-0.33-6.14-1.02-9.12c-0.66-2.88-1.72-5.62-2.99-8.28c-0.61-1.27-1.26-2.52-1.99-3.72c-0.49-0.81-1.03-1.72-1.75-2.35
	c-0.69-0.6-1.74-0.66-2.04,0.37c-0.13,0.42-0.09,0.91-0.07,1.35c0.03,0.68,0.07,1.36,0.07,2.04c0.01,3.23-0.87,6.25-2.4,9.09
	c-1.48,2.75-3.27,5.28-5.33,7.64c-3.94,4.5-8.69,8.28-12.38,13c-3.34,4.27-5.7,9.19-7.2,14.38c-0.48,1.67-0.88,3.37-1.2,5.09
	c-0.08,0.42,0.12,0.86,0.56,0.98C546.34-301.83,546.86-302.07,546.94-302.49L546.94-302.49z"/>
<g>
	<g>
		<g id="XMLID_00000114758084671510006290000009201764497514556036_">
			<g>
				<path class="st0" d="M188.28,113.94c4.73,12.77,1.79,29.43-6.65,41.98c-1.95,2.9-10.63,15.15-27.08,20.16
					c-6.21,1.89-11.67,2.19-15.46,2.1c0.62-0.48,1.25-1,1.88-1.55l0.89,0.17c3.67-1.09,6.79-3.47,9.83-5.79
					c8.13-6.24,16.39-12.61,22.35-20.96c8.38-11.74,11.58-27.05,8.57-41.16l-0.34-0.02c0.21-2.85-0.31-4.78,0.21-4.95
					C183.41,103.6,186.68,109.61,188.28,113.94z"/>
				<path class="st1" d="M153.98,155.52c0.2-0.76,0.39-1.56,0.56-2.4c2-7.69,5.21-12.8,8.02-16.2c4.75-5.74,12.01-10.97,16.43-18.61
					c1.24-2.14,2.79-4.89,3.21-8.74c0.02-0.23,0.05-0.47,0.06-0.69l0.34,0.02c3,14.11-0.19,29.42-8.57,41.16
					c-5.96,8.34-14.22,14.72-22.35,20.96c-3.03,2.33-6.16,4.7-9.83,5.79l-0.89-0.17c3.2-2.8,6.52-6.52,9.19-11.34
					C150.68,164.35,152.59,160.81,153.98,155.52z"/>
				<path class="st0" d="M139.1,178.19c-4.26,3.33-8.01,5.03-9.32,5.6c-14.15,6.1-26.88,2.42-30.12,1.38
					c0.04-0.09,0.15-0.39,0.07-0.88l0.07-0.01c3.12,0.29,25,2.03,36.6-12.21c5.23-6.43,7.05-14.48,8.13-19.31
					c2.21-9.83,1.47-17.71,1.02-22.15c-2.71-26.41-20.64-58.45-23.47-63.44l-0.45-0.06c0.5-4.17,0.35-7.71-0.06-10.57l0.27-0.04
					c6.36,12.56,12.71,26.12,18.85,40.66c2.38,5.64,9.2,17.72,13.12,33.72c1.1,4.47,2.17,9.94,1.56,16.81
					c-0.17,1.94-0.45,3.76-0.81,5.44c-0.2,0.77-0.39,1.57-0.56,2.4c-1.39,5.29-3.3,8.83-3.82,9.77c-2.67,4.83-5.99,8.54-9.19,11.34
					C140.35,177.19,139.72,177.71,139.1,178.19z"/>
				<path class="st1" d="M62.2,186.14l-0.05,0.05c-5.66,0.52-16,0.64-27.22-4.36c-5.17-2.3-15.34-6.83-21.24-17.76
					c-2.87-5.31-3.61-10.07-3.97-12.52c-1.63-11.1,1.6-20.17,4.18-26.86c7.9-20.42,17.62-38.66,23.45-49.03
					c-2.49-9.13-3.41-16.14-2.77-19.95c0.54-3.22,1.61-5.92,1.61-5.92c1.68-4.24,4.01-7.01,6.46-9.88c1.6-1.87,3.89-4.3,6.96-6.84
					l0.17,0.09c3.54-0.6,6.8-2.66,8.86-5.6c0-0.01,0.01-0.01,0.01-0.02c-0.01,0-0.01,0-0.02,0.01c-0.83-1.68-1.74-3.41-2.76-5.18
					c-2.05-3.6-4.19-6.8-6.27-9.62l0.28-0.46c2.25,1.41,4.74,3.17,7.32,5.33c2.8,2.36,5.11,4.71,6.97,6.83
					c3.78-1.22,9.01-2.47,15.32-2.68c5.01-0.17,9.33,0.36,12.71,1.02c1.76-1.39,3.18-3.18,4.93-4.58c0.91-0.73,1.9-1.35,2.88-1.97
					c1.26-0.8,2.52-1.59,3.78-2.39c1.37-0.86,2.76-1.73,4.28-2.28c-3.97,4.95-7.19,10.51-9.53,16.41l-0.06-0.01
					c-0.12,0.86,0.66,1.56,1.37,2.07c1.68,1.22,3.4,2.44,5.34,3.16c1.95,0.71,4.2,0.87,6.06-0.04c0.06-0.02,0.12-0.07,0.12-0.13
					l0.18,0.01c-0.01,0.21-0.03,0.43-0.05,0.64l0.29,0.12c1.63,2.58,3.85,6.41,6.06,11.29c0.82,1.82,1.71,3.79,2.41,5.95
					c0.45,1.41,0.94,3.24,1.27,5.48c0.42,2.86,0.57,6.4,0.06,10.57l0.45,0.06c2.82,4.98,20.76,37.03,23.47,63.44
					c0.45,4.44,1.2,12.31-1.02,22.15c-1.09,4.83-2.9,12.88-8.13,19.31c-11.6,14.25-33.47,12.51-36.6,12.21l-0.07,0.01
					c0.08,0.49-0.03,0.79-0.07,0.88c-0.14,0.34-0.44,0.58-0.75,0.8c-4.19,2.94-10.01,3.38-14.6,1.11c-1.16-0.57-2.31-1.39-2.72-2.61
					c-0.16-0.46-0.21-0.9-0.22-1.27c-0.01-0.4,0.02-0.72,0.06-0.91c0.34-2.15,2.16-11.13,4.8-23.56l-0.41-0.09
					c-2.53-1.04-5.38-1.83-7.97-0.96c-0.33,0.11-0.67,0.26-0.92,0.5c0.04,3.23,0.36,5.84,0.67,7.75c0.26,1.55,0.5,2.6,2.03,9.37
					c0.87,3.86,1.42,6.35,1.42,7.89c0,0.62-0.09,1.08-0.28,1.42c-1.57,2.75-5.81,3.02-9.12,3.23
					C68.85,188.01,64.21,188.3,62.2,186.14z M100.55,153.26l0.33,0.07c1.74-2.42,3.5-4.85,5.65-6.92c3.46-3.33,7.88-5.63,10.91-9.36
					c2.54-3.12,3.92-7.01,5.25-10.81l0,0c-2.44,4.53-5.15,7.47-7.22,9.35c-4.34,3.94-7.55,4.71-10.83,8.93
					C102.2,147.65,101.1,150.92,100.55,153.26z M63.1,147.72c-1.3-5.78-3.43-11.38-6.31-16.57l-0.15,0.08
					c0.11,2.39,0.56,5.92,2.17,9.86c1.17,2.86,2.61,5.11,3.85,6.73L63.1,147.72z M62.29,50.93c0.53-0.63,1.2-1.14,1.95-1.48
					c0.42-0.19,0.88-0.34,1.23-0.64s0.57-0.83,0.35-1.24c-0.15-0.27-0.45-0.42-0.74-0.53c-0.9-0.33-1.89-0.43-2.84-0.27
					c-0.28,0.05-0.58,0.13-0.73,0.37c-0.14,0.22-0.12,0.5-0.08,0.76c0.12,0.87,0.31,1.73,0.55,2.57L62.29,50.93z M89.63,45.31
					c-0.08-0.33-0.21-0.83-0.42-1.42c-0.51-1.44-1.25-3.53-3.14-4.88c-1.54-1.1-3.15-1.21-4.01-1.27c-0.61-0.04-2.43-0.1-4.45,0.86
					c-0.81,0.38-2.01,0.96-2.96,2.27c-1.36,1.88-1.25,4-1.19,4.73c0.7,0.36,1.46,0.69,2.27,0.96
					C81.52,48.49,86.99,46.51,89.63,45.31z M79.47,34.2c1.82-5.03,6.73-7.97,6.26-8.48c-0.24-0.26-1.45,0.5-2.53,1.18
					c-2.79,1.74-4.41,3.8-5.11,4.77c-0.44,0.61-3.19,4.49-2.31,5.44c0.39,0.43,1.36,0.09,1.46,0.06
					C78.66,36.65,79.22,34.9,79.47,34.2z M72.31,32.17c2.49-3.85,4.82-5.48,4.48-5.91c-0.3-0.38-2.3,0.72-3.12,1.23
					c-1.5,0.91-2.44,1.9-2.7,2.19c-3.65,3.94-8.21,13.59-6.99,14.38c0.16,0.11,0.95,0.38,1.78,0.11c0.03-0.01,0.06-0.02,0.07-0.02
					c1.56-0.54,2.04-2.45,2.84-4.6C68.67,39.54,70.16,35.5,72.31,32.17z M61.92,34.76c1.49-4.32,6.33-6.91,5.91-7.44
					c-0.26-0.32-1.98,0.68-2.7,1.1c-2.88,1.67-4.35,3.77-4.69,4.26c-0.89,1.31-2.3,3.89-1.61,4.57c0.35,0.35,1.13,0.08,1.22,0.05
					C61.26,36.86,61.73,35.32,61.92,34.76z M59.47,45.26c0.57-2.07,0.14-4.24-1.24-5.58c-1.85-1.81-4.62-1.38-5.9-1.12
					c-0.54,0.11-1.08,0.25-1.57,0.5c-0.52,0.27-0.97,0.66-1.4,1.06c-1.2,1.13-2.31,2.41-2.85,3.97c-0.07,0.21-0.06,0.33-0.04,0.45
					c0.26,1.55,4.52,2.14,7.17,2.06C54.95,46.56,57.02,46.32,59.47,45.26z"/>
				<path class="st0" d="M122.68,126.24L122.68,126.24c-1.33,3.81-2.7,7.69-5.24,10.81c-3.03,3.73-7.45,6.03-10.91,9.36
					c-2.15,2.07-3.9,4.5-5.65,6.92l-0.33-0.07c0.55-2.34,1.66-5.61,4.09-8.74c3.28-4.22,6.49-4.99,10.83-8.93
					C117.54,133.72,120.24,130.77,122.68,126.24z"/>
				<path class="st0" d="M111.4,33.05c0,0.06-0.06,0.1-0.12,0.13c-1.87,0.91-4.11,0.75-6.06,0.04c-1.95-0.71-3.66-1.94-5.34-3.16
					c-0.7-0.52-1.49-1.22-1.37-2.07l0.06,0.01c2.33-5.9,5.56-11.46,9.53-16.41c0.06-0.02,0.12-0.04,0.19-0.06l0.06,0.18
					c2.71,6.75,3.82,14.12,3.24,21.37L111.4,33.05z"/>
				<path class="st9" d="M89.21,43.89c0.21,0.59,0.34,1.08,0.42,1.42c-2.64,1.21-8.11,3.18-13.9,1.25c-0.82-0.27-1.57-0.6-2.27-0.96
					c-0.07-0.72-0.17-2.85,1.19-4.73c0.95-1.31,2.16-1.89,2.96-2.27c2.03-0.96,3.84-0.9,4.45-0.86c0.85,0.06,2.47,0.17,4.01,1.27
					C87.95,40.36,88.7,42.45,89.21,43.89z"/>
				<path class="st0" d="M85.82,158.63l0.41,0.09c-2.64,12.42-4.46,21.41-4.8,23.56c-0.03,0.19-0.07,0.51-0.06,0.91h-0.32
					c0-1.54-0.55-4.03-1.42-7.89c-1.52-6.77-1.77-7.82-2.03-9.37c-0.31-1.9-0.63-4.52-0.67-7.75c0.25-0.24,0.59-0.39,0.92-0.5
					C80.44,156.8,83.29,157.6,85.82,158.63z"/>
				<path class="st0" d="M85.73,25.71c0.47,0.52-4.45,3.45-6.26,8.48c-0.25,0.7-0.81,2.46-2.23,2.96c-0.1,0.03-1.07,0.37-1.46-0.06
					c-0.88-0.95,1.87-4.83,2.31-5.44c0.7-0.97,2.32-3.03,5.11-4.77C84.29,26.21,85.5,25.46,85.73,25.71z"/>
				<path class="st0" d="M76.78,26.26c0.34,0.43-1.99,2.06-4.48,5.91c-2.14,3.33-3.64,7.37-3.64,7.37c-0.8,2.15-1.28,4.06-2.84,4.6
					c-0.01,0-0.04,0.01-0.07,0.02c-0.83,0.27-1.62,0-1.78-0.11c-1.22-0.79,3.34-10.44,6.99-14.38c0.27-0.29,1.21-1.28,2.7-2.19
					C74.48,26.98,76.48,25.88,76.78,26.26z"/>
				<path class="st0" d="M67.83,27.32c0.42,0.53-4.42,3.13-5.91,7.44c-0.19,0.56-0.66,2.1-1.87,2.54c-0.09,0.04-0.87,0.3-1.22-0.05
					c-0.69-0.69,0.72-3.27,1.61-4.57c0.34-0.5,1.81-2.6,4.69-4.26C65.85,28,67.58,27,67.83,27.32z"/>
				<path class="st3" d="M65.82,47.57c0.22,0.41,0,0.93-0.35,1.24s-0.81,0.45-1.23,0.64c-0.75,0.34-1.42,0.85-1.95,1.48l-0.32-0.47
					c-0.24-0.84-0.43-1.7-0.55-2.57c-0.04-0.26-0.06-0.54,0.08-0.76c0.16-0.23,0.45-0.32,0.73-0.37c0.95-0.16,1.94-0.06,2.84,0.27
					C65.36,47.15,65.67,47.3,65.82,47.57z"/>
				<path class="st0" d="M63.1,147.72l-0.43,0.1c-1.24-1.62-2.68-3.87-3.85-6.73c-1.61-3.94-2.06-7.47-2.17-9.86l0.15-0.08
					C59.67,136.34,61.8,141.93,63.1,147.72z"/>
				<path class="st9" d="M58.24,39.67c1.38,1.35,1.8,3.51,1.24,5.58c-2.45,1.07-4.52,1.3-5.82,1.34c-2.65,0.08-6.91-0.51-7.17-2.06
					c-0.02-0.12-0.04-0.24,0.04-0.45c0.54-1.56,1.65-2.84,2.85-3.97c0.43-0.4,0.87-0.79,1.4-1.06c0.49-0.26,1.03-0.4,1.57-0.5
					C53.62,38.3,56.39,37.87,58.24,39.67z"/>
				<path class="st1" d="M58.66,27.56c0,0.01-0.01,0.01-0.01,0.02c0,0,0-0.01-0.01-0.01C58.65,27.56,58.65,27.56,58.66,27.56z"/>
				<path class="st0" d="M58.64,27.57c0,0,0,0.01,0.01,0.01c-2.06,2.93-5.33,4.99-8.86,5.6l-0.17-0.09
					c-0.66-2.73-1.26-6.2-1.37-10.23c-0.12-4.27,0.34-7.95,0.91-10.83l0.45,0.09c0.1,0.06,0.2,0.12,0.3,0.18l-0.28,0.46
					c2.08,2.82,4.21,6.02,6.27,9.62C56.89,24.15,57.81,25.88,58.64,27.57z"/>
			</g>
			<g>
			</g>
		</g>
	</g>
</g>
<path class="st4" d="M62.85,172.46c-3.67-4.38-8.24-8.01-12.71-11.52c-4.44-3.48-8.29-7.64-11.96-11.91
	c-3.72-4.32-6.67-9.03-7.77-14.7c-1.27-6.54-0.34-13.36,0.55-19.88c0.31-2.24-3.12-3.2-3.43-0.94c-1.5,10.95-2.62,22.35,3.63,32.12
	c2.88,4.5,6.64,8.45,10.32,12.3c3.93,4.11,8.65,7.26,12.86,11.06c3.75,3.38,11.43,9.51,7.8,15.27c-1.22,1.94,1.85,3.72,3.07,1.79
	C68.09,181.48,66.01,176.23,62.85,172.46z"/>
<path class="st4" d="M87.15,156.43c-2.77,9.19-4.43,18.99-5.1,28.55c-0.16,2.28,3.39,2.27,3.55,0c0.65-9.25,2.3-18.72,4.98-27.61
	C91.24,155.18,87.81,154.24,87.15,156.43z"/>
<path class="st4" d="M59.76,143.26c-5.07-1.62-8.65-6.78-11.18-11.19c-3.1-5.4-3.83-11.36-2.88-17.46c0.35-2.24-3.08-3.2-3.43-0.94
	c-1.1,7.07-0.37,13.93,3.24,20.2c3.04,5.28,7.28,10.9,13.3,12.82C61,147.38,61.94,143.95,59.76,143.26z"/>
<path class="st4" d="M107.16,129.94c-1.48,2.48-2.74,5.07-3.75,7.77c-1.02,2.73-1.48,5.72-3.11,8.17c-1.27,1.91,1.81,3.69,3.07,1.79
	c1.58-2.38,2.14-5.17,3.05-7.84c0.97-2.84,2.27-5.54,3.81-8.11C111.4,129.77,108.33,127.98,107.16,129.94z"/>
<path class="st4" d="M59.26,181.68c-9.19,0.16-18-0.46-25.97-5.46c-3.49-2.19-6.62-4.89-9.53-7.8c-2.88-2.88-6.01-5.96-8.02-9.53
	c-4.16-7.39-1.91-16.57-0.1-24.31c1.06-4.55,2.14-9.11,3.67-13.53c1.54-4.47,3.7-8.67,5.79-12.9c4.44-8.99,8.74-18.06,13.54-26.87
	c2.94,8.62,6.65,16.8,7.56,16.51c0.28-0.09,0.23-0.97,0.17-1.68c-0.65-8-4.3-15.24-4.8-17.02c-1.03-3.67-4.06-9.26-3.71-15.95
	c0.36-6.7,3.51-12.55,8.9-22.52c2.45-4.54,3.93-6.65,3.51-6.99c-0.75-0.6-7.15,4.55-11.19,11.7c-2.86,5.05-5.03,10-4.88,15.91
	c0.12,4.93,0.89,8.8,3.07,15.86c-0.31,0.13-0.6,0.37-0.81,0.76c-4.94,8.91-9.31,18.14-13.82,27.28c-2.18,4.42-4.47,8.8-6.2,13.42
	c-1.75,4.7-2.94,9.58-4.08,14.45c-1.97,8.43-4.2,17.83-0.48,26.11c1.74,3.89,4.84,7.1,7.74,10.16c2.92,3.07,6.04,5.94,9.48,8.42
	c3.94,2.83,8.35,5.05,13.07,6.23c5.58,1.38,11.38,1.43,17.09,1.33C61.54,185.2,61.55,181.64,59.26,181.68z"/>
<g>
	<g>
		<path class="st3" d="M77.54,38.63c-0.67,0.75-1.05,1.7-1.22,2.69c-0.18,0.99-0.45,2.5,0.46,3.23c0.69,0.55,1.47,0.71,2.27,0.29
			c1.42-0.74,1.34-2.76,1.68-4.1c0.53-2.09-2.28-3.23-3.43-1.44c-0.05,0.08-0.11,0.16-0.16,0.24c-0.55,0.85-0.17,2.07,0.67,2.57
			c0.91,0.53,2.02,0.18,2.57-0.67c0.05-0.08,0.11-0.16,0.16-0.24c-1.14-0.48-2.28-0.96-3.43-1.44c-0.13,0.49-0.23,0.99-0.32,1.49
			c-0.04,0.22-0.06,0.45-0.1,0.67c-0.01,0.06-0.02,0.11-0.03,0.17c-0.13,0.43,0.03,0.27,0.49-0.47c0.76,0.1,1.51,0.2,2.27,0.29
			c-0.02-0.02-0.04-0.03-0.06-0.05c0.16,0.28,0.32,0.55,0.48,0.83c0.09,0.45,0.06-0.22,0.07-0.29C79.91,42.47,80,42,80,41.97
			c0.05-0.23,0.14-0.44,0.2-0.66c-0.05,0.2,0.2-0.26-0.01-0.03c0.67-0.76,0.75-1.91,0-2.65C79.51,37.94,78.22,37.87,77.54,38.63
			L77.54,38.63z"/>
	</g>
</g>
<g>
	<g>
		<path class="st3" d="M49.99,39.7c-0.35,0.54-0.7,1.05-0.93,1.66c-0.35,0.93-0.18,2.15,0.64,2.78c1.03,0.8,2.48,0.38,3-0.8
			c0.28-0.63,0.55-1.27,0.79-1.92c0.35-0.92-0.38-2.1-1.31-2.31c-1.07-0.24-1.94,0.32-2.31,1.31c-0.1,0.28-0.19,0.59-0.33,0.85
			c0.02-0.06,0.05-0.11,0.07-0.17c-0.04,0.09-0.08,0.19-0.12,0.28c-0.05,0.12-0.1,0.23-0.16,0.34c0.22-0.22,0.45-0.45,0.67-0.67
			c-0.02,0.01-0.04,0.02-0.06,0.03c0.63,0,1.26,0,1.89,0c-0.02-0.01-0.03-0.02-0.05-0.03c0.22,0.22,0.45,0.45,0.67,0.67
			c0.18,0.29,0.23,0.58,0.14,0.89c0.01-0.04,0.02-0.08,0.03-0.12c-0.19,0.47,0.01,0.01,0.07-0.09c0.16-0.27,0.34-0.53,0.52-0.79
			c0.54-0.82,0.19-2.11-0.67-2.57C51.61,38.53,50.56,38.82,49.99,39.7L49.99,39.7z"/>
	</g>
</g>
<path class="st3" d="M48.37,11.82c-0.26,3.01-0.52,6.02-0.77,9.03c-0.22,2.62-0.57,5.29-0.24,7.91c0.19,1.5,0.59,2.93,1.35,4.25
	c0.57,0.99,2.1,0.1,1.53-0.9c-1.58-2.74-1.31-6.07-1.05-9.1c0.32-3.73,0.64-7.46,0.96-11.19c0.04-0.48-0.44-0.89-0.89-0.89
	C48.74,10.93,48.41,11.34,48.37,11.82L48.37,11.82z"/>
<path class="st3" d="M64.49,25.33c3.5-0.85,7.02-1.67,10.59-2.19c3.5-0.51,7.06-0.66,10.59-0.39c2.01,0.16,4,0.45,5.97,0.88
	c1.11,0.24,1.59-1.47,0.47-1.71c-3.61-0.78-7.3-1.15-10.99-1.07c-3.71,0.08-7.39,0.63-11.02,1.38c-2.04,0.42-4.06,0.9-6.08,1.39
	C62.91,23.88,63.38,25.6,64.49,25.33L64.49,25.33z"/>
<path class="st3" d="M92.91,23.44c1.23-0.98,2.29-2.13,3.42-3.23c1.16-1.13,2.43-2.06,3.79-2.93c1.45-0.92,2.89-1.83,4.34-2.74
	c1.34-0.84,2.69-1.69,4.2-2.19c1.08-0.36,0.62-2.08-0.47-1.71c-1.61,0.54-3.06,1.39-4.49,2.28c-1.49,0.94-2.99,1.88-4.48,2.82
	c-1.44,0.92-2.81,1.91-4.04,3.1c-1.17,1.12-2.26,2.32-3.53,3.33c-0.37,0.3-0.31,0.94,0,1.26C92.03,23.81,92.54,23.74,92.91,23.44
	L92.91,23.44z"/>
<path class="st3" d="M107.56,11.94c2.14,5.36,3.29,11.09,3.36,16.86c0.02,1.64-0.05,3.28-0.2,4.91c-0.04,0.48,0.44,0.89,0.89,0.89
	c0.52,0,0.84-0.41,0.89-0.89c0.54-5.87-0.01-11.84-1.61-17.52c-0.45-1.6-0.99-3.18-1.61-4.73c-0.18-0.45-0.59-0.76-1.09-0.62
	C107.75,10.96,107.38,11.49,107.56,11.94L107.56,11.94z"/>
<path class="st3" d="M107.61,10.87c-4.11,5.12-7.41,10.8-9.83,16.9c-0.18,0.45,0.19,0.98,0.62,1.09c0.51,0.14,0.92-0.17,1.09-0.62
	c2.3-5.79,5.47-11.25,9.37-16.11c0.3-0.37,0.37-0.89,0-1.26C108.55,10.55,107.91,10.49,107.61,10.87L107.61,10.87z"/>
<path class="st3" d="M49.22,12.89c5.37,3.34,10.22,7.46,14.4,12.21c0.32,0.36,0.93,0.32,1.26,0c0.36-0.36,0.32-0.89,0-1.26
	c-4.27-4.86-9.26-9.07-14.76-12.49C49.15,10.75,48.25,12.28,49.22,12.89L49.22,12.89z"/>
<path class="st3" d="M48.92,13.22c3.53,4.79,6.62,9.89,9.23,15.23c0.21,0.43,0.82,0.55,1.22,0.32c0.44-0.26,0.53-0.78,0.32-1.22
	c-2.61-5.35-5.7-10.45-9.23-15.23c-0.28-0.39-0.77-0.58-1.22-0.32C48.86,12.22,48.63,12.83,48.92,13.22L48.92,13.22z"/>
<path class="st3" d="M49.06,32.46c-2.15,1.78-4.18,3.72-6.05,5.8c-1.66,1.85-3.28,3.77-4.69,5.82c-2.48,3.62-4.17,7.98-4.65,12.36
	c-0.33,3.06,0.11,6.23,0.61,9.25c0.75,4.55,1.9,9.04,3.22,13.46c1.69,5.67,3.67,11.25,5.85,16.74c0.3,0.76,0.61,1.52,0.92,2.28
	c0.18,0.44,0.59,0.76,1.09,0.62c0.42-0.12,0.8-0.65,0.62-1.09c-2.26-5.54-4.34-11.17-6.12-16.88c-1.42-4.54-2.67-9.14-3.55-13.82
	c-0.6-3.15-1.08-6.25-0.94-9.52c0.01-0.3,0.03-0.59,0.06-0.89c0.01-0.13,0.03-0.26,0.04-0.38c0-0.03-0.03,0.19,0-0.02
	c0.01-0.06,0.02-0.13,0.03-0.19c0.22-1.34,0.55-2.67,0.94-3.97c0.56-1.86,1.32-3.62,2.3-5.31c1.27-2.19,2.87-4.14,4.51-6.06
	c1.63-1.91,3.38-3.71,5.25-5.39c0.59-0.53,1.19-1.05,1.8-1.55c0.37-0.31,0.32-0.94,0-1.26C49.95,32.09,49.43,32.15,49.06,32.46
	L49.06,32.46z"/>
<path class="st3" d="M111.12,34.28c2.58,4.1,4.8,8.39,6.74,12.83c1.65,3.76,2.79,7.65,3.12,11.75c0.24,2.93,0.12,5.89-0.26,8.8
	c-0.06,0.48,0.45,0.89,0.89,0.89c0.53,0,0.83-0.41,0.89-0.89c0.62-4.72,0.52-9.56-0.57-14.21c-0.48-2.04-1.17-4.02-1.98-5.95
	c-1.09-2.6-2.28-5.16-3.59-7.66c-1.15-2.21-2.39-4.36-3.72-6.47C112.05,32.42,110.51,33.31,111.12,34.28L111.12,34.28z"/>
<path class="st3" d="M121.12,56.96c6.75,13.33,13,26.9,18.85,40.66c1.64,3.85,3.58,7.58,5.29,11.4c2.61,5.83,4.88,11.81,6.64,17.94
	c1.8,6.28,3.11,12.66,2.75,19.23c-0.31,5.68-1.7,11.39-4.11,16.56c-3.87,8.28-10.76,15.03-18.86,19.19
	c-8.99,4.62-19.65,5.67-29.43,3.25c-0.6-0.15-1.2-0.31-1.79-0.49c-1.1-0.32-1.57,1.39-0.47,1.71c10.1,2.98,21.23,2.26,30.82-2.09
	c8.52-3.86,15.88-10.6,20.34-18.83c2.19-4.04,3.66-8.51,4.52-13.01c1.28-6.78,0.96-13.61-0.57-20.31c-1.5-6.57-3.64-12.98-6.2-19.2
	c-1.92-4.67-4.12-9.21-6.26-13.78c-1.14-2.43-2.15-4.92-3.21-7.39c-1.55-3.59-3.13-7.16-4.74-10.72
	c-3.09-6.82-6.31-13.59-9.63-20.29c-0.78-1.58-1.58-3.16-2.37-4.73C122.14,55.04,120.61,55.94,121.12,56.96L121.12,56.96z"/>
<path class="st12" d="M38.74,46.45"/>
<path class="st3" d="M36.66,75.22c-4.67,8.32-9.09,16.78-13.2,25.38c-2.61,5.47-5.09,10.99-7.42,16.58
	c-2.03,4.87-4.08,9.78-5.55,14.85c-2.91,10.05-2.86,21.18,1.63,30.77c2.19,4.67,5.45,8.8,9.4,12.1c3.08,2.57,6.53,4.65,10.14,6.38
	c4.46,2.14,9.08,3.89,13.94,4.88c4.64,0.95,9.41,1.32,14.14,1.09c0.83-0.04,1.65-0.1,2.47-0.17c0.48-0.04,0.89-0.38,0.89-0.89
	c0-0.45-0.41-0.93-0.89-0.89c-4.14,0.38-8.33,0.32-12.46-0.22c-5.32-0.7-10.44-2.26-15.32-4.46c-3.23-1.46-6.38-3.1-9.28-5.15
	c-3.83-2.71-7.17-6.12-9.64-10.12c-5.49-8.89-6.41-20.06-4.04-30.09c1.14-4.81,2.96-9.42,4.8-14c2.25-5.6,4.68-11.14,7.23-16.61
	c4.14-8.89,8.62-17.61,13.38-26.19c0.43-0.78,0.87-1.57,1.31-2.35C38.76,75.12,37.22,74.22,36.66,75.22L36.66,75.22z"/>
<path class="st3" d="M97.07,180.55c0.62,1.03,1.27,2.18,1.66,3.26c0.1,0.28,0.23,0.59,0.2,0.9c0-0.03-0.1,0.25-0.03,0.14
	c-0.14,0.22-0.38,0.37-0.6,0.51c-0.81,0.55-1.69,1.01-2.61,1.36c-3.65,1.38-8.04,1.28-11.46-0.72c-0.76-0.45-1.5-1.04-1.76-1.92
	c-0.13-0.45-0.17-0.91-0.14-1.38c0-0.06,0.01-0.13,0.02-0.19c-0.02,0.18,0,0.03,0-0.01c0.01-0.06,0.02-0.13,0.03-0.19
	c0.13-0.76,0.28-1.52,0.42-2.28c0.57-2.93,1.17-5.85,1.77-8.77c1.03-5,2.09-9.99,3.15-14.98c0.24-1.11-1.47-1.59-1.71-0.47
	c-1.69,7.93-3.4,15.86-4.93,23.82c-0.15,0.78-0.31,1.56-0.43,2.34c-0.15,0.92-0.15,1.85,0.15,2.74c0.38,1.13,1.21,1.97,2.18,2.61
	c1.84,1.21,4.11,1.82,6.28,2.03c2.18,0.21,4.43-0.06,6.5-0.77c1.16-0.4,2.28-0.93,3.31-1.6c0.61-0.4,1.24-0.84,1.5-1.56
	c0.17-0.49,0.14-1.02,0.03-1.51c-0.2-0.9-0.66-1.76-1.08-2.57c-0.29-0.56-0.6-1.12-0.93-1.67
	C98.02,178.68,96.48,179.57,97.07,180.55L97.07,180.55z"/>
<path class="st3" d="M135.46,122.1c0.72,2.61,0.53,5.34,0.35,8.01c-0.17,2.66-0.46,5.32-1.08,7.91c-1.11,4.62-3.42,8.83-6.31,12.58
	c-2.93,3.79-6.4,7.17-9.98,10.33c-1.94,1.71-3.96,3.35-6.1,4.81c-1.95,1.33-4.01,2.44-6.08,3.58c-2.15,1.19-4.29,2.45-6.1,4.12
	c-1.77,1.64-4,4.31-3.18,6.91c0.34,1.09,2.06,0.62,1.71-0.47c-0.36-1.14,0.31-2.26,0.95-3.17c0.59-0.84,1.31-1.59,2.08-2.27
	c1.6-1.41,3.47-2.48,5.33-3.51c2.03-1.12,4.07-2.21,6-3.51c2.16-1.46,4.21-3.08,6.17-4.79c7.15-6.22,14.31-13.62,16.94-22.98
	c0.83-2.93,1.19-5.98,1.4-9.02c0.21-2.99,0.42-6.06-0.38-8.99C136.87,120.52,135.16,120.99,135.46,122.1L135.46,122.1z"/>
<path class="st3" d="M26.59,113.52c-0.76,7.07-1.22,14.26-0.03,21.31c0.53,3.15,1.41,6.23,2.75,9.13c1.13,2.45,2.56,4.76,4.15,6.94
	c2.94,4,6.4,7.59,10.13,10.86c2.08,1.82,4.26,3.49,6.46,5.14c0.19,0.15,0.39,0.29,0.58,0.44c0.12,0.09-0.09-0.07,0.08,0.06
	c0.08,0.07,0.17,0.13,0.25,0.2c0.21,0.16,0.41,0.33,0.61,0.49c1.05,0.86,2.06,1.76,3.04,2.7c2.38,2.3,4.53,4.84,6.4,7.58
	c0.32,0.48,0.64,0.96,0.94,1.44c0-0.3,0-0.6,0-0.9c-1.14,1.93-2.09,4.43-1.14,6.63c0.8,1.84,2.75,2.72,4.62,3.05
	c1.94,0.34,3.91,0.29,5.86,0.17c2.13-0.13,4.33-0.22,6.38-0.87c1.69-0.53,3.73-1.65,4.19-3.52c0.37-1.5-0.04-3.2-0.32-4.67
	c-0.79-4.08-1.83-8.11-2.68-12.18c-0.68-3.26-0.98-6.54-0.99-9.89c0-0.74,0.01-1.47,0.04-2.21c0.04-1.14-1.73-1.14-1.78,0
	c-0.14,3.89,0.1,7.81,0.82,11.64c0.6,3.18,1.39,6.32,2.09,9.48c0.26,1.17,0.52,2.34,0.75,3.51c0.09,0.46,0.17,0.92,0.25,1.38
	c0.02,0.1,0.03,0.2,0.05,0.3c0.01,0.05,0.01,0.1,0.02,0.14c0-0.02-0.01-0.11,0,0c0.02,0.19,0.04,0.37,0.06,0.56
	c0.03,0.32,0.04,0.64,0.03,0.96c0,0.12-0.02,0.25-0.03,0.37c0.02-0.26-0.02,0.07-0.04,0.16c-0.02,0.06-0.12,0.33-0.05,0.19
	c0.07-0.14,0,0-0.02,0.03c-0.06,0.1-0.12,0.2-0.18,0.3c-0.18,0.27-0.51,0.6-0.77,0.79c-1.52,1.16-3.64,1.41-5.49,1.58
	c-1.82,0.16-3.67,0.29-5.51,0.25c-1.67-0.04-3.56-0.18-4.89-1.22c-0.16-0.13-0.48-0.47-0.61-0.67c-0.24-0.38-0.38-0.8-0.41-1.25
	c-0.08-1.03,0.24-2.07,0.67-2.99c0.18-0.39,0.38-0.77,0.6-1.13c0.16-0.27,0.17-0.63,0-0.9c-3.1-4.9-7.03-9.28-11.61-12.84
	c-0.72-0.56-1.45-1.09-2.17-1.63c-0.24-0.18-0.48-0.36-0.72-0.55c-0.07-0.05-0.13-0.1-0.2-0.15c0.16,0.12-0.03-0.02-0.08-0.06
	c-0.15-0.11-0.29-0.23-0.44-0.34c-0.67-0.53-1.34-1.07-2-1.62c-3.62-3.03-7.02-6.34-9.97-10.02c-1.64-2.04-3.13-4.21-4.39-6.51
	c-1.4-2.56-2.4-5.26-3.08-8.1c-1.63-6.84-1.38-13.98-0.73-20.93c0.08-0.87,0.17-1.75,0.27-2.62c0.05-0.48-0.44-0.89-0.89-0.89
	C26.95,112.63,26.64,113.04,26.59,113.52L26.59,113.52z"/>
<path class="st3" d="M41.47,114.11c-1.54,5.98-1.02,12.4,1.39,18.08c1.21,2.86,2.86,5.49,5.07,7.68c1.94,1.92,4.15,3.65,6.44,5.12
	c2.61,1.67,5.43,3.01,8.37,4.01c0.37,0.13,0.81-0.08,1-0.41c0.22-0.37,0.11-0.76-0.14-1.08c-3.61-4.63-5.72-10.4-6.01-16.28
	c-0.06-1.14-1.83-1.14-1.78,0c0.25,5.08,1.73,10.07,4.36,14.42c0.66,1.08,1.39,2.12,2.16,3.11c0.29-0.49,0.58-0.99,0.86-1.48
	c-4.91-1.67-9.38-4.4-13.21-7.89c-1.03-0.94-2.02-1.95-2.84-3.08c-0.87-1.2-1.61-2.5-2.25-3.83c-1.22-2.56-2.03-5.36-2.37-8.18
	c-0.39-3.25-0.19-6.55,0.62-9.72C43.47,113.47,41.76,113,41.47,114.11L41.47,114.11z"/>
<path class="st3" d="M122.56,124.7c-2.15,4.26-5.02,8.12-8.7,11.18c-1.83,1.53-3.88,2.74-5.79,4.17c-2.14,1.6-3.95,3.52-5.36,5.79
	c-1.44,2.31-2.44,4.9-3.03,7.56c0.58,0.08,1.16,0.16,1.74,0.24c-0.46-6.92,1.09-13.9,4.5-19.94c0.74-1.31,1.56-2.58,2.46-3.79
	c0.29-0.39,0.06-0.99-0.32-1.22c-0.45-0.26-0.93-0.07-1.22,0.32c-4.22,5.69-6.72,12.57-7.21,19.63c-0.11,1.66-0.11,3.33,0,4.99
	c0.06,0.95,1.51,1.27,1.74,0.24c1.06-4.75,3.49-9.15,7.38-12.14c1.91-1.47,3.98-2.7,5.86-4.21c1.65-1.32,3.17-2.81,4.54-4.43
	c1.94-2.3,3.57-4.82,4.92-7.5C124.61,124.58,123.07,123.68,122.56,124.7L122.56,124.7z"/>
<path class="st3" d="M62.89,50.23c-0.18-0.63-0.33-1.27-0.44-1.92c-0.01-0.04-0.16-0.79-0.1-0.81c-0.6,0.15-0.07,0.16-0.05,0.18
	c0.01,0.01,0.44-0.07,0.48-0.08c0.62-0.05,1.23,0.01,1.82,0.2c0.16,0.05,0.39,0.1,0.51,0.23c-0.14-0.15,0-0.11-0.03-0.06
	c-0.07,0.11-0.11,0.17-0.22,0.25c-0.43,0.32-1,0.44-1.47,0.71c-0.51,0.29-1,0.67-1.41,1.1c-0.79,0.82-1.39,1.87-1.61,3
	c-0.45,2.33,0.55,4.8,2.63,6c2.01,1.16,4.57,1.02,6.72,0.35c1.31-0.41,2.64-1.04,3.54-2.11c0.91-1.09,1.37-2.55,0.97-3.95
	c-0.31-1.1-2.03-0.63-1.71,0.47c0.68,2.38-2.23,3.67-4.04,4.09c-1.89,0.44-4.31,0.39-5.62-1.27c-1.3-1.65-0.97-3.99,0.47-5.42
	c0.35-0.35,0.75-0.63,1.18-0.85c0.56-0.29,1.17-0.45,1.64-0.89c0.45-0.42,0.73-1.02,0.69-1.63c-0.06-0.8-0.65-1.29-1.35-1.57
	c-0.71-0.28-1.48-0.42-2.24-0.43c-0.71-0.01-1.6,0.04-2.15,0.53c-0.64,0.57-0.55,1.35-0.43,2.12c0.12,0.76,0.29,1.51,0.5,2.24
	C61.49,51.8,63.21,51.34,62.89,50.23L62.89,50.23z"/>
<path class="st3" d="M53.84,50.47c-0.62,2.25-1.01,5.07,1.13,6.67c1.98,1.47,4.55,0.68,6.41-0.55c-0.36-0.47-0.72-0.93-1.08-1.4
	c-0.84,0.73-1.81,1.42-2.55,2.25c-0.57,0.64-0.97,1.38-1.29,2.18c-0.49,1.21-0.44,2.47,0.01,3.69c0.57,1.55,1.53,2.93,2.53,4.23
	c1.3,1.69,2.72,3.28,4.14,4.87c1.4,1.57,2.84,3.08,4.34,4.55c0.82,0.8,2.08-0.46,1.26-1.26c-2.67-2.6-5.19-5.37-7.55-8.25
	c-1.01-1.23-1.99-2.52-2.7-3.94c-0.25-0.51-0.45-1.02-0.56-1.61c0,0.02-0.04-0.28-0.03-0.15c0.02,0.12-0.01-0.17-0.01-0.15
	c-0.01-0.12-0.01-0.23-0.01-0.35c0-0.06,0.01-0.11,0.01-0.17c0.01-0.27-0.02,0.1,0-0.06c0.02-0.14,0.06-0.27,0.1-0.41
	c0.2-0.64,0.49-1.26,0.93-1.81c0.33-0.41,0.77-0.74,1.16-1.08c0.49-0.42,0.98-0.85,1.47-1.27c0.76-0.66-0.24-1.95-1.08-1.4
	c-1.25,0.83-3.13,1.71-4.51,0.63c-1.42-1.1-0.81-3.31-0.42-4.74C55.86,49.84,54.14,49.37,53.84,50.47L53.84,50.47z"/>
<path class="st3" d="M74.42,45.6c-0.12-1.35,0.09-2.71,0.8-3.88c0.8-1.32,2.2-2.15,3.64-2.64c2.74-0.94,6.17-0.56,8.02,1.88
	c0.99,1.31,1.59,3.01,1.97,4.6c0.14-0.33,0.27-0.67,0.41-1c-1.92,0.87-4.24,1.6-6.46,1.83c-3.04,0.32-6.09-0.15-8.81-1.55
	c-1.02-0.52-1.92,1.01-0.9,1.53c3,1.54,6.36,2.15,9.71,1.79c2.56-0.27,5.02-1.01,7.36-2.08c0.36-0.16,0.49-0.65,0.41-1
	c-0.39-1.63-1.02-3.36-1.96-4.75c-1.18-1.74-2.95-2.95-5.04-3.31c-1.52-0.26-3.08-0.24-4.58,0.16c-1.8,0.48-3.64,1.45-4.8,2.94
	c-1.21,1.54-1.72,3.54-1.54,5.48c0.04,0.48,0.38,0.89,0.89,0.89C73.97,46.49,74.46,46.08,74.42,45.6z"/>
<path class="st3" d="M60.4,45.5c0.72-2.74-0.06-6.03-2.77-7.38c-1.11-0.56-2.37-0.74-3.61-0.67c-1.17,0.07-2.43,0.27-3.5,0.78
	c-1.29,0.62-2.42,1.86-3.3,2.98c-0.45,0.57-0.86,1.17-1.16,1.84c-0.29,0.62-0.55,1.26-0.31,1.95c0.34,0.97,1.35,1.45,2.25,1.77
	c1.13,0.4,2.35,0.56,3.54,0.67c2.92,0.25,5.75-0.23,8.44-1.4c0.44-0.19,0.54-0.84,0.32-1.22c-0.27-0.46-0.77-0.51-1.22-0.32
	c-1.97,0.85-4.06,1.26-6.19,1.22c-0.98-0.02-1.96-0.1-2.92-0.28c-0.87-0.16-1.64-0.36-2.32-0.79c-0.03-0.02-0.07-0.04-0.1-0.07
	c0.01,0.01,0.1,0.09,0.03,0.02c-0.05-0.05-0.1-0.1-0.15-0.15c-0.07-0.07,0.03,0.04,0.04,0.05c-0.01-0.01-0.06-0.09-0.07-0.11
	c0.01,0.21-0.01,0,0-0.05c0.01-0.02,0,0.04,0.06-0.08c0.05-0.1,0.08-0.22,0.13-0.32c0.13-0.28,0.28-0.56,0.44-0.83
	c0.65-1.04,1.53-1.96,2.46-2.75c0.8-0.69,1.79-0.91,2.81-1.07c0.14-0.02,0.21-0.03,0.44-0.05c0.25-0.02,0.5-0.03,0.75-0.03
	c0.45,0,0.89,0.03,1.33,0.14c2.59,0.61,3.47,3.3,2.84,5.68C58.4,46.13,60.11,46.6,60.4,45.5z"/>
<path class="st3" d="M154.64,157.11c1.09-5.78,3.04-11.4,6.27-16.35c1.29-1.98,2.63-3.62,4.27-5.37c2.07-2.21,4.29-4.28,6.43-6.44
	c4.25-4.28,8.36-9.09,10.49-14.82c0.59-1.58,0.94-3.23,1.1-4.9c0.13-1.43,0.03-2.85,0-4.28c0-0.19,0-0.38,0.01-0.57
	c-0.01,0.17-0.03,0.1,0.02-0.01c-0.07,0.15-0.11,0.27-0.35,0.38c-0.12,0.05-0.23,0.06-0.35,0.05c-0.16-0.01-0.09-0.02-0.04,0
	c-0.04-0.01-0.2-0.11-0.05-0.01c0.15,0.1-0.14-0.15,0.01,0c0.06,0.06,0.13,0.11,0.18,0.18c0.35,0.36,0.41,0.46,0.7,0.9
	c0.33,0.48,0.63,0.98,0.92,1.48c2.87,4.94,4.78,10.35,5.29,16.05c0.55,6.12-0.24,12.31-2.02,18.18c-1.58,5.21-3.96,10.19-7.09,14.64
	c-0.33,0.47-0.66,0.93-1.01,1.38c-0.05,0.06-0.1,0.13-0.15,0.19c-0.03,0.03-0.05,0.07-0.08,0.1c0.02-0.02,0.12-0.15,0.02-0.03
	c-0.12,0.15-0.23,0.29-0.35,0.44c-0.24,0.31-0.49,0.61-0.74,0.91c-1.23,1.48-2.55,2.89-3.93,4.23c-3.72,3.59-7.97,6.63-12.6,8.93
	c-5.82,2.89-12.25,4.55-18.74,4.88c-1.23,0.06-2.47,0.08-3.71,0.05c-1.14-0.02-1.14,1.75,0,1.78c6.52,0.14,13.06-0.96,19.14-3.33
	c5.36-2.09,10.31-5.09,14.69-8.82c3-2.55,5.71-5.44,8.08-8.59c2.85-3.79,5.11-8.02,6.83-12.44c2.32-5.96,3.61-12.38,3.59-18.78
	c-0.01-3.08-0.34-6.16-1.02-9.16c-0.66-2.89-1.73-5.65-3-8.32c-0.61-1.27-1.26-2.53-1.99-3.73c-0.5-0.82-1.04-1.74-1.77-2.38
	c-0.31-0.27-0.67-0.5-1.09-0.5c-0.55,0.01-0.95,0.4-1.1,0.91c-0.13,0.43-0.09,0.93-0.07,1.37c0.03,0.68,0.07,1.36,0.07,2.05
	c0.01,3.22-0.87,6.24-2.39,9.06c-1.48,2.75-3.27,5.28-5.33,7.63c-3.95,4.51-8.71,8.3-12.41,13.03c-3.36,4.29-5.73,9.23-7.24,14.45
	c-0.49,1.68-0.88,3.38-1.2,5.1c-0.09,0.47,0.13,0.96,0.62,1.09C153.98,157.85,154.55,157.59,154.64,157.11L154.64,157.11z"/>
<g>
	<g>
		<path class="st5" d="M25.56-34.86c1.64-0.64,3.71-1.6,5.44-0.71c1.09,0.56,1.78,1.85,2.82,2.54c1.99,1.33,4.02,1.09,5.89-0.3
			c1.92-1.42,0.05-4.68-1.89-3.24c-1.95,1.45-4.22-2.18-6.18-2.8c-2.4-0.75-4.83,0.01-7.07,0.89C22.34-37.6,23.31-33.97,25.56-34.86
			L25.56-34.86z"/>
	</g>
</g>
<g>
	<g>
		<path class="st5" d="M14.79-34.84c0.34,0.02,0.95-0.18,1.26-0.1c0.18,0.05,0.52,0.4,0.72,0.54c0.83,0.57,1.58,1.23,2.39,1.83
			c1.58,1.18,3.01,0.58,4.18-0.85c1.52-1.85-1.12-4.52-2.65-2.65c-0.26,0.32-0.44,0.57-0.83,0.73c0.63,0,1.26,0,1.89,0
			c-1.26-0.68-2.33-1.81-3.53-2.6c-0.52-0.34-1.04-0.62-1.66-0.72c-0.6-0.09-1.18,0.11-1.77,0.07
			C12.39-38.76,12.4-35.01,14.79-34.84L14.79-34.84z"/>
	</g>
</g>
<g>
	<g>
		<path class="st5" d="M53.38,42.31c1.93,0,1.93-3,0-3C51.45,39.31,51.44,42.31,53.38,42.31L53.38,42.31z"/>
	</g>
</g>
<g>
	<g>
		<path class="st5" d="M80.91,41.69c1.93,0,1.93-3,0-3C78.98,38.69,78.98,41.69,80.91,41.69L80.91,41.69z"/>
	</g>
</g>
</svg>
