<?xml version="1.0" ?><svg id="Layer_1" style="enable-background:new 0 0 700 700;" version="1.1" viewBox="0 0 700 700" xml:space="preserve" xmlns="http://www.w3.org/2000/svg" xmlns:xlink="http://www.w3.org/1999/xlink"><style type="text/css">
	.st0{fill:#EFC4AC;stroke:#000000;stroke-width:10;stroke-linecap:round;stroke-miterlimit:10;}
	.st1{fill:#F9809A;stroke:#000000;stroke-width:10;stroke-linecap:round;stroke-miterlimit:10;}
</style><g><path class="st0" d="M432,397.36l165.1,165.1c9.7,9.7,9.7,25.45,0,35.22c-9.77,9.77-25.52,9.77-35.29,0L396,431.86"/><path class="st1" d="M246.29,134.45c9.91-10.91,24.24-17.75,40.13-17.75c20.25,0,37.85,11.19,47.12,27.66   c10.55-5.7,22.6-8.98,35.43-8.98c41.06,0,74.35,33.29,74.35,74.42c0,15.18-4.32,29.47-12.1,41.23l0,0   c40.35,42.06,39.47,109.33-2.59,149.68l-29.73,28.51c-41.49,39.78-107,38.99-147.49-1.35c-11.83,8.55-26.38,13.62-42.13,13.62   c-39.78,0-72-32.29-72-72.07c0-12.55,3.21-24.24,8.84-34.5"/><path class="st0" d="M317.15,311.39c-13.9,14.97-27.45,25.66-40.13,33.29c-45.48,27.45-79.77,15.04-79.77,15.04   c-5.99-1.78-11.55-3.64-16.68-5.7c-14.47-5.63-25.73-12.12-34.43-19.1c-48.69-38.99-18.96-92.82-18.96-92.82   s-54.32-21.46-20.39-92.03c11.69-24.38,32.65-42.77,58.6-50.47c28.73-8.55,65.73-9.27,80.91,34.86   c7.84,22.53,9.98,56.74,2.35,107.64"/></g></svg>