<?xml version="1.0" encoding="iso-8859-1"?>
<!-- Generator: Adobe Illustrator 22.1.0, SVG Export Plug-In . SVG Version: 6.00 Build 0)  -->
<svg version="1.1" id="Layer_1" xmlns="http://www.w3.org/2000/svg" xmlns:xlink="http://www.w3.org/1999/xlink" x="0px" y="0px"
	 viewBox="0 0 100 100" style="enable-background:new 0 0 100 100;" xml:space="preserve">
<path style="fill:#FEFDEF;" d="M40.986,20.858c7.989-7.982,21.049-7.807,28.815,0.525c7.397,7.936,6.829,20.43-0.846,28.098
	l-34.791,34.64c-1.173,1.172-3.074,1.172-4.246,0l-3.539-3.536c-1.173-1.172-1.173-3.071,0-4.243l34.912-34.761
	c3.392-3.39,3.795-8.907,0.628-12.509c-3.469-3.946-9.491-4.092-13.149-0.437l-2.123,2.121c-1.173,1.172-3.074,1.172-4.246,0
	l-3.539-3.536c-1.173-1.172-1.173-3.071,0-4.243L40.986,20.858z"/>
<g>
	<path style="fill:#F15B6C;" d="M48.275,70.603L47.79,70.54l-2.942-0.368l0.062-0.496l-0.002-0.004l-4.39-0.548l0,0l-0.092,0.496
		l-7.108-0.888L26.03,75.99c-0.43,0.42-0.74,0.95-0.89,1.52c-0.007,0.023-0.001,0.046-0.005,0.069l14.478,1.808l8.527-8.498
		C48.223,70.813,48.262,70.71,48.275,70.603z"/>
	<path style="fill:#1F212B;" d="M40.426,70.12c-0.021,0-0.042-0.001-0.063-0.004l-6.485-0.81c-0.274-0.034-0.468-0.284-0.434-0.558
		c0.035-0.274,0.286-0.468,0.558-0.434l6.485,0.81c0.274,0.034,0.468,0.284,0.434,0.558C40.89,69.935,40.674,70.12,40.426,70.12z"/>
	<path style="fill:#1F212B;" d="M38.991,79.81c-0.021,0-0.042-0.001-0.063-0.004l-13.37-1.67c-0.274-0.034-0.468-0.284-0.434-0.558
		s0.285-0.466,0.558-0.434l13.37,1.67c0.274,0.034,0.468,0.284,0.434,0.558C39.455,79.625,39.239,79.81,38.991,79.81z"/>
	<path style="fill:#1F212B;" d="M47.791,71.04c-0.021,0-0.042-0.001-0.063-0.004l-2.942-0.368c-0.274-0.034-0.468-0.284-0.434-0.558
		c0.035-0.274,0.28-0.466,0.558-0.434l2.942,0.368c0.274,0.034,0.468,0.284,0.434,0.558C48.254,70.855,48.039,71.04,47.791,71.04z"
		/>
</g>
<g>
	<path style="fill:#F15B6C;" d="M67.775,51.161l-10.801-1.349l0.062-0.496l0.003-0.003L53.5,48.87c-0.15-0.01-0.3,0.04-0.41,0.15
		l-9.8,9.77c-0.084,0.078-0.122,0.181-0.135,0.289l14.958,1.868l9.527-9.498C67.724,51.372,67.762,51.269,67.775,51.161z"/>
	<path style="fill:#1F212B;" d="M57.491,61.37c-0.021,0-0.042-0.001-0.063-0.004l-13.851-1.73c-0.274-0.034-0.468-0.284-0.434-0.558
		s0.284-0.465,0.558-0.434l13.85,1.73c0.274,0.034,0.469,0.284,0.435,0.558C57.955,61.185,57.739,61.37,57.491,61.37z"/>
	<path style="fill:#1F212B;" d="M67.291,51.6c-0.021,0-0.042-0.001-0.063-0.004l-10.315-1.289c-0.274-0.034-0.469-0.284-0.435-0.558
		c0.034-0.275,0.301-0.466,0.558-0.434l10.315,1.289c0.274,0.034,0.469,0.284,0.435,0.558C67.755,51.415,67.539,51.6,67.291,51.6z"
		/>
</g>
<g>
	<path style="fill:#F15B6C;" d="M74.119,27.454l-12.184,2.38c0.013,0.068,0.033,0.136,0.075,0.195c1.82,2.52,2.05,5.9,0.6,8.82
		c-0.025,0.049-0.029,0.105-0.036,0.159l5.451,0.68l-0.061,0.496v0.004l3.563,0.444l0.002-0.008l0.129-0.483l3.05,0.38
		C75.926,36.184,75.72,31.55,74.119,27.454z"/>
	<path style="fill:#1F212B;" d="M62.419,30.24c-0.234,0-0.443-0.166-0.489-0.404c-0.054-0.271,0.123-0.534,0.395-0.586l11.21-2.19
		c0.266-0.052,0.534,0.123,0.586,0.395c0.054,0.271-0.123,0.534-0.395,0.586l-11.21,2.19C62.483,30.237,62.451,30.24,62.419,30.24z"
		/>
	<path style="fill:#1F212B;" d="M68.026,40.189c-0.021,0-0.042-0.001-0.063-0.004l-4.966-0.619
		c-0.274-0.034-0.469-0.284-0.435-0.558s0.286-0.471,0.558-0.434l4.966,0.619c0.274,0.034,0.469,0.284,0.435,0.558
		C68.49,40.004,68.274,40.189,68.026,40.189z"/>
	<path style="fill:#1F212B;" d="M74.211,40.96c-0.021,0-0.042-0.001-0.063-0.004l-2.552-0.318c-0.274-0.034-0.469-0.284-0.435-0.558
		c0.033-0.274,0.288-0.475,0.558-0.434l2.552,0.318c0.274,0.034,0.469,0.284,0.435,0.558C74.675,40.775,74.459,40.96,74.211,40.96z"
		/>
</g>
<g>
	<path style="fill:#1F212B;" d="M62.419,30.24c-0.234,0-0.443-0.166-0.489-0.404c-0.054-0.271,0.123-0.534,0.395-0.586l11.21-2.19
		c0.266-0.052,0.534,0.123,0.586,0.395c0.054,0.271-0.123,0.534-0.395,0.586l-11.21,2.19C62.483,30.237,62.451,30.24,62.419,30.24z"
		/>
	<path style="fill:#1F212B;" d="M68.026,40.189c-0.021,0-0.042-0.001-0.063-0.004l-4.966-0.619
		c-0.274-0.034-0.469-0.284-0.435-0.558s0.286-0.471,0.558-0.434l4.966,0.619c0.274,0.034,0.469,0.284,0.435,0.558
		C68.49,40.004,68.274,40.189,68.026,40.189z"/>
	<path style="fill:#1F212B;" d="M74.211,40.96c-0.021,0-0.042-0.001-0.063-0.004l-2.552-0.318c-0.274-0.034-0.469-0.284-0.435-0.558
		c0.033-0.274,0.288-0.475,0.558-0.434l2.552,0.318c0.274,0.034,0.469,0.284,0.435,0.558C74.675,40.775,74.459,40.96,74.211,40.96z"
		/>
</g>
<g>
	<path style="fill:#F15B6C;" d="M47.291,16.056L48.82,23.7l-0.49,0.098l0,0l0.444,2.221l0,0l0.49-0.098l0.482,2.412
		c0.075-0.016,0.147-0.042,0.203-0.083c2.58-1.98,6.12-2.31,9.02-0.83c0.055,0.026,0.113,0.031,0.171,0.037l1.469-12.196
		C56.224,14.035,51.503,14.32,47.291,16.056z"/>
	<path style="fill:#1F212B;" d="M59.201,27.47c-0.021,0-0.04-0.001-0.061-0.003c-0.274-0.033-0.47-0.282-0.437-0.556l1.35-11.21
		c0.033-0.274,0.288-0.468,0.556-0.437c0.274,0.033,0.47,0.282,0.437,0.556l-1.35,11.21C59.666,27.283,59.45,27.47,59.201,27.47z"/>
	<path style="fill:#1F212B;" d="M48.82,24.201c-0.233,0-0.442-0.164-0.49-0.402l-1.43-7.151c-0.054-0.271,0.122-0.534,0.392-0.588
		c0.273-0.057,0.535,0.122,0.588,0.392l1.43,7.151c0.054,0.271-0.122,0.534-0.392,0.588C48.885,24.198,48.852,24.201,48.82,24.201z"
		/>
	<path style="fill:#1F212B;" d="M49.649,28.35c-0.233,0-0.442-0.164-0.49-0.402l-0.386-1.929c-0.054-0.271,0.122-0.534,0.392-0.588
		c0.274-0.055,0.535,0.122,0.588,0.392l0.386,1.929c0.054,0.271-0.122,0.534-0.393,0.588C49.715,28.347,49.682,28.35,49.649,28.35z"
		/>
</g>
<path style="fill:#1F212B;" d="M32.042,86c-1.069,0-2.075-0.416-2.831-1.172l-3.538-3.535c-0.757-0.755-1.173-1.76-1.173-2.829
	s0.416-2.073,1.173-2.828l34.913-34.763C62.218,39.242,62.973,37.112,63,35c0.024-1.896-0.521-3.777-1.831-5.268
	c-1.485-1.688-3.532-2.657-5.769-2.729c-2.227-0.078-4.341,0.758-5.922,2.339l-2.123,2.121c-1.561,1.56-4.101,1.56-5.662,0
	l-3.538-3.536C37.399,27.173,37,26.169,37,25.101s0.399-2.073,1.156-2.829l2.123-2.121C44.226,16.206,49.456,14.035,55,14
	c0.172-0.001,0.344,0,0.517,0.003c5.754,0.102,11.087,2.481,15.017,6.698c7.616,8.17,7.226,21.397-0.87,29.487L34.872,84.83
	C34.117,85.584,33.111,86,32.042,86z M55.146,25c0.107,0,0.212,0.002,0.319,0.005c2.795,0.09,5.354,1.3,7.207,3.408
	C64.315,30.282,65.025,32.634,65,35c-0.027,2.626-0.979,5.269-3,7.289L27.087,77.052c-0.377,0.376-0.585,0.878-0.585,1.413
	s0.208,1.037,0.586,1.415l3.538,3.535c0.757,0.756,2.075,0.756,2.831,0l34.792-34.642c7.341-7.335,7.71-19.317,0.82-26.708
	c-3.557-3.816-8.383-5.969-13.588-6.062c-5.232-0.069-10.105,1.883-13.788,5.562l-2.123,2.121c-0.378,0.378-0.569,0.88-0.569,1.415
	c0,0.534,0.191,1.036,0.569,1.414l3.538,3.536c0.781,0.779,2.05,0.779,2.831,0l2.123-2.121C49.937,26.058,52.503,25,55.146,25z"/>
</svg>
