<?xml version="1.0" ?><svg id="Layer_1" style="enable-background:new 0 0 700 700;" version="1.1" viewBox="0 0 700 700" xml:space="preserve" xmlns="http://www.w3.org/2000/svg" xmlns:xlink="http://www.w3.org/1999/xlink"><style type="text/css">
	.st0{fill:#F9809A;stroke:#000000;stroke-width:10;stroke-linecap:round;stroke-linejoin:round;stroke-miterlimit:10;}
	.st1{fill:none;stroke:#000000;stroke-width:10;stroke-linecap:round;stroke-linejoin:round;stroke-miterlimit:10;}
	.st2{fill:#EFC4AC;stroke:#000000;stroke-width:10;stroke-linecap:round;stroke-linejoin:round;stroke-miterlimit:10;}
</style><g><path class="st0" d="M342.32,304.63c0,0,60.36-52.8,70.13-110.5c0,0,15.48-133.39-59.43-80.29c-9.08,6.43-21.2,6.6-30.74,0.86   L295.6,98.64c-6.76-4.06-15.2-4.06-21.96,0l-26.69,16.06c-9.53,5.74-21.66,5.57-30.74-0.86c-74.91-53.1-59.43,80.29-59.43,80.29   c9.77,57.7,70.07,110.42,70.07,110.42"/><path class="st1" d="M236.68,181.7v45.28c0,0,6.38,38.68,29.38,60.84"/><path class="st1" d="M332.56,181.7v45.28c0,0-6.38,41.79-29.38,63.95"/><path class="st0" d="M118.48,431.69c0,0-43.81,87.55-11.75,134.07c0,0,10.64,15.99,50.76,24.55c0,0,133.87,36.86,277.26-8.62   c76.72-9.77,16.97-152.64,16.97-152.64"/><path class="st0" d="M451.58,428.84C382.8,274.32,266.05,287.81,266.05,287.81s-108.55,29-147.56,143.88   c0,0,16.97,17.59,39.22,18.08c11.13,0.35,23.64-3.69,36.02-16.34c0,0,28.65,72.18,91.65,12.52c0,0,46.11,57.3,90.96-8.28   c0,0,37.9,26.29,66.9,0.7c2.92-2.5,5.77-5.63,8.48-9.32C451.72,428.98,451.65,428.91,451.58,428.84"/><path class="st2" d="M517.66,405.19c0,0,48.26-2.96,74.36,38.32c2.88,4.56,4.56,9.82,4.99,15.2l7.87,97.68   c0.86,10.63-2.97,21.29-10.96,28.36c-11.61,10.27-33.98,21.12-76.27,19.26c-42.29,1.86-64.66-8.99-76.27-19.26   c-7.99-7.07-11.81-17.73-10.96-28.36l7.87-97.68c0.43-5.38,2.11-10.64,4.99-15.2C469.4,402.24,517.66,405.19,517.66,405.19z"/><path class="st1" d="M475.11,445.51c0,0,47.96-34.75,76.69,0.63c7.48,9.21,7.14,22.97-1.76,30.82c-2.21,1.95-4.92,3.83-8.22,5.48   c-9.72,4.86-21.34,5.5-31.37,1.32c-9.7-4.05-17.79-12.68-4.11-31.03"/></g></svg>