<?xml version="1.0" encoding="UTF-8" standalone="no"?>
<svg
   sodipodi:docname="20 - Lollipop.svg"
   inkscape:version="1.1.1 (1:1.1+202109281949+c3084ef5ed)"
   id="svg831"
   version="1.1"
   viewBox="0 0 22.577778 22.577778"
   height="64pt"
   width="64pt"
   inkscape:export-filename="/media/taufikramadhan/Data/Tr Design Studio/Project Design/TR Creative Design/Icon Design/Project Hiring/Icon Icons/010 - Food/Send/4 - Filledline/20 - Lollipop.png"
   inkscape:export-xdpi="576"
   inkscape:export-ydpi="576"
   xmlns:inkscape="http://www.inkscape.org/namespaces/inkscape"
   xmlns:sodipodi="http://sodipodi.sourceforge.net/DTD/sodipodi-0.dtd"
   xmlns="http://www.w3.org/2000/svg"
   xmlns:svg="http://www.w3.org/2000/svg"
   xmlns:rdf="http://www.w3.org/1999/02/22-rdf-syntax-ns#"
   xmlns:cc="http://creativecommons.org/ns#"
   xmlns:dc="http://purl.org/dc/elements/1.1/">
  <defs
     id="defs825">
    <pattern
       y="0"
       x="0"
       height="6"
       width="6"
       patternUnits="userSpaceOnUse"
       id="EMFhbasepattern" />
    <pattern
       y="0"
       x="0"
       height="6"
       width="6"
       patternUnits="userSpaceOnUse"
       id="EMFhbasepattern-9" />
    <pattern
       y="0"
       x="0"
       height="6"
       width="6"
       patternUnits="userSpaceOnUse"
       id="EMFhbasepattern-0" />
    <pattern
       y="0"
       x="0"
       height="6"
       width="6"
       patternUnits="userSpaceOnUse"
       id="EMFhbasepattern-7" />
    <pattern
       y="0"
       x="0"
       height="6"
       width="6"
       patternUnits="userSpaceOnUse"
       id="EMFhbasepattern-2" />
    <pattern
       y="0"
       x="0"
       height="6"
       width="6"
       patternUnits="userSpaceOnUse"
       id="EMFhbasepattern-98" />
    <pattern
       y="0"
       x="0"
       height="6"
       width="6"
       patternUnits="userSpaceOnUse"
       id="EMFhbasepattern-6" />
    <pattern
       y="0"
       x="0"
       height="6"
       width="6"
       patternUnits="userSpaceOnUse"
       id="EMFhbasepattern-01" />
    <pattern
       y="0"
       x="0"
       height="6"
       width="6"
       patternUnits="userSpaceOnUse"
       id="EMFhbasepattern-07" />
    <pattern
       y="0"
       x="0"
       height="6"
       width="6"
       patternUnits="userSpaceOnUse"
       id="EMFhbasepattern-8" />
    <pattern
       y="0"
       x="0"
       height="6"
       width="6"
       patternUnits="userSpaceOnUse"
       id="EMFhbasepattern-4" />
    <pattern
       y="0"
       x="0"
       height="6"
       width="6"
       patternUnits="userSpaceOnUse"
       id="EMFhbasepattern-40" />
    <pattern
       y="0"
       x="0"
       height="6"
       width="6"
       patternUnits="userSpaceOnUse"
       id="EMFhbasepattern-08" />
    <pattern
       y="0"
       x="0"
       height="6"
       width="6"
       patternUnits="userSpaceOnUse"
       id="EMFhbasepattern-04" />
    <pattern
       y="0"
       x="0"
       height="6"
       width="6"
       patternUnits="userSpaceOnUse"
       id="EMFhbasepattern-014" />
    <pattern
       y="0"
       x="0"
       height="6"
       width="6"
       patternUnits="userSpaceOnUse"
       id="EMFhbasepattern-27" />
    <pattern
       y="0"
       x="0"
       height="6"
       width="6"
       patternUnits="userSpaceOnUse"
       id="EMFhbasepattern-09" />
    <pattern
       y="0"
       x="0"
       height="6"
       width="6"
       patternUnits="userSpaceOnUse"
       id="EMFhbasepattern-5" />
    <pattern
       y="0"
       x="0"
       height="6"
       width="6"
       patternUnits="userSpaceOnUse"
       id="EMFhbasepattern-018" />
  </defs>
  <sodipodi:namedview
     inkscape:document-rotation="0"
     inkscape:snap-global="true"
     inkscape:snap-nodes="false"
     inkscape:bbox-nodes="true"
     inkscape:snap-bbox="true"
     showguides="false"
     inkscape:snap-midpoints="true"
     inkscape:snap-smooth-nodes="true"
     inkscape:snap-intersection-paths="true"
     inkscape:object-paths="true"
     inkscape:showpageshadow="false"
     inkscape:pagecheckerboard="true"
     inkscape:window-maximized="1"
     inkscape:window-y="31"
     inkscape:window-x="0"
     inkscape:window-height="705"
     inkscape:window-width="1366"
     units="pt"
     showgrid="false"
     inkscape:current-layer="layer1"
     inkscape:document-units="pt"
     inkscape:cy="51.777805"
     inkscape:cx="56.144608"
     inkscape:zoom="2.4045052"
     inkscape:pageshadow="2"
     inkscape:pageopacity="0.0"
     borderopacity="1.0"
     bordercolor="#666666"
     pagecolor="#ffffff"
     id="base">
    <inkscape:grid
       id="grid1378"
       type="xygrid" />
    <sodipodi:guide
       inkscape:locked="false"
       id="guide1380"
       orientation="78.000048,0"
       position="0.97013831,21.607643" />
    <sodipodi:guide
       inkscape:locked="false"
       id="guide1382"
       orientation="0,78.000005"
       position="0.97013831,0.97013129" />
    <sodipodi:guide
       inkscape:locked="false"
       id="guide1384"
       orientation="-78.000048,0"
       position="21.607639,0.97013129" />
    <sodipodi:guide
       inkscape:locked="false"
       id="guide1386"
       orientation="0,-78.000005"
       position="21.607639,21.607643" />
  </sodipodi:namedview>
  <metadata
     id="metadata828">
    <rdf:RDF>
      <cc:Work
         rdf:about="">
        <dc:format>image/svg+xml</dc:format>
        <dc:type
           rdf:resource="http://purl.org/dc/dcmitype/StillImage" />
      </cc:Work>
    </rdf:RDF>
  </metadata>
  <g
     transform="translate(0,-274.42223)"
     id="layer1"
     inkscape:groupmode="layer"
     inkscape:label="Icon">
    <g
       id="g5378"
       style="display:inline"
       transform="matrix(1.2576938,0,0,1.2576938,39.003093,-153.90122)">
      <g
         id="g842172"
         style="display:inline">
        <g
           id="g841582">
          <path
             style="color:#000000;fill:#d0e2ee;stroke-linecap:round;stroke-linejoin:round;-inkscape-stroke:none;paint-order:markers fill stroke"
             d="m -23.591797,349.41992 -0.998047,0.99805 a 0.26461046,0.26461046 0 0 0 0,0.375 l 1.201172,1.20117 a 0.26461046,0.26461046 0 0 0 0.375,0 l 0.998047,-0.99805 a 0.26461046,0.26461046 0 0 0 0,-0.375 l -1.201172,-1.20117 a 0.26461046,0.26461046 0 0 0 -0.375,0 z"
             id="path796313" />
          <path
             style="color:#000000;fill:#d0e2ee;stroke-linecap:round;stroke-linejoin:round;-inkscape-stroke:none;paint-order:markers fill stroke"
             d="m -25.990234,351.82031 -4.00586,4.00586 c -0.161158,0.16116 -0.244089,0.37362 -0.24414,0.58594 -8e-6,0.21239 0.08299,0.42673 0.24414,0.58789 l 0.400391,0.40039 c 0.161191,0.16116 0.375601,0.24408 0.587891,0.24414 0.212386,0 0.426736,-0.083 0.58789,-0.24414 l 4.003906,-4.00391 a 0.26461046,0.26461046 0 0 0 0,-0.375 l -1.201171,-1.20117 a 0.26461046,0.26461046 0 0 0 -0.373047,0 z"
             id="path799500" />
          <path
             style="color:#000000;fill:#ee8eb4;stroke-linecap:round;stroke-linejoin:round;-inkscape-stroke:none;paint-order:markers fill stroke"
             d="m -26.386719,347.48633 c -0.297008,-0.0126 -0.561246,0.0719 -0.763672,0.23242 -0.297172,0.23568 -0.3838,0.6138 -0.345703,0.99414 -0.380338,-0.0381 -0.758456,0.0485 -0.99414,0.3457 -0.321082,0.40485 -0.337181,1.05885 0.11914,1.72071 a 0.26461046,0.26461046 0 0 0 0.002,0.004 c 0.380628,0.53156 1.024207,0.78295 1.560547,0.92383 0.536341,0.14089 0.990235,0.16406 0.990235,0.16406 a 0.26461046,0.26461046 0 0 0 0.201172,-0.0781 l 1.201171,-1.20117 a 0.26461046,0.26461046 0 0 0 0.07813,-0.20118 c 0,0 -0.02318,-0.45389 -0.164062,-0.99023 -0.140886,-0.53634 -0.392274,-1.17992 -0.923828,-1.56055 a 0.26461046,0.26461046 0 0 0 -0.0039,-0.002 c -0.330929,-0.22816 -0.660024,-0.33899 -0.957032,-0.35156 z"
             id="path796321" />
          <path
             style="color:#000000;fill:#ee8eb4;stroke-linecap:round;stroke-linejoin:round;-inkscape-stroke:none;paint-order:markers fill stroke"
             d="m -22.986328,351.74219 a 0.26461046,0.26461046 0 0 0 -0.201172,0.0781 l -1.201172,1.20117 a 0.26461046,0.26461046 0 0 0 -0.07813,0.20118 c 0,0 0.02318,0.45389 0.164063,0.99023 0.140885,0.53634 0.392275,1.17992 0.923828,1.56055 a 0.26461046,0.26461046 0 0 0 0.0039,0.004 c 0.661857,0.45632 1.315853,0.43827 1.720703,0.11719 0.297475,-0.23592 0.382271,-0.61341 0.34375,-0.99414 0.380999,0.0388 0.760008,-0.048 0.996094,-0.3457 0.321082,-0.40485 0.337181,-1.05885 -0.119141,-1.72071 a 0.26461046,0.26461046 0 0 0 -0.002,-0.004 c -0.380627,-0.53156 -1.024206,-0.78099 -1.560547,-0.92188 -0.53634,-0.14088 -0.990234,-0.16601 -0.990234,-0.16601 z"
             id="path796327" />
          <path
             style="color:#000000;fill:#e75f96;stroke-linecap:round;stroke-linejoin:round;-inkscape-stroke:none;paint-order:markers fill stroke"
             d="m -24.415902,350.21811 a 0.26461046,0.26461046 0 0 0 -0.372886,0 l -1.401782,1.40178 a 0.26461046,0.26461046 0 0 0 -0.0014,0.37427 l 1.602042,1.60205 a 0.26461046,0.26461046 0 0 0 0.37565,-10e-6 l 1.401783,-1.40178 a 0.26461046,0.26461046 0 0 0 -0.0014,-0.37427 z"
             id="path796341" />
        </g>
        <g
           id="g841572">
          <path
             id="circle5549"
             style="fill:#e75f96;fill-opacity:1;stroke:none;stroke-width:0.529168;stroke-linecap:round;stroke-linejoin:round;stroke-opacity:1;paint-order:markers fill stroke;stop-color:#000000"
             d="m -19.796173,347.20087 c -1.802387,-1.80239 0.803402,-3.60712 2.205039,-2.20071 0.804953,0.79284 0.999208,2.20071 -0.0021,3.20203 -0.995433,0.99543 -2.208817,0.99543 -3.204248,0 -3.003979,-3.00398 1.401873,-7.0093 4.20558,-4.20557 1.216638,1.21663 1.702247,3.50464 -10e-6,5.20689 -1.537986,1.53798 -3.769057,1.43785 -5.206899,1e-5 -1.437842,-1.43784 -2.202915,-4.20557 -0.400526,-6.00796 1.969923,-1.96992 4.839101,-1.96992 6.608754,-0.20027 0.884827,0.88483 1.435556,2.13649 1.489715,3.4423 0.05415,1.30582 -0.388257,2.66579 -1.489716,3.76725 -2.191136,2.19113 -5.218695,1.99087 -7.209556,1e-5 -0.99543,-0.99543 -1.60211,-2.70064 -1.602112,-4.00531 l 1.138942,-0.17663 z"
             sodipodi:nodetypes="ccscccscsscsccc" />
        </g>
      </g>
      <path
         id="circle5547"
         style="color:#000000;fill:#000000;stroke-width:3.77953;stroke-linecap:round;stroke-linejoin:round;-inkscape-stroke:none;paint-order:markers fill stroke"
         d="m -70.703125,231.93359 c -0.147936,-5.2e-4 -0.295215,8e-4 -0.443359,0.004 -4.740632,0.0994 -9.57051,2.05686 -13.464844,5.95117 -3.026158,3.02616 -3.95962,6.77786 -3.957031,10.48047 l -3.816407,0.5918 c -0.485567,0.0779 -0.842643,0.49649 -0.841796,0.98828 8e-6,3.96493 1.332825,8.69972 3.722656,12.51172 l -2.552735,2.55273 c -0.07808,-0.69103 -0.235658,-1.7726 -0.548828,-2.96484 -0.532482,-2.02711 -1.483164,-4.45984 -3.492187,-5.89844 -0.0049,-0.003 -0.0088,-0.004 -0.01367,-0.008 -1.250755,-0.86234 -2.494638,-1.28062 -3.617188,-1.32813 -1.122556,-0.0476 -2.121646,0.27222 -2.886716,0.87891 -1.05502,0.83671 -1.62568,2.14581 -1.57227,3.49414 -0.3702,-0.0144 -0.73916,0.0176 -1.09375,0.0937 -0.93729,0.20107 -1.79167,0.71151 -2.39844,1.47656 -1.21354,1.53014 -1.2735,4.00044 0.45117,6.50196 0.002,0.004 0.003,0.0118 0.006,0.0156 1.4386,2.00905 3.87133,2.95973 5.89844,3.49219 0.74729,0.1963 1.452665,0.33055 2.044925,0.42383 a 1.0001025,1.0001025 0 0 0 0.285156,0.66015 l 0.05469,0.0527 -14.431641,14.43164 c -0.6091,0.60911 -0.92169,1.41042 -0.92188,2.21289 -3e-5,0.80273 0.31281,1.61355 0.92188,2.22265 l 1.51367,1.51368 c 0.60922,0.6091 1.41835,0.92164 2.2207,0.92187 0.80272,0 1.61357,-0.31284 2.22266,-0.92187 l 14.427736,-14.42774 0.04883,0.0488 a 1.0001025,1.0001025 0 0 0 0.660156,0.29297 c 0.09325,0.5911 0.228149,1.29411 0.423828,2.03906 0.532479,2.02711 1.483169,4.45984 3.492188,5.89844 0.0049,0.004 0.01071,0.01 0.01563,0.0137 2.501507,1.72467 4.971811,1.65689 6.501953,0.44336 1.056058,-0.83754 1.625011,-2.14462 1.570312,-3.49219 1.348334,0.0534 2.657423,-0.51725 3.494141,-1.57226 1.213538,-1.53014 1.275463,-4.00239 -0.449219,-6.50391 -0.0025,-0.004 -0.0052,-0.01 -0.0078,-0.0137 -1.43859,-2.00905 -3.871322,-2.95188 -5.898438,-3.48438 -1.193357,-0.31345 -2.275851,-0.47458 -2.966796,-0.55468 l 2.480468,-2.48047 c 7.69801,5.20655 17.890389,4.8166 25.400391,-2.69336 4.359341,-4.35935 6.142929,-9.80282 5.927734,-14.99219 -0.215244,-5.18933 -2.396794,-10.14093 -5.927734,-13.67187 -3.42482,-3.42482 -7.896406,-5.18495 -12.482422,-5.20118 z m 0.220703,2.13282 c 3.90347,0.008 7.723606,1.44463 10.851563,4.47851 3.157511,3.15753 5.143728,7.66829 5.33789,12.34961 0.194117,4.68136 -1.37125,9.51968 -5.33789,13.48633 -7.93423,7.93421 -18.646162,7.18976 -25.835938,0 -3.310828,-3.31083 -5.357317,-9.06752 -5.587891,-13.59766 l 2.296876,-0.36132 0.02734,0.17773 c 0.583,4.38935 2.751486,8.53082 5.632813,11.41211 5.783678,5.7837 14.927536,6.17012 21.097656,0 3.408884,-3.40887 4.67405,-7.49911 4.427734,-11.30078 -0.246311,-3.80168 -1.953984,-7.32314 -4.427734,-9.79688 -5.65189,-5.6519 -13.174825,-4.49163 -17.576172,-0.29492 -2.200675,2.09832 -3.681046,4.95321 -3.824219,8.08984 -0.143168,3.13667 1.08645,6.51223 4.089844,9.51563 4.237194,4.09546 9.881122,3.55669 13.523438,0 4.161592,-4.16164 3.406692,-10.1602 0,-13.51563 -3.018293,-3.02279 -7.40604,-2.64991 -10.046875,-0.45117 -1.321217,1.10003 -2.244613,2.69637 -2.302735,4.52539 -0.05607,1.76439 0.711539,3.67384 2.423828,5.46485 0.0585,0.0665 0.120163,0.13188 0.183594,0.19531 1.63623,1.63623 4.324708,1.63623 5.960938,0 1.636229,-1.63623 1.63037,-4.31885 -0.0059,-5.95508 -1.636256,-1.63625 -4.314942,-1.63623 -5.951172,0 -0.234615,0.23462 -0.435999,0.49022 -0.603515,0.76172 -0.0093,-0.13551 -0.01196,-0.26997 -0.0078,-0.40039 0.03814,-1.1997 0.512505,-2.43832 1.580078,-3.05469 8.465216,-4.77316 11.55261,6.56351 7.351563,11.01953 -3.404255,3.37365 -7.854268,2.77686 -10.695313,0 -2.673411,-2.67337 -3.617025,-5.444 -3.5,-8.00781 0.117015,-2.5638 1.337365,-4.9594 3.205079,-6.74023 3.735427,-3.56168 9.832557,-4.67913 14.777343,0.26562 2.124563,2.12455 3.633184,5.23162 3.845703,8.51172 0.212523,3.2801 -0.820868,6.72716 -3.845703,9.75195 -5.455585,5.4556 -13.176682,5.08506 -18.261719,0 -2.553033,-2.55299 -4.546098,-6.35909 -5.064453,-10.26172 -0.51835,-3.90262 0.375703,-7.85419 3.550782,-11.02929 3.756075,-3.42003 8.287004,-5.2468 12.710937,-5.23828 z m -2.066406,15.18164 c 0.562374,0 1.124577,0.21832 1.560547,0.65429 0.871913,0.87192 0.875845,2.25502 0.0039,3.12696 -0.871939,0.87194 -2.258947,0.87191 -3.130859,0 l 0.002,-0.002 c -0.03436,-0.0344 -0.06627,-0.0673 -0.09961,-0.10156 -0.773494,-0.87473 -0.736824,-2.18505 0.101563,-3.02344 0.43597,-0.43597 1.000126,-0.6543 1.5625,-0.65429 z m -27.355469,7.52539 c 0.703192,0.005 1.57958,0.28086 2.648438,1.01562 1.335579,0.96446 2.241865,2.96148 2.716797,4.76953 0.326002,1.24104 0.462249,2.33595 0.517578,2.91211 l -3.88086,3.88086 c -0.572589,-0.055 -1.667548,-0.19051 -2.912106,-0.51758 -1.80802,-0.47493 -3.80309,-1.38118 -4.76758,-2.71679 -1.38307,-2.01196 -1.14229,-3.34128 -0.52539,-4.11914 0.59423,-0.74927 1.6722,-1.06231 2.71094,-0.61133 l 1.54882,1.54883 c 0.39004,0.38766 1.02013,0.38766 1.41016,0 0.38769,-0.39005 0.38769,-1.02011 0,-1.41016 l -1.55273,-1.55273 c -0.44489,-1.03631 -0.13173,-2.11464 0.61523,-2.70704 0.36462,-0.28918 0.85024,-0.49651 1.470703,-0.49218 z m 11.564453,7.35742 c 0.459,0.59237 0.946685,1.15176 1.462891,1.66797 0.525771,0.52577 1.070819,1.01885 1.632812,1.48047 l -2.447265,2.44726 -3.123047,-3.12109 z m -4.644531,3.13281 4.638672,4.64063 -3.882813,3.88281 -4.640625,-4.64063 z m 6.435547,5.67383 c 0.574554,0.0576 1.664703,0.19781 2.904297,0.52344 1.808016,0.47493 3.805037,1.37341 4.769531,2.70898 1.383073,2.01196 1.140343,3.34132 0.523438,4.11914 -0.594478,0.74958 -1.671803,1.06313 -2.710938,0.61133 l -1.548828,-1.54883 a 1.0000025,1.0000025 0 0 0 -0.701172,-0.29492 1.0000025,1.0000025 0 0 0 -0.708984,0.29492 1.0000025,1.0000025 0 0 0 0,1.41797 l 1.548828,1.54297 c 0.449955,1.03875 0.137524,2.12288 -0.611328,2.7168 -0.77785,0.61689 -2.107166,0.85183 -4.119141,-0.53125 -1.335575,-0.9645 -2.234057,-2.96148 -2.708984,-4.76953 -0.325792,-1.24024 -0.463901,-2.33195 -0.521485,-2.90625 z m -10.980469,0.37695 3.128906,3.12891 -14.431639,14.43164 c -0.22957,0.2298 -0.51281,0.33203 -0.80469,0.33203 -0.29189,-7e-5 -0.58106,-0.10261 -0.81055,-0.33203 l -1.51367,-1.51367 c -0.22964,-0.2298 -0.33203,-0.52068 -0.33203,-0.8125 0.002,-0.28989 0.10424,-0.5769 0.33203,-0.80469 z"
         transform="matrix(0.26458334,0,0,0.26458334,0,280.06666)" />
    </g>
  </g>
</svg>
