<?xml version="1.0" encoding="iso-8859-1"?>
<!-- Generator: Adobe Illustrator 21.0.0, SVG Export Plug-In . SVG Version: 6.00 Build 0)  -->
<svg version="1.1" id="Layer_1" xmlns="http://www.w3.org/2000/svg" xmlns:xlink="http://www.w3.org/1999/xlink" x="0px" y="0px"
	 viewBox="0 0 24 24" enable-background="new 0 0 24 24" xml:space="preserve">
<g>
	<path id="base_color_23_" fill="#F47920" d="M14,1c-4.9624023,0-9,4.0375977-9,9
		c0,2.3015747,0.8759155,4.3973999,2.3024292,5.9905396l-6.1559448,6.1559448c-0.1953125,0.1953125-0.1953125,0.5117188,0,0.7070313
		C1.2441406,22.9511719,1.3720703,23,1.5,23s0.2558594-0.0488281,0.3535156-0.1464844l6.1559448-6.1559448
		C9.6026001,18.1240845,11.6984253,19,14,19c4.9624023,0,9-4.0375977,9-9S18.9624023,1,14,1z"/>
	<g id="base_color_24_">
		<path opacity="0.8" fill="#FFFFFF" d="M14,1c-0.5145264,0-1.0158691,0.0532227-1.5070801,0.1365967
			c-0.1710815,0.0307617-0.3413086,0.0639648-0.508667,0.1047974C8.2670288,2.1487427,5.5,5.5072632,5.5,9.5
			c0,4.6870117,3.8129883,8.5,8.5,8.5c4.1357422,0,7.5-3.3642578,7.5-7.5S18.1357422,3,14,3c-3.5839844,0-6.5,2.9160156-6.5,6.5
			S10.4160156,16,14,16c3.0327148,0,5.5-2.4672852,5.5-5.5S17.0327148,5,14,5c-2.4814453,0-4.5,2.0185547-4.5,4.5
			S11.5185547,14,14,14c1.9296875,0,3.5-1.5703125,3.5-3.5S15.9296875,7,14,7c-1.378418,0-2.5,1.121582-2.5,2.5S12.621582,12,14,12
			c0.8271484,0,1.5-0.6728516,1.5-1.5S14.8271484,9,14,9c-0.2758789,0-0.5,0.2241211-0.5,0.5S13.7241211,10,14,10
			c0.2763672,0,0.5,0.2236328,0.5,0.5S14.2763672,11,14,11c-0.8271484,0-1.5-0.6728516-1.5-1.5S13.1728516,8,14,8
			c1.378418,0,2.5,1.121582,2.5,2.5S15.378418,13,14,13c-1.9296875,0-3.5-1.5703125-3.5-3.5S12.0703125,6,14,6
			c2.4814453,0,4.5,2.0185547,4.5,4.5S16.4814453,15,14,15c-3.0327148,0-5.5-2.4672852-5.5-5.5S10.9672852,4,14,4
			c3.5839844,0,6.5,2.9160156,6.5,6.5S17.5839844,17,14,17c-4.1357422,0-7.5-3.3642578-7.5-7.5S9.8642578,2,14,2
			c4.6870117,0,8.5,3.8129883,8.5,8.5c0,4.3939209-3.3510742,8.0197754-7.6317139,8.4559937
			C19.4245605,18.5174561,23,14.6693115,23,10C23,5.0375977,18.9624023,1,14,1z"/>
		<path opacity="0.4" fill="#FFFFFF" d="M7.3024292,15.9905396l-6.1559448,6.1559448
			c-0.1953125,0.1953125-0.1953125,0.5117188,0,0.7070313C1.2441406,22.9511719,1.3720703,23,1.5,23
			s0.2558594-0.0488281,0.3535156-0.1464844l6.1559448-6.1559448C7.7607422,16.4749146,7.5250854,16.2392578,7.3024292,15.9905396z"
			/>
	</g>
</g>
<g>
</g>
<g>
</g>
<g>
</g>
<g>
</g>
<g>
</g>
<g>
</g>
<g>
</g>
<g>
</g>
<g>
</g>
<g>
</g>
<g>
</g>
<g>
</g>
<g>
</g>
<g>
</g>
<g>
</g>
</svg>
