<?xml version="1.0" ?><svg viewBox="0 0 32 32" xmlns="http://www.w3.org/2000/svg"><title/><g data-name="chocolate 10" id="chocolate_10"><path d="M30,14.73a2.5,2.5,0,0,0-.87-1.89A2.41,2.41,0,0,0,28,12.31V3a1,1,0,0,0-1-1H5A1,1,0,0,0,4,3V15.84a2.47,2.47,0,0,0-2,2.43,2.5,2.5,0,0,0,.87,1.89A2.43,2.43,0,0,0,4,20.7V29a1,1,0,0,0,1,1H27a1,1,0,0,0,1-1V17.16A2.47,2.47,0,0,0,30,14.73ZM6,12h9v2.14L6,15.53Zm11,0h9v.45l-9,1.38Zm9-8v6H17V4ZM6,4h9v6H6ZM6,28V20.55l20-3.08V28ZM27.59,15.21l-23,3.54A.48.48,0,0,1,4,18.27a.48.48,0,0,1,.41-.48l23-3.54a.48.48,0,0,1,.56.48A.48.48,0,0,1,27.59,15.21Z"/><path d="M20.29,21.29a1,1,0,0,0,0,1.42,1,1,0,1,0,0-1.42Z"/><path d="M11.38,21.08a1,1,0,0,0-1.09.21,1,1,0,0,0,0,1.42A1,1,0,0,0,11,23a1,1,0,0,0,.71-1.71A1.15,1.15,0,0,0,11.38,21.08Z"/><path d="M19.45,24.11a1,1,0,0,0-1.34.44.59.59,0,0,1-.45.33.58.58,0,0,1-.53-.17l-.42-.42a1,1,0,0,0-1.42,0l-.42.42a.61.61,0,0,1-1-.16,1,1,0,0,0-1.78.9A2.62,2.62,0,0,0,14,26.86a3,3,0,0,0,.42,0A2.65,2.65,0,0,0,16,26.38a2.67,2.67,0,0,0,2,.48,2.62,2.62,0,0,0,1.91-1.41A1,1,0,0,0,19.45,24.11Z"/></g></svg>