<?xml version="1.0" ?><svg xmlns="http://www.w3.org/2000/svg" viewBox="0 0 500.35 511.96"><g id="Layer_2" data-name="Layer 2"><g id="candy_cane" data-name="candy cane"><path d="M52.27,512a52,52,0,0,1-28.56-8.52A52.52,52.52,0,0,1,8.54,430.83L249.38,62.09A136.68,136.68,0,0,1,438.55,22.26c63.05,41.21,80.79,126.12,39.53,189.28l-25.62,39.23a52.41,52.41,0,1,1-87.75-57.34l25.62-39.23a31.78,31.78,0,1,0-53.2-34.77L96.29,488.18A52.49,52.49,0,0,1,52.27,512ZM364.13,30a107.37,107.37,0,0,0-22.19,2.32,106.22,106.22,0,0,0-67.45,46.16L33.64,447.24a22.42,22.42,0,1,0,37.54,24.53L312,103A61.77,61.77,0,1,1,415.44,170.6l-25.62,39.23a22.42,22.42,0,1,0,37.54,24.53L453,195.13l12.55,8.21L453,195.13A106.63,106.63,0,0,0,364.13,30Z"/><path d="M104.22,463.59A15,15,0,0,1,96,461.15L33.39,420.21a15,15,0,1,1,16.4-25.11L112.43,436a15,15,0,0,1-8.21,27.56Z"/><path d="M145.21,400.83a14.86,14.86,0,0,1-8.18-2.45L74.38,357.44a15,15,0,0,1,16.4-25.11l62.65,40.94a15,15,0,0,1-8.22,27.56Z"/><path d="M186.21,338.06a15,15,0,0,1-8.19-2.44l-62.65-40.94a15,15,0,1,1,16.41-25.11l62.64,40.93a15,15,0,0,1-8.21,27.56Z"/><path d="M227.2,275.3a14.91,14.91,0,0,1-8.19-2.45l-62.64-40.94a15,15,0,0,1,16.4-25.11l62.65,40.94a15,15,0,0,1-8.22,27.56Z"/><path d="M268.2,212.53a14.94,14.94,0,0,1-8.19-2.44l-62.65-40.94A15,15,0,1,1,213.77,144L276.41,185a15,15,0,0,1-8.21,27.56Z"/><path d="M309.19,149.77a15,15,0,0,1-8.19-2.45l-62.64-40.94a15,15,0,0,1,16.4-25.11l62.65,40.94a15,15,0,0,1-8.22,27.56Z"/><path d="M354.61,105.89A15,15,0,0,1,339.94,94l-15.3-73.32A15,15,0,1,1,354,14.51L369.3,87.82a15,15,0,0,1-14.69,18.07Z"/><path d="M466.54,216.77a14.89,14.89,0,0,1-8.19-2.45l-62.64-40.93a15,15,0,0,1,16.4-25.12l62.65,40.94a15,15,0,0,1-8.22,27.56Z"/><path d="M406.54,132.89a15,15,0,0,1-3.07-29.68l73.88-15.57A15,15,0,0,1,483.53,117l-73.88,15.57A15,15,0,0,1,406.54,132.89Z"/></g></g></svg>