<?xml version="1.0" encoding="iso-8859-1"?>
<!-- Generator: Adobe Illustrator 19.1.0, SVG Export Plug-In . SVG Version: 6.00 Build 0)  -->
<svg version="1.1" id="Capa_1" xmlns="http://www.w3.org/2000/svg" xmlns:xlink="http://www.w3.org/1999/xlink" x="0px" y="0px"
	 viewBox="0 0 25.472 25.472" style="enable-background:new 0 0 25.472 25.472;" xml:space="preserve">
<g>
	<g>
		<path d="M15.093,7.44c-1.006,0-1.959,0.371-2.701,1.112l-5.137,5.137c-0.212,0.212-0.212,0.53,0,0.741
			c0.106,0.106,0.265,0.159,0.371,0.159c0.159,0,0.265-0.053,0.371-0.159l5.137-5.137c1.059-1.059,2.807-1.059,3.866,0
			c0.212,0.212,0.53,0.212,0.741,0c0.212-0.212,0.212-0.53,0-0.741C17.052,7.811,16.099,7.44,15.093,7.44z"/>
		<path d="M25.313,6.593l-6.408-6.408c-0.212-0.212-0.53-0.212-0.741,0c-1.43,1.43-1.801,3.442-1.218,5.19
			c-0.53-0.159-1.059-0.265-1.642-0.265c-1.377,0-2.648,0.53-3.601,1.483L6.567,11.73c-0.953,0.953-1.483,2.224-1.483,3.601
			c0,0.53,0.106,1.112,0.265,1.589c-1.748-0.583-3.76-0.159-5.19,1.218c-0.212,0.212-0.212,0.53,0,0.741l6.408,6.408
			c0.106,0.106,0.265,0.159,0.371,0.159c0.159,0,0.265-0.053,0.371-0.159c1.377-1.377,1.801-3.442,1.218-5.19
			c0.53,0.159,1.059,0.265,1.589,0.265c1.377,0,2.648-0.53,3.601-1.483l5.137-5.137c0.953-0.953,1.483-2.224,1.483-3.601
			c0-0.583-0.106-1.112-0.265-1.642c0.53,0.159,1.059,0.265,1.642,0.265c1.324,0,2.595-0.477,3.601-1.483
			C25.525,7.123,25.525,6.805,25.313,6.593z M6.99,24.122l-5.613-5.613c1.112-0.847,2.595-1.059,3.866-0.53
			c-0.371,0.106-0.741,0.212-1.059,0.212c-0.265,0-0.53,0.212-0.583,0.477c0,0.318,0.212,0.53,0.477,0.583c0.053,0,0.106,0,0.106,0
			c0.53,0,1.112-0.159,1.589-0.371L5.031,19.62c-0.212,0.212-0.212,0.53,0,0.741c0.106,0.106,0.265,0.159,0.371,0.159
			s0.265-0.053,0.371-0.159l0.741-0.741c-0.212,0.53-0.371,1.165-0.371,1.695c0,0.265,0.265,0.477,0.53,0.477c0,0,0,0,0.053,0
			c0.318,0,0.53-0.265,0.477-0.583c0-0.265,0.053-0.688,0.212-1.059C7.996,21.527,7.838,23.01,6.99,24.122z M18.164,13.001
			l-5.137,5.137c-0.741,0.741-1.748,1.165-2.86,1.165c-1.006,0-1.959-0.371-2.701-1.059c-0.053-0.053-0.053-0.106-0.106-0.106
			c-0.053-0.053-0.106-0.053-0.106-0.106c-0.688-0.741-1.059-1.695-1.059-2.701c0-1.059,0.424-2.065,1.165-2.86l5.137-5.137
			c0.741-0.741,1.748-1.165,2.86-1.165c1.059,0,2.065,0.424,2.86,1.165c0.741,0.741,1.165,1.748,1.165,2.86
			S18.906,12.259,18.164,13.001z M20.282,7.493c0.371-0.106,0.741-0.212,1.059-0.212c0.318,0.053,0.53-0.212,0.583-0.477
			c0-0.318-0.212-0.53-0.477-0.583c-0.53-0.053-1.218,0.159-1.695,0.318l0.741-0.741c0.212-0.212,0.212-0.53,0-0.741
			c-0.212-0.212-0.53-0.212-0.741,0l-0.741,0.741c0.212-0.53,0.371-1.165,0.371-1.695c0-0.318-0.265-0.53-0.583-0.477
			c-0.265,0-0.53,0.265-0.477,0.583c0,0.265-0.053,0.688-0.212,1.059c-0.477-1.271-0.318-2.754,0.53-3.919l5.613,5.613
			C23.036,7.811,21.553,7.97,20.282,7.493z"/>
	</g>
</g>
<g>
</g>
<g>
</g>
<g>
</g>
<g>
</g>
<g>
</g>
<g>
</g>
<g>
</g>
<g>
</g>
<g>
</g>
<g>
</g>
<g>
</g>
<g>
</g>
<g>
</g>
<g>
</g>
<g>
</g>
</svg>
