<?xml version="1.0" ?><!DOCTYPE svg  PUBLIC '-//W3C//DTD SVG 1.1//EN'  'http://www.w3.org/Graphics/SVG/1.1/DTD/svg11.dtd'><svg enable-background="new 0 0 165.457 241.689" height="241.689" id="Layer_1" overflow="visible" version="1.1" viewBox="0 0 165.457 241.689" width="165.457" xml:space="preserve" xmlns="http://www.w3.org/2000/svg" xmlns:xlink="http://www.w3.org/1999/xlink"><path d="M149.503,47.09c-11.327-19.485-28.996-28.509-48.602-29.669c-0.45,0.194,0.5-0.099,0,0l0,0  c-1.759,0.354-24.696-5.884-49.877,25.006c-2.499,3.89-4.901,8.192-7.181,12.949c-0.779,1.625-1.487,3.228-2.154,4.816  c-2.622,7.842-3.971,16.925-3.421,27.433c0.931,17.786,11.183,33.94,26.755,42.159c12.44,6.566,25.806,6.564,36.715,0.021  c2.154-1.639,18.318-14.455,20.051-31.221c0.938-9.088-2.636-18.14-10.624-26.905l-0.105-0.117l-0.036-0.042  c-0.307-0.342-6.269-6.764-19.781-6.764c-15.972,0-18.37,13.616-18.37,22.768c0,4.394,3.794,8.723,6.899,9.185  c2.251,0.334,3.662-3.152,4.303-5.261c1.126-3.706,5.042-5.797,8.748-4.671c3.705,1.125,5.796,5.042,4.67,8.748  c-3.856,12.695-12.747,16.101-19.781,15.056c-10.225-1.519-18.863-12.078-18.863-23.057c0-17.837,8.86-36.792,32.395-36.792  c19.168,0,28.813,9.854,30.301,11.515l-0.013-0.015c0.006,0.006,0.009,0.012,0.015,0.017c0.074,0.082,0.122,0.138,0.155,0.178  c10.699,11.82,15.423,24.501,14.029,37.697c-3.408,32.269-24.237,39.956-26.053,41.254l-0.211,0.15l-0.222,0.135  c-14.245,8.681-31.307,9.426-47.332,2.202c-10.914-4.009-20.539-11.553-26.576-22.521c-6.503-9.636-10.447-21.023-11.073-32.986  c-2.008-38.36,17.697-57.81,34.581-69.724c1.284-0.906,2.57-1.762,3.852-2.579c-19.672,3.792-46.23,11.597-56.705,52.051  c-17.584,67.904,47.643,110.337,92.757,101.755C146.971,160.688,179.836,99.276,149.503,47.09z"/><path d="M39.809,174.799l-19.086,48.198c-2.034,5.135,0.48,10.945,5.616,12.979c5.135,2.033,10.946-0.481,12.979-5.616  l19.107-48.249C51.904,180.34,45.671,177.875,39.809,174.799z"/></svg>