<?xml version="1.0" ?><svg viewBox="0 0 32 32" xmlns="http://www.w3.org/2000/svg"><defs><style>.cls-1{fill:#a96555;}.cls-2{fill:#8e5449;}.cls-3{fill:#683b32;}.cls-4{fill:#844c3e;}</style></defs><title/><g data-name="chocolate 4" id="chocolate_4"><path class="cls-1" d="M29.43,19.54l-17-17a1,1,0,0,0-1.41,0L2.57,11.05a1,1,0,0,0,0,1.41l17,17a1,1,0,0,0,.7.29,1,1,0,0,0,.71-.29L29.43,21A1,1,0,0,0,29.43,19.54Z"/><path class="cls-2" d="M29.43,19.54l-17-17a1,1,0,0,0-1.41,0L6.81,6.81,25.19,25.19,29.43,21A1,1,0,0,0,29.43,19.54Z"/><path class="cls-3" d="M29.43,19.54l-17-17a1,1,0,0,0-1.41,0L6.81,6.81,25.19,25.19,29.43,21A1,1,0,0,0,29.43,19.54Zm-20.5-12,2.83-2.82L16,8.93h0l-2.83,2.83Zm5.66,5.66,2.82-2.83h0l4.25,4.25-2.83,2.82Zm9.9,9.9-4.25-4.24L23.07,16l4.24,4.24Z"/><path class="cls-4" d="M2.57,11.05a1,1,0,0,0,0,1.41L5,14.92A.24.24,0,0,0,5,15V25a1,1,0,0,0,2,0V16.9l1,1A.24.24,0,0,0,8,18V29a1,1,0,0,0,2,0V19.9l1,1A.24.24,0,0,0,11,21v4a1,1,0,0,0,2,0V22.9l6.54,6.54a1,1,0,0,0,.7.29,1,1,0,0,0,.71-.29l4.24-4.25L6.81,6.81Zm20.5,13.44-2.83,2.82L16,23.07h0l2.83-2.83Zm-5.66-5.66-2.82,2.83h0l-4.25-4.25,2.83-2.82ZM8.93,16,4.69,11.76,7.51,8.93l4.25,4.24Z"/></g></svg>