<?xml version="1.0" encoding="utf-8"?>
<!-- Generator: Adobe Illustrator 26.0.3, SVG Export Plug-In . SVG Version: 6.00 Build 0)  -->
<svg version="1.1" id="Слой_1" xmlns="http://www.w3.org/2000/svg" xmlns:xlink="http://www.w3.org/1999/xlink" x="0px" y="0px"
	 viewBox="0 0 100 100" style="enable-background:new 0 0 100 100;" xml:space="preserve">
<style type="text/css">
	.st0{fill:#482D1C;}
</style>
<g>
	<g>
		<path class="st0" d="M14.4,45.7c-0.5-3.3-0.6-6.8,0.2-10.1c0.8-3,2.2-5.8,4.1-8.3c3.3-4.4,9.1-7.7,14.1-3.8
			c2.2,1.7,3.6,4.2,4.6,6.8c0.6,1.4,1,2.8,1.5,4.2c0.5,1.5,1.1,3.2,0.8,4.8c-0.5,2.8-2.8,5.5-4.5,7.6c-2,2.4-4.1,4.7-6.2,7.1
			c-1.1,1.3-2.6,2.8-3.1,4.4c-0.6,1.9,0.3,4.3,0.7,6.2c0.9,4,1.7,7.9,2.6,11.9c0.7,3.1,5.5,1.8,4.8-1.3c-0.9-4-1.7-7.9-2.6-11.9
			c-0.2-1-0.4-1.9-0.6-2.9c0,0.1-0.1-0.9-0.2-0.5c0.1-0.3,0.4-0.6,0.6-0.8c1-1.4,2.2-2.7,3.3-3.9c2.4-2.7,4.8-5.4,6.9-8.4
			c2.1-3.1,3.8-6.4,3.2-10.2c-0.3-1.8-0.9-3.5-1.5-5.2c-0.6-1.9-1.3-3.7-2.2-5.5c-1.5-3-3.7-5.6-6.5-7.4c-6.5-4-14.2-0.9-18.7,4.6
			c-2.5,3.1-4.6,6.6-5.7,10.5C8.7,38,8.9,42.5,9.6,47c0.2,1.3,1.9,2.1,3.1,1.7C14.1,48.3,14.6,47,14.4,45.7L14.4,45.7z"/>
	</g>
</g>
<g>
	<g>
		<path class="st0" d="M34.4,88.7c3.2,0,3.2-5,0-5C31.1,83.7,31.1,88.7,34.4,88.7L34.4,88.7z"/>
	</g>
</g>
<g>
	<g>
		<path class="st0" d="M58.9,52.3c0.7-2.1,1.5-4.2,2.9-5.9c1.4-1.7,3.3-2.9,5.4-3.9c3.7-1.7,8.9-2.1,11.4,1.7
			c1.3,1.9,1.6,4.1,1.6,6.3c0,1.3-0.2,2.5-0.3,3.8c-0.1,1-0.2,2.1-0.8,2.8c-1.3,1.5-3.7,2.3-5.5,3c-2.4,0.9-4.8,1.6-7.2,2.5
			c-1.3,0.5-2.9,0.9-3.9,2c-1,1.1-1.1,2.7-1.5,4c-0.7,3-1.4,6.1-2.1,9.1c-0.7,3.1,4.1,4.5,4.8,1.3c0.7-3,1.4-6.1,2.1-9.1
			c0.2-0.7,0.5-1.4,0.5-2.1c0-0.1,0-0.2,0.1-0.3c-0.4,0.4-0.5,0.6-0.2,0.5c0.1,0,0.8-0.3,0.9-0.4c1.4-0.5,2.8-1,4.2-1.5
			c4.8-1.6,11.9-3.4,13.2-9.1c1.3-5.6,1.3-12.3-2.6-16.9c-3.8-4.4-10.3-4.8-15.4-2.8c-2.9,1.1-5.7,2.8-7.8,5.1
			c-2.2,2.4-3.5,5.3-4.5,8.4C53.1,54,58,55.3,58.9,52.3L58.9,52.3z"/>
	</g>
</g>
<g>
	<g>
		<path class="st0" d="M59.8,88.7c3.2,0,3.2-5,0-5C56.6,83.7,56.6,88.7,59.8,88.7L59.8,88.7z"/>
	</g>
</g>
</svg>
