<?xml version="1.0" ?><svg xmlns="http://www.w3.org/2000/svg" xmlns:xlink="http://www.w3.org/1999/xlink" version="1.1" viewBox="0 0 512 512" style="enable-background:new 0 0 512 512;" xml:space="preserve"><g id="_x32_4_x2C__Brownies_x2C__Cake_x2C__Dessert_x2C__Bakery_x2C__Chocolate"><g><polygon style="fill:#FAF0AF;" points="46,313.5 46,443.5 146,468.666 256,443.5 279.333,386 256,313.5 140.667,296   "/><path style="fill:#DD5113;" d="M286,73.5c0,3.51-0.6,6.87-1.72,10L256,96.5l-28.28-13c-1.12-3.13-1.72-6.49-1.72-10    c0-16.57,13.43-30,30-30S286,56.93,286,73.5z"/><path style="fill:#FAF0AF;" d="M151,133.5v140c11.664,0,198.336,0,210,0v-140l-101-24.167L151,133.5z"/><path style="fill:#B9741B;" d="M256,263.5l19.667,28.5L256,313.5h-25c-11.05,0-20,8.95-20,20v49.48    c0,11.03-8.71,20.38-19.74,20.52c-11.16,0.14-20.26-8.88-20.26-20v-49.48c0-11.03-8.71-20.38-19.74-20.52    c-11.16-0.14-20.26,8.88-20.26,20c0,11.04-8.96,20-20,20c-9.789,0-17.247-5.316-20-20c0-11.05-8.95-20-20-20H46v-50    C57.664,263.5,244.336,263.5,256,263.5z"/><path style="fill:#804D12;" d="M361,83.5v50h-25c-11.05,0-20,8.95-20,20v49.48c0,11.03-8.71,20.38-19.74,20.52    c-11.16,0.14-20.26-8.88-20.26-20v-49.48c0-11.03-8.71-20.38-19.74-20.52c-11.16-0.14-20.26,8.88-20.26,20c0,11.04-8.96,20-20,20    c-11.04,0-20-8.96-20-20c0-11.05-8.95-20-20-20h-25v-50C245.666,83.5,204.302,83.5,361,83.5z"/><polygon style="fill:#F4D88E;" points="256,313.5 256,443.5 361,468.666 466,443.5 466,313.5 361,291.333   "/><path style="fill:#804D12;" d="M466,263.5v50h-25c-11.05,0-20,8.95-20,20v49.48c0,11.03-8.71,20.38-19.74,20.52    c-11.16,0.14-20.26-8.88-20.26-20v-49.48c0-11.03-8.71-20.38-19.74-20.52c-11.16-0.14-20.26,8.88-20.26,20c0,11.04-8.96,20-20,20    c-9.789,0-17.247-5.316-20-20c0-11.05-8.95-20-20-20h-25v-50h105H466z"/><path style="fill:#95C7EE;" d="M501,443.5c-11.936,35.828-45.469,60-83.25,60H94.25c-37.77,0-71.31-24.17-83.25-60    C27.187,443.5,482.98,443.5,501,443.5z"/><g><g><path d="M501,433.5h-25v-170c0-5.522-4.478-10-10-10h-95v-170c0-5.522-4.478-10-10-10h-65c0-18.263-12.308-33.695-29.061-38.467      c2.783-12.329,10.843-19.038,11.132-19.462c3.905-3.905,3.905-10.237,0-14.143c-3.906-3.904-10.236-3.904-14.143,0      c-0.589,0.803-14.045,12.095-17.253,33.18C229.104,38.822,216,54.655,216,73.5h-65c-5.522,0-10,4.478-10,10v170H46      c-5.522,0-10,4.478-10,10v170H11c-6.824,0-11.641,6.695-9.487,13.162C14.839,486.639,52.104,513.5,94.245,513.5h323.51      c42.141,0,79.406-26.86,92.732-66.838C512.643,440.187,507.816,433.5,501,433.5z M266,323.5c5.121,0,10.169,0,15,0      c5.514,0,10,4.486,10,10c0,16.429,13.292,30,30,30c16.542,0,30-13.458,30-30c0-5.521,4.477-10,10.001-10      c5.526,0,9.999,4.761,9.999,10.518V383.5c0,17.031,14.021,30.241,30.384,29.997c16.33-0.205,29.616-13.894,29.616-30.515V333.5      c0-5.514,4.486-10,10-10h15v110H266V323.5z M456,303.5h-15c-16.542,0-30,13.458-30,30v49.482c0,5.73-4.427,10.448-9.869,10.517      C395.467,393.518,391,389.028,391,383.5v-49.482c0-16.621-13.286-30.31-29.615-30.515C344.841,303.256,331,316.63,331,333.5      c0,5.514-4.486,10-10,10c-5.727,0-10.019-4.777-9.998-9.819c0-17.083-13.752-30.181-30.002-30.181c-4.831,0-9.879,0-15,0v-30      c10.543,0,179.457,0,190,0V303.5z M256,53.5c11.028,0,20,8.972,20,20h-40C236,62.471,244.972,53.5,256,53.5z M351,93.5v30h-15      c-16.542,0-30,13.458-30,30v49.482c0,5.757-4.473,10.518-10,10.518c-5.513,0-10-4.47-10-10v-49.482      c0-16.621-13.286-30.31-29.615-30.515C239.811,123.268,226,136.65,226,153.5c0,5.514-4.486,10-10,10s-10-4.486-10-10      c0-16.542-13.458-30-30-30h-15v-30H351z M161,143.5h15c5.514,0,10,4.486,10,10c0,16.542,13.458,30,30,30s30-13.458,30-30      c0-5.523,4.48-10,10.001-10c5.532,0,9.999,4.767,9.999,10.518V203.5c0,17.025,14.015,30.241,30.384,29.997      c16.33-0.205,29.616-13.894,29.616-30.515V153.5c0-5.514,4.486-10,10-10h15v110c-10.543,0-179.457,0-190,0V143.5z M246,273.5v30      c-5.121,0-10.169,0-15,0c-16.542,0-30,13.458-30,30v49.482c0,5.73-4.427,10.448-9.869,10.517      C185.413,393.518,181,388.977,181,383.5v-49.482c0-16.698-13.434-30.518-30.007-30.518c-16.548,0-29.993,13.402-29.993,30      c0,5.514-4.486,10-10,10c-5.72,0-10.019-4.769-9.998-9.819c0-17.101-13.767-30.181-30.002-30.181H56v-30      C66.543,273.5,235.456,273.5,246,273.5z M56,323.5h15c5.514,0,10,4.486,10,10c0,16.444,13.308,30,30,30      c16.542,0,30-13.458,30-30c0-5.523,4.48-10,10.001-10c5.532,0,9.999,4.767,9.999,10.518V383.5      c0,16.87,13.842,30.244,30.384,29.997c16.33-0.205,29.616-13.894,29.616-30.515V333.5c0-5.514,4.486-10,10-10      c4.831,0,9.879,0,15,0v110H56V323.5z M417.755,493.5H94.245c-28.649,0-54.467-15.609-67.98-40c15.453,0,437.422,0,459.471,0      C472.222,477.89,446.404,493.5,417.755,493.5z"/></g></g></g></g><g id="Layer_1"/></svg>