<?xml version="1.0" ?><svg viewBox="0 0 60 60" xmlns="http://www.w3.org/2000/svg"><title/><g id="text"><text font-family="MyriadPro-Regular, Myriad Pro" font-size="9" transform="translate(6.76123 -49.60986)"><tspan letter-spacing="-0.01199em"/><tspan x="4.36523" y="0"/><tspan letter-spacing="-0.04096em" x="18.48584" y="0"/><tspan letter-spacing="-0.04503em" x="20.0249" y="0"/><tspan x="24.09277" y="0"/><tspan letter-spacing="0.00401em" x="29.05176" y="0"/><tspan x="32.03076" y="0"/></text></g><g id="colour"><path d="M54.78408,25.57l.214-.18635a1.47621,1.47621,0,0,0-.40765-1.09742c-2.03843-2.21557-5.9013-2.21557-12.31216-2.21557a.486.486,0,0,1-.37711-.176A4.60892,4.60892,0,0,0,38.20141,20a5.6604,5.6604,0,0,0-5.60569,5.69419.70953.70953,0,0,1-.0204.145c-.95807,3.4165-3.62841,4.09978-7.002,4.96946-4.33167,1.11809-10.27366,2.64-16.53166,10.73613A19.309,19.309,0,0,1,4.3532,45.53064c-1.56957,1.04567-2.813,1.8739-2.9761,2.90921A3.29965,3.29965,0,0,0,2.33517,50.821l.0204.03109C1.98182,51,1,51.59753,1,54.68279,1,57.34353,6.06548,58.50307,12.17064,59l-.17331-.176.367-.3624A9.7499,9.7499,0,0,1,14.37212,56.888l1.37592-.68334A44.9303,44.9303,0,0,1,26.52727,54l3.2554,4.36848a9.8945,9.8945,0,0,1,2.55824-1.84288l-1.48808-4.40006.11216-.02066c9.84561-1.9982,13.86132-6.05658,13.86132-13.987a.50865.50865,0,0,1,.50961-.51765c4.78013,0,8.77544-4.63822,9.53985-10.78795C55,26,55,26,54.78408,25.57Z" fill="#54271c"/><path d="M54.99811,25.43195a1.49714,1.49714,0,0,0-.40765-1.10724c-2.03845-2.23547-5.90131-2.23547-12.31219-2.23547a.48427.48427,0,0,1-.37708-.17767c-1.009-1.149-2.1474-2.55829-3.69977-1.91156C34.98126,21.34143,33.30365,21.8858,33,23c-.25848.37769-1,1.51758-1,1a9.17427,9.17427,0,0,1-6.4267,6.9057c-4.33167,1.12811-10.27368,2.66376-16.53168,10.83258A19.35457,19.35457,0,0,1,4.35321,45.76c-1.56958,1.05505-2.813,1.89075-2.97614,2.9353A2.27911,2.27911,0,0,0,1.64911,50c.48114-.38733,1.06238-.78162,1.7041-1.213C4.882,47.75281,8.46759,45.7101,10,44c6.95837-7.76526,10.24164-8.93921,14.5733-10.06732C27.9469,33.05511,33,31,34,28s2.10162-4,4-4c1.6817,0,1.89215-.21051,2.90118.93848a.48408.48408,0,0,0,.37708.17767c6.41089,0,10.27374,0,12.31219,2.23547a1.49728,1.49728,0,0,1,.40765,1.1073l-.21405.188c.21594.434.21594.434.09174,1.25348-.06738.54675-.16833,1.07654-.28418,1.59747a15.9577,15.9577,0,0,0,1.28418-4.62439C55,26.05389,55,26.05389,54.78406,25.62Z" fill="#662e23"/><path d="M24.96,50.12819,27,54.07633h-.47A46.45443,46.45443,0,0,0,15.75,56.2s-5.08-1.83411-4.38-2.22986l1.38-.66606Z" fill="#472119"/><path d="M55,27.04773c-.77,5.9366-4.88,11.19754-9.66,11.19754a.4991.4991,0,0,0-.51.502c0,7.65488-4.02,11.574-13.87,13.495l-.11.029.15-.12549L28.6,49.2208c9.38-1.96921,13.23-5.87869,13.23-13.36948a.4991.4991,0,0,1,.51-.502C47.12,35.34935,55.12,26.26583,55,27.04773Z" fill="#472119"/><path d="M20.86,57.46535,22,59c-2.7-.02672-5.59-.10678-8.32-.347a8.8349,8.8349,0,0,1,2.55-2.28194l.32.12014.08-.347A11.9143,11.9143,0,0,1,22,55.01l-1.14,1.52121A.80213.80213,0,0,0,20.86,57.46535Z" fill="#472119"/><path d="M37.86,57.46535,39,59H30.5l-.03-.06671.09-.13349C33.05,55.49039,36.22,55.06336,39,55.01l-1.14,1.52121A.80213.80213,0,0,0,37.86,57.46535Z" fill="#472119"/><path d="M56.86,51.46535,58,53H49.42l.14-.2002C52.05,49.49039,55.22,49.06336,58,49.01l-1.14,1.52121A.80213.80213,0,0,0,56.86,51.46535Z" fill="#472119"/><path d="M50.33,50.172a9.62039,9.62039,0,0,0-1.81,1.52686L48.23,52,42,47.215A10.75015,10.75015,0,0,0,43.59,45Z" fill="#472119"/></g><g data-name="Layer 1" id="Layer_1"><path d="M41,26a3,3,0,1,0-3,3A3.00328,3.00328,0,0,0,41,26Zm-3,1a1,1,0,1,1,1-1A1.00068,1.00068,0,0,1,38,27Z"/><path d="M58.41406,51l1.293-1.293A.99991.99991,0,0,0,59,48a18.47505,18.47505,0,0,0-7.50812,1.12286l-6.68945-4.7782a14.90342,14.90342,0,0,0,1.17706-5.39935c5.39355-.60645,9.70508-6.17285,10.00391-13.16992a2.9935,2.9935,0,0,0-.80273-2.15625C52.79,21.05762,48.87207,21.001,42.43652,21A5.84264,5.84264,0,0,0,38,19a7.00755,7.00755,0,0,0-6.998,6.84961c-.7002,2.26074-2.38184,2.78125-5.75684,3.63574C20.78223,30.61621,14.6709,32.16406,8.21875,40.375a17.44443,17.44443,0,0,1-4.25586,3.5332C2.18848,45.0752.65625,46.083.38965,47.73535a4.27649,4.27649,0,0,0,1.0307,3.16046A4.47428,4.47428,0,0,0,0,54c0,4.26172,6.66309,6,23,6a.99991.99991,0,0,0,.707-1.707L22.41406,57l1.12274-1.12274,2.92773-.95251,2.6712,4.57916A1.00072,1.00072,0,0,0,30,60H40a.99991.99991,0,0,0,.707-1.707L39.41406,57l1.293-1.293A.99991.99991,0,0,0,40,54a20.46837,20.46837,0,0,0-6.60193.77692l-1.25043-2.00824A21.91025,21.91025,0,0,0,41.539,48.64545l-.12006.168,7,5A.9995.9995,0,0,0,49,54H59a.99991.99991,0,0,0,.707-1.707ZM14.77734,57.80371a10.82877,10.82877,0,0,1,5.75684-1.75293L20.293,56.293a.99964.99964,0,0,0,0,1.41406l.27832.27832Q17.40723,57.94727,14.77734,57.80371ZM37.293,57.707l.293.293H31.51172a10.59612,10.59612,0,0,1,6.02246-1.94922L37.293,56.293A.99964.99964,0,0,0,37.293,57.707ZM31.02771,50.97l-1.71912-2.761a17.54134,17.54134,0,0,0,3.89062-4.88672,7.17068,7.17068,0,0,1,3.248-3.42773,1.00012,1.00012,0,0,0-.89453-1.78906,9.08377,9.08377,0,0,0-4.08105,4.209,15.51117,15.51117,0,0,1-4.09668,4.9043.99983.99983,0,0,0-.22363,1.30957L31.54907,55.59a10.12556,10.12556,0,0,0-1.69263,1.17859l-5.56738-9.543a17.51441,17.51441,0,0,0,3.91016-4.90332,7.17068,7.17068,0,0,1,3.248-3.42773,1.00012,1.00012,0,0,0-.89453-1.78906,9.08377,9.08377,0,0,0-4.08105,4.209,15.51117,15.51117,0,0,1-4.09668,4.9043,1.00215,1.00215,0,0,0-.23926,1.28516l3.29736,5.65265-2.59326.84363a19.01124,19.01124,0,0,0-6.90015.94232l-2.67017-.76282c4.10938-1.03223,6.31543-2.46289,6.85547-4.40625.76074-2.73828-1.99707-5.46875-4.48438-7.542a1.00054,1.00054,0,1,0-1.28125,1.53711c2.8877,2.40527,4.17871,4.24609,3.83887,5.46973-.25391.91113-1.80469,2.6123-9.35059,3.77344a1.00016,1.00016,0,0,0-.12207,1.9502L13.439,56.30859A10.31262,10.31262,0,0,0,12.293,57.293a.995.995,0,0,0-.2168.32422C5.37988,57.0459,2,55.83594,2,54c0-2.36523,4.92773-5,12-5a1,1,0,0,0,0-2c-4.52893,0-8.48267,1.0271-11.02527,2.64667a2.4155,2.4155,0,0,1-.61047-1.593c.127-.7832,1.31836-1.56738,2.69823-2.47461a19.34222,19.34222,0,0,0,4.72365-3.96094c6.03613-7.68262,11.76562-9.13379,15.9502-10.19434,3.32813-.84277,6.20313-1.57129,7.22559-5.14941A1.00084,1.00084,0,0,0,33,26a5.00589,5.00589,0,0,1,5-5,4.00656,4.00656,0,0,1,3.25488,1.667A1.00005,1.00005,0,0,0,42,23c6.15332,0,9.86719,0,11.71875,1.98438a.98692.98692,0,0,1,.233.50348l-.00446.00238a9.70159,9.70159,0,0,1-6.40137,2.64648,14.27991,14.27991,0,0,0-8.127,3.0498.99968.99968,0,1,0,1.16211,1.627,12.42268,12.42268,0,0,1,7.14746-2.68555,11.20972,11.20972,0,0,0,5.9433-1.93567C52.61878,33.29,49.11823,37,45,37a.99942.99942,0,0,0-1,1C44,45.31207,40.2323,49.07928,31.02771,50.97Zm17.28088.30731-5.45428-3.89563a11.5165,11.5165,0,0,0,.98364-1.269l5.732,4.0943A10.32207,10.32207,0,0,0,48.30859,51.27734ZM50.51172,52a10.59612,10.59612,0,0,1,6.02246-1.94922L56.293,50.293a.99964.99964,0,0,0,0,1.41406l.293.293Z"/></g></svg>