<svg xmlns="http://www.w3.org/2000/svg" viewBox="0 0 58.1 72"><defs><style>.cls-1{fill:#ffb229;}.cls-2{fill:#ef476f;}.cls-3{fill:#d82356;}.cls-4{fill:#ffd166;}.cls-5{fill:#fff3dc;}.cls-6{fill:#ffddab;}</style></defs><title>Chocolate</title><g id="Capa_2" data-name="Capa 2"><g id="Layer_1" data-name="Layer 1"><g id="Chocolate"><path class="cls-1" d="M58.1,35V31a4,4,0,0,0-4-4h0v8Z"/><path class="cls-1" d="M6.1,27V21a4,4,0,0,1,4-4h0V27Z"/><path class="cls-2" d="M54.1,72h-44V4a4,4,0,0,1,4-4h36a4,4,0,0,1,4,4Z"/><path class="cls-3" d="M22.1,17h-6a.94.94,0,0,1-1-1V6a.94.94,0,0,1,1-1h6a.94.94,0,0,1,1,1V16A1,1,0,0,1,22.1,17Z"/><path class="cls-3" d="M35.1,17h-6a.94.94,0,0,1-1-1V6a.94.94,0,0,1,1-1h6a.94.94,0,0,1,1,1V16A1,1,0,0,1,35.1,17Z"/><path class="cls-3" d="M48.1,17h-6a.94.94,0,0,1-1-1V6a.94.94,0,0,1,1-1h6a.94.94,0,0,1,1,1V16A1,1,0,0,1,48.1,17Z"/><path class="cls-3" d="M22.1,34h-6a.94.94,0,0,1-1-1V23a.94.94,0,0,1,1-1h6a.94.94,0,0,1,1,1V33A1,1,0,0,1,22.1,34Z"/><path class="cls-3" d="M35.1,34h-6a.94.94,0,0,1-1-1V23a.94.94,0,0,1,1-1h6a.94.94,0,0,1,1,1V33A1,1,0,0,1,35.1,34Z"/><path class="cls-3" d="M48.1,34h-6a.94.94,0,0,1-1-1V23a.94.94,0,0,1,1-1h6a.94.94,0,0,1,1,1V33A1,1,0,0,1,48.1,34Z"/><path class="cls-1" d="M54.1,72h-44a4,4,0,0,1-4-4V25l52,10V68A4,4,0,0,1,54.1,72Z"/><path class="cls-4" d="M55.1,34.4,6.1,25V68a3.75,3.75,0,0,0,1.4,3H51.1a4,4,0,0,0,4-4Z"/><path class="cls-5" d="M6.1,25a35.82,35.82,0,0,0-6,18h52c2.1-5.9,6-8,6-8Z"/><path class="cls-6" d="M54.4,34.3A16.38,16.38,0,0,0,50.1,41H.2c-.1.7-.1,1.3-.2,2H52c2.1-5.9,6-8,6-8Z"/><path class="cls-3" d="M32.1,49.5a5.87,5.87,0,0,0-8.3,8.3l.7.7L28,62l4.1,4.1L36.2,62l2.6-2.6,1.6-1.6a5.87,5.87,0,0,0-8.3-8.3Z"/><path class="cls-2" d="M36.8,57.4l1.6-1.6a5.92,5.92,0,0,0,.9-7.1,5.63,5.63,0,0,0-7.1.9,5.87,5.87,0,0,0-8.3,8.3l.4.4,1.8,1.8,2,2,2.1,2.1,4.1-4.1Z"/></g></g></g></svg>