<?xml version="1.0" ?><svg viewBox="0 0 32 32" xmlns="http://www.w3.org/2000/svg"><defs><style>.cls-1{fill:#ff704c;}.cls-2{fill:#e55f45;}.cls-3{fill:#a96555;}.cls-4{fill:#8e5449;}.cls-5{fill:#844c3e;}.cls-6{fill:#683b32;}.cls-7{fill:#ffa97d;}.cls-8{fill:#e59673;}.cls-9{fill:#ffd5aa;}.cls-10{fill:#e5b48b;}.cls-11{fill:#562419;}.cls-12{fill:#713220;}</style></defs><title/><g data-name="chocolate 10" id="chocolate_10"><path class="cls-1" d="M27.65,15.6a1,1,0,0,0-.8-.23L16,17,4.85,18.77a1,1,0,0,0-.85,1V29a1,1,0,0,0,1,1H27a1,1,0,0,0,1-1V16.36A1,1,0,0,0,27.65,15.6Z"/><path class="cls-2" d="M27.65,15.6a1,1,0,0,0-.8-.23L16,17V30H27a1,1,0,0,0,1-1V16.36A1,1,0,0,0,27.65,15.6Z"/><path class="cls-3" d="M27,2H5A1,1,0,0,0,4,3V16.63a1,1,0,0,0,.35.76,1,1,0,0,0,.65.24h.15L16,16l11.15-1.7a1,1,0,0,0,.85-1V3A1,1,0,0,0,27,2Z"/><path class="cls-4" d="M27,2H16V16l11.15-1.7a1,1,0,0,0,.85-1V3A1,1,0,0,0,27,2Z"/><path class="cls-5" d="M5,2A1,1,0,0,0,4,3V16.63a1,1,0,0,0,2,0V12h9v3a1,1,0,0,0,1,1V2Zm10,8H6V4h9Z"/><path class="cls-6" d="M27,2H16V16a1,1,0,0,0,1-1V12h9v1.27a1,1,0,0,0,2,0V3A1,1,0,0,0,27,2Zm-1,8H17V4h9Z"/><path class="cls-7" d="M29.13,12.84a2.51,2.51,0,0,0-2-.57L16,14,4.1,15.82A2.47,2.47,0,0,0,2,18.27a2.5,2.5,0,0,0,.87,1.89,2.44,2.44,0,0,0,1.61.59,2.42,2.42,0,0,0,.38,0L16,19l11.9-1.83A2.47,2.47,0,0,0,30,14.73,2.5,2.5,0,0,0,29.13,12.84Z"/><path class="cls-8" d="M29.13,12.84a2.51,2.51,0,0,0-2-.57L16,14v5l11.9-1.83A2.47,2.47,0,0,0,30,14.73,2.5,2.5,0,0,0,29.13,12.84Z"/><path class="cls-9" d="M19.44,24.13a1,1,0,0,0-1.36.47.61.61,0,0,1-.45.29.58.58,0,0,1-.5-.18l-.42-.42a1,1,0,0,0-1.42,0l-.42.42a.59.59,0,0,1-.53.17.56.56,0,0,1-.44-.33h0a1,1,0,0,0-1.78.9A2.62,2.62,0,0,0,14,26.86a2.66,2.66,0,0,0,2-.48h0a2.62,2.62,0,0,0,1.55.51,1.83,1.83,0,0,0,.33,0,2.56,2.56,0,0,0,1.92-1.25l.09-.17A1,1,0,0,0,19.44,24.13Z"/><path class="cls-10" d="M19.44,24.13a1,1,0,0,0-1.36.47.61.61,0,0,1-.45.29.58.58,0,0,1-.5-.18l-.42-.42A1,1,0,0,0,16,24v2.38a2.62,2.62,0,0,0,1.55.51,1.83,1.83,0,0,0,.33,0,2.56,2.56,0,0,0,1.92-1.25l.09-.17A1,1,0,0,0,19.44,24.13Z"/><path class="cls-11" d="M21,23a1.05,1.05,0,0,1-.71-.29,1,1,0,0,1,0-1.42A1,1,0,1,1,21,23Z"/><path class="cls-12" d="M11,23a1,1,0,0,1-.71-.29,1,1,0,0,1,0-1.42,1,1,0,0,1,1.09-.21,1.15,1.15,0,0,1,.33.21A1,1,0,0,1,11,23Z"/></g></svg>