<?xml version="1.0" ?><svg xmlns="http://www.w3.org/2000/svg" xmlns:xlink="http://www.w3.org/1999/xlink" version="1.1" viewBox="0 0 512 512" style="enable-background:new 0 0 512 512;" xml:space="preserve"><g id="_x31_3_x2C__Chocolate_x2C__Food_and_Restaurant_x2C__Chocolate_Bar_x2C__Dessert_x2C__Chocolate"><g><path style="fill:#95C7EE;" d="M126,335.5v111.8c0,29.66,24.04,53.7,53.7,53.7h152.6c29.66,0,53.7-24.04,53.7-53.7V335.5H126z"/><path style="fill:#B9741B;" d="M351,11H161c-16.57,0-30,13.43-30,30v270c118.638,0,133.172,0,250,0V41C381,24.43,367.57,11,351,11    z"/><rect x="281" y="181" style="fill:#804D12;" width="50" height="70"/><rect x="281" y="61" style="fill:#804D12;" width="50" height="70"/><rect x="181" y="181" style="fill:#804D12;" width="50" height="70"/><rect x="181" y="61" style="fill:#804D12;" width="50" height="70"/><path style="fill:#F2D137;" d="M386,375.5c-15.521,3.162-30-8.726-30-24.5c0,13.81-11.19,25-25,25s-25-11.19-25-25    c0,13.81-11.19,25-25,25s-25-11.19-25-25c0,13.81-11.19,25-25,25s-25-11.19-25-25c0,13.81-11.19,25-25,25s-25-11.19-25-25    c0,15.776-14.468,27.664-30,24.5c-11.43-2.32-20-12.43-20-24.5v-50c65.113,0,235.953,0,300,0v50    C406,363.1,397.41,373.18,386,375.5z"/><g><g><path d="M231,51h-50c-5.522,0-10,4.478-10,10v70c0,5.522,4.478,10,10,10h50c5.522,0,10-4.478,10-10V61      C241,55.478,236.522,51,231,51z M221,121h-30V71h30V121z"/><path d="M331,51h-50c-5.522,0-10,4.478-10,10v70c0,5.522,4.478,10,10,10h50c5.522,0,10-4.478,10-10V61      C341,55.478,336.522,51,331,51z M321,121h-30V71h30V121z"/><path d="M231,171h-50c-5.522,0-10,4.478-10,10v70c0,5.522,4.478,10,10,10h50c5.522,0,10-4.478,10-10v-70      C241,175.478,236.522,171,231,171z M221,241h-30v-50h30V241z"/><path d="M331,171h-50c-5.522,0-10,4.478-10,10v70c0,5.522,4.478,10,10,10h50c5.522,0,10-4.478,10-10v-70      C341,175.478,336.522,171,331,171z M321,241h-30v-50h30V241z"/><path d="M406,291h-15V41c0-22.056-17.944-40-40-40H161c-22.056,0-40,17.944-40,40v250h-15c-5.522,0-10,4.478-10,10v50      c0,13.933,8.186,25.988,20,31.616V447.3c0,35.124,28.576,63.7,63.7,63.7h152.6c35.124,0,63.7-28.576,63.7-63.7v-64.684      c11.814-5.628,20-17.682,20-31.616v-50C416,295.478,411.522,291,406,291z M141,41c0-11.028,8.972-20,20-20h190      c11.028,0,20,8.972,20,20v250c-31.931,0-208.274,0-230,0V41z M332.3,491H179.7c-24.097,0-43.7-19.604-43.7-43.7v-61.664      c7.781-1.118,14.746-4.798,20-10.164c13.733,14.026,36.243,14.051,50,0c13.733,14.026,36.243,14.051,50,0      c13.733,14.026,36.243,14.051,50,0c13.733,14.026,36.243,14.051,50,0c5.254,5.366,12.219,9.046,20,10.164V447.3      C376,471.396,356.396,491,332.3,491z M396,351c0,8.271-6.729,15-15,15s-15-6.729-15-15c0-5.522-4.478-10-10-10s-10,4.478-10,10      c0,8.271-6.729,15-15,15s-15-6.729-15-15c0-5.522-4.478-10-10-10s-10,4.478-10,10c0,8.271-6.729,15-15,15s-15-6.729-15-15      c0-5.522-4.478-10-10-10s-10,4.478-10,10c0,8.271-6.729,15-15,15s-15-6.729-15-15c0-5.522-4.478-10-10-10s-10,4.478-10,10      c0,8.271-6.729,15-15,15s-15-6.729-15-15c0-5.522-4.478-10-10-10s-10,4.478-10,10c0,8.271-6.729,15-15,15s-15-6.729-15-15v-40      c130.303,0,146.895,0,280,0V351z"/></g></g></g></g><g id="Layer_1"/></svg>